<svg fill="none" height="250" viewBox="0 0 387 250" width="387" xmlns="http://www.w3.org/2000/svg" xmlns:xlink="http://www.w3.org/1999/xlink"><mask id="a" height="250" maskUnits="userSpaceOnUse" width="387" x="0" y="0"><rect fill="#cce9ff" height="250" rx="10" width="387"/></mask><rect fill="#cce9ff" height="250" rx="10" width="387"/><g mask="url(#a)"><path d="m64.5676 47.2064s-8.9443 13.3968-7.8451 18.1782c1.0995 4.7812 5.1759 5.0652 5.1759 5.0652s-6.3145 8.0309 1.3695 10.9137c7.6844 2.8825 11.5965 1.0775 11.5965 1.0775s19.7362-29.0543 10.1265-35.3505c-9.6098-6.2963-11.9466-12.2206-20.4233.1159z" fill="#11405c"/><path d="m116.835 67.3498c0 2.07 3.41 13.29 3.19 15.24.01.01 0 .01 0 .02-1.62 13.67-8.86 23.9402-21.6598 23.9402-14.64 0-31-13.4302-31-30.0002 0-6.22.75-11.16 2.06-15.06 5.03-14.94 18.34-14.94 29.94-14.94 14.6398 0 17.4698 4.23 17.4698 20.8z" fill="#ffe3ca"/><path d="m153.396 243.55s37.1 74.19 37.71 82.23-26.35 137.79-26.35 137.79h-28.97s6.8-75.16 17.23-102.53c1.214-3.191 1.63-6.631 1.21-10.02-.42-3.388-1.663-6.622-3.62-9.42-11.97-17.11-32.11-48.83-29.57-57.86 3.3-11.75-4.12-36.48-4.12-36.48z" fill="#1a8ce2"/><path d="m146.875 245.827c-2.02 2.7-12.14 24.27-12.14 24.27s5.39 74.16 0 92.37c-5.39 18.2-60.6098 121.36-60.6098 121.36h-31.76s22.06-80.1 46.89-110.65c4.66-5.73 6.2901-13.34 4.2901-20.45-10.35-36.71-21.2301-87.04-19.1401-106.9 32.0098-11.46 72.4698 0 72.4698 0z" fill="#2a94f4"/><path d="m135.477 122.065c-10.604-12.134-22.181-15.076-27.781-4.703-5.596 10.363 1.091 53.254 31.802 77.738 30.71 24.483 93.858-40.631 93.858-40.631l-14.538-12.362s-30.143 25.963-54.318 29.307c-24.175 3.343-29.023-49.349-29.023-49.349z" fill="#ff640c"/><path d="m89.8658 107.92s-35.01-1.65-38.96 6.25 15.63 141.94 22.59 149.84c20.29.99 75.6802-6.63 87.0402-17.99-2.47-18.76-19.75-131.85-25.68-134.81s-44.9902-3.29-44.9902-3.29z" fill="#fd5c00"/><path d="m120.025 82.5825c-1.62 13.67-8.86 23.9405-21.6596 23.9405-14.64 0-31.34-13.4305-31.34-30.0005 0-6.22 1.2942-14.6254 2.6042-18.5254l1.8401-1.6899.28-.9801s.6957 23.6754 1.6357 27.4454c.95 3.76 19.21 5.29 21.44 8.78 1.81-4.6 4.56-7.81 12.2596-8.09 4.43-.16 8.28 4.3 8.84 5.83 1.08.29 2.52-3.43 4.1-6.71z" fill="#11405c"/><path d="m249.348 132.023c-1.648-.396-9.647.765-17.879 3.195l-.011.008c-6.37 3.856-8.668 7.609-9.032 9.485-.373 1.874 8.872 7.723 8.872 7.723s13.543-3.765 15.56-5.589c2.025-1.811 3.553-13.6 3.553-13.6l.002-.01c-.205-.653-.549-1.085-1.065-1.212z" fill="#fcd2b1"/><path d="m81.6352 47.0992s38.7268 26.0863 37.9828 6.5358c-.743-19.5497-13.084-15.1988-13.084-15.1988s8.898-1.7823 5.277-6.0724c-3.62-4.2904-10.099 3.2687-28.165-.6833-13.5499-2.9634-20.2815 11.9732-20.0091 23.3783.0907 3.8018 1.8529 12.0589 2.6138 9.4344.963-3.3213 1.5963-5.5907 4.2461-6.4942.5174-.1765 1.5459 4.9853 2.0947 4.754 4.9187-2.0732 10.6508-6.4876 9.0437-15.6538z" fill="#11405c"/><path d="m165.611 114.87 90.447-17.4619 89.91 14.8869-89.049 28.867z" fill="#3f8ae0"/><path d="m257.769 232.937 88.113-19.785.047-100.89-89.205 17.251z" fill="#387abe"/><path d="m206.09 107.05 28.292-5.295 79.619 16.191.634 20.269-11.156 3.221-2.003-3.339-1.155 4.66-8.523 2.77.078-21.693z" fill="#cce9ff" opacity=".5"/><path d="m300.041 223.468.21-15.734 5.461-.956 1.168 1.944.671-2.678 14.306-3.773 1.405 15.969z" fill="#cce9ff" opacity=".5"/><path d="m165.542 114.937 1.177 103.637 91.08 14.44-1.044-103.405z" fill="#3f8ae0"/><path d="m165.612 114.921 91.174 14.664s-28.568 2.823-47.448-.88-43.726-13.784-43.726-13.784z" fill="#387abe"/><path d="m202.72 195.579 3.21-11.003s5.677-3.276 7.994-1.811c3.161-4.057 3.691-8.775 5.452-11.348 1.243-1.821 6.272 4.269 5.823 6.505-.66 3.284 3.454 10.832 2.947 13.607-1.399 7.675-18.337 14.706-18.337 14.706z" fill="#ffe3ca"/><path d="m78.6043 150.319c-4.277-15.545-13.4231-23.215-22.9756-16.318-9.5432 6.9 5 53.998 26.5726 82.972 28.4277 28.026 129.6427-8.978 129.6427-8.978l-10.323-16.104s-46.392 18.108-77.488 12.796c-28.9043 0-45.4287-54.368-45.4287-54.368z" fill="#ff640c"/></g></svg>