<svg fill="none" height="250" viewBox="0 0 386 250" width="386" xmlns="http://www.w3.org/2000/svg" xmlns:xlink="http://www.w3.org/1999/xlink"><clipPath id="a"><path d="m0 0h386v250h-386z"/></clipPath><g clip-path="url(#a)"><rect fill="#cce9ff" height="250" rx="10" width="387" x="-.486328"/><rect fill="#feccb0" height="181.557" rx="9.12349" width="137.765" x="118.732" y="45.9326"/><rect fill="#fff" height="165.135" rx="4.56174" width="121.342" x="126.943" y="54.1436"/><path d="m150.28 193.733c5.087 0 9.211-4.124 9.211-9.211s-4.124-9.211-9.211-9.211c-5.088 0-9.212 4.124-9.212 9.211s4.124 9.211 9.212 9.211z" fill="#feccb0"/><path d="m155.136 187.759-3.625-.525-2.508 2.668-.616-3.602-3.328-1.551 3.26-1.71.433-3.625 2.622 2.554 3.603-.707-1.619 3.283z" fill="#fd5c00"/><path d="m150.28 161.555c5.087 0 9.211-4.124 9.211-9.211s-4.124-9.211-9.211-9.211c-5.088 0-9.212 4.124-9.212 9.211s4.124 9.211 9.212 9.211z" fill="#feccb0"/><path d="m155.136 155.581-3.625-.524-2.508 2.667-.616-3.602-3.328-1.55 3.26-1.71.433-3.626 2.622 2.554 3.603-.707-1.619 3.283z" fill="#fd5c00"/><path d="m149.84 130.044c5.087 0 9.211-4.124 9.211-9.212 0-5.087-4.124-9.211-9.211-9.211s-9.211 4.124-9.211 9.211c0 5.088 4.124 9.212 9.211 9.212z" fill="#feccb0"/><path d="m154.697 124.069-3.625-.524-2.508 2.668-.616-3.603-3.329-1.55 3.261-1.71.433-3.625 2.622 2.553 3.602-.707-1.619 3.284z" fill="#fd5c00"/><path d="m149.84 98.1119c5.087 0 9.211-4.124 9.211-9.2112 0-5.0873-4.124-9.2112-9.211-9.2112s-9.211 4.1239-9.211 9.2112c0 5.0872 4.124 9.2112 9.211 9.2112z" fill="#feccb0"/><path d="m154.697 92.1378-3.625-.5244-2.508 2.6676-.616-3.6024-3.329-1.5504 3.261-1.71.433-3.6252 2.622 2.5536 3.602-.7068-1.619 3.2832z" fill="#fd5c00"/><g fill="#3f8ae0"><path d="m216.475 53.28c0 2.0155-1.634 3.6494-3.649 3.6494h-45.739c-2.016 0-3.649-1.6339-3.649-3.6494v-10.0563c0-2.0155 1.633-3.6494 3.649-3.6494h8.117c1.991 0 3.556-1.639 4.219-3.5166 1.533-4.3402 5.676-7.46 10.533-7.46s9 3.1198 10.533 7.46c.663 1.8776 2.228 3.5166 4.22 3.5166h8.117c2.015 0 3.649 1.6339 3.649 3.6494zm-23.386-8.2601 2.317-3.4177c.277-.4083.468-.8684.562-1.3527l.265-1.3616c.033-.1694.027-.3379-.036-.4984-.064-.1629-.159-.3909-.261-.6357-.373-.8932-.793-1.9222-1.493-2.5907-.488-.467-1.255-.9547-2.538-1.2549-1.582-.3698-3.223-.0581-4.654.7101-.787.4225-2.171 1.7314-2.646 2.4884-.328.5226-.642 1.0256-.64 1.0706v1.6855c0 .7302.219 1.4437.629 2.0481l1.023 1.5077c.679 1.0016 1.81 1.6013 3.02 1.6013z"/><path d="m189.955 46.3453c-3.626 0-6.58-2.9497-6.58-6.5804s2.95-6.5803 6.58-6.5803c3.631 0 6.581 2.9496 6.581 6.5803s-2.955 6.5804-6.581 6.5804zm0-11.747c-2.851 0-5.171 2.3203-5.171 5.1713 0 2.8511 2.32 5.1713 5.171 5.1713s5.172-2.3202 5.172-5.1713c0-2.851-2.321-5.1713-5.172-5.1713z"/><path d="m234.026 180.532h-64.69c-.203 0-.398-.08-.541-.224-.144-.144-.225-.338-.225-.541s.081-.398.225-.542c.143-.143.338-.224.541-.224h64.69c.203 0 .398.081.542.224.143.144.224.339.224.542s-.081.397-.224.541c-.144.144-.339.224-.542.224zm0 3.373h-64.69c-.203 0-.398-.081-.541-.225-.144-.143-.225-.338-.225-.541s.081-.398.225-.541c.143-.144.338-.225.541-.225h64.69c.203 0 .398.081.542.225.143.143.224.338.224.541s-.081.398-.224.541c-.144.144-.339.225-.542.225zm0 3.367h-64.69c-.203 0-.398-.08-.541-.224-.144-.144-.225-.338-.225-.541s.081-.398.225-.542c.143-.143.338-.224.541-.224h64.69c.203 0 .398.081.542.224.143.144.224.339.224.542s-.081.397-.224.541c-.144.144-.339.224-.542.224zm0 3.373h-64.69c-.203 0-.398-.081-.541-.225-.144-.143-.225-.338-.225-.541s.081-.398.225-.541c.143-.144.338-.225.541-.225h64.69c.203 0 .398.081.542.225.143.143.224.338.224.541s-.081.398-.224.541c-.144.144-.339.225-.542.225z"/><path d="m234.026 148.572h-64.691c-.203 0-.397-.08-.541-.224-.143-.144-.224-.338-.224-.541s.081-.398.224-.542c.144-.143.338-.224.541-.224h64.691c.203 0 .398.081.541.224.144.144.225.339.225.542s-.081.397-.225.541c-.143.144-.338.224-.541.224zm0 3.373h-64.691c-.203 0-.397-.081-.541-.225-.143-.143-.224-.338-.224-.541s.081-.398.224-.541c.144-.144.338-.225.541-.225h64.691c.203 0 .398.081.541.225.144.143.225.338.225.541s-.081.398-.225.541c-.143.144-.338.225-.541.225zm0 3.367h-64.691c-.203 0-.397-.08-.541-.224-.143-.144-.224-.338-.224-.541s.081-.398.224-.542c.144-.143.338-.224.541-.224h64.691c.203 0 .398.081.541.224.144.144.225.339.225.542s-.081.397-.225.541c-.143.144-.338.224-.541.224zm0 3.373h-64.691c-.203 0-.397-.081-.541-.225-.143-.143-.224-.338-.224-.541s.081-.398.224-.541c.144-.144.338-.225.541-.225h64.691c.203 0 .398.081.541.225.144.143.225.338.225.541s-.081.398-.225.541c-.143.144-.338.225-.541.225zm-73.986 36.302h-20.323v-20.323h20.323zm-19.854-.47h19.385v-19.384h-19.385z"/><path d="m234.026 116.607h-64.691c-.203 0-.397-.08-.541-.224-.143-.143-.224-.338-.224-.541s.081-.398.224-.542c.144-.143.338-.224.541-.224h64.691c.203 0 .398.081.541.224.144.144.225.339.225.542s-.081.398-.225.541c-.143.144-.338.224-.541.224zm0 3.373h-64.691c-.203 0-.397-.081-.541-.224-.143-.144-.224-.339-.224-.542s.081-.398.224-.541c.144-.144.338-.224.541-.224h64.691c.203 0 .398.08.541.224.144.143.225.338.225.541s-.081.398-.225.542c-.143.143-.338.224-.541.224zm0 3.367h-64.691c-.203 0-.397-.08-.541-.224-.143-.143-.224-.338-.224-.541s.081-.398.224-.542c.144-.143.338-.224.541-.224h64.691c.203 0 .398.081.541.224.144.144.225.339.225.542s-.081.398-.225.541c-.143.144-.338.224-.541.224zm0 3.373h-64.691c-.203 0-.397-.081-.541-.224-.143-.144-.224-.339-.224-.542s.081-.398.224-.541c.144-.144.338-.224.541-.224h64.691c.203 0 .398.08.541.224.144.143.225.338.225.541s-.081.398-.225.542c-.143.143-.338.224-.541.224zm-73.986 36.302h-20.323v-20.323h20.323zm-19.854-.469h19.385v-19.385h-19.385z"/><path d="m234.026 84.6464h-64.691c-.203 0-.397-.0806-.541-.2242-.143-.1436-.224-.3383-.224-.5414 0-.203.081-.3978.224-.5413.144-.1436.338-.2243.541-.2243h64.691c.203 0 .398.0807.541.2243.144.1435.225.3383.225.5413 0 .2031-.081.3978-.225.5414-.143.1436-.338.2242-.541.2242zm0 3.3724h-64.691c-.203 0-.397-.0807-.541-.2242-.143-.1436-.224-.3383-.224-.5414 0-.203.081-.3978.224-.5414.144-.1435.338-.2242.541-.2242h64.691c.203 0 .398.0807.541.2242.144.1436.225.3384.225.5414 0 .2031-.081.3978-.225.5414-.143.1435-.338.2242-.541.2242zm0 3.3677h-64.691c-.203 0-.397-.0807-.541-.2242-.143-.1436-.224-.3384-.224-.5414 0-.2031.081-.3978.224-.5414.144-.1435.338-.2242.541-.2242h64.691c.203 0 .398.0807.541.2242.144.1436.225.3383.225.5414 0 .203-.081.3978-.225.5414-.143.1435-.338.2242-.541.2242zm0 3.3724h-64.691c-.203 0-.397-.0807-.541-.2243-.143-.1435-.224-.3383-.224-.5413 0-.2031.081-.3978.224-.5414.144-.1436.338-.2242.541-.2242h64.691c.203 0 .398.0806.541.2242.144.1436.225.3383.225.5414 0 .203-.081.3978-.225.5413-.143.1436-.338.2243-.541.2243zm-73.986 36.3021h-20.323v-20.323h20.323zm-19.854-.469h19.385v-19.385h-19.385z"/><path d="m160.04 99.0999h-20.323v-20.3235h20.323zm-19.854-.4697h19.385v-19.3841h-19.385z"/></g></g></svg>