<svg fill="none" height="250" viewBox="0 0 387 250" width="387" xmlns="http://www.w3.org/2000/svg" xmlns:xlink="http://www.w3.org/1999/xlink"><clipPath id="a"><path d="m0 0h387v250h-387z"/></clipPath><g clip-path="url(#a)"><rect fill="#cce9ff" height="250" rx="10" width="387" y=".000977"/><path clip-rule="evenodd" d="m242.264 38.5127h-168.7085c-5.8296 0-10.5555 4.7258-10.5555 10.5555v153.0548c0 5.83 4.7259 10.556 10.5555 10.556h232.2215c5.83 0 10.556-4.726 10.556-10.555v-92.149c-3.86.63-8.08-1.037-9.863-5.786-2.818-7.5076-13.277-7.9347-16.698-.682-4.736 10.04-19.903 4.418-16.951-6.2829 2.133-7.7305-6.077-14.2238-13.108-10.3669-9.733 5.339-18.699-8.1245-10.02-15.0463 6.269-5.0004 3.443-15.0797-4.512-16.092-9.64-1.2269-10.335-13.7673-2.917-17.2062z" fill="#fff" fill-rule="evenodd"/><path d="m280.521 16.781c-1.435-7.55827 9.359-10.58451 12.063-3.382 1.953 5.2031 9.201 5.4991 11.572.4726 3.282-6.95805 13.794-3.0617 11.747 4.3544-1.478 5.3575 4.212 9.8575 9.085 7.1846 6.745-3.7001 12.959 5.6306 6.944 10.4276-4.345 3.4654-2.386 10.4506 3.127 11.1522 7.632.9712 7.174 12.1722-.511 12.5179-5.552.2497-8.074 7.0519-4.026 10.8601 5.603 5.2715-1.35 14.0644-7.771 9.8267-4.639-3.0614-10.677.9597-9.641 6.4198 1.435 7.5583-9.359 10.5845-12.063 3.382-1.953-5.2031-9.201-5.4991-11.572-.4726-3.282 6.958-13.794 3.0617-11.747-4.3544 1.478-5.3575-4.212-9.8575-9.085-7.1845-6.745 3.7-12.959-5.6307-6.944-10.4277 4.345-3.4654 2.386-10.4506-3.127-11.1522-7.632-.9712-7.174-12.1722.511-12.5179 5.552-.2497 8.074-7.0519 4.026-10.8601-5.603-5.2715 1.35-14.0644 7.771-9.8267 4.639 3.0614 10.677-.9597 9.641-6.4198z" fill="#3f8ae0"/><path d="m295.191 67.4147c-3.049-.2658-6.395-1.5019-8.644-3.3561l2.6-3.441c2.347 1.6344 4.694 2.7372 7.393 2.7372 3.246 0 4.844-1.4123 4.844-3.7941 0-5.8236-13.588-4.9865-13.588-13.2816 0-4.1027 2.899-7.0169 7.396-7.7207v-4.5018h3.996v4.4122c3.198.3554 5.394 1.7209 7.243 3.441l-2.947 2.957c-1.849-1.4979-3.397-2.3389-5.795-2.3389-2.699 0-4.346 1.2361-4.346 3.5314 0 5.292 13.589 4.236 13.589 13.1492 0 4.1892-2.799 7.2787-7.744 8.0729v4.5446h-3.996z" fill="#fff"/><g fill="#fd5c00"><path d="m194.564 158.843-39.83-3.975 3.128-57.2244 34.583.3423z" fill-opacity=".31"/><path d="m192.445 97.9863 1.663 1.2157 1.058-1.1886 7.47 56.5276-2.986.929-5.086 3.373z" fill-opacity=".92"/><path d="m167.347 105.926c.063.821-.36 1.523-.946 1.568s-1.113-.584-1.176-1.404.361-1.522.946-1.567c.587-.045 1.113.583 1.176 1.403z" fill-opacity=".54"/><path d="m180.708 105.543c.062.796-.349 1.476-.917 1.52-.569.044-1.079-.566-1.14-1.361-.062-.796.349-1.476.917-1.52.569-.044 1.079.566 1.14 1.361z" fill-opacity=".54"/><path d="m165.696 106.017c-.216 2.346-.432 4.691-.647 7.037-.186 2.015-.469 4.056-.386 6.083.15 3.646 2.147 6.579 5.626 7.809 1.765.624 3.673.746 5.527.582 1.388-.123 3.015-.37 3.8-1.672.891-1.476-.214-2.806-1.28-3.814-1.248-1.178-4.024-2.028-4.071-3.998-.032-1.349.932-2.442 1.723-3.426.65-.809 1.262-1.645 1.814-2.524.995-1.585 2.612-3.98 2.237-5.951-.097-.509-.91-.452-.812.063.318 1.673-1.114 3.819-1.959 5.21-.888 1.461-2.078 2.687-2.994 4.119-.689 1.078-1.119 2.456-.569 3.69.55 1.233 1.89 1.766 2.932 2.488.733.508 1.452 1.122 1.992 1.834.904 1.191.331 2.332-.968 2.827-1.626.62-3.827.52-5.503.222-3.83-.683-6.459-3.405-6.675-7.331-.115-2.086.194-4.195.385-6.269.209-2.274.418-4.549.627-6.823.048-.518-.751-.677-.799-.156z"/></g><path d="m233.491 124.472-26.328-5.593-26.327 3.863 25.864 8.919z" fill="#3f8ae0"/><path d="m205.983 158.468-25.624-6.257.476-29.469 25.954 5.523z" fill="#387abe"/><path d="m221.71 121.97-8.237-1.701-23.332 4.3-.284 5.922 3.243 1.002.601-.966.315 1.369 2.476.856.082-6.342z" fill="#cce9ff" opacity=".5"/><path d="m193.679 155.474.015-4.597-1.59-.309-.35.562-.183-.786-4.158-1.18-.487 4.657z" fill="#cce9ff" opacity=".5"/><path d="m233.491 124.473-.846 30.271-26.661 3.724.807-30.203z" fill="#3f8ae0"/><path d="m233.49 124.473-26.701 3.792s8.33.98 13.863 0c5.532-.98 12.838-3.792 12.838-3.792z" fill="#387abe"/><path d="m196.572 131.569-20.831-4.425-20.831 3.056 20.464 7.057z" fill="#3f8ae0"/><path d="m174.809 158.468-20.274-4.951.376-23.317 20.536 4.37z" fill="#387abe"/><path d="m187.252 129.589-6.518-1.346-18.461 3.403-.224 4.685 2.565.793.476-.764.249 1.083 1.959.677.065-5.017z" fill="#cce9ff" opacity=".5"/><path d="m165.072 156.098.012-3.637-1.258-.245-.277.445-.145-.622-3.29-.934-.385 3.685z" fill="#cce9ff" opacity=".5"/><path d="m196.573 131.569-.67 23.952-21.094 2.947.638-23.898z" fill="#3f8ae0"/><path d="m196.573 131.569-21.126 3.001s6.591.775 10.969 0c4.377-.776 10.157-3.001 10.157-3.001z" fill="#387abe"/><path d="m240.355 115.382v-2.553h-11.8l3.403-19.9296h-4.291l-2.836 19.9296h-19.124l1.323-19.9296h-4.319l-.755 19.9296h-19.111l-.756-19.9296h-4.319l1.324 19.9296h-19.125l-2.835-19.9296h-4.292l3.403 19.9296h-11.8v2.553h12.236l2.893 16.943h-13.75v2.553h14.186l3.226 18.896h2.558l-2.688-18.896h17.452l1.254 18.896h2.586l-.717-18.896h17.438l-.716 18.896h2.585l1.254-18.896h17.452l-2.688 18.896h2.558l3.226-18.896h14.187v-2.553h-13.751l2.893-16.943zm-77.612 16.943-2.411-16.943h18.931l1.125 16.943zm20.841 0-.643-16.943h18.918l-.643 16.943zm38.474 0h-17.646l1.125-16.943h18.931z" fill="#2f627c"/><path d="m136.882 95.5602 10.567 57.3398c.442 2.4 2.534 4.142 4.974 4.142h79.95c2.44 0 4.532-1.742 4.974-4.142l10.567-57.3398c.573-3.1086-1.814-5.9752-4.975-5.9752h-101.082c-3.161 0-5.548 2.8666-4.975 5.9752zm10.948-1.0027h89.136c3.161 0 5.548 2.8665 4.975 5.9755l-8.733 47.395c-.443 2.399-2.535 4.142-4.975 4.142h-71.67c-2.44 0-4.533-1.743-4.975-4.142l-8.733-47.395c-.573-3.109 1.814-5.9755 4.975-5.9755z" fill="#11405c"/><path d="m236.192 156.741s-59.171.006-79.139.009c-3.785 0-7.052-2.649-7.835-6.353l-14.997-70.9069-.119-.5074c-.623-2.6443-2.977-4.5171-5.694-4.5292l-20.429-.0912-.249 5.0097 20.043.0992c.763.0039 1.425.5304 1.599 1.2734l17.486 76.5694c-5.689 1.709-9.795 7.075-9.573 13.37.258 7.295 6.489 12.966 13.789 12.966h55.214c.002 0 .005-.001.007-.001h5.285c1.608 0 2.901-1.346 2.816-2.972-.077-1.474-1.499-2.668-2.975-2.668h-5.105c-.009 0-.019-.003-.028-.003h-55.296c-4.301 0-7.991-3.365-8.07-7.666-.08-4.382 3.448-7.959 7.811-7.959h85.299c1.477 0 2.899-1.195 2.976-2.669.085-1.626-1.209-2.971-2.816-2.971z" fill="#2f627c"/><path d="m217.791 187.287c-1.625-2.21-4.244-3.637-7.203-3.637-2.958 0-5.578 1.427-7.203 3.637-1.099 1.485-1.742 3.321-1.742 5.309 0 4.946 3.999 8.945 8.945 8.945s8.957-3.999 8.957-8.945c0-1.988-.655-3.824-1.754-5.309zm-7.203 10.629c-2.935 0-5.309-2.385-5.309-5.32 0-2.923 2.374-5.309 5.309-5.309s5.321 2.386 5.321 5.309c0 2.935-2.386 5.32-5.321 5.32z" fill="#11405c"/><path d="m215.909 192.596c0 2.935-2.386 5.32-5.321 5.32s-5.309-2.385-5.309-5.32c0-2.923 2.374-5.309 5.309-5.309s5.321 2.385 5.321 5.309z" fill="#fff"/><path d="m212.594 192.595c0 1.108-.897 2.009-2.006 2.009-1.104 0-1.998-.901-1.998-2.009 0-1.101.894-2.002 1.998-2.002 1.109 0 2.006.901 2.006 2.002z" fill="#11405c"/><path d="m173.565 187.287c-1.626-2.21-4.245-3.637-7.204-3.637-2.958 0-5.577 1.427-7.203 3.637-1.099 1.485-1.742 3.321-1.742 5.309 0 4.946 3.999 8.945 8.946 8.945 4.946 0 8.957-3.999 8.957-8.945 0-1.988-.655-3.824-1.754-5.309zm-7.203 10.629c-2.936 0-5.309-2.385-5.309-5.32 0-2.923 2.373-5.309 5.309-5.309 2.935 0 5.308 2.386 5.308 5.309 0 2.935-2.373 5.32-5.308 5.32z" fill="#11405c"/><path d="m171.67 192.596c0 2.935-2.373 5.32-5.308 5.32-2.936 0-5.309-2.385-5.309-5.32 0-2.923 2.373-5.309 5.309-5.309 2.935 0 5.308 2.385 5.308 5.309z" fill="#fff"/><path d="m168.365 192.595c0 1.108-.897 2.009-2.005 2.009-1.105 0-1.999-.901-1.999-2.009 0-1.101.894-2.002 1.999-2.002 1.108 0 2.005.901 2.005 2.002z" fill="#11405c"/><path d="m99.0015 78.9876c-.0399.9598.719 1.7346 1.6585 1.7083l20.592-.5775 2.889-.0919c.639-.0205 1.114-.7849.992-1.5867l-.516-3.4102c-.093-.616-.511-1.0731-1.002-1.0897l-22.758-.9385c-.8899-.0366-1.6345.6535-1.6722 1.5624z" fill="#11405c"/></g></svg>