<svg fill="none" height="250" viewBox="0 0 387 250" width="387" xmlns="http://www.w3.org/2000/svg" xmlns:xlink="http://www.w3.org/1999/xlink"><clipPath id="a"><path d="m0 0h387v250h-387z"/></clipPath><g clip-path="url(#a)"><rect fill="#cce9ff" height="250" rx="10" width="387"/><g fill="#e5f2fe"><path d="m152.057 60.9121h23.1441v3.76765h-23.1441z"/><path d="m152.057 189.012h23.1441v3.76765h-23.1441z"/><path d="m152.057 123.347h23.1441v3.76765h-23.1441z"/><path d="m219.336 60.9121h23.1441v3.76765h-23.1441z"/><path d="m219.336 189.012h23.1441v3.76765h-23.1441z"/><path d="m223.104 123.347h23.1441v3.76765h-23.1441z"/><path d="m255.936 104.509h23.1441v3.76765h-23.1441z" transform="matrix(0 -1 1 0 151.427 360.445)"/><path d="m255.936 171.25h23.1441v3.76765h-23.1441z" transform="matrix(0 -1 1 0 84.686 427.186)"/><path d="m126.76 103.971h23.1441v3.76765h-23.1441z" transform="matrix(0 -1 1 0 22.789 230.731)"/><path d="m126.76 171.25h23.1441v3.76765h-23.1441z" transform="matrix(0 -1 1 0 -44.49 298.01)"/></g><path d="m215.348 138.634c1.238-2.054 2.162-4.245 2.762-6.505l4.894-.934.049-5.415.049-5.414-4.865-1.032c-.56-2.27-1.444-4.481-2.643-6.554l2.791-4.118-3.794-3.862-3.784-3.861-4.167 2.712c-2.054-1.238-4.246-2.162-6.506-2.762l-.934-4.8933-5.416-.0491-5.415-.0491-1.032 4.8745c-2.27.56-4.482 1.444-6.555 2.643l-4.119-2.791-3.862 3.793-3.863 3.783 2.713 4.167c-1.238 2.054-2.162 4.245-2.762 6.505l-4.894.934-.049 5.414-.05 5.415 4.875 1.032c.561 2.27 1.445 4.481 2.644 6.554l-2.791 4.117 3.794 3.862 3.793 3.862 4.168-2.712c2.054 1.238 4.245 2.162 6.506 2.761l.934 4.894 5.415.049 5.415.049 1.032-4.874c2.271-.56 4.482-1.444 6.556-2.643l4.118 2.791 3.863-3.793 3.862-3.794zm-31.313-3.842c-5.131-5.228-5.052-13.63.177-18.76 5.228-5.129 13.632-5.051 18.762.177s5.052 13.63-.177 18.759c-5.229 5.13-13.632 5.051-18.762-.176z" fill="#3f8ae0"/><rect fill="#feccb0" height="53.8235" rx="5.38235" width="53.8235" x="102" y="34"/><rect fill="#feccb0" height="53.8235" rx="5.38235" width="53.8235" x="102" y="98.5879"/><rect fill="#feccb0" height="53.8235" rx="5.38235" width="53.8235" x="102" y="163.177"/><rect fill="#feccb0" height="53.8235" rx="5.38235" width="53.8235" x="166.588" y="34"/><rect fill="#feccb0" height="53.8235" rx="5.38235" width="53.8235" x="166.588" y="163.177"/><rect fill="#feccb0" height="53.8235" rx="5.38235" width="53.8235" x="231.176" y="34"/><rect fill="#feccb0" height="53.8235" rx="5.38235" width="53.8235" x="231.176" y="163.177"/><rect fill="#feccb0" height="53.8235" rx="5.38235" width="53.8235" x="231.176" y="98.5879"/></g></svg>