<svg fill="none" height="250" viewBox="0 0 387 250" width="387" xmlns="http://www.w3.org/2000/svg" xmlns:xlink="http://www.w3.org/1999/xlink"><clipPath id="a"><path d="m0 0h387v250h-387z"/></clipPath><g clip-path="url(#a)"><rect fill="#cce9ff" height="250" rx="10" width="387"/><path clip-rule="evenodd" d="m247.753 38.8545h-170.1975c-5.8296 0-10.5555 4.7259-10.5555 10.5555v152.889c0 5.83 4.7259 10.555 10.5555 10.555h232.8885c5.83 0 10.556-4.725 10.556-10.555v-91.559c-3.887.653-8.154-1.015-9.955-5.797-2.833-7.5181-13.319-7.9445-16.753-.691-4.752 10.038-19.982 4.45-17.017-6.2544 2.141-7.7306-6.092-14.2406-13.134-10.3918-9.739 5.3234-18.763-8.1249-10.076-15.0286 6.282-4.9922 3.442-15.0855-4.529-16.0961-10.107-1.2814-10.365-14.9762-1.783-17.6266z" fill="#fff" fill-rule="evenodd"/><path d="m233.628 53c2.149 7.5449 10.721 26.9605-.023 36.2156-3.008 3.2191-11.64 10.7305-15.58 14.0834-4.298 2.851-10.529 10.362-1.075 17.605 11.818 9.054 22.05 11.569 22.05 16.096" stroke="#3f8ae0" stroke-width="1.58333"/><path d="m95.3545 183.457c7.6995-11.775 31.6485-43.273 40.3295-54.303 8.691-11.016 17.851-21.681 27.636-31.7547 4.895-5.0324 9.95-9.9195 15.207-14.577 2.63-2.3288 5.308-4.606 8.037-6.8177 2.739-2.2022 5.529-4.3389 8.386-6.3912 5.703-4.1093 11.682-7.8578 17.968-11.0347 6.281-3.1675 13.014-5.1368 19.911-6.7242l2.171.2392c-6.415 1.8773-13.275 4.2687-19.434 7.5111-6.159 3.2566-12.012 7.0707-17.592 11.2456-2.791 2.0851-5.525 4.2499-8.198 6.485-2.668 2.2397-5.285 4.5497-7.85 6.9066-5.129 4.7185-10.057 9.6572-14.83 14.7411-9.536 10.1769-18.443 20.9359-26.88 32.0359-8.423 11.11-32.132 42.701-39.526 54.481z" fill="#0b4870"/><g fill="#fd5c00"><circle cx="3" cy="3" r="3" transform="matrix(-1 0 0 1 169 98.8545)"/><circle cx="3" cy="3" r="3" transform="matrix(-1 0 0 1 149 120.854)"/><circle cx="3" cy="3" r="3" transform="matrix(-1 0 0 1 130 146.854)"/></g><path d="m284.566 16.8431c-1.439-7.5653 9.368-10.59098 12.077-3.3814 1.957 5.2084 9.215 5.5068 11.587.4765 3.284-6.96314 13.81-3.0602 11.763 4.3618-1.478 5.3618 4.22 9.8675 9.098 7.1936 6.753-3.7013 12.977 5.6395 6.956 10.4389-4.349 3.4672-2.386 10.4592 3.134 11.163 7.642.9743 7.187 12.1851-.508 12.5287-5.559.2483-8.081 7.0558-4.027 10.8685 5.611 5.2779-1.348 14.0764-7.778 9.833-4.646-3.0655-10.69.9574-9.651 6.4227 1.439 7.5653-9.368 10.591-12.077 3.3813-1.957-5.2083-9.215-5.5067-11.587-.4764-3.284 6.9631-13.81 3.0602-11.763-4.3618 1.478-5.3618-4.22-9.8675-9.098-7.1936-6.753 3.7013-12.977-5.6394-6.956-10.4389 4.349-3.4672 2.386-10.4591-3.134-11.163-7.642-.9743-7.187-12.1851.508-12.5287 5.559-.2483 8.081-7.0558 4.027-10.8685-5.612-5.2778 1.348-14.0764 7.778-9.833 4.646 3.0655 10.69-.9574 9.651-6.4227z" fill="#3f8ae0"/><path d="m300.245 36.8557c.195-.5905 1.031-.5905 1.226 0l3.307 10.0214c.059.1781.193.3218.366.3936l9.136 3.7897c.53.2201.53.9716 0 1.1917l-9.136 3.7897c-.173.0718-.307.2155-.366.3936l-3.307 10.0214c-.195.5905-1.031.5905-1.226 0l-3.307-10.0214c-.059-.1781-.193-.3218-.366-.3936l-9.136-3.7897c-.53-.2201-.53-.9716 0-1.1917l9.136-3.7897c.173-.0718.307-.2155.366-.3936z" fill="#fff"/><path d="m243.861 150.007c-.326 1.91-.86 4.023-1.519 6.462-.227.831-.503 1.647-.827 2.444-3.046 7.501-9.888 12.555-14.359 15.703-.746.528-1.374 1.206-1.842 1.991s-.768 1.659-.878 2.566c-.318 2.561-1.548 5.726-2.432 7.758-.545 1.246-.961 2.068-.961 2.068s-4.023-5.029-3.351-12.241c-2.517 1.006-5.368-.167-9.057-3.018.334-.737 1.36-1.307 2.863-1.755 2.272-.676 5.64-1.063 9.378-1.262 6.202-.338 7.713-4.696 7.115-10.397-.131-1.271-.232-2.46-.314-3.576-.244-3.38-.265-6.08-.065-8.287.167-1.84.493-3.335.969-4.597 1.609-4.244 4.973-5.832 10.104-8.866 2.634 2.68 4.178 5.009 4.931 7.399.289.905.461 1.821.538 2.77.122 1.502.004 3.082-.293 4.838z" fill="#cce9ff"/><path d="m232.153 146.488c-2.383.794-7.037 1.36-8.174 9.42 2.611 3.632 8.968-2.497 9.082-3.861.114-1.36-.908-5.559-.908-5.559zm-10.149 40.443c-.545 1.246-.961 2.069-.961 2.069s-4.023-5.03-3.351-12.242c-2.517 1.006-5.368-.167-9.057-3.018.334-.737 1.36-1.307 2.863-1.755 2.044 1.56 4.931 3.706 7.973 3.413.163 2.732 1.169 8.173 2.533 11.533z" fill="#2a94f4"/><path d="m244.15 145.169c-4.187 2.142-12.238 1.694-15.573-1.303 1.609-4.244 4.972-5.832 10.104-8.866 2.634 2.68 4.178 5.009 4.931 7.399.289.905.46 1.821.538 2.77z" fill="#9cd9ff"/></g></svg>