<svg fill="none" height="55" viewBox="0 0 55 55" width="55" xmlns="http://www.w3.org/2000/svg"><path d="m2 2h34v52h-34z" fill="#ecf0f1"/><g fill="#65b2fe"><path d="m30.92 7h-24.84c-.59648 0-1.08-.4477-1.08-1s.48352-1 1.08-1h24.84c.5964 0 1.08.4477 1.08 1s-.4836 1-1.08 1z"/><path d="m30.92 11h-24.84c-.59648 0-1.08-.4477-1.08-1s.48352-1 1.08-1h24.84c.5964 0 1.08.4477 1.08 1s-.4836 1-1.08 1z"/><path d="m30.92 16h-24.84c-.59648 0-1.08-.4477-1.08-1s.48352-1 1.08-1h24.84c.5964 0 1.08.4477 1.08 1s-.4836 1-1.08 1z"/><path d="m30.92 20h-24.84c-.59648 0-1.08-.4477-1.08-1s.48352-1 1.08-1h24.84c.5964 0 1.08.4477 1.08 1s-.4836 1-1.08 1z"/><path d="m30.92 25h-24.84c-.59648 0-1.08-.4477-1.08-1s.48352-1 1.08-1h24.84c.5964 0 1.08.4477 1.08 1s-.4836 1-1.08 1z"/><path d="m30.92 29h-24.84c-.59648 0-1.08-.4478-1.08-1 0-.5523.48352-1 1.08-1h24.84c.5964 0 1.08.4477 1.08 1 0 .5522-.4836 1-1.08 1z"/><path d="m30.92 33h-24.84c-.59648 0-1.08-.4478-1.08-1s.48352-1 1.08-1h24.84c.5964 0 1.08.4478 1.08 1s-.4836 1-1.08 1z"/><path d="m28.913 38h-22.82604c-.60033 0-1.08696-.4478-1.08696-1s.48663-1 1.08696-1h22.82604c.6003 0 1.087.4478 1.087 1s-.4867 1-1.087 1z"/><path d="m26.9048 42h-20.80956c-.6049 0-1.09524-.4478-1.09524-1s.49034-1 1.09524-1h20.80956c.6049 0 1.0952.4478 1.0952 1s-.4903 1-1.0952 1z"/><path d="m24.8947 46h-18.78944c-.61043 0-1.10526-.4478-1.10526-1s.49483-1 1.10526-1h18.78944c.6105 0 1.1053.4478 1.1053 1s-.4948 1-1.1053 1z"/><path d="m26.9048 51h-20.80956c-.6049 0-1.09524-.4478-1.09524-1s.49034-1 1.09524-1h20.80956c.6049 0 1.0952.4478 1.0952 1s-.4903 1-1.0952 1z"/></g><path d="m38 45.6-2.2759.9108-4.3241 1.7292-4.4 1.76 4.4-11z" fill="#e6be94"/><path d="m54 29.5714-16.4286 16.4286-6.5714-6.5714 4.381-4.381 12.0476-12.0476z" fill="#3c3b3d"/></svg>