<svg fill="none" height="55" viewBox="0 0 55 55" width="55" xmlns="http://www.w3.org/2000/svg"><path d="m54 25.2281v12.9594c-.0014.4803-.1945.9404-.5369 1.28s-.8064.5311-1.2907.5325h-49.34481c-.48426-.0014-.94828-.1929-1.2907-.5325-.34243-.3396-.53544-.7997-.53689-1.28v-25.375c.00145-.4803.19446-.9404.53689-1.28.34242-.3396.80644-.5311 1.2907-.5325h39.32961c.2737.0006.5438.062.7905.1796.2466.1176.4636.2885.6351.5001l10.0151 12.4156c.1218.1493.2176.3178.2833.4985.0778.2026.1181.4175.1188.6343z" fill="#3d9de6"/><path d="m54 25h-15v-9.0909c0-.2411.0996-.4723.2768-.6428.1773-.1705.4177-.2663.6684-.2663h5.8601l7.9017 9.5c.128.1484.2273.3178.293.5z" fill="#b0d3f0"/><path d="m43 28h2" stroke="#000" stroke-linecap="round" stroke-linejoin="round" stroke-width="2.57215"/><path d="m31 18.3548v11.2904c-.0006.2535-.0509.5043-.1479.7371-.097.2329-.2386.443-.4164.6177l-7.4357-7 7.4357-7c.1778.1747.3194.3848.4164.6177.097.2328.1473.4836.1479.7371z" fill="#f0c419"/><path d="m19 24-7.4357 7c-.1778-.1747-.3194-.3848-.4164-.6177-.097-.2328-.1473-.4836-.1479-.7371v-11.2904c.0006-.2535.0509-.5043.1479-.7371.097-.2329.2386-.443.4164-.6177z" fill="#f0c419"/><path d="m31 30.51c-.3371.3159-.7909.492-1.263.49h-16.474c-.4721.002-.9259-.1741-1.263-.49l7.4774-6.51.7871.6825c.3393.2915.7793.4527 1.2355.4527s.8962-.1612 1.2355-.4527l.7871-.6825z" fill="#f29c1f"/><path d="m31 16.5421-8.2645 7.9571c-.3393.3224-.7793.5008-1.2355.5008s-.8962-.1784-1.2355-.5008l-8.2645-7.9571c.3371-.3495.7909-.5443 1.263-.5421h16.474c.4721-.0022.9259.1926 1.263.5421z" fill="#f3d55b"/><path d="m53.9999 25.6588v13.4588c-.0015.4988-.1995.9767-.5508 1.3294s-.8274.5515-1.3242.553h-4.6874c0-.9877-.3096-1.9503-.8848-2.7516-.5753-.8012-1.3871-1.4005-2.3204-1.7128s-1.9409-.3219-2.88-.0274c-.939.2945-1.762.8781-2.3523 1.6683v-13.1765h14.878c.0827.2096.1241.4334.1219.6588z" fill="#2b78bf"/><path d="m9.5 45c2.4853 0 4.5-2.0147 4.5-4.5s-2.0147-4.5-4.5-4.5c-2.48528 0-4.5 2.0147-4.5 4.5s2.01472 4.5 4.5 4.5z" fill="#3f5c6c"/><path d="m43.5 45c2.4853 0 4.5-2.0147 4.5-4.5s-2.0147-4.5-4.5-4.5-4.5 2.0147-4.5 4.5 2.0147 4.5 4.5 4.5z" fill="#3f5c6c"/><path d="m10 41c.5523 0 1-.4477 1-1s-.4477-1-1-1c-.55228 0-1 .4477-1 1s.44772 1 1 1z" fill="#35495e"/><path d="m43 41c.5523 0 1-.4477 1-1s-.4477-1-1-1-1 .4477-1 1 .4477 1 1 1z" fill="#35495e"/><path d="m51 31h3v4h-3c-.2652 0-.5196-.1054-.7071-.2929s-.2929-.4419-.2929-.7071v-2c0-.2652.1054-.5196.2929-.7071s.4419-.2929.7071-.2929z" fill="#f0c419"/></svg>