<svg fill="none" height="55" viewBox="0 0 55 55" width="55" xmlns="http://www.w3.org/2000/svg"><path d="m31 3 1.76 10h20.24l-5.28-10z" fill="#a97c50"/><path d="m25 3h-16.72l-5.28 10h20.24z" fill="#a97c50"/><path d="m3 13h50v40h-50z" fill="#cba57c"/><path d="m51.2759 13v26.087c0 1.8449-.7266 3.6144-2.02 4.919-1.2933 1.3046-3.0475 2.0375-4.8766 2.0375h-41.3793v6.9565h50v-40z" fill="#c49a6c"/><path d="m33 13-1.6667-10h-6.6666l-1.6667 10z" fill="#ffa733"/><path d="m23 30 5.0325-4.25 4.9675 4.25v-17h-10z" fill="#ffb655"/><path d="m8 37h17v10h-17z" fill="#ffeb99"/><g fill="#fd5c00"><path d="m15.8889 42h6.2222c.2358 0 .4619-.1054.6286-.2929s.2603-.4419.2603-.7071-.0936-.5196-.2603-.7071-.3928-.2929-.6286-.2929h-6.2222c-.2358 0-.4619.1054-.6286.2929s-.2603.4419-.2603.7071.0936.5196.2603.7071.3928.2929.6286.2929z"/><path d="m15.8889 45h6.2222c.2358 0 .4619-.1054.6286-.2929s.2603-.4419.2603-.7071-.0936-.5196-.2603-.7071-.3928-.2929-.6286-.2929h-6.2222c-.2358 0-.4619.1054-.6286.2929s-.2603.4419-.2603.7071.0936.5196.2603.7071.3928.2929.6286.2929z"/><path d="m12 42h1c.2652 0 .5196-.1054.7071-.2929s.2929-.4419.2929-.7071-.1054-.5196-.2929-.7071-.4419-.2929-.7071-.2929h-1c-.2652 0-.5196.1054-.7071.2929s-.2929.4419-.2929.7071.1054.5196.2929.7071.4419.2929.7071.2929z"/><path d="m12 45h1c.2652 0 .5196-.1054.7071-.2929s.2929-.4419.2929-.7071-.1054-.5196-.2929-.7071-.4419-.2929-.7071-.2929h-1c-.2652 0-.5196.1054-.7071.2929s-.2929.4419-.2929.7071.1054.5196.2929.7071.4419.2929.7071.2929z"/></g></svg>