<svg fill="none" height="36" viewBox="0 0 55 36" width="55" xmlns="http://www.w3.org/2000/svg" xmlns:xlink="http://www.w3.org/1999/xlink"><linearGradient id="a" gradientUnits="userSpaceOnUse" x1="0" x2="52" y1="20.5" y2="20.5"><stop offset="0" stop-color="#fff"/><stop offset=".1" stop-color="#a6d8e4"/><stop offset=".35" stop-color="#b6ddee"/><stop offset=".64" stop-color="#c0e0f3"/><stop offset="1" stop-color="#c3e1f5"/></linearGradient><linearGradient id="b" gradientUnits="userSpaceOnUse" x1="0" x2="10" y1="15.5" y2="15.5"><stop offset="0" stop-color="#fff"/><stop offset="1" stop-color="#c3e1f5"/></linearGradient><linearGradient id="c" gradientUnits="userSpaceOnUse" x1="14.2352" x2="23" y1="15.5" y2="15.5"><stop offset="0" stop-color="#e9a254"/><stop offset="1" stop-color="#f4bb79"/></linearGradient><linearGradient id="d"><stop offset="0" stop-color="#474f72"/><stop offset="1" stop-color="#878c9f"/></linearGradient><linearGradient id="e" gradientUnits="userSpaceOnUse" x1="28" x2="52" xlink:href="#d" y1="11.5" y2="11.5"/><linearGradient id="f"><stop offset="0" stop-color="#949aaf"/><stop offset="1" stop-color="#c6ccda"/></linearGradient><linearGradient id="g" gradientUnits="userSpaceOnUse" x1="28.0086" x2="51.9914" xlink:href="#f" y1="16" y2="16"/><linearGradient id="h" gradientUnits="userSpaceOnUse" x1="28.0088" x2="48.9913" xlink:href="#f" y1="20" y2="20"/><linearGradient id="i" gradientUnits="userSpaceOnUse" x1="35.0035" x2="52" xlink:href="#d" y1="24.4983" y2="24.4983"/><clipPath id="j"><path d="m0 0h55v36h-55z"/></clipPath><clipPath id="k"><path d="m0 0h55v36h-55z"/></clipPath><g clip-path="url(#j)"><g clip-path="url(#k)"><path d="m52 5v31h-46.8c-1.37913 0-2.70177-.5443-3.67696-1.5133-.975184-.9689-1.52304-2.2831-1.52304-3.6534s.547856-2.6844 1.52304-3.6534c.97519-.9689 2.29783-1.5132 3.67696-1.5132v-20.6667z" fill="url(#a)"/><path d="m10 5h45v26h-45z" fill="#d7f1ff"/><path d="m10 5.16667v25.83333c0-1.3703-.52678-2.6844-1.46447-3.6534-.93768-.9689-2.20945-1.5133-3.53553-1.5133s-2.59785.5444-3.53553 1.5133c-.937686.969-1.46447 2.2831-1.46447 3.6534v-25.83333c0-1.37029.526784-2.68445 1.46447-3.65339.93768-.968936 2.20945-1.51328 3.53553-1.51328s2.59785.544344 3.53553 1.51328c.93769.96894 1.46447 2.2831 1.46447 3.65339z" fill="url(#b)"/><path d="m19.4941 14.6925v-4.1395c.5115.1754.9545.4999 1.2683.929s.4831.9419.4846 1.468c0 .2254.0924.4416.2568.601.1643.1594.3873.249.6197.249.2325 0 .4554-.0896.6198-.249s.2567-.3756.2567-.601c.0002-.9798-.3486-1.9295-.9875-2.6885-.6389-.75895-1.5285-1.28055-2.5184-1.4765v-.935c0-.22543-.0923-.44163-.2567-.60104s-.3873-.24896-.6198-.24896c-.2324 0-.4554.08955-.6197.24896-.1644.15941-.2568.37561-.2568.60104v.8925c-1.0081.04623-1.9592.46717-2.6558 1.17545-.6967.70825-1.0853 1.64945-1.0853 2.62825 0 .9789.3886 1.9201 1.0853 2.6284.6966.7082 1.6477 1.1292 2.6558 1.1754v4.1395c-.5185-.1777-.9666-.5087-1.281-.9463-.3145-.4376-.4795-.9599-.4719-1.4932 0-.2254-.0923-.4416-.2567-.601s-.3873-.249-.6198-.249c-.2324 0-.4554.0896-.6197.249-.1644.1594-.2568.3756-.2568.601-.0002.9798.3487 1.9295.9876 2.6885.6388.7589 1.5285 1.2805 2.5183 1.4765v.935c0 .2254.0924.4416.2568.601.1643.1594.3873.249.6197.249.2325 0 .4554-.0896.6198-.249s.2567-.3756.2567-.601v-.85c.9564-.1079 1.8386-.5528 2.4789-1.2502.6403-.6973.9941-1.5985.9941-2.5323s-.3538-1.835-.9941-2.5323c-.6403-.6974-1.5225-1.1423-2.4789-1.2502zm-1.753-4.25v4.2075c-.5223-.0722-1.0002-.3247-1.3459-.7112-.3458-.3864-.5361-.8809-.5361-1.3926 0-.5116.1903-1.0061.5361-1.3925.3457-.3865.8236-.639 1.3459-.7112zm1.753 10.1575v-4.165c.4953.0975.9407.3582 1.2605.7377.3199.3795.4946.8546.4946 1.3448s-.1747.9653-.4946 1.3448c-.3198.3795-.7652.6402-1.2605.7377z" fill="url(#c)"/><path d="m51.1429 9h-22.2858c-.4733 0-.8571.3731-.8571.83333v3.33337c0 .4602.3838.8333.8571.8333h22.2858c.4733 0 .8571-.3731.8571-.8333v-3.33337c0-.46023-.3838-.83333-.8571-.83333z" fill="url(#e)"/><path d="m51.1429 17h-22.2858c-.2273 0-.4453-.1054-.606-.2929-.1608-.1875-.2511-.4419-.2511-.7071s.0903-.5196.2511-.7071c.1607-.1875.3787-.2929.606-.2929h22.2858c.2273 0 .4453.1054.606.2929.1608.1875.2511.4419.2511.7071s-.0903.5196-.2511.7071c-.1607.1875-.3787.2929-.606.2929z" fill="url(#g)"/><path d="m48.125 21h-19.25c-.2321 0-.4546-.1054-.6187-.2929s-.2563-.4419-.2563-.7071.0922-.5196.2563-.7071.3866-.2929.6187-.2929h19.25c.2321 0 .4546.1054.6187.2929s.2563.4419.2563.7071-.0922.5196-.2563.7071-.3866.2929-.6187.2929z" fill="url(#h)"/><path d="m40.1024 26.9966c-.1668-.0001-.3299-.0484-.4689-.1387s-.2478-.2188-.3129-.3693l-.7818-1.7821-2.0821 2.0486c-.16.1568-.3771.2449-.6034.2449s-.4433-.0881-.6034-.2449c-.16-.1568-.2499-.3695-.2499-.5913 0-.2217.0899-.4344.2499-.5912l2.9744-2.9147c.099-.096.2204-.1667.3538-.206.1334-.0392.2745-.0457.4111-.0189.5778.1083.6118.4747 1.4022 2.2735 2.7364-2.7065 2.6599-2.7065 3.1698-2.7065s.4334.0833 2.9149 3.3311h4.6741c.2254 0 .4415.0877.6009.2439.1594.1561.2489.368.2489.5888 0 .2209-.0895.4327-.2489.5889s-.3755.2439-.6009.2439h-5.099c-.1319 0-.262-.0301-.38-.0879s-.2207-.1418-.2998-.2452l-1.9631-2.5649c-2.8215 2.7731-2.8215 2.898-3.3059 2.898z" fill="url(#i)"/></g></g></svg>