<svg fill="none" height="448" viewBox="0 0 320 448" width="320" xmlns="http://www.w3.org/2000/svg"><path d="m70.6582 121.772c0-20.222 16.3933-36.6158 36.6158-36.6158h97.553c20.222 0 36.615 16.3938 36.615 36.6158v202.703c0 33.703-27.322 61.025-61.026 61.025h-48.732c-33.7037 0-61.0258-27.322-61.0258-61.025z" fill="#fd5c00"/><path d="m109.899 124.414h91.1733v142.706h-91.1733z" fill="#3f8ae0"/><path d="m108.684 197.196c0 47.542-.621 69.169-.139 71.84.04.225.231.28.46.279 5.896-.009 84.011-.184 87.467-.184l1.833.098c.843.045 1.552-.626 1.552-1.47v-70.563-71.099c0-.813-.66-1.472-1.473-1.472l-44.402.003h-43.826c-.813 0-1.472.659-1.472 1.472zm62.512-69.307c0 .906.543 1.269 1.359.906.725-.272 1.359-.09 1.359.363 0 .543-.634.905-1.359.905s-1.359.635-1.359 1.359c0 .725-.453 1.359-.997 1.359-.453 0-.634-.453-.362-.996.362-.544-.181-1.178-1.269-1.45-1.087-.272-1.902-.815-1.902-1.268s.543-.544 1.268-.272 1.54 0 1.993-.634c.453-.725.272-.906-.543-.362-.816.453-.997.362-.544-.272.906-1.54 2.356-1.359 2.356.362zm-47.111 1.45c0 .543.725.634 1.54.362.906-.362 1.269-.272.816.091-.363.362-2.084.724-3.805.815-2.356 0-3.081-.272-3.081-1.449 0-1.178.544-1.45 2.265-1.088 1.269.182 2.265.816 2.265 1.269zm57.982.634c0 .906-.634 1.631-1.358 1.631-1.45 0-1.631-.635-.816-2.809.725-1.812 2.174-.996 2.174 1.178zm6.886.815c-1.631 1.45-1.631 1.45-.725-.362.394-.788.693-1.576.759-2.019.033-.227-.047-.545.158-.443.125.062.305.188.533.378.634.544.362 1.359-.725 2.446zm5.798-.906c0 .997-.725 1.631-1.812 1.722-1.087.09-1.812-.363-1.812-1.178 0-.725.363-1.178.816-.815.453.271 1.087.09 1.449-.453.816-1.359 1.359-1.088 1.359.724zm1.631 5.98c-.906.906-1.359.996-1.903.181-.543-.725-.906-.634-1.268.272-.362.996-.634.996-1.178 0-.634-.906-.996-.906-2.174 0-.906.725-1.45.815-1.45.272 0-.544-.724-1.178-1.54-1.359-.906-.272 1.178-.453 4.53-.544 5.164-.091 5.979.091 4.983 1.178zm-72.75 8.697c.272.544-.453.906-1.721.906-2.175 0-5.074 2.084-5.074 3.715 0 .996.634.996 2.628-.091 1.177-.544 2.174-.453 3.533.544 3.624 2.536 1.993 6.704-2.718 6.704-5.436 0-6.07-10.147-.725-12.05 2.175-.815 3.443-.724 4.077.272zm14.949-.453c0 .272-.725 1.54-1.54 2.809-1.45 2.265-1.45 2.446 0 3.261 1.811.997 1.993 3.533.453 5.074-1.359 1.359-5.889 1.449-6.705 0-.453-.725 0-.816 1.359-.453 2.809.724 4.621-.091 4.621-2.175 0-1.087-.634-1.721-1.812-1.721-2.175 0-2.356-1.178-.453-2.718 2.084-1.721 1.631-2.718-1.45-2.718-1.54 0-2.536-.362-2.174-.906.543-.906 7.701-1.268 7.701-.453zm47.473 88.061-.309 8.713c-.029.833.638 1.524 1.472 1.524h.92c1.994 0 2.265.182 1.178.906-.996.635-.634.906 1.631.906 1.812 0 2.809-.362 2.446-.906-.272-.543.272-.906 1.269-.906 1.811 0 1.811-.543 1.63-15.401-.09-8.516.091-15.402.544-15.402.362 0 .634 7.52.634 16.761v15.316c0 .837-.697 1.506-1.534 1.471l-4.989-.208-5.043-.207c-.85-.035-1.494-.782-1.403-1.628l.104-.973c.181-1.541-.09-2.447-.815-2.447-.906 0-.906-.271-.091-1.087.816-.815 1.087-11.053 1.269-39.681l.181-38.504.634 30.803c.362 16.942.453 35.423.272 40.95zm-72.841-11.053c0 11.053-.181 13.137-1.359 13.137-1.177 0-1.359-2.084-1.359-13.137s.182-13.137 1.359-13.137c1.178 0 1.359 2.084 1.359 13.137zm70.213 15.855c.182.362-.181 1.268-.996 1.902-1.178.906-1.54.906-2.265-.181-.453-.725-.815-1.45-.815-1.721 0-.816 3.533-.816 4.076 0zm-14.405 1.721c0 1.631-3.986 3.443-7.791 3.533-.725.091-2.537.272-4.077.453-2.627.363-7.701-1.721-7.701-3.171 0-1.268 1.722-.815 2.537.725.634 1.178 1.359 1.268 4.077.544 1.903-.544 3.352-.635 3.352-.091 0 .503 7.914-2.485 9.31-3.437.155-.105.259-.126.272.061.021.299.021.824.021 1.383zm-31.527.634c1.449 1.903 4.258 2.809 5.345 1.721 1.359-1.449 5.707-.634 5.707.997 0 1.45-2.355 1.721-3.171.272-.452-.634-1.177-.453-2.355.543-1.54 1.45-1.812 1.45-4.077-.362-1.449-1.178-3.171-1.721-4.167-1.45-.997.363-1.631.091-1.722-.634 0-.634-.362-.362-.815.634-.544 1.269-.816 1.359-.816.363-.09-.725.363-1.812.816-2.265 1.178-1.178 4.439-.997 5.255.181zm-25.64 5.889c-.906 1.449 7.701.906 9.151-.544.815-.724 1.902-1.359 2.446-1.359.634 0 .543.363-.272.906-.562.352-.907.758-.948 1.049-.021.15.098.245.248.266 2.842.387 33.824 1.226 52.612 1.313 9.513.09 9.694.09 9.694 2.174 0 1.812-.453 2.174-2.718 2.174-1.285 0-2.214-.285-2.219-.602-.001-.088.093-.168.06-.251-.089-.227-.925-.184-2.099.129-4.62 1.268-14.133.362-15.492-1.45-1.178-1.54-1.268-1.54-.725.181.453 1.631.091 1.812-3.533 1.812-2.265 0-4.077-.272-4.077-.634 0-.906-2.989.272-3.895 1.449-.544.635-.635.363-.272-.543.272-.906.09-1.812-.363-2.084-.543-.362-.906-.09-.906.363 0 .543-1.087.996-2.355.996-1.139 0-1.912-.292-1.797-.679.03-.1.126-.186.104-.287-.133-.627-4.137.317-5.917 1.419-.453.272-.906-.181-.997-1.087 0-1.54-.09-1.54-.725.091-.634 1.54-.724 1.54-2.083.181-1.631-1.631-2.99-1.993-2.084-.544.815 1.269-.725 1.178-2.084-.181-.725-.725-1.087-.725-1.087-.091 0 1.178-4.349 2.175-4.983 1.088-.272-.363-3.533-.635-7.248-.544l-5.283.141c-.828.022-1.512-.643-1.512-1.472v-1.931c0-2.083.363-3.261.906-2.899.544.363.725.997.453 1.45z" fill="#f0f6fd"/><path d="m118.93 150.633c-1.631.634-1.449 3.624.181 4.258 2.265.815 4.168-.453 3.896-2.537-.272-1.902-1.993-2.627-4.077-1.721z" fill="#f0f6fd"/><g fill="#3f8ae0"><path d="m124.754 303.609 12.186 12.187c1.138 1.137 1.164 2.974.06 4.143l-12.183 12.899c-.929.985-2.407 1.216-3.594.564l-14.968-8.233c-.95-.522-1.54-1.521-1.54-2.605v-9.371c0-1.126.636-2.156 1.643-2.659l14.964-7.482c1.144-.572 2.527-.348 3.432.557z"/><path d="m183.785 303.609-12.187 12.187c-1.138 1.137-1.164 2.974-.059 4.143l12.182 12.899c.93.985 2.407 1.216 3.594.564l14.968-8.233c.95-.522 1.54-1.521 1.54-2.605v-9.371c0-1.126-.636-2.156-1.643-2.659l-14.964-7.482c-1.144-.572-2.527-.348-3.431.557z"/><path d="m166.46 314.14h-23.47c-.788 0-1.544-.314-2.102-.871l-12.48-12.48c-1.269-1.269-1.133-3.365.29-4.459l8.555-6.581c.519-.399 1.157-.616 1.812-.616h31.32c.656 0 1.293.217 1.813.616l8.555 6.581c1.423 1.094 1.559 3.19.29 4.459l-12.48 12.48c-.558.557-1.314.871-2.103.871z"/><path d="m165.538 322.474h-23.471c-.788 0-1.544.313-2.102.87l-12.48 12.48c-1.269 1.269-1.133 3.365.29 4.459l8.555 6.581c.519.4 1.157.616 1.812.616h31.321c.655 0 1.292-.216 1.812-.616l8.555-6.581c1.423-1.094 1.559-3.19.29-4.459l-12.48-12.48c-.558-.557-1.314-.87-2.102-.87z"/><path d="m266.733 197.758h-213.4782c-8.1314 0-14.4516 7.078-13.5348 15.157l19.2521 169.659c.5138 4.529 3.2582 8.5 7.3123 10.582l88.1086 45.245c3.895 2 8.512 2.006 12.412.017l88.669-45.227c4.116-2.1 6.888-6.144 7.36-10.741l17.45-169.677c.825-8.032-5.477-15.015-13.551-15.015z"/></g><path d="m226.534 293.727c-19.29.019-38.224 5.021-54.979 14.489-1.669.943-1.795 3.272-.308 4.482 4.383 3.574 7.914 8.079 10.336 13.189s3.673 10.696 3.664 16.351c-.018 8.744-2.853 17.249-8.085 24.255-1.883 2.511-4.324 4.548-7.131 5.951-2.807 1.404-5.902 2.134-9.04 2.134s-6.232-.73-9.039-2.134c-2.807-1.403-5.248-3.44-7.131-5.951-5.232-7.006-8.067-15.511-8.085-24.255-.01-5.655 1.242-11.241 3.664-16.351s5.952-9.615 10.335-13.189c1.482-1.213 1.359-3.54-.308-4.482-16.754-9.468-35.689-14.47-54.9781-14.489-5.0054.001-9.9942.576-14.8686 1.714-.3928.137-.6386.527-.5926.941l7.828 70.471c.2551 2.296 1.6568 4.307 3.7233 5.34l66.406 33.203c1.918.959 4.175.959 6.092 0l66.407-33.203c2.066-1.033 3.468-3.044 3.723-5.34l7.817-70.356c.054-.489-.245-.949-.715-1.097-4.832-1.116-9.776-1.677-14.735-1.673z" fill="#5f9de5"/><path d="m249.088 232.563c.449-4.035-2.71-7.563-6.769-7.563h-162.655c-4.0593 0-7.2173 3.528-6.7692 7.563l5.2601 47.35c.4499 4.049 4.3336 6.774 8.3777 6.276 2.9559-.364 5.9336-.548 8.9165-.55 21.7949.022 43.1449 5.975 61.7739 17.179 2.316 1.393 5.221 1.393 7.537 0 18.63-11.204 39.979-17.157 61.774-17.179 2.983.002 5.961.186 8.917.55 4.044.498 7.927-2.227 8.377-6.276zm-84.169 85.416c-2.304-1.83-5.554-1.835-7.856-.002-.406.322-.809.648-1.209.977-3.454 2.816-6.237 6.367-8.145 10.395-1.909 4.027-2.895 8.429-2.888 12.886.015 6.995 2.283 13.799 6.468 19.404 1.13 1.507 2.595 2.729 4.279 3.571s3.541 1.281 5.424 1.281c1.882 0 3.739-.439 5.423-1.281s3.149-2.064 4.279-3.571c4.185-5.605 6.453-12.409 6.468-19.404.007-4.457-.979-8.859-2.887-12.886-1.909-4.028-4.691-7.579-8.145-10.395-.402-.328-.805-.653-1.211-.975z" fill="#5f9de5"/></svg>