<svg fill="none" height="448" viewBox="0 0 319 448" width="319" xmlns="http://www.w3.org/2000/svg" xmlns:xlink="http://www.w3.org/1999/xlink"><clipPath id="a"><path d="m0 0h319v448h-319z"/></clipPath><mask id="b" height="538" maskUnits="userSpaceOnUse" width="320" x="0" y="-90"><rect fill="#fff" height="538" rx="10" width="320" y="-90"/></mask><g clip-path="url(#a)"><g mask="url(#b)"><g stroke="#f5f9fe"><path d="m7.4 23h95.7c4.615 0 9.041 1.8332 12.304 5.0963 3.263 3.2632 5.096 7.6889 5.096 12.3037v4.35c0 1.1537.458 2.2601 1.274 3.0759s1.922 1.2741 3.076 1.2741 2.26.4583 3.076 1.2741 1.274 1.9222 1.274 3.0759v26.1c0 1.1537-.458 2.2601-1.274 3.0759s-1.922 1.2741-3.076 1.2741-2.26.4583-3.076 1.2741-1.274 1.9222-1.274 3.0759v4.35c0 4.6148-1.833 9.041-5.096 12.304s-7.689 5.096-12.304 5.096h-95.7c-4.61477 0-9.04053-1.833-12.30366-5.096s-5.09634-7.6892-5.09634-12.304v-52.2c0-4.6148 1.83321-9.0405 5.09634-12.3037 3.26313-3.2631 7.68889-5.0963 12.30366-5.0963z" stroke-linecap="round" stroke-linejoin="round" stroke-width="5.87838"/><path d="m15.8633 48.8633v34.8m26.1-34.8v34.8m26.1-34.8v34.8m26.1-34.8v34.8" stroke-linecap="round" stroke-linejoin="round" stroke-width="11.7568"/><path d="m201.05 70h93.775c4.522 0 8.859 1.7963 12.056 4.9938 3.198 3.1975 4.994 7.5343 4.994 12.0562v4.2625c0 1.1305.449 2.2147 1.248 3.014.8.7994 1.884 1.2485 3.014 1.2485 1.131 0 2.215.4491 3.015 1.2485.799.7993 1.248 1.8835 1.248 3.014v25.5755c0 1.13-.449 2.214-1.248 3.014-.8.799-1.884 1.248-3.015 1.248-1.13 0-2.214.449-3.014 1.248-.799.8-1.248 1.884-1.248 3.015v4.262c0 4.522-1.796 8.859-4.994 12.056-3.197 3.198-7.534 4.994-12.056 4.994h-93.775c-4.522 0-8.859-1.796-12.056-4.994-3.198-3.197-4.994-7.534-4.994-12.056v-51.15c0-4.5219 1.796-8.8587 4.994-12.0562 3.197-3.1975 7.534-4.9938 12.056-4.9938z" stroke-linecap="round" stroke-linejoin="round" stroke-width="5.76014"/><path d="m209.344 95.3438v34.1002m25.575-34.1002v34.1002m25.575-34.1002v34.1002m25.575-34.1002v34.1002" stroke-linecap="round" stroke-linejoin="round" stroke-width="11.5203"/></g><path d="m18.8643 202.448c0-33.615 27.2506-60.866 60.8659-60.866h162.1628c33.615 0 60.866 27.251 60.866 60.866v336.954c0 56.026-45.418 101.443-101.443 101.443h-81.009c-56.0251 0-101.4427-45.417-101.4427-101.443z" fill="#fd5c00"/><path d="m68 201h184v247h-184z" fill="#f0f6fd"/><path d="m107.9 268h98.45c4.747 0 9.3 1.886 12.657 5.243s5.243 7.91 5.243 12.657v4.475c0 1.187.471 2.325 1.311 3.164.839.84 1.977 1.311 3.164 1.311s2.325.471 3.164 1.311c.84.839 1.311 1.977 1.311 3.164v26.85c0 1.187-.471 2.325-1.311 3.164-.839.84-1.977 1.311-3.164 1.311s-2.325.471-3.164 1.311c-.84.839-1.311 1.977-1.311 3.164v4.475c0 4.747-1.886 9.3-5.243 12.657s-7.91 5.243-12.657 5.243h-98.45c-4.747 0-9.3003-1.886-12.6572-5.243s-5.2428-7.91-5.2428-12.657v-53.7c0-4.747 1.8859-9.3 5.2428-12.657s7.9102-5.243 12.6572-5.243z" stroke="#3f8ae0" stroke-linecap="round" stroke-linejoin="round" stroke-width="9.17949"/><path d="m116.607 294.609v35.8m26.85-35.8v35.8m26.85-35.8v35.8m26.85-35.8v35.8" stroke="#fd5c00" stroke-linecap="round" stroke-linejoin="round" stroke-width="12.8513"/></g></g></svg>