<svg fill="none" height="448" viewBox="0 0 320 448" width="320" xmlns="http://www.w3.org/2000/svg" xmlns:xlink="http://www.w3.org/1999/xlink"><clipPath id="a"><path d="m0 0h320v448h-320z"/></clipPath><mask id="b" height="538" maskUnits="userSpaceOnUse" width="320" x="0" y="-90"><rect fill="#fff" height="538" rx="10" width="320" y="-90"/></mask><g clip-path="url(#a)"><path d="m0 0h320v448h-320z" fill="#fff"/><g mask="url(#b)"><g fill="#f5f9fe"><path d="m56.3296 146h-12.2066c-5.5228 0-10 4.477-10 10v40.586c0 5.523 4.4772 10 10 10h12.2066c5.5228 0 10-4.477 10-10v-40.586c0-5.523-4.4772-10-10-10z"/><path d="m109.104 98.2266h-12.2065c-5.5229 0-10 4.4774-10 10.0004v88.36c0 5.523 4.4771 10 10 10h12.2065c5.523 0 10-4.477 10-10v-88.36c0-5.523-4.477-10.0004-10-10.0004z"/><path d="m161.881 121.441h-12.207c-5.523 0-10 4.478-10 10v65.148c0 5.523 4.477 10 10 10h12.207c5.523 0 10-4.477 10-10v-65.148c0-5.522-4.477-10-10-10z"/><path d="m214.654 103.078h-12.207c-5.523 0-10 4.477-10 10v83.512c0 5.523 4.477 10 10 10h12.207c5.523 0 10-4.477 10-10v-83.512c0-5.523-4.477-10-10-10z"/><path d="m267.43 58.9297h-12.207c-5.523 0-10 4.4771-10 10v127.6573c0 5.523 4.477 10 10 10h12.207c5.523 0 10-4.477 10-10v-127.6573c0-5.5229-4.477-10-10-10z"/></g><path d="m8 118.157 105.834-70.4743c.82-.5463 1.922-.3731 2.535.3985l41.162 51.7905c.605.7623 1.69.9413 2.509.4163l150.304-96.49894" stroke="#f5f9fe" stroke-linejoin="bevel" stroke-miterlimit="10" stroke-width="3.84649"/><path d="m291.364 5.63253c-.85-1.13218-.204-2.76191 1.19-3.00581l22.095-3.86562c1.641-.28711 2.828 1.529742 1.907 2.91739l-11.741 17.67121c-.725 1.0908-2.311 1.1361-3.097.0884z" fill="#f5f9fe"/><path d="m222.126 596.63h9.613l-51.458-397.216h-9.613zm-36.961-397.216h-9.613z" fill="#2a5b93"/><path d="m172.673 199.414h9.613l-51.458 397.216h-9.664z" fill="#2a5b93"/><path d="m181.309 373.272c27.88 0 50.481-48.309 50.481-107.902 0-59.592-22.601-107.901-50.481-107.901s-50.481 48.309-50.481 107.901c0 59.593 22.601 107.902 50.481 107.902z" fill="#2a5b93"/><path d="m171.181 375.841c-14.547 0-28.016-11.72-37.989-33.054-9.715-20.717-15.01-48.168-15.01-77.366 0-29.199 5.346-56.65 15.01-77.367 9.973-21.333 23.493-33.054 37.989-33.054 14.497 0 28.017 11.721 37.99 33.054 9.715 20.717 15.01 48.168 15.01 77.367 0 29.198-5.346 56.649-15.01 77.366-9.973 21.282-23.493 33.054-37.99 33.054z" fill="#2a5b93"/><path d="m171.182 373.272c27.88 0 50.481-48.309 50.481-107.902 0-59.592-22.601-107.901-50.481-107.901s-50.481 48.309-50.481 107.901c0 59.593 22.601 107.902 50.481 107.902z" fill="#f7f7f7"/><path d="m170.668 345.767c20.783 0 37.63-35.996 37.63-80.399s-16.847-80.399-37.63-80.399c-20.782 0-37.629 35.996-37.629 80.399s16.847 80.399 37.629 80.399z" fill="#3f8ae0"/><path d="m170.153 314.772c12.776 0 23.133-22.118 23.133-49.402 0-27.283-10.357-49.401-23.133-49.401s-23.132 22.118-23.132 49.401c0 27.284 10.356 49.402 23.132 49.402z" fill="#f7f7f7"/><path d="m169.896 289.529c6.246 0 11.31-10.817 11.31-24.161s-5.064-24.161-11.31-24.161-11.309 10.817-11.309 24.161 5.063 24.161 11.309 24.161z" fill="#3f8ae0"/><path d="m168.869 272.205c1.76 0 3.187-3.061 3.187-6.837s-1.427-6.837-3.187-6.837-3.187 3.061-3.187 6.837 1.427 6.837 3.187 6.837z" fill="#f7f7f7"/><path d="m36.1895 263.16h122.1925v4.524h-122.1925z" fill="#fd5c00"/><path d="m158.382 272.824-12.646-7.454 12.646-7.402 12.646 7.402zm-112.6828-7.454h-25.189l-9.5102-9.561h25.1891zm0 0h-25.189l-9.5102 9.613h25.1891z" fill="#fd5c00"/></g></g></svg>