<svg fill="none" height="448" viewBox="0 0 320 448" width="320" xmlns="http://www.w3.org/2000/svg" xmlns:xlink="http://www.w3.org/1999/xlink"><clipPath id="a"><path d="m0 0h320v448h-320z"/></clipPath><mask id="b" height="538" maskUnits="userSpaceOnUse" width="320" x="0" y="-90"><rect fill="#fff" height="538" rx="10" width="320" y="-90"/></mask><g clip-path="url(#a)"><path d="m0 0h320v448h-320z" fill="#fff"/><g fill="#f0f6fd" fill-opacity=".7" mask="url(#b)"><path d="m108.986 428.695c3.648-8.426 6.033-17.214 7.152-26.097l18.095-6.045-2.583-20.571-2.583-20.57-18.988-1.427c-3.287-8.327-7.774-16.264-13.3841-23.518l8.4851-17.051-16.37-12.714-16.3331-12.718-14.4252 12.422c-8.4276-3.647-17.2164-6.031-26.1005-7.15l-6.0457-18.091-20.57382 2.583-20.57378 2.583-1.423 19.022c-8.3282 3.287-16.2669 7.774-23.5227 13.384l-17.0532-8.484-12.7163 16.368-12.7214 16.332 12.4239 14.422c-3.6485 8.426-6.0333 17.214-7.1523 26.096l-18.0946 6.046 2.5828 20.57 2.5827 20.571 19.0253 1.422c3.2866 8.327 7.7739 16.264 13.3841 23.518l-8.4855 17.051 16.3704 12.714 16.3704 12.713 14.4252-12.422c8.4276 3.647 17.21648 6.031 26.10053 7.15l6.04577 18.091 20.5737-2.583 20.5738-2.583 1.423-19.023c8.3283-3.286 16.2669-7.773 23.5227-13.383l17.0533 8.484 12.7165-16.369 12.716-16.368zm-120.7821 1.436c-22.1409-17.213-26.1397-49.134-8.9231-71.272 17.21657-22.138 49.1426-26.138 71.2835-8.925s26.1396 49.134 8.923 71.272c-17.2165 22.138-49.1426 26.137-71.2834 8.925z"/><path d="m390.658 167.44c3.523-8.138 5.827-16.625 6.907-25.204l17.476-5.838-2.495-19.867-2.494-19.8659-18.338-1.3781c-3.174-8.0418-7.508-15.7074-12.926-22.7134l8.195-16.4673-15.81-12.2784-15.774-12.2833-13.932 11.9974c-8.139-3.5227-16.627-5.8252-25.207-6.9053l-5.839-17.4722-19.869 2.4948-19.87 2.4949-1.374 18.3711c-8.043 3.174-15.71 7.5073-22.718 12.925l-16.469-8.193-12.281 15.8081-12.286 15.772 11.998 13.9288c-3.523 8.1378-5.827 16.6248-6.907 25.2038l-17.475 5.838 2.494 19.866 2.494 19.867 18.374 1.373c3.174 8.042 7.508 15.707 12.926 22.713l-8.195 16.468 15.81 12.278 15.81 12.278 13.932-11.997c8.139 3.523 16.627 5.825 25.207 6.905l5.839 17.473 19.869-2.495 19.87-2.495 1.374-18.371c8.044-3.174 15.71-7.507 22.718-12.925l16.469 8.193 12.282-15.808 12.281-15.808zm-116.648 1.386c-21.383-16.623-25.245-47.452-8.618-68.832 16.628-21.3803 47.461-25.2429 68.844-8.6192 21.383 16.6232 25.245 47.4522 8.618 68.8322-16.628 21.38-47.461 25.243-68.844 8.619z"/></g><path d="m84.8936 197.443c0-17.443 14.1406-31.584 31.5844-31.584h84.148c17.443 0 31.584 14.141 31.584 31.584v174.85c0 29.072-23.568 52.64-52.64 52.64h-42.036c-29.073 0-52.6404-23.568-52.6404-52.64z" fill="#fd5c00"/><path d="m118.744 199.723h78.6452v123.097h-78.6452z" fill="#3f8ae0"/><path d="m117.691 262.505c0 41.01-.536 59.664-.12 61.968.035.194.2.242.397.241 5.086-.008 72.467-.159 75.449-.159l1.581.085c.727.039 1.338-.54 1.338-1.268v-60.867-61.329c0-.702-.569-1.27-1.27-1.27l-38.301.002h-37.804c-.701 0-1.27.569-1.27 1.27zm53.922-59.783c0 .781.469 1.094 1.173.781.625-.234 1.172-.078 1.172.313 0 .469-.547.781-1.172.781-.626 0-1.173.547-1.173 1.172 0 .626-.39 1.173-.859 1.173-.391 0-.547-.391-.313-.86.313-.469-.156-1.016-1.094-1.25-.938-.235-1.641-.704-1.641-1.094 0-.391.469-.469 1.094-.235.625.235 1.329 0 1.719-.547.391-.625.235-.781-.469-.312-.703.39-.859.312-.468-.235.781-1.328 2.031-1.172 2.031.313zm-40.637 1.25c0 .469.625.547 1.329.313.781-.313 1.094-.235.703.078-.312.312-1.797.625-3.282.703-2.032 0-2.657-.234-2.657-1.25s.469-1.251 1.954-.938c1.094.156 1.953.703 1.953 1.094zm50.015.547c0 .782-.547 1.407-1.172 1.407-1.25 0-1.407-.547-.703-2.423.625-1.563 1.875-.859 1.875 1.016zm5.94.703c-1.407 1.251-1.407 1.251-.626-.312.34-.68.598-1.36.655-1.742.028-.195-.041-.47.136-.382.108.054.263.163.46.326.547.469.312 1.173-.625 2.11zm5.001-.781c0 .86-.625 1.407-1.563 1.485s-1.563-.313-1.563-1.016c0-.625.313-1.016.703-.703.391.234.938.078 1.251-.391.703-1.172 1.172-.938 1.172.625zm1.407 5.158c-.782.781-1.173.859-1.641.156-.469-.625-.782-.547-1.095.235-.312.859-.547.859-1.015 0-.547-.782-.86-.782-1.876 0-.781.625-1.25.703-1.25.234s-.626-1.016-1.329-1.172c-.781-.235 1.016-.391 3.908-.469 4.454-.078 5.157.078 4.298 1.016zm-62.754 7.502c.235.469-.39.781-1.484.781-1.876 0-4.377 1.798-4.377 3.205 0 .859.547.859 2.267-.079 1.016-.468 1.875-.39 3.047.469 3.126 2.188 1.72 5.783-2.344 5.783-4.689 0-5.236-8.752-.625-10.393 1.875-.704 2.969-.626 3.516.234zm12.895-.391c0 .235-.625 1.329-1.329 2.423-1.25 1.954-1.25 2.11 0 2.813 1.563.86 1.72 3.048.391 4.377-1.172 1.172-5.079 1.25-5.783 0-.391-.626 0-.704 1.172-.391 2.423.625 3.986-.078 3.986-1.876 0-.938-.547-1.485-1.563-1.485-1.876 0-2.032-1.016-.391-2.344 1.798-1.485 1.407-2.345-1.25-2.345-1.329 0-2.188-.312-1.876-.781.469-.781 6.643-1.094 6.643-.391zm40.95 75.961-.266 7.515c-.026.719.55 1.315 1.269 1.315h.794c1.719 0 1.954.157 1.016.782-.86.547-.547.781 1.407.781 1.563 0 2.422-.312 2.11-.781-.235-.469.234-.782 1.094-.782 1.563 0 1.563-.469 1.407-13.285-.079-7.346.078-13.285.468-13.285.313 0 .547 6.486.547 14.457v13.212c0 .722-.601 1.299-1.322 1.269l-4.304-.18-4.35-.178c-.734-.03-1.289-.674-1.211-1.404l.09-.84c.157-1.329-.078-2.11-.703-2.11-.781 0-.781-.235-.078-.938s.938-9.534 1.094-34.229l.156-33.213.547 26.57c.313 14.614.391 30.556.235 35.324zm-62.832-9.535c0 9.535-.156 11.332-1.172 11.332s-1.172-1.797-1.172-11.332c0-9.534.156-11.331 1.172-11.331s1.172 1.797 1.172 11.331zm60.565 13.676c.157.313-.156 1.094-.859 1.642-1.016.781-1.329.781-1.954-.157-.391-.625-.703-1.25-.703-1.485 0-.703 3.048-.703 3.516 0zm-12.425 1.485c0 1.407-3.439 2.97-6.721 3.048-.625.078-2.188.234-3.517.391-2.266.312-6.642-1.485-6.642-2.735 0-1.095 1.485-.704 2.188.625.547 1.016 1.172 1.094 3.517.469 1.641-.469 2.891-.547 2.891-.078 0 .433 6.827-2.144 8.031-2.965.133-.091.223-.108.234.053.019.257.019.71.019 1.192zm-27.196.547c1.251 1.641 3.673 2.423 4.611 1.485 1.172-1.25 4.923-.547 4.923.86 0 1.25-2.032 1.485-2.735.234-.391-.547-1.016-.391-2.032.469-1.328 1.25-1.563 1.25-3.516-.313-1.251-1.015-2.736-1.484-3.595-1.25-.86.313-1.407.078-1.485-.547 0-.547-.313-.313-.703.547-.469 1.094-.704 1.172-.704.313-.078-.626.313-1.563.704-1.954 1.016-1.016 3.829-.86 4.532.156zm-22.116 5.08c-.781 1.25 6.643.781 7.893-.469.704-.625 1.641-1.172 2.11-1.172.547 0 .469.312-.234.781-.485.304-.782.654-.818.905-.018.129.084.211.214.229 2.451.334 29.176 1.058 45.383 1.133 8.205.078 8.362.078 8.362 1.875 0 1.563-.391 1.876-2.345 1.876-1.109 0-1.91-.246-1.914-.52-.001-.076.08-.145.052-.216-.078-.196-.798-.159-1.811.111-3.985 1.094-12.191.312-13.363-1.251-1.016-1.328-1.094-1.328-.625.156.39 1.407.078 1.563-3.048 1.563-1.954 0-3.517-.234-3.517-.547 0-.781-2.579.235-3.36 1.251-.469.547-.547.312-.235-.469.235-.782.079-1.563-.312-1.798-.469-.312-.782-.078-.782.313 0 .469-.937.86-2.032.86-.982 0-1.649-.252-1.549-.586.025-.086.108-.16.089-.248-.115-.54-3.568.274-5.104 1.224-.391.235-.781-.156-.86-.937 0-1.329-.078-1.329-.625.078-.547 1.328-.625 1.328-1.797.156-1.407-1.407-2.579-1.719-1.798-.469.704 1.094-.625 1.016-1.797-.156-.625-.625-.938-.625-.938-.078 0 1.016-3.751 1.875-4.298.938-.234-.313-3.048-.548-6.252-.469l-4.557.121c-.715.019-1.304-.555-1.304-1.269v-1.666c0-1.797.313-2.813.781-2.5.469.312.626.859.391 1.25z" fill="#f0f6fd"/><path d="m126.53 222.338c-1.407.547-1.25 3.126.156 3.673 1.954.703 3.595-.391 3.361-2.188-.235-1.641-1.72-2.266-3.517-1.485z" fill="#f0f6fd"/><g fill="#3f8ae0"><path d="m131.555 354.295 10.512 10.513c.981.981 1.004 2.565.051 3.574l-10.508 11.126c-.802.849-2.077 1.049-3.101.486l-12.911-7.101c-.82-.451-1.329-1.312-1.329-2.247v-8.084c0-.971.549-1.859 1.418-2.293l12.907-6.454c.988-.494 2.18-.3 2.961.48z"/><path d="m182.474 354.295-10.512 10.513c-.982.981-1.004 2.565-.052 3.574l10.509 11.126c.802.849 2.076 1.049 3.1.486l12.911-7.101c.82-.451 1.329-1.312 1.329-2.247v-8.084c0-.971-.549-1.859-1.418-2.293l-12.907-6.454c-.987-.494-2.18-.3-2.96.48z"/><path d="m167.531 363.379h-20.245c-.68 0-1.332-.27-1.813-.751l-10.765-10.765c-1.095-1.095-.977-2.902.25-3.846l7.379-5.677c.448-.344.998-.531 1.564-.531h27.016c.566 0 1.115.187 1.564.531l7.379 5.677c1.227.944 1.345 2.751.25 3.846l-10.765 10.765c-.481.481-1.133.751-1.814.751z"/><path d="m166.734 370.566h-20.245c-.681 0-1.333.27-1.814.751l-10.765 10.765c-1.095 1.095-.977 2.903.25 3.846l7.379 5.677c.449.345.998.532 1.564.532h27.016c.566 0 1.116-.187 1.564-.532l7.379-5.677c1.227-.943 1.345-2.751.25-3.846l-10.765-10.765c-.481-.481-1.133-.751-1.813-.751z"/></g></g></svg>