<svg fill="none" height="338" viewBox="0 0 533 338" width="533" xmlns="http://www.w3.org/2000/svg"><rect fill="#cce9ff" height="338" rx="10" width="533"/><rect fill="#fff" height="185" rx="10" width="268.534" x="131.216" y="45"/><g fill="#3f8ae0"><path d="m115.958 61.7268c0-7.884 3.194-15.4452 8.878-21.02 5.685-5.5749 13.395-8.7068 21.434-8.7068h242.494c8.04 0 15.75 3.1319 21.434 8.7068 5.685 5.5748 8.878 13.136 8.878 21.02v163.4972c0 7.884-3.193 15.446-8.878 21.02-5.684 5.575-13.394 8.707-21.434 8.707h-98.847c-5.522 0-10 4.477-10 10v9.727c0 5.523 4.478 10 10 10h38.224c4.019 0 8.18 1.266 11.022 4.054 2.843 2.787 4.134 4.165 4.134 8.107s-1.291 5.32-4.134 8.107c-2.842 2.788-7.003 4.054-11.022 4.054h-121.247c-4.02 0-7.875.085-10.717-2.702-2.843-2.788-4.439-5.517-4.439-9.459s1.596-5.995 4.439-8.783c2.842-2.787 6.697-3.378 10.717-3.378h38.223c5.523 0 10-4.477 10-10v-9.727c0-5.523-4.477-10-10-10h-98.847c-8.039 0-15.749-3.132-21.434-8.707-5.684-5.574-8.878-13.136-8.878-21.02zm268.318 168.9022c5.523 0 10-4.477 10-10v-154.307c0-5.5229-4.477-10-10-10h-233.517c-5.523 0-10 4.4771-10 9.9999v154.3071c0 5.523 4.477 10 10 10z"/><path d="m354.924 105.077h-177.865c-.558 0-1.094-.215-1.488-.597-.395-.383-.617-.901-.617-1.442 0-.54.222-1.059.617-1.441.394-.382.93-.597 1.488-.597h177.865c.558 0 1.093.215 1.488.597s.617.901.617 1.441c0 .541-.222 1.059-.617 1.442-.395.382-.93.597-1.488.597zm0 8.978h-177.865c-.558 0-1.094-.214-1.488-.597-.395-.382-.617-.9-.617-1.441s.222-1.059.617-1.441c.394-.383.93-.597 1.488-.597h177.865c.558 0 1.093.214 1.488.597.395.382.617.9.617 1.441s-.222 1.059-.617 1.441c-.395.383-.93.597-1.488.597zm0 8.966h-177.865c-.558 0-1.094-.214-1.488-.597-.395-.382-.617-.9-.617-1.441s.222-1.059.617-1.441c.394-.383.93-.597 1.488-.597h177.865c.558 0 1.093.214 1.488.597.395.382.617.9.617 1.441s-.222 1.059-.617 1.441c-.395.383-.93.597-1.488.597zm0 8.979h-177.865c-.558 0-1.094-.215-1.488-.597-.395-.382-.617-.901-.617-1.441 0-.541.222-1.059.617-1.442.394-.382.93-.597 1.488-.597h177.865c.558 0 1.093.215 1.488.597.395.383.617.901.617 1.442 0 .54-.222 1.059-.617 1.441s-.93.597-1.488.597z"/><path d="m354.924 155.077h-177.865c-.558 0-1.094-.215-1.488-.597-.395-.383-.617-.901-.617-1.442 0-.54.222-1.059.617-1.441.394-.382.93-.597 1.488-.597h177.865c.558 0 1.093.215 1.488.597s.617.901.617 1.441c0 .541-.222 1.059-.617 1.442-.395.382-.93.597-1.488.597zm0 8.978h-177.865c-.558 0-1.094-.214-1.488-.597-.395-.382-.617-.9-.617-1.441s.222-1.059.617-1.441c.394-.383.93-.597 1.488-.597h177.865c.558 0 1.093.214 1.488.597.395.382.617.9.617 1.441s-.222 1.059-.617 1.441c-.395.383-.93.597-1.488.597zm0 8.966h-177.865c-.558 0-1.094-.214-1.488-.597-.395-.382-.617-.9-.617-1.441s.222-1.059.617-1.441c.394-.383.93-.597 1.488-.597h177.865c.558 0 1.093.214 1.488.597.395.382.617.9.617 1.441s-.222 1.059-.617 1.441c-.395.383-.93.597-1.488.597zm0 8.979h-177.865c-.558 0-1.094-.215-1.488-.597-.395-.382-.617-.901-.617-1.441 0-.541.222-1.059.617-1.442.394-.382.93-.597 1.488-.597h177.865c.558 0 1.093.215 1.488.597.395.383.617.901.617 1.442 0 .54-.222 1.059-.617 1.441s-.93.597-1.488.597z"/></g><path d="m358.396 179.635c.445.682.748 1.443.894 2.24.145.797.129 1.614-.047 2.406-.176.791-.509 1.54-.98 2.205s-1.071 1.232-1.764 1.67l-2.185 1.377c-.694.437-1.469.736-2.28.879-.811.144-1.643.129-2.447-.044-.805-.173-1.568-.5-2.244-.962-.676-.463-1.253-1.052-1.698-1.733l-8.651-13.262c-3.807-5.836-12.322-6.031-16.475-.377l-4.007 5.454c-.709.974-1.694 1.722-2.832 2.151-1.138.428-2.379.518-3.568.259l-.299-.064c-1.229-.318-2.33-.999-3.152-1.951-.822-.953-1.327-2.131-1.445-3.375l-6.6-64.57c-.116-1.13.088-2.269.591-3.292s1.284-1.89 2.257-2.503 2.1-.95 3.255-.972c1.156-.022 2.295.27 3.291.846l56.935 32.838c1.086.637 1.95 1.582 2.48 2.711.53 1.128.7 2.388.488 3.614s-.795 2.361-1.675 3.255c-.879.894-2.013 1.506-3.252 1.756l-6.448 1.253c-6.999 1.358-10.429 9.349-6.561 15.281z" fill="#fd5c00"/></svg>