<svg fill="none" height="339" viewBox="0 0 533 339" width="533" xmlns="http://www.w3.org/2000/svg" xmlns:xlink="http://www.w3.org/1999/xlink"><clipPath id="a"><rect height="339" rx="10" width="533"/></clipPath><g clip-path="url(#a)"><rect fill="#cce9ff" height="339" rx="10" width="533"/><path clip-rule="evenodd" d="m329.892 59h-238.3365c-5.8296 0-10.5555 4.7259-10.5555 10.5555v220.8885c0 5.83 4.7259 10.556 10.5555 10.556h330.8885c5.83 0 10.556-4.726 10.556-10.556v-132.297c-5.225.652-10.804-1.725-13.205-8.12-3.919-10.44-18.464-11.034-23.222-.948-6.585 13.962-27.678 6.144-23.572-8.738 2.966-10.75-8.452-19.78-18.229-14.417-13.535 7.425-26.004-11.298-13.935-20.924 8.719-6.9538 4.789-20.9706-6.274-22.3785-13.135-1.6715-14.329-18.4445-4.671-23.6215z" fill="#fff" fill-rule="evenodd"/><path d="m383.277 28.5117c-1.993-10.5016 13.004-14.7106 16.755-4.7022 2.712 7.2356 12.793 7.6368 16.079.6409 4.547-9.6799 19.139-4.2043 16.308 6.1086-2.046 7.4551 5.868 13.7206 12.641 9.9964 9.386-5.1603 18.009 7.8497 9.644 14.54-6.041 4.8315-3.317 14.5578 4.352 15.5415 10.62 1.362 10.011 16.963-.687 17.439-7.72.3436-11.227 9.8142-5.607 15.1181 7.774 7.336-1.847 19.607-10.759 13.705-6.44-4.266-14.844 1.323-13.403 8.915 1.994 10.501-13.003 14.71-16.754 4.702-2.712-7.236-12.793-7.637-16.079-.641-4.548 9.68-19.14 4.204-16.309-6.108 2.047-7.456-5.867-13.721-12.641-9.997-9.385 5.16-18.008-7.85-9.643-14.5398 6.041-4.8315 3.317-14.5579-4.353-15.5415-10.62-1.3621-10.01-16.9631.687-17.4391 7.721-.3435 11.227-9.8142 5.607-15.1177-7.774-7.3366 1.848-19.6078 10.76-13.7052 6.44 4.266 14.844-1.3229 13.402-8.915z" fill="#3f8ae0"/><path d="m403.873 99.8098c-4.188-.373-8.783-2.1076-11.873-4.7095l3.571-4.8286c3.224 2.2935 6.449 3.841 10.155 3.841 4.458 0 6.654-1.9817 6.654-5.324 0-8.172-18.664-6.9974-18.664-18.6375 0-5.7572 3.981-9.8465 10.158-10.834v-6.3172h5.49v6.1914c4.391.4987 7.408 2.4148 9.948 4.8286l-4.048 4.1494c-2.539-2.102-4.666-3.2821-7.959-3.2821-3.708 0-5.97 1.7346-5.97 4.9555 0 7.426 18.665 5.9442 18.665 18.4516 0 5.8785-3.845 10.2139-10.636 11.3283v6.3773h-5.49z" fill="#fff"/><path d="m205.256 279h-58.512c-3.736 0-6.744-3.046-6.744-6.83v-61.34c0-3.784 3.008-6.83 6.744-6.83h58.512c3.736 0 6.744 3.046 6.744 6.83v61.308c0 3.784-3.008 6.862-6.744 6.862z" fill="#cce9ff"/><path d="m221 265.56v-69.359c0-.825-.99-1.245-1.584-.672l-10.13 9.777c-.183.176-.286.419-.286.672v68.893c0 .814.968 1.239 1.567.688l10.131-9.311c.192-.177.302-.427.302-.688z" fill="#c7e3f8"/><path d="m208.072 206h-64.617c-.454 0-.641-.583-.272-.847l13.931-9.978c.159-.114.349-.175.544-.175h63.389c.913 0 1.285 1.174.538 1.699l-12.975 9.131c-.158.111-.345.17-.538.17z" fill="#d6edff"/><path d="m186.361 78c-2.944 11.0479-14.691 39.478.032 53.03 4.122 4.714 15.952 15.713 21.351 20.623 5.889 4.173 14.428 15.172 1.472 25.778-16.195 13.258-30.216 16.94-30.216 23.569" stroke="#3f8ae0" stroke-width="1.58333"/><path d="m367 249.163c-10.616-16.355-33.095-49.483-45.065-64.803-11.982-15.299-24.612-30.111-38.104-44.103-6.749-6.99-13.718-13.777-20.966-20.246-3.627-3.235-7.319-6.397-11.083-9.469-3.776-3.059-7.623-6.026-11.561-8.877-7.863-5.7072-16.108-10.9135-24.774-15.3259-8.66-4.3993-17.945-7.1344-27.454-9.3391l-2.993.3323c8.845 2.6074 18.304 5.9286 26.795 10.4321 8.492 4.5229 16.562 9.8203 24.257 15.6186 3.847 2.896 7.617 5.903 11.302 9.007 3.679 3.111 7.287 6.319 10.823 9.593 7.073 6.553 13.868 13.412 20.448 20.473 13.149 14.135 25.429 29.077 37.062 44.495 11.613 15.43 33.762 48.688 43.957 65.049z" fill="#0b4870"/><g fill="#fd5c00"><circle cx="280.5" cy="146.5" r="4.5"/><circle cx="307.5" cy="177.5" r="4.5"/><circle cx="333.5" cy="213.5" r="4.5"/><path d="m174.753 256.978c-3.44-.303-7.215-1.71-9.753-3.821l2.934-3.918c2.647 1.861 5.296 3.117 8.341 3.117 3.662 0 5.466-1.608 5.466-4.32 0-6.63-15.331-5.677-15.331-15.121 0-4.671 3.27-7.989 8.344-8.79v-5.125h4.509v5.023c3.608.405 6.085 1.959 8.172 3.918l-3.325 3.366c-2.086-1.705-3.833-2.663-6.538-2.663-3.045 0-4.904 1.408-4.904 4.021 0 6.025 15.332 4.823 15.332 14.97 0 4.769-3.158 8.287-8.737 9.191v5.174h-4.509z"/></g></g></svg>