<svg width="387" height="250" viewBox="0 0 387 250" fill="none" xmlns="http://www.w3.org/2000/svg">
<rect width="387" height="250" rx="10" fill="#CCE9FF"/>
<mask id="mask0_1501_7692" style="mask-type:alpha" maskUnits="userSpaceOnUse" x="0" y="0" width="387" height="250">
<rect width="387" height="250" fill="#D9D9D9"/>
</mask>
<g mask="url(#mask0_1501_7692)">
<path d="M351.886 161.256C354.508 155.199 356.222 148.882 357.027 142.498L370.033 138.152L368.177 123.366L366.32 108.58L352.672 107.555C350.309 101.569 347.084 95.8641 343.051 90.6497L349.151 78.3936L337.384 69.2552L325.643 60.1131L315.275 69.0424C309.217 66.4205 302.9 64.7069 296.514 63.903L292.168 50.8989L277.38 52.7558L262.591 54.6126L261.569 68.2857C255.582 70.6481 249.876 73.8732 244.661 77.9054L232.403 71.8076L223.262 83.5731L214.118 95.3117L223.049 105.678C220.426 111.735 218.712 118.052 217.908 124.437L204.901 128.782L206.758 143.568L208.614 158.354L222.289 159.376C224.652 165.361 227.877 171.066 231.91 176.281L225.811 188.537L237.577 197.675L249.344 206.814L259.713 197.885C265.771 200.506 272.088 202.22 278.474 203.024L282.82 216.028L297.608 214.171L312.396 212.314L313.419 198.641C319.406 196.279 325.112 193.054 330.327 189.022L342.585 195.119L351.726 183.354L360.866 171.588L351.886 161.256ZM265.068 162.288C249.154 149.915 246.279 126.971 258.654 111.058C271.03 95.1452 293.978 92.2704 309.893 104.643C325.808 117.015 328.682 139.96 316.307 155.873C303.931 171.785 280.983 174.66 265.068 162.288Z" fill="#F0F6FD" fill-opacity="0.7"/>
<path d="M200.188 226.818C201.923 220.449 202.721 213.953 202.609 207.519L214.865 201.367L210.924 186.996L206.983 172.625L193.328 173.551C190.138 167.962 186.134 162.774 181.401 158.186L185.695 145.187L172.748 137.815L159.826 130.436L150.833 140.749C144.464 139.016 137.967 138.218 131.532 138.331L125.381 126.077L111.007 130.018L96.6331 133.96L97.5655 147.639C91.976 150.829 86.7865 154.833 82.1977 159.566L69.1972 155.274L61.8232 168.22L54.4418 181.14L64.7559 190.131C63.0215 196.499 62.2232 202.995 62.3352 209.43L50.0792 215.581L54.02 229.953L57.9607 244.324L71.6423 243.391C74.8321 248.979 78.8362 254.167 83.5695 258.755L79.2755 271.754L92.2227 279.126L105.17 286.498L114.163 276.185C120.532 277.918 127.029 278.716 133.464 278.603L139.615 290.857L153.989 286.915L168.363 282.974L167.431 269.294C173.02 266.105 178.21 262.101 182.799 257.368L195.799 261.66L203.173 248.714L210.547 235.768L200.188 226.818ZM114.4 240.188C96.8877 230.205 90.779 207.903 100.765 190.391C110.751 172.88 133.057 166.77 150.57 176.753C168.083 186.736 174.191 209.039 164.205 226.55C154.219 244.061 131.913 250.171 114.4 240.188Z" fill="#F0F6FD" fill-opacity="0.7"/>
<path d="M180.6 67.6153C184.008 61.9631 186.551 55.9322 188.201 49.712L201.671 47.1428L201.806 32.2415L201.941 17.3401L188.552 14.5005C187.011 8.25324 184.576 2.16829 181.276 -3.53804L188.958 -14.8696L178.517 -25.4979L168.103 -36.1263L156.635 -28.6621C150.982 -32.0697 144.95 -34.6118 138.729 -36.2615L136.159 -49.7296L121.255 -49.8648L106.351 -50L103.511 -36.5861C97.2629 -35.0446 91.177 -32.6106 85.4697 -29.3112L74.1363 -36.9917L63.5061 -26.5527L52.876 -16.1406L60.3414 -4.6739C56.9333 0.97834 54.3907 7.0092 52.7407 13.2294L39.2705 15.7986L39.1352 30.6999L39 45.6013L52.4162 48.4409C53.9579 54.6882 56.3923 60.7731 59.6923 66.4794L52.0104 77.811L62.4512 88.4393L72.892 99.0677L84.3607 91.6035C90.0139 95.0111 96.0457 97.5532 102.267 99.2029L104.837 112.671L119.74 112.806L134.644 112.941L137.484 99.5275C143.733 97.986 149.819 95.552 155.526 92.2526L166.859 99.9331L177.489 89.4941L188.12 79.055L180.6 67.6153ZM94.4228 57.041C80.3034 42.6535 80.5198 19.5307 94.9097 5.4136C109.3 -8.70348 132.426 -8.48713 146.546 5.9004C160.665 20.2879 160.449 43.4107 146.059 57.5278C131.669 71.6449 108.542 71.4285 94.4228 57.041Z" fill="#F0F6FD" fill-opacity="0.7"/>
</g>
<path d="M143.312 68.3773C143.312 53.3694 155.479 41.2031 170.487 41.2031H211.199C226.207 41.2031 238.373 53.3694 238.373 68.3773V163.089C238.373 188.102 218.096 208.379 193.083 208.379H188.603C163.59 208.379 143.312 188.102 143.312 163.089V68.3773Z" fill="#3F8AE0"/>
<rect x="165.156" y="63.0547" width="50.7484" height="79.4322" fill="#3F8AE0"/>
<path d="M164.476 103.566C164.476 129.671 164.14 141.738 164.388 143.486C164.412 143.654 164.556 143.708 164.726 143.708C168.514 143.702 211.43 143.605 213.341 143.605L214.073 143.645C214.699 143.678 215.225 143.18 215.225 142.554V103.566V64.2639C215.225 63.6604 214.735 63.1712 214.132 63.1712L189.69 63.1729H165.569C164.965 63.1729 164.476 63.6621 164.476 64.2656V103.566ZM199.271 64.9883C199.271 65.4926 199.574 65.6943 200.028 65.4926C200.431 65.3413 200.784 65.4422 200.784 65.6943C200.784 65.9969 200.431 66.1986 200.028 66.1986C199.624 66.1986 199.271 66.5516 199.271 66.955C199.271 67.3584 199.019 67.7114 198.717 67.7114C198.465 67.7114 198.364 67.4593 198.515 67.1567C198.717 66.8541 198.414 66.5012 197.809 66.3499C197.204 66.1986 196.75 65.896 196.75 65.6439C196.75 65.3917 197.053 65.3413 197.456 65.4926C197.859 65.6439 198.313 65.4926 198.565 65.1396C198.818 64.7362 198.717 64.6353 198.263 64.9379C197.809 65.19 197.708 65.1396 197.96 64.7866C198.465 63.9293 199.271 64.0302 199.271 64.9883ZM173.049 65.7952C173.049 66.0977 173.452 66.1482 173.906 65.9969C174.41 65.7952 174.612 65.8456 174.36 66.0473C174.158 66.249 173.2 66.4507 172.242 66.5011C170.931 66.5011 170.528 66.3499 170.528 65.6943C170.528 65.0387 170.83 64.8875 171.788 65.0892C172.494 65.19 173.049 65.543 173.049 65.7952ZM205.323 66.1482C205.323 66.6524 204.97 67.0559 204.566 67.0559C203.76 67.0559 203.659 66.7029 204.113 65.4926C204.516 64.484 205.323 64.9379 205.323 66.1482ZM209.155 66.602C208.248 67.4089 208.248 67.4089 208.752 66.4003C208.954 65.997 209.11 65.5938 209.163 65.3397C209.197 65.1736 209.174 64.9725 209.318 65.0615C209.382 65.1009 209.463 65.1605 209.559 65.2404C209.912 65.543 209.76 65.9969 209.155 66.602ZM212.383 66.0977C212.383 66.6524 211.979 67.0054 211.374 67.0559C210.769 67.1063 210.366 66.8541 210.366 66.4003C210.366 65.9969 210.567 65.7447 210.819 65.9464C211.072 66.0977 211.425 65.9969 211.626 65.6943C212.08 64.9379 212.383 65.0892 212.383 66.0977ZM213.29 69.426C212.786 69.9302 212.534 69.9807 212.231 69.5268C211.929 69.1234 211.727 69.1738 211.525 69.6781C211.324 70.2328 211.172 70.2328 210.87 69.6781C210.517 69.1738 210.315 69.1738 209.66 69.6781C209.155 70.0815 208.853 70.132 208.853 69.8294C208.853 69.5268 208.449 69.1738 207.995 69.073C207.491 68.9217 208.651 68.8208 210.517 68.7704C213.391 68.72 213.845 68.8208 213.29 69.426ZM172.797 74.267C172.948 74.5696 172.545 74.7713 171.839 74.7713C170.628 74.7713 169.015 75.9312 169.015 76.8389C169.015 77.3936 169.368 77.3936 170.477 76.7884C171.133 76.4859 171.687 76.5363 172.444 77.091C174.461 78.503 173.553 80.8227 170.931 80.8227C167.905 80.8227 167.552 75.1747 170.528 74.1158C171.738 73.6619 172.444 73.7123 172.797 74.267ZM181.117 74.0149C181.117 74.1662 180.714 74.8722 180.26 75.5782C179.453 76.8389 179.453 76.9397 180.26 77.3936C181.269 77.9483 181.37 79.3603 180.512 80.2175C179.756 80.9739 177.234 81.0244 176.781 80.2175C176.528 79.8141 176.781 79.7637 177.537 79.9654C179.1 80.3688 180.109 79.915 180.109 78.7551C180.109 78.15 179.756 77.797 179.1 77.797C177.89 77.797 177.789 77.1414 178.848 76.2841C180.008 75.326 179.756 74.7713 178.041 74.7713C177.184 74.7713 176.629 74.5696 176.831 74.267C177.134 73.7628 181.117 73.5611 181.117 74.0149ZM207.542 123.031L207.38 127.598C207.358 128.216 207.853 128.729 208.472 128.729H208.701C209.811 128.729 209.962 128.83 209.357 129.233C208.802 129.586 209.004 129.738 210.265 129.738C211.273 129.738 211.828 129.536 211.626 129.233C211.475 128.931 211.778 128.729 212.332 128.729C213.341 128.729 213.341 128.427 213.24 120.156C213.19 115.416 213.29 111.584 213.543 111.584C213.744 111.584 213.896 115.769 213.896 120.913V129.153C213.896 129.775 213.378 130.271 212.757 130.245L210.265 130.141L207.749 130.038C207.118 130.012 206.64 129.458 206.708 128.83L206.735 128.578C206.836 127.721 206.684 127.216 206.281 127.216C205.777 127.216 205.777 127.065 206.23 126.611C206.684 126.157 206.836 120.459 206.936 104.524L207.037 83.0919L207.39 100.237C207.592 109.667 207.642 119.955 207.542 123.031ZM166.998 116.879C166.998 123.031 166.897 124.191 166.241 124.191C165.586 124.191 165.485 123.031 165.485 116.879C165.485 110.726 165.586 109.567 166.241 109.567C166.897 109.567 166.998 110.726 166.998 116.879ZM206.079 125.703C206.18 125.905 205.978 126.409 205.524 126.762C204.869 127.267 204.667 127.267 204.264 126.662C204.012 126.258 203.81 125.855 203.81 125.703C203.81 125.25 205.777 125.25 206.079 125.703ZM198.061 126.662C198.061 127.569 195.842 128.578 193.724 128.628C193.321 128.679 192.312 128.78 191.455 128.88C189.993 129.082 187.169 127.922 187.169 127.115C187.169 126.409 188.127 126.662 188.581 127.519C188.934 128.174 189.337 128.225 190.85 127.821C191.909 127.519 192.716 127.468 192.716 127.771C192.716 128.046 196.963 126.447 197.852 125.888C197.97 125.814 198.045 125.806 198.052 125.945C198.061 126.116 198.061 126.381 198.061 126.662ZM180.512 127.015C181.319 128.074 182.882 128.578 183.488 127.973C184.244 127.166 186.664 127.62 186.664 128.527C186.664 129.334 185.353 129.486 184.899 128.679C184.647 128.326 184.244 128.427 183.588 128.981C182.731 129.788 182.58 129.788 181.319 128.78C180.512 128.124 179.554 127.821 178.999 127.973C178.445 128.174 178.092 128.023 178.041 127.62C178.041 127.267 177.84 127.418 177.587 127.973C177.285 128.679 177.134 128.729 177.134 128.174C177.083 127.771 177.335 127.166 177.587 126.914C178.243 126.258 180.058 126.359 180.512 127.015ZM166.241 130.292C165.737 131.099 170.528 130.797 171.334 129.99C171.788 129.586 172.393 129.233 172.696 129.233C173.049 129.233 172.999 129.435 172.545 129.738C172.257 129.917 172.072 130.122 172.026 130.28C171.994 130.388 172.083 130.461 172.195 130.474C174.004 130.692 191.063 131.152 201.44 131.2C206.735 131.251 206.836 131.251 206.836 132.41C206.836 133.419 206.583 133.621 205.323 133.621C204.64 133.621 204.138 133.476 204.091 133.31C204.073 133.247 204.152 133.174 204.108 133.125C204.016 133.023 203.567 133.053 202.953 133.217C200.381 133.923 195.086 133.419 194.33 132.41C193.674 131.553 193.624 131.553 193.926 132.511C194.178 133.419 193.977 133.52 191.959 133.52C190.699 133.52 189.69 133.368 189.69 133.167C189.69 132.662 188.026 133.318 187.522 133.974C187.219 134.327 187.169 134.175 187.37 133.671C187.522 133.167 187.421 132.662 187.169 132.511C186.866 132.31 186.664 132.461 186.664 132.713C186.664 133.015 186.059 133.268 185.353 133.268C184.748 133.268 184.328 133.119 184.348 132.918C184.355 132.841 184.441 132.768 184.4 132.703C184.215 132.41 182.081 132.923 181.117 133.52C180.865 133.671 180.613 133.419 180.563 132.915C180.563 132.057 180.512 132.057 180.159 132.965C179.806 133.822 179.756 133.822 178.999 133.066C178.092 132.158 177.335 131.957 177.84 132.763C178.293 133.469 177.436 133.419 176.68 132.662C176.276 132.259 176.075 132.259 176.075 132.612C176.075 133.268 173.654 133.822 173.301 133.217C173.15 133.015 171.334 132.864 169.267 132.915L166.607 132.986C165.992 133.002 165.485 132.508 165.485 131.893V131.099C165.485 129.939 165.686 129.284 165.989 129.486C166.292 129.687 166.392 130.04 166.241 130.292Z" fill="#F0F6FD"/>
<path d="M170.179 77.6471C169.272 78.0001 169.372 79.6642 170.28 80.0172C171.541 80.4711 172.6 79.7651 172.449 78.6052C172.297 77.5463 171.339 77.1428 170.179 77.6471Z" fill="#F0F6FD"/>
<path d="M173.704 163.078L179.827 169.201C180.672 170.045 180.691 171.408 179.871 172.276L173.752 178.756C173.062 179.486 171.965 179.658 171.084 179.174L163.412 174.954C162.707 174.567 162.269 173.826 162.269 173.021V168.472C162.269 167.636 162.741 166.872 163.489 166.499L171.157 162.664C172.007 162.24 173.033 162.406 173.704 163.078Z" fill="#FD5C00"/>
<path d="M205.999 163.078L199.876 169.201C199.031 170.045 199.012 171.408 199.832 172.276L205.951 178.756C206.641 179.486 207.738 179.658 208.619 179.174L216.291 174.954C216.996 174.567 217.434 173.826 217.434 173.021V168.472C217.434 167.636 216.962 166.872 216.214 166.499L208.546 162.664C207.696 162.24 206.67 162.406 205.999 163.078Z" fill="#FD5C00"/>
<path d="M196.41 168.654H183.803C183.218 168.654 182.656 168.421 182.243 168.007L175.902 161.667C174.96 160.725 175.061 159.17 176.117 158.357L180.232 155.192C180.618 154.895 181.091 154.734 181.577 154.734H198.635C199.122 154.734 199.595 154.895 199.981 155.192L204.096 158.357C205.152 159.17 205.252 160.725 204.311 161.667L197.97 168.007C197.556 168.421 196.995 168.654 196.41 168.654Z" fill="#FD5C00"/>
<path d="M195.894 173.292H183.287C182.702 173.292 182.141 173.524 181.727 173.938L175.386 180.279C174.444 181.221 174.545 182.776 175.601 183.588L179.716 186.753C180.102 187.05 180.575 187.211 181.062 187.211H198.12C198.606 187.211 199.079 187.05 199.465 186.753L203.58 183.588C204.636 182.776 204.737 181.221 203.795 180.279L197.454 173.938C197.041 173.524 196.479 173.292 195.894 173.292Z" fill="#FD5C00"/>
</svg>
