<svg fill="none" height="338" viewBox="0 0 533 338" width="533" xmlns="http://www.w3.org/2000/svg" xmlns:xlink="http://www.w3.org/1999/xlink"><clipPath id="a"><rect height="338" rx="10" width="533"/></clipPath><g clip-path="url(#a)"><path d="m0 0h533v338h-533z" fill="#d9d9d9"/><path d="m484.308 217.78c3.612-8.176 5.973-16.703 7.081-25.322l17.906-5.869-2.553-19.959-2.552-19.959-18.789-1.381c-3.251-8.079-7.69-15.78-13.24-22.818l8.399-16.546-16.197-12.3335-16.16-12.3384-14.275 12.0557c-8.339-3.5381-17.035-5.85-25.826-6.9339l-5.98-17.5532-20.358 2.5096-20.358 2.5095-1.411 18.4574c-8.242 3.1901-16.098 7.5449-23.278 12.9888l-16.873-8.2288-12.586 15.8838-12.59 15.848 12.292 13.992c-3.612 8.177-5.973 16.704-7.082 25.323l-17.905 5.868 2.552 19.959 2.553 19.959 18.825 1.377c3.251 8.079 7.69 15.78 13.241 22.818l-8.399 16.546 16.196 12.333 16.197 12.334 14.276-12.056c8.339 3.538 17.035 5.85 25.825 6.934l5.98 17.553 20.358-2.509 20.359-2.51 1.411-18.457c8.241-3.19 16.097-7.545 23.278-12.989l16.873 8.229 12.585-15.884 12.585-15.884zm-119.515 1.411c-21.906-16.698-25.858-47.67-8.819-69.153 17.04-21.483 48.631-25.369 70.537-8.67 21.906 16.698 25.858 47.67 8.819 69.153s-48.631 25.368-70.537 8.67z" fill="#f0f6fd" fill-opacity=".7"/><path d="m276.254 306.992c2.385-8.626 3.48-17.427 3.321-26.144l16.883-8.326-5.44-19.473-5.44-19.473-18.814 1.245c-4.399-7.573-9.92-14.605-16.445-20.824l5.907-17.608-17.844-9.996-17.808-10.007-12.385 13.967c-8.776-2.353-17.729-3.438-26.595-3.29l-8.484-16.606-19.802 5.33-19.802 5.33 1.294 18.534c-7.699 4.317-14.847 9.739-21.166 16.148l-17.9158-5.824-10.1511 17.534-10.1613 17.499 14.2175 12.188c-2.3853 8.627-3.4807 17.427-3.3217 26.144l-16.8826 8.326 5.4399 19.473 5.4398 19.473 18.8504-1.255c4.3989 7.573 9.9199 14.605 16.4449 20.824l-5.908 17.608 17.845 9.996 17.844 9.997 12.384-13.967c8.777 2.353 17.729 3.439 26.596 3.29l8.484 16.606 19.802-5.33 19.802-5.33-1.294-18.534c7.699-4.317 14.846-9.738 21.166-16.148l17.915 5.825 10.152-17.535 10.151-17.534zm-118.193 18.055c-24.137-13.537-32.569-43.756-18.823-67.474 13.747-23.717 44.477-31.979 68.614-18.442s32.569 43.756 18.823 67.474c-13.747 23.717-44.477 31.979-68.614 18.442z" fill="#f0f6fd" fill-opacity=".7"/><path d="m248.189 90.8017c4.691-7.6316 8.19-15.7743 10.461-24.1726l18.54-3.4689.186-20.1195.186-20.1195-18.428-3.8341c-2.122-8.4348-5.472-16.65059-10.014-24.35515l10.573-15.29955-14.37-14.3503-14.333-14.3502-15.785 10.0781c-7.781-4.6009-16.083-8.0332-24.645-10.2606l-3.537-18.1843-20.512-.1825-20.513-.1826-3.909 18.1112c-8.6 2.0813-16.976 5.3676-24.831 9.8224l-15.599-10.3701-14.6305 14.0946-14.6307 14.0581 10.275 15.48213c-4.6907 7.631535-8.1902 15.77428-10.4611 24.17257l-18.5396 3.4689-.1862 20.1196-.1861 20.1194 18.4652 3.8341c2.122 8.4348 5.4725 16.6506 10.0143 24.3552l-10.5728 15.2999 14.3701 14.35 14.3701 14.35 15.7843-10.078c7.781 4.601 16.083 8.033 24.645 10.261l3.537 18.184 20.513.182 20.512.183 3.909-18.111c8.6-2.082 16.976-5.368 24.832-9.823l15.598 10.371 14.631-14.095 14.631-14.095zm-118.609-14.2772c-19.433-19.4257-19.135-50.6456.67-69.70623 19.806-19.06057 51.636-18.76847 71.069.65725 19.433 19.42578 19.135 50.64568-.67 69.70618-19.806 19.0606-51.636 18.7685-71.069-.6572z" fill="#f0f6fd" fill-opacity=".7"/><path d="m198 84.1742c0-15.0079 12.166-27.1742 27.174-27.1742h76.652c15.008 0 27.174 12.1663 27.174 27.1742v157.5358c0 25.013-20.277 45.29-45.29 45.29h-40.42c-25.013 0-45.29-20.277-45.29-45.29z" fill="#fd5c00"/><path d="m228 87h70v109h-70z" fill="#3f8ae0"/><path d="m227.246 142.672c0 36.514-.476 53.1-.104 55.117.03.167.17.207.34.207 4.429-.007 64.282-.142 66.929-.142l1.438.078c.625.034 1.151-.465 1.151-1.091v-54.169-54.5793c0-.6035-.489-1.0927-1.093-1.0926l-34.004.0023h-33.564c-.603 0-1.093.4892-1.093 1.0927zm47.827-53.1676c0 .695.415.973 1.039.695.555-.2085 1.04-.0695 1.04.278 0 .417-.485.695-1.04.695-.554 0-1.039.4865-1.039 1.0425s-.347 1.0425-.763 1.0425c-.346 0-.485-.3475-.277-.7645.277-.417-.139-.9035-.971-1.112-.831-.2085-1.455-.6255-1.455-.973s.416-.417.97-.2085c.555.2085 1.179 0 1.525-.4865.347-.556.208-.695-.416-.278-.624.3475-.762.278-.416-.2085.694-1.1815 1.803-1.0425 1.803.278zm-36.043 1.112c0 .417.554.4865 1.178.278.693-.278.97-.2085.624.0695-.277.278-1.594.556-2.911.6255-1.802 0-2.357-.2085-2.357-1.112s.416-1.112 1.733-.834c.97.139 1.733.6255 1.733.973zm44.36.4865c0 .695-.485 1.251-1.04 1.251-1.109 0-1.247-.4865-.623-2.1545.554-1.39 1.663-.7645 1.663.9035zm5.268.6255c-1.248 1.112-1.248 1.112-.555-.278.305-.61.535-1.22.582-1.5581.023-.1677-.041-.4082.112-.3344.096.0466.237.1446.415.294.486.417.278 1.0425-.554 1.8765zm4.436-.695c0 .7645-.555 1.251-1.386 1.3205-.832.0695-1.387-.278-1.387-.9035 0-.556.278-.9035.624-.6255.347.2085.832.0695 1.109-.3475.624-1.0425 1.04-.834 1.04.556zm1.248 4.587c-.694.695-1.04.7645-1.456.139-.416-.556-.693-.4865-.97.2085-.278.7645-.486.7645-.901 0-.486-.695-.763-.695-1.664 0-.693.556-1.109.6255-1.109.2085s-.555-.9035-1.178-1.0425c-.693-.2085.901-.3475 3.465-.417 3.951-.0695 4.575.0695 3.813.9035zm-55.659 6.6716c.208.417-.346.695-1.317.695-1.663 0-3.881 1.599-3.881 2.85 0 .764.485.764 2.01-.07.901-.417 1.663-.347 2.703.417 2.772 1.946 1.525 5.143-2.079 5.143-4.159 0-4.644-7.784-.555-9.243 1.664-.626 2.634-.556 3.119.208zm11.437-.347c0 .208-.555 1.181-1.179 2.154-1.109 1.738-1.109 1.877 0 2.502 1.387.765 1.525 2.711.347 3.892-1.04 1.043-4.505 1.112-5.129 0-.347-.556 0-.625 1.04-.347 2.148.556 3.535-.07 3.535-1.668 0-.834-.486-1.321-1.387-1.321-1.663 0-1.802-.903-.346-2.085 1.594-1.32 1.247-2.085-1.109-2.085-1.179 0-1.941-.278-1.664-.695.416-.695 5.892-.973 5.892-.347zm36.32 67.554-.237 6.722c-.022.618.473 1.131 1.092 1.131h.739c1.525 0 1.733.139.901.695-.762.487-.485.695 1.248.695 1.386 0 2.148-.278 1.871-.695-.208-.417.208-.695.971-.695 1.386 0 1.386-.417 1.247-11.815-.069-6.533.07-11.815.416-11.815.277 0 .485 5.769.485 12.858v11.787c0 .622-.517 1.118-1.138 1.092l-3.852-.161-3.895-.16c-.631-.026-1.108-.58-1.041-1.208l.084-.786c.138-1.182-.069-1.877-.624-1.877-.693 0-.693-.208-.069-.834.624-.625.831-8.479.97-30.441l.139-29.537.485 23.63c.277 12.996.346 27.174.208 31.414zm-55.728-8.479c0 8.479-.138 10.077-1.04 10.077-.901 0-1.039-1.598-1.039-10.077s.138-10.078 1.039-10.078c.902 0 1.04 1.599 1.04 10.078zm53.718 12.162c.138.278-.139.973-.763 1.46-.901.695-1.178.695-1.732-.139-.347-.556-.624-1.112-.624-1.321 0-.625 2.703-.625 3.119 0zm-11.021 1.321c0 1.251-3.05 2.641-5.961 2.71-.554.07-1.941.209-3.119.348-2.01.278-5.892-1.321-5.892-2.433 0-.973 1.317-.625 1.941.556.485.904 1.04.973 3.119.417 1.456-.417 2.565-.486 2.565-.069 0 .386 6.076-1.915 7.128-2.64.114-.079.192-.096.202.043.017.228.017.634.017 1.068zm-24.121.486c1.109 1.46 3.258 2.155 4.09 1.321 1.039-1.112 4.366-.487 4.366.764 0 1.112-1.802 1.321-2.426.209-.346-.487-.901-.348-1.802.417-1.178 1.112-1.386 1.112-3.119-.278-1.109-.904-2.426-1.321-3.188-1.112-.763.278-1.248.069-1.317-.487 0-.486-.278-.278-.624.487-.416.973-.624 1.042-.624.278-.069-.556.277-1.39.624-1.738.901-.903 3.396-.764 4.02.139zm-19.616 4.518c-.693 1.112 5.892.695 7.001-.417.624-.556 1.456-1.043 1.872-1.043.485 0 .415.278-.208.695-.434.272-.699.587-.726.81-.014.112.074.182.185.198 2.146.297 25.872.941 40.257 1.008 7.278.069 7.416.069 7.416 1.668 0 1.39-.346 1.668-2.079 1.668-.988 0-1.701-.221-1.698-.466.001-.065.069-.124.047-.186-.062-.178-.703-.146-1.607.096-3.535.973-10.812.278-11.852-1.112-.901-1.182-.971-1.182-.555.139.347 1.251.07 1.39-2.703 1.39-1.733 0-3.119-.209-3.119-.487 0-.695-2.287.209-2.98 1.112-.416.487-.486.278-.208-.417.208-.695.069-1.39-.278-1.598-.416-.278-.693-.07-.693.278 0 .417-.832.764-1.802.764-.875 0-1.468-.226-1.373-.525.023-.073.092-.137.079-.212-.087-.489-3.162.237-4.528 1.085-.347.208-.693-.139-.763-.834 0-1.182-.069-1.182-.554.069-.485 1.182-.555 1.182-1.594.139-1.248-1.251-2.288-1.529-1.595-.417.624.973-.554.904-1.594-.139-.554-.556-.831-.556-.831-.069 0 .903-3.328 1.668-3.813.834-.208-.278-2.703-.487-5.545-.417l-4.076.109c-.615.016-1.122-.478-1.122-1.093v-1.518c0-1.599.277-2.502.693-2.224s.554.764.346 1.112z" fill="#f0f6fd"/><path d="m234.868 106.317c-1.246.518-1.107 2.961.138 3.479 1.729.666 3.182-.37 2.974-2.073-.207-1.554-1.522-2.146-3.112-1.406z" fill="#f0f6fd"/><g fill="#3f8ae0"><path d="m239.187 224.151 9.334 9.488c.827.841.846 2.185.043 3.049l-9.33 10.042c-.693.745-1.805.921-2.693.424l-11.411-6.38c-.698-.39-1.13-1.126-1.13-1.925v-7.352c0-.831.466-1.591 1.207-1.967l11.407-5.798c.858-.436 1.898-.266 2.573.419z"/><path d="m284.813 224.151-9.334 9.488c-.827.841-.846 2.185-.043 3.049l9.33 10.042c.693.745 1.805.921 2.693.424l11.411-6.38c.698-.39 1.13-1.126 1.13-1.925v-7.352c0-.831-.466-1.591-1.207-1.967l-11.407-5.798c-.858-.436-1.898-.266-2.573.419z"/><path d="m271.027 232h-18.054c-.582 0-1.14-.23-1.554-.64l-9.62-9.539c-.951-.943-.849-2.509.216-3.321l6.618-5.048c.385-.293.855-.452 1.338-.452h24.058c.483 0 .953.159 1.338.452l6.618 5.048c1.065.812 1.167 2.378.216 3.321l-9.62 9.539c-.414.41-.972.64-1.554.64z"/><path d="m271.027 239h-18.054c-.582 0-1.14.23-1.554.64l-9.62 9.539c-.951.943-.849 2.509.216 3.321l6.618 5.048c.385.293.855.452 1.338.452h24.058c.483 0 .953-.159 1.338-.452l6.618-5.048c1.065-.812 1.167-2.378.216-3.321l-9.62-9.539c-.414-.41-.972-.64-1.554-.64z"/></g></g></svg>