<svg fill="none" height="339" viewBox="0 0 533 339" width="533" xmlns="http://www.w3.org/2000/svg" xmlns:xlink="http://www.w3.org/1999/xlink"><clipPath id="a"><rect height="339" rx="10" width="533"/></clipPath><g clip-path="url(#a)"><rect fill="#cce9ff" height="339" rx="10" width="533"/><path d="m462.293 388.102c-2.108-3.213-2.171-7.34-.282-10.687 8.412-14.899 15.016-30.55 19.767-46.635 1.089-3.688 4.099-6.517 7.876-7.239l29.421-5.622c4.68-.895 8.08-4.967 8.123-9.732l.364-40.185.364-40.205c.043-4.755-3.269-8.883-7.921-9.872l-29.26-6.217c-3.75-.797-6.695-3.673-7.716-7.368-4.472-16.184-10.8-31.983-18.94-47.035-1.821-3.368-1.691-7.476.454-10.646l16.805-24.837c2.665-3.938 2.188-9.209-1.142-12.605l-28.11-28.6695-28.008-28.6387c-3.335-3.4107-8.615-3.9904-12.611-1.3847l-25.032 16.3221c-3.215 2.0964-7.336 2.1506-10.676.2586-14.872-8.4262-30.494-15.0414-46.55-19.8006-3.687-1.0926-6.513-4.1035-7.232-7.8803l-5.617-29.49156c-.891-4.68312-4.965-8.08553-9.732-8.12886l-40.096-.36448-40.112-.36462c-4.76-.04327-8.891 3.27471-9.875 7.93197l-6.215 29.40735c-.792 3.752-3.666 6.7011-7.362 7.7259-16.143 4.4771-31.903 10.8112-46.919 18.9569-3.375 1.8307-7.496 1.7003-10.673-.4563l-24.745-16.8013c-3.944-2.6784-9.231-2.1991-12.63 1.145l-28.6006 28.1394-28.6089 28.0747c-3.396 3.333-3.9736 8.597-1.381 12.586l16.3263 25.125c2.0852 3.209 2.1392 7.317.2573 10.649-8.4193 14.907-15.0283 30.567-19.7819 46.662-1.0892 3.688-4.0989 6.517-7.876 7.239l-29.4213 5.622c-4.68032.895-8.079467 4.967-8.122631 9.732l-.364022 40.185-.3641758 40.201c-.0430942 4.757 3.2712388 8.886 7.9251288 9.873l29.3397 6.222c3.7517.796 6.6991 3.672 7.7206 7.369 4.4719 16.183 10.8001 31.981 18.9394 47.032 1.821 3.368 1.6911 7.476-.4542 10.646l-16.8051 24.837c-2.665 3.938-2.1876 9.209 1.1419 12.605l28.1105 28.669 28.095 28.654c3.337 3.403 8.611 3.979 12.603 1.376l25.04-16.328c3.215-2.097 7.337-2.151 10.676-.259 14.872 8.426 30.495 15.042 46.551 19.801 3.686 1.092 6.512 4.103 7.232 7.88l5.616 29.492c.892 4.683 4.965 8.085 9.732 8.129l40.096.364 40.112.365c4.76.043 8.891-3.275 9.875-7.932l6.215-29.408c.793-3.752 3.667-6.701 7.362-7.726 16.143-4.477 31.904-10.811 46.919-18.956 3.375-1.831 7.497-1.701 10.673.456l24.745 16.801c3.945 2.679 9.232 2.199 12.631-1.145l28.6-28.139 28.598-28.137c3.4-3.346 3.964-8.626 1.348-12.614zm-282.699-39.586c-45.753-46.71-45.052-121.78 1.577-167.612 46.63-45.832 121.57-45.13 167.323 1.58s45.052 121.78-1.578 167.612c-46.629 45.832-121.569 45.13-167.322-1.58z" fill="#f0f6fd" fill-opacity=".7"/><path d="m362.074 92.4689s12.4 18.5731 10.876 25.2021-7.175 7.023-7.175 7.023 8.754 11.134-1.899 15.131c-10.654 3.996-16.078 1.493-16.078 1.493s-27.362-40.281-14.039-49.0098c13.323-8.7292 16.563-16.9427 28.315.1607z" fill="#11405c"/><path d="m289.612 120.396c0 2.87-4.728 18.425-4.423 21.129-.014.014 0 .014 0 .028 2.246 18.952 12.284 33.19 30.03 33.19 20.297 0 42.978-18.619 42.978-41.592 0-8.624-1.04-15.472-2.856-20.879-6.973-20.7134-25.426-20.7134-41.509-20.7134-20.297 0-24.22 5.8645-24.22 28.8374z" fill="#ffe3ca"/><path d="m263.764 196.254c14.701-16.822 30.752-20.902 38.516-6.521 7.758 14.367-1.513 73.833-44.091 107.776-42.577 33.944-130.126-56.331-130.126-56.331l20.156-17.137s41.791 35.995 75.307 40.63 40.238-68.417 40.238-68.417z" fill="#ff640c"/><path d="m327.008 176.644s48.538-2.288 54.015 8.665c5.476 10.953-21.67 196.787-31.319 207.74-28.131 1.372-104.924-9.192-120.673-24.942 3.424-26.009 27.381-182.798 35.603-186.902 8.221-4.104 62.374-4.561 62.374-4.561z" fill="#fd5c00"/><path d="m285.195 141.518c2.246 18.952 12.284 33.19 30.03 33.19 20.297 0 43.45-18.619 43.45-41.592 0-8.624-1.795-20.277-3.611-25.684l-2.551-2.343-.388-1.359s-.965 32.824-2.268 38.051c-1.317 5.213-26.633 7.334-29.724 12.173-2.51-6.378-6.322-10.828-16.998-11.216-6.142-.222-11.479 5.961-12.256 8.082-1.497.402-3.493-4.755-5.684-9.302z" fill="#11405c"/><path d="m105.893 210.059c2.284-.549 13.375 1.06 24.787 4.43l.016.011c8.831 5.345 12.018 10.549 12.521 13.15.517 2.598-12.299 10.707-12.299 10.707s-18.776-5.221-21.573-7.748c-2.808-2.512-4.927-18.857-4.927-18.857l-.002-.013c.285-.905.761-1.505 1.477-1.68z" fill="#fcd2b1"/><path d="m89.1856 136.605 19.4074 36.811-33.4627 17.638-19.4094-36.804c-6.1796 7.484-10.0062 16.629-10.9982 26.284s.8952 19.388 5.4239 27.972c4.5286 8.585 11.4963 15.638 20.0255 20.271s18.2386 6.64 27.9055 5.766l41.3944 78.529c.463.88 1.095 1.659 1.859 2.294s1.646 1.113 2.595 1.407c.95.294 1.947.397 2.937.305.989-.092 1.95-.379 2.829-.843l20.082-10.588c.88-.463 1.659-1.095 2.294-1.859s1.113-1.646 1.407-2.595.397-1.947.305-2.936-.379-1.951-.843-2.829l-41.404-78.524c6.184-7.483 10.016-16.629 11.011-26.285.996-9.656-.889-19.391-5.416-27.979-4.532-8.584-11.502-15.636-20.033-20.269-8.531-4.632-18.2413-6.638-27.9094-5.766z" fill="#3f8ae0"/><path d="m338.411 92.3214s-53.691 36.1666-52.66 9.0616c1.031-27.1041 18.141-21.072 18.141-21.072s-12.337-2.471-7.317-8.4189c5.019-5.9483 14.002 4.5318 39.048-.9473 18.786-4.1085 28.119 16.5997 27.741 32.4122-.126 5.271-2.569 16.718-3.624 13.08-1.335-4.605-2.213-7.751-5.887-9.004-.717-.245-2.143 6.912-2.904 6.591-6.819-2.874-14.766-8.994-12.538-21.7026z" fill="#11405c"/><path d="m170.536 298.177-4.452-15.255s-7.87-4.542-11.082-2.511c-4.382-5.624-5.117-12.165-7.559-15.733-1.724-2.524-8.696 5.919-8.073 9.018.915 4.554-4.788 15.019-4.085 18.866 1.94 10.64 25.422 20.388 25.422 20.388z" fill="#ffe3ca"/><path d="m342.613 235.426c5.93-21.551 18.61-32.185 31.854-22.624 13.23 9.566-6.932 74.864-36.841 115.033-39.412 38.856-179.738-12.447-179.738-12.447l14.312-22.326s64.319 25.105 107.431 17.741c40.072 0 62.982-75.377 62.982-75.377z" fill="#ff640c"/></g></svg>