<svg fill="none" height="338" viewBox="0 0 533 338" width="533" xmlns="http://www.w3.org/2000/svg"><rect fill="#ffe0c2" height="338" rx="10" width="533"/><g clip-rule="evenodd" fill="#fef1e5" fill-rule="evenodd"><path d="m266.638 62.9095c-29.367 0-57.531 11.666-78.297 32.4317-20.765 20.7658-32.431 48.9298-32.431 78.2968s11.666 57.531 32.431 78.297c20.766 20.766 48.93 32.432 78.297 32.432s57.531-11.666 78.297-32.432 32.432-48.93 32.432-78.297-11.666-57.531-32.432-78.2968c-20.766-20.7657-48.93-32.4317-78.297-32.4317zm-147.638 110.7285c0-39.156 15.555-76.7083 43.242-104.3958 27.688-27.6875 65.24-43.2422 104.396-43.2422s76.708 15.5547 104.396 43.2422c27.687 27.6875 43.242 65.2398 43.242 104.3958s-15.555 76.708-43.242 104.396c-27.688 27.687-65.24 43.242-104.396 43.242s-76.708-15.555-104.396-43.242c-27.687-27.688-43.242-65.24-43.242-104.396z"/><path d="m371.04 69.2517c3.46 3.4608 5.403 8.154 5.403 13.0475 0 4.8936-1.943 9.5867-5.403 13.0475l-182.702 182.7023c-3.481 3.362-8.142 5.222-12.981 5.18s-9.468-1.983-12.889-5.405c-3.422-3.422-5.363-8.05-5.405-12.889s1.818-9.501 5.18-12.981l182.702-182.7023c3.461-3.4597 8.154-5.4033 13.048-5.4033 4.893 0 9.586 1.9436 13.047 5.4033z"/></g></svg>