<svg fill="none" height="579" viewBox="0 0 740 579" width="740" xmlns="http://www.w3.org/2000/svg"><path d="m68.9258 442.807c24.4436-47.031 51.3162-92.76 80.5102-137 11.771-17.833 25.004-36.336 44.751-44.499 17.337-7.169 37.604-5.068 54.624 2.824 17.029 7.892 31.112 21.086 42.846 35.726 10.092 12.591 20.824 27.683 36.903 29.023 17.157 1.431 30.721-13.578 41.28-27.178 34.704-44.718 69.408-89.435 104.105-134.153 11.478-14.79 25.674-30.981 44.397-30.929 16.78.045 30.306 13.345 40.767 26.463 61.23 76.799 85.104 175.964 107.329 271.627z" fill="#f7f7f7"/><path d="m304.102 440.92s14.43-1.552 18.03-2.267c3.608-.723 11.9 5.045 9.738 9.014-2.161 3.969-15.507 9.737-23.445 6.853s-10.822 2.282-15.145.776-6.131-17.005-1.8-19.535c4.33-2.53 12.622 5.159 12.622 5.159zm-63.406 12.711c11.832 6.658 21.57 20.002 17.962 24.686-3.607 4.684-17.028 4.692-20.959 0-3.932-4.691-3.932-10.821-6.455-12.26-2.523-1.446-12.261-3.246-11.899-6.491.361-3.246 3.63-12.697 3.63-12.697z" fill="#0b4870"/><path d="m439.7 1.17578c3.204 20.39692 16.02 75.30082-.003 100.32122-4.486 8.703-17.36 29.009-23.236 38.074-6.409 7.706-15.702 28.012-1.602 47.593 17.625 24.476 32.083 34.496 32.083 46.734" stroke="#3f8ae0" stroke-width="1.50151"/><path d="m43.1641 442.415c68.0859 1.437 68.1099 18.404 136.2119 18.404 68.11 0 68.11-18.404 136.212-18.404 68.11 0 68.11 18.404 136.212 18.404 68.11 0 68.11-18.404 136.22-18.404s68.134 16.769 136.22 18.404c16.117.389 15.153 24.803 15.153 24.803-1.872 13.612-15.25 24.258-29.961 28.724-14.72 4.467-30.693 3.95-46.248 3.391l-130.395-4.736c-10.091-.368-23.349 1.345-25.124 10.109-1.607 7.913 7.994 13.668 16.085 17.398 8.091 3.724 17.355 10.285 14.664 17.966-2.395 6.83-12.326 8.48-20.425 8.933-83.383 4.671-269.579 14.907-277.517 10.518-7.939-4.389-11.562-15.558-4.444-20.931 5.143-3.886 14.286-3.907 16.616-9.513 2.893-6.966-8.002-11.758-16.318-12.897-60.966-8.377-122.667-11.869-184.3479-10.434-10.8629.255-22.0873.609-32.1869-2.93-10.0996-3.54-18.801153-12.14-17.86913-21.675.01607-.021-12.84747-58.27 41.24203-57.13z" fill="#cce9ff"/><path d="m275.987 154.185c.091 1.273-1.762 7.071-4.586 12.885l-.008.008c-2.365 4.872-5.422 9.745-8.593 11.974l-5.505-.836c.527-3.08-2.418-12.012-1.379-14.015 1.047-2.003 4.715-9.677 7.886-10.679 2.628-.828 9.165-1.43 11.41-.278h.007c.46.233.738.542.768.941z" fill="#ffe3ca"/><path d="m214.064 276.43s27.941 55.87 28.401 61.925c.459 6.055-19.845 103.766-19.845 103.766h-21.819s5.122-56.601 12.977-77.212c.915-2.404 1.227-4.994.911-7.546s-1.252-4.987-2.726-7.094c-9.015-12.885-24.183-36.773-22.27-43.573 2.485-8.849-3.103-27.472-3.103-27.472z" fill="#1a8ce2"/><path d="m209.15 278.144c-1.521 2.034-9.143 18.277-9.143 18.277s4.06 55.848 0 69.562c-4.059 13.706-45.647 91.393-45.647 91.393h-23.92s16.615-60.321 35.315-83.328c3.509-4.315 4.737-10.046 3.231-15.4-7.795-27.645-15.989-65.548-14.415-80.504 24.108-8.63 54.579 0 54.579 0z" fill="#2a94f4"/><path d="m192.684 177.789c-10.657-5.806-19.605-4.865-20.855 3.923-1.25 8.781 14.664 37.338 42.748 46.623 28.084 9.286 53.985-49.266 53.985-49.266l-13.497-4.94s-12.795 22.283-29.003 30.951c-16.207 8.668-33.378-27.291-33.378-27.291z" fill="#ff640c"/><path d="m166.212 174.291s-26.367-1.242-29.342 4.707 11.771 106.892 17.013 112.841c15.281.746 56.997-4.993 65.553-13.548-1.86-14.128-14.875-99.293-19.341-101.522s-33.883-2.478-33.883-2.478z" fill="#fd5c00"/><path d="m147.82 137.312c-.663 3.111-.354 16.064.309 17.969.662 1.905 3.554 8.864 3.554 8.864l4.813 3.328 1.996 1.777s3.035-3.11 2.809-3.328c-.226-.219-6.07-5.626-6.364-6.288-.301-.663-7.117-22.322-7.117-22.322z" fill="#0b4870"/><path d="m158.425 165.717.361 12.885 19.8 8.051 4.7-11.673-3.171-13.066z" fill="#fcd2b1"/><path d="m187.277 143.75c0 1.559 2.568 10.008 2.402 11.477.008.007 0 .007 0 .015-1.22 10.294-6.672 18.028-16.312 18.028-11.026 0-23.347-10.113-23.347-22.592 0-4.684.564-8.404 1.551-11.341 3.788-11.251 13.812-11.251 22.549-11.251 11.026 0 13.157 3.185 13.157 15.664z" fill="#ffe3ca"/><path d="m189.683 155.228c-1.22 10.295-6.673 18.029-16.313 18.029-11.026 0-23.603-10.114-23.603-22.592 0-4.685.821-8.405 1.807-11.342l1.386-1.272.211-.739s.678 15.22 1.386 18.059c.715 2.832 14.467 3.984 16.147 6.612 1.363-3.464 3.434-5.881 9.233-6.092 3.336-.121 6.236 3.238 6.658 4.39.813.219 1.898-2.583 3.088-5.053z" fill="#0b4870"/><path d="m153.263 151.429c.693 2.282 1.152 5.068-.625 5.61-1.785.542-5.136-1.37-5.829-3.652s.188-4.571 1.973-5.114c1.785-.534 3.788.874 4.481 3.156z" fill="#ffe3ca"/><path d="m185.547 130.855c-5.137-7.786-14.754-15.603-23.769-12.147-9.015 3.457-20.47 9.655-11.734 29.303 2.719-5.408 4.534-9.452 4.534-9.452z" fill="#fd5c00"/><path d="m162.457 140.501s18.075-12.802 25.607-6.024c-1.695-4.172-14.942-19.452-33.5 4.089 2.026 2.342 3.472 4.699 7.893 1.935z" fill="#fd5c00"/><path d="m276 154.165c.09 1.273-1.762 7.072-4.587 12.886l-.007.007c-3.653 4.255-6.726 5.497-8.164 5.535-1.439.045-4.639-7.546-4.639-7.546s4.473-9.594 6.077-10.867c1.597-1.28 10.544-.956 10.544-.956h.008c.459.234.738.542.768.941z" fill="#fcd2b1"/><path d="m242.711 188.644c11.688-17.92 36.439-54.22 49.617-71.006 13.194-16.764 27.1-32.9942 41.955-48.3256 7.431-7.6585 15.104-15.096 23.084-22.1841 3.994-3.544 8.058-7.0096 12.202-10.3754 4.157-3.3515 8.393-6.6032 12.729-9.7265 8.658-6.2538 17.736-11.9585 27.278-16.7932 9.534-4.82047 19.757-7.81739 30.227-10.2332l3.295.364083c-9.738 2.856997-20.153 6.496217-29.502 11.430817-9.35 4.9559-18.235 10.7605-26.707 17.1141-4.236 3.1732-8.387 6.4677-12.444 9.8691-4.051 3.4085-8.023 6.924-11.917 10.5109-7.787 7.1807-15.268 14.6967-22.514 22.4337-14.477 15.4882-27.998 31.8603-40.806 48.7533-12.786 16.908-37.173 53.35-48.398 71.277z" fill="#0b4870"/><g fill="#fd5c00"><ellipse cx="4.83197" cy="4.83161" rx="4.83197" ry="4.83161" transform="matrix(-1 0 0 1 342.356 71.668)"/><ellipse cx="4.83197" cy="4.83161" rx="4.83197" ry="4.83161" transform="matrix(-1 0 0 1 313.369 105.484)"/><ellipse cx="4.83197" cy="4.83161" rx="4.83197" ry="4.83161" transform="matrix(-1 0 0 1 284.373 144.141)"/></g><path d="m154.473 185.815c-7.11-9.843-15.583-12.848-20.508-5.467-4.918 7.38 2.463 39.092 23.784 59.59 21.321 20.499 89.118-40.455 89.118-40.455l-11.523-8.645s-32.949 28.602-51.311 29.423c-18.346.82-29.56-34.446-29.56-34.446z" fill="#ff640c"/><path d="m235.839 193.286.738-8.6s3.705-3.261 5.633-2.523c1.733-3.464 1.424-7.026 2.343-9.187.647-1.529 5.264 2.221 5.264 3.938 0 2.523 4.157 7.486 4.195 9.609.105 5.874-11.357 13.578-11.357 13.578z" fill="#ffe3ca"/><path d="m45.5449 375.781c58.4961 37.601 480.8141 70.902 647.0001 0 9.076 78.892-44.314 121.855-44.314 121.855h-567.2362c0 .008-53.1711-61.88-35.4499-121.855z" fill="#3f8ae0"/><path d="m348.023 233.02h199.75v146.234h-199.75z" fill="#3f8ae0"/><path d="m406.551 326.869h-14.387v-9.023h-28.643v-10.005l22.627-26.744h16.806l-21.58 25.371v.588h10.79v-8.827h14.387v8.827h7.847v10.79h-7.847z" fill="#fff"/><path d="m447.217 328.177c-5.886 0-10.987-1.046-15.303-3.138-4.272-2.137-7.564-5.035-9.874-8.697-2.267-3.662-3.401-7.782-3.401-12.359s1.134-8.697 3.401-12.358c2.31-3.662 5.602-6.539 9.874-8.632 4.316-2.136 9.417-3.204 15.303-3.204 5.885 0 10.964 1.068 15.236 3.204 4.316 2.093 7.608 4.97 9.875 8.632 2.311 3.661 3.466 7.781 3.466 12.358s-1.155 8.697-3.466 12.359c-2.267 3.662-5.559 6.56-9.875 8.697-4.272 2.092-9.351 3.138-15.236 3.138zm0-10.985c2.702 0 5.1-.567 7.193-1.7 2.136-1.134 3.771-2.703 4.904-4.708 1.178-2.006 1.766-4.272 1.766-6.801 0-2.528-.588-4.795-1.766-6.8-1.133-2.006-2.768-3.575-4.904-4.708-2.093-1.134-4.491-1.701-7.193-1.701-2.703 0-5.123.567-7.259 1.701-2.093 1.133-3.728 2.702-4.905 4.708-1.133 2.005-1.7 4.272-1.7 6.8 0 2.529.567 4.795 1.7 6.801 1.177 2.005 2.812 3.574 4.905 4.708 2.136 1.133 4.556 1.7 7.259 1.7z" fill="#fff"/><path d="m523.737 326.869h-14.387v-9.023h-28.642v-10.005l22.626-26.744h16.806l-21.58 25.371v.588h10.79v-8.827h14.387v8.827h7.847v10.79h-7.847z" fill="#fff"/></svg>