<svg fill="none" height="818" viewBox="0 0 1920 818" width="1920" xmlns="http://www.w3.org/2000/svg" xmlns:xlink="http://www.w3.org/1999/xlink"><mask id="a" height="890" maskUnits="userSpaceOnUse" width="1712" x="94" y="78"><path d="m94.0928 101.182c0-12.7297 10.3192-23.0492 23.0492-23.0492h764.956 356.382 543.96c12.73 0 23.05 10.3195 23.05 23.0492v843.599c0 12.73-10.32 23.05-23.05 23.05h-1665.298c-12.73 0-23.0492-10.32-23.0492-23.05z" fill="#95cfff"/></mask><mask id="b" height="1033" maskUnits="userSpaceOnUse" width="1940" x="-20" y="1"><path d="m1919.6 57.2371c.22-12.7278-9.92-23.2256-22.65-23.4475l-862.19-15.0308-400.361-6.9796-613.9287-10.70281c-12.72781-.221892-23.22558 9.91611-23.44746 22.64391l-16.62074 953.3887c-.2218 12.728 9.91618 23.221 22.64398 23.451l1876.48392 32.71c12.73.22 23.23-9.92 23.45-22.64z" fill="#95cfff"/></mask><g stroke="#3f8ae0" stroke-miterlimit="10" stroke-opacity=".16" stroke-width="1.15246"><g mask="url(#a)"><path d="m84.873 855.374c78.33 0 157.848 3.471 236.046-2.082 83.554-5.922 165.691-27.37 249.066-35.416 71.585-6.999 143.648-2.202 214.112 14.251 62.906 14.478 123.722 27.412 188.022 26.817 59.541-.552 113.411-18.331 171.221-32.71 65.6-16.32 130.53-10.129 195.14 9.661 69.25 21.25 133.18 44.143 205.55 44.752 90.82.779 179.58-27.653 270.55-25.259"/><path d="m84.873 835.865c76.48-.085 154.833 4.25 231.049-3.329 87.494-8.628 172.971-35.246 260.141-46.367 73.152-9.322 140.755-.652 211.313 22.765 60.408 20.06 118.918 40.148 182.28 40.191 62.654 0 118.394-26.704 177.844-46.197 67.74-22.199 130.2-15.739 196.39 11.078 67.36 27.285 129.21 59.499 201.98 58.791 90.69-.963 177.77-37.584 268.71-36.932"/><path d="m84.873 816.695c74.546-.128 151.722 4.689 225.823-4.633 91.507-11.503 180.179-43.264 271.361-57.601 74.173-11.659 138.557.808 207.974 32.003 57.272 25.74 113.524 53.634 175.854 54.512 65.875.935 125.255-35.742 186.185-60.434 70.35-28.517 130.42-22.454 198.41 12.296 64.75 33.093 125.12 75.579 198.2 73.199 90.36-2.947 175.15-47.982 265.88-49.342"/><path d="m84.873 797.822c72.636-.17 148.611 4.958 220.706-5.908 95.423-14.379 187.302-51.126 282.28-68.665 75.674-13.982 136.406 2.026 204.358 41.437 53.741 31.167 107.722 67.164 169.187 69.062 69.096 2.111 133.246-45.531 195.576-74.813 32.65-15.257 67.06-29.551 102.65-26.265 34.84 3.23 67.82 20.527 98.29 39.666 61.4 38.491 121.22 91.473 194.29 87.422 89.97-5.001 171.92-58.423 262.39-61.894"/><path d="m84.9316 779.278c70.8704-.213 145.6084 5.043 215.7334-7.083 99.062-17.085 193.812-58.579 292.309-79.148 77.405-16.179 134.629 3.074 200.743 50.602 50.125 36.04 101.848 80.083 162.761 83.072 72.072 3.528 141.742-55.32 205.262-88.625 33.27-17.453 69.97-35.855 107.13-31.804 34.84 3.797 67.47 24.537 96.6 46.041 58.08 42.896 117.28 106.575 190.53 100.894 89.59-6.97 168.39-68.509 258.61-73.949"/><path d="m84.9492 761.06c69.1768-.255 142.8088 5.001 211.1448-8.018 102.293-19.507 199.59-65.378 301.138-88.696 38.666-8.869 75.314-13.997 113.188 1.558 30.858 12.679 58.005 34.934 84.191 57.431 46.847 40.218 96.299 91.798 157.068 95.836 74.711 4.972 149.981-64.543 214.531-101.248 33.85-19.252 72.8-41.55 111.39-36.833 34.99 4.25 67.19 28.149 95.07 51.75 54.99 46.523 113.49 120.16 187.13 113.035 89.26-8.656 164.8-77.817 254.86-84.886"/><path d="m84.9492 743.133c67.7228-.269 140.3588 4.958 207.1208-8.656 104.888-21.391 204.034-71.2 308.141-96.714 38.798-9.506 75.338-15.399 113.02 2.252 30.57 14.408 56.624 39.128 81.536 63.834 44.096 43.676 91.483 101.73 152.551 106.617 39.027 3.131 78.272-20.881 111.972-41.21 37.4-22.553 73.35-48.251 110.73-70.832 34.35-20.74 75.19-46.183 115.07-40.871 35.25 4.69 66.94 31.025 93.83 56.383 52.47 49.583 109.86 131.55 184.21 123.248 89.11-9.916 161.48-85.962 251.53-94.108"/><path d="m84.9697 725.535c66.5103-.269 138.3773 4.972 203.8533-8.897 106.738-22.595 207.037-75.804 312.886-102.905 38.618-9.916 75.434-16.249 112.731 2.663 30.535 15.484 55.808 42.33 79.819 68.736 42.258 46.452 87.855 109.323 149.668 114.749 40.096 3.485 80.483-22.525 114.713-44.03 38.64-24.295 75.68-51.948 114.32-76.272 34.83-21.944 76.87-49.384 117.82-43.789 35.62 4.874 66.78 32.852 92.93 59.67 50.84 52.118 106.48 139.964 182.02 131.11 89.11-10.44 158.72-92.592 248.95-100.978"/><path d="m84.9922 708.267c65.5728-.227 136.9958 5.114 201.5108-8.642 107.639-22.949 208.214-78.949 314.88-106.787 38.09-9.916 75.591-16.376 112.359 2.664 30.786 15.937 55.711 44.228 79.278 71.753 41.586 48.648 85.837 114.04 148.948 119.31 40.984 3.428 81.472-22.851 116.192-45.333 39.46-25.499 77.17-54.569 116.62-80.097 35.28-22.836 77.5-50.716 119.29-45.163 36.04 4.789 66.67 33.277 92.49 61.242 50.45 54.612 103.44 144.682 180.75 135.913 89.33-10.129 156.84-97.338 247.44-104.832"/><path d="m84.9971 691.268c65.3329-.481 136.5269 5.525 200.7669-8.5 106.905-23.389 206.196-81.06 312.02-109.549 37.982-10.214 75.459-16.334 112.203 2.479 31.231 16.022 56.648 44.653 80.564 72.518 42.354 49.356 87.074 115.585 151.013 121.761 41.273 3.981 81.526-21.972 116.396-44.808 39.52-25.897 77.16-55.533 116.67-81.443 35.45-23.262 77.45-50.759 119.56-44.809 36.27 5.128 66.72 33.674 92.59 61.95 50.66 55.377 102.63 144.257 180.56 135.998 89.58-9.463 156.39-99.052 247.37-105.597"/><path d="m85.0215 674.637c65.6085-.878 136.5875 6.701 201.0545-8.301 105.008-24.437 202.064-83.058 305.955-112.553 38.438-10.922 74.93-16.603 112.203 2.338 31.795 16.135 58.113 44.468 82.906 72.093 43.759 48.818 90.365 115.712 154.304 124.141 41.021 5.411 81.416-20.612 115.986-43.435 39.04-25.768 76.12-55.433 115.15-81.23 35.37-23.389 77.38-50.674 119.42-43.605 36.17 6.078 67.06 35.034 93.3 62.999 50.91 54.257 104.39 141.466 181.37 133.448 89.81-9.364 156.83-99.463 248.03-105.895"/><path d="m85.0371 658.318c65.9809-1.049 136.7669 8.641 201.6319-7.239 102.869-25.188 197.391-84.574 299.095-114.749 38.763-11.531 74.402-16.674 112.095 2.026 32.288 16.022 59.663 43.619 85.381 71.031 45.225 48.166 93.981 114.819 157.86 125.288 40.648 6.672 80.73-18.813 114.99-41.536 38.38-25.5 74.68-54.98 113.03-80.466 35.27-23.431 76.88-49.936 118.73-41.862 36.2 6.999 67.65 36.082 94.47 63.75 51.59 53.124 106.82 138.151 183.22 130.246 90.19-9.321 157.59-100.001 249.18-106.404"/><path d="m85.0576 642.285c66.4374-1.005 137.1874 11.249 202.5084-5.439 100.515-25.656 192.286-85.651 291.6-116.35 38.919-12.027 73.886-16.546 111.891 1.615 32.865 15.697 61.261 42.5 87.975 69.416 47.111 47.302 97.573 112.992 161.632 125.387 40.168 7.764 79.546-16.617 113.466-39.184 37.54-24.99 72.91-54.215 110.42-79.233 35.14-23.446 75.94-48.634 117.54-39.666 36.37 7.862 68.47 36.833 96.09 64.117 52.63 51.949 109.83 134.369 185.82 126.507 90.75-9.393 158.66-100.681 250.8-107.127"/><path d="m85.082 626.579c66.978-.793 137.704 14.408 203.613-3.003 97.993-25.882 186.845-86.415 283.601-117.284 38.894-12.438 73.381-16.306 111.578 1.062 33.453 15.215 62.847 41.083 90.654 67.178 49.249 46.225 101.248 110.342 165.548 124.523 77.594 17.127 156.014-72.008 218.894-114.026 35-23.403 74.7-46.848 115.94-37.031 36.66 8.741 69.43 37.428 98 64.301 53.96 50.731 113.3 130.204 189.09 122.3 91.43-9.52 159.99-101.475 252.79-108.02"/><path d="m85.0977 611.207c67.5663-.439 138.3043 18.02 204.8983 0 95.363-25.896 181.152-86.713 275.217-117.681 38.762-12.75 72.912-15.923 111.218.439 34.065 14.578 64.479 39.298 93.38 64.571 51.387 44.908 104.936 106.886 169.56 122.823 76.419 18.813 151.459-67.744 213.179-109.082 34.12-22.822 73.9-45.828 114.01-34.07 37.24 10.908 70.04 37.357 100.24 64.273 55.51 49.441 117.13 125.699 192.92 117.71 92.21-9.704 161.5-102.353 255.09-109.082"/><path d="m85.1289 596.105c68.2031 0 139.0131 22 206.3521 3.315 92.648-25.713 175.289-86.784 266.58-117.582 158.557-53.535 241.27 144.101 380.548 181.926 75.071 20.414 146.321-63.027 206.921-103.529 33.97-22.666 72.21-43.307 111.81-30.883 37.71 11.829 71.28 37.697 102.69 64.103 57.24 48.166 121.25 120.954 197.2 112.836 93.06-9.916 163.17-103.287 257.62-110.186"/><path d="m85.1475 581.335c68.8645.595 139.7945 26.208 207.9375 6.97 89.885-25.372 169.368-86.585 257.811-117.114 155.278-53.578 249.847 134.581 386.879 175.112 73.775 21.844 140.745-57.899 200.235-97.621 33.83-22.582 70.4-40.502 109.44-27.512 38.21 12.75 72.64 37.966 105.31 63.82 59.08 46.75 125.53 116.038 201.8 107.736 93.97-10.214 164.96-104.265 260.32-111.391"/><path d="m85.1768 566.89c69.5492 1.204 140.6232 30.557 209.6192 10.837 87.134-24.904 163.362-86.188 249.066-116.306 151.987-53.422 258.256 124.452 393.065 167.688 72.453 23.233 134.873-52.586 193.323-91.529 33.7-22.454 68.46-37.499 106.9-24.083 38.74 13.585 74.06 38.249 108.02 63.465 60.98 45.333 129.88 111.009 206.54 102.523 94.89-10.526 166.82-105.285 263.13-112.652"/><path d="m85.1953 552.748c70.2217 1.827 141.4997 34.934 211.4087 14.804 84.444-24.338 157.524-85.651 240.466-115.258 148.755-53.111 266.388 114.082 398.987 159.911 71.143 24.593 128.873-47.189 186.333-85.382 33.56-22.312 66.63-34.396 104.43-20.499 39.28 14.45 75.52 38.491 110.76 63.084 62.88 43.916 134.21 105.965 211.35 97.267 95.89-10.823 168.7-106.249 265.98-113.927"/><path d="m85.2168 538.924c70.8702 2.436 142.3892 39.212 213.1032 18.742 81.849-23.701 151.842-84.999 232.141-114.026 145.812-52.699 274.352 103.613 404.801 152.006 69.848 25.925 122.878-41.819 179.398-79.332 33.42-22.171 64.86-31.294 101.94-17 39.82 15.328 76.98 38.816 113.48 62.729 64.73 42.415 138.44 100.965 216.11 92.082 96.85-11.12 170.56-107.325 268.79-115.173"/><path d="m85.2461 525.415c71.5789 3.018 143.2659 43.321 214.8449 22.567 79.386-23.02 146.424-84.276 224.225-112.68 143.014-52.217 281.835 93.244 410.098 144.201 68.686 27.284 116.976-36.706 172.706-73.468 33.31-21.958 63.11-28.333 99.57-13.628 40.33 16.207 78.39 39.227 116.08 62.446 66.51 40.955 142.49 96.063 220.69 86.954 97.77-11.404 172.35-108.303 271.47-116.392"/><path d="m85.2666 512.238c72.2514 3.513 144.1424 47.132 216.5264 26.166 77.116-22.327 141.38-83.583 216.85-111.321 73.213-26.916 151.098 3.471 219.481 35.941 65.946 31.322 128.636 72.405 195.566 100.808 67.82 28.787 111.07-32.186 166.39-67.999 73.45-47.528 148.68 12.75 215.91 51.835 68.12 39.553 146.23 91.374 224.96 82.067 98.63-11.645 174.03-109.224 274.03-117.511"/><path d="m85.2939 499.324c72.9241 3.924 144.8271 50.56 218.1361 29.438 75.062-21.646 136.767-82.86 210.208-109.988 72.539-26.832 152.478 2.309 221.186 32.044 67.279 29.126 131.314 67.588 198.232 97.848 66.918 30.259 106.004-27.724 160.614-63.027 71.78-46.395 150.15 18.417 216.21 54.754 69.55 38.249 149.65 86.925 228.8 77.49 99.4-11.857 175.54-110.087 276.28-118.559"/><path d="m85.3252 486.783c73.6088 4.25 145.4518 53.493 219.6128 32.243 73.273-20.981 132.708-82.166 204.202-108.77 71.988-26.704 153.752 1.246 222.773 28.517 68.467 27.072 133.788 63.225 200.598 95.34 31.519 15.144 54.618 15.768 85.089-3.768 24.77-15.881 45.72-38.944 70.45-54.938 33-21.363 59.28-20.768 93.84-4.887 41.52 19.111 81.98 41.083 122.73 62.432 70.71 36.946 152.55 82.788 232.06 73.269 100.09-11.985 176.87-110.867 278.32-119.438"/><path d="m85.3408 474.503c74.2932 4.25 145.9202 55.845 220.9462 34.524 71.819-20.414 129.224-81.825 199.277-107.75 71.615-26.506 154.882.283 224.178 25.5 69.297 25.216 135.83 59.499 202.424 93.498 30.775 15.711 53.273 17.935 83.484-1.501 23.95-15.414 43.94-38.165 67.83-53.691 32.82-21.335 58.69-19.068 92.65-2.664 41.73 20.159 82.81 42.089 124.32 62.843 71.6 35.784 155.04 79.077 234.68 69.529 100.63-12.056 177.93-111.533 279.87-120.16"/><path d="m85.3594 462.578c74.9906 4.137 146.2086 57.516 222.0756 36.139 70.75-19.96 126.365-81.84 195.445-106.999 71.519-26.081 155.686-.51 225.415 22.907 70.294 23.587 137.404 56.439 203.722 92.309 30.15 16.291 52.396 19.719 82.373.283 23.31-15.087 42.49-37.697 65.72-52.926 32.66-21.405 58.51-17.935 91.95-.907 41.79 21.25 83.35 43.236 125.5 63.551 72.07 34.751 156.9 75.805 236.48 66.328 101.03-12.042 178.7-112.085 281.08-120.685"/><path d="m85.3887 450.938c75.6753 3.754 146.2803 58.423 222.9883 36.989 70.018-19.564 124.431-81.712 192.683-106.575 71.29-25.953 156.563-.935 226.472 21.023 71.014 22.313 138.425 54.272 204.43 92.082 29.657 17 52.024 21.109 81.848 1.545 22.82-14.974 41.41-37.598 64.19-52.714 32.54-21.589 58.75-17.51 91.8.298 41.7 22.468 83.58 44.61 126.19 64.585 72.29 33.872 158.1 73.084 237.36 63.749 101.27-11.914 179.13-112.496 281.75-120.982"/><path d="m85.418 439.615c76.059 3.372 146.173 58.636 223.349 37.003 69.777-19.549 123.866-81.641 191.902-106.362 71.218-25.868 156.875-.34 226.808 21.151 71.267 21.901 138.461 53.62 204.55 91.6 29.55 17 52.228 20.542 81.853 1.105 22.66-14.874 41.13-37.3 63.79-52.217 32.43-21.335 59.12-17.368 91.86.949 41.52 23.233 83.44 45.545 126.24 65.322 71.94 33.248 158.87 72.022 237.51 62.332 101.13-12.438 179.5-111.32 281.85-120.84"/><path d="m85.4512 428.475c76.2278 3.202 146.1368 58.834 223.4928 36.946 69.669-19.719 124.035-81.287 192.118-105.851 71.219-25.698 156.683.949 226.508 22.581 71.039 22.015 137.945 53.677 204.491 89.858 62.99 34.24 94.209-18.417 146.089-51.254 32.43-20.528 59.29-16.788 91.72 1.6 41.35 23.446 83.2 45.701 125.98 65.251 71.52 32.668 159.58 71.626 237.66 61.114 100.69-13.571 180.02-108.43 281.69-120.032"/><path d="m85.4668 417.481c76.4552 3.089 146.1962 59.131 223.7932 37.06 69.669-19.833 124.251-80.749 192.37-105.087 71.219-25.5 156.431 2.167 226.148 23.87 70.762 22.029 137.416 53.55 204.346 87.903 62.462 32.073 94.796-19.649 146.716-50.999 32.43-19.635 59.53-16.008 91.67 2.408 41.15 23.573 82.88 45.659 125.66 64.869 71.23 32.002 160.16 70.549 237.59 59.329 100.19-14.507 180.49-105.243 281.42-118.687"/><path d="m85.4941 406.704c76.7199 3.003 146.3529 59.499 224.2379 37.329 69.585-19.805 124.491-80.027 192.659-104.11 71.218-25.074 156.154 3.287 225.739 25.004 70.425 21.958 136.935 53.238 204.106 85.693 62.017 29.934 95.454-20.641 147.504-50.532 32.52-18.657 59.82-15.03 91.72 3.372 40.93 23.615 82.57 45.446 125.28 64.202 71.05 31.237 160.52 68.835 237.42 57.034 99.7-15.285 180.93-101.757 281.08-116.859"/><path d="m85.5205 396.117c77.0445 2.975 146.5445 59.91 224.8265 37.725 69.525-19.691 124.767-79.233 192.995-102.834 71.194-24.636 155.698 4.363 225.259 26.009 70.041 21.817 136.347 52.77 203.793 83.271 61.549 27.837 96.166-21.406 148.456-49.682 32.62-17.651 60.14-13.897 91.84 4.448 40.61 23.736 82.27 44.856 124.82 63.268 70.99 30.373 160.72 66.582 237.17 54.243 99.05-15.909 181.27-98.018 280.55-114.55"/><path d="m85.5566 385.708c77.3924 2.975 146.8694 60.406 225.5354 38.249 69.464-19.535 125.079-78.283 193.391-101.403 71.17-24.083 155.314 5.369 224.742 26.916 69.669 21.59 135.795 52.119 203.398 80.636 61.092 25.783 96.957-22.001 149.557-48.563 32.78-16.561 60.51-12.594 92.03 5.667 40.36 23.578 81.87 44.302 124.32 62.063 71.02 29.424 160.74 63.664 236.79 50.999 98.41-16.39 181.57-94.008 279.98-111.83"/><path d="m85.582 375.534c77.789 2.989 147.254 60.916 226.364 38.929 69.417-19.294 125.428-77.193 193.764-99.76 71.134-23.488 154.833 6.318 224.201 27.681 69.153 21.25 135.254 51.297 202.929 77.789 60.66 23.757 97.85-22.398 150.81-47.161 32.96-15.413 60.9-11.149 92.29 7.084 40.08 23.352 81.41 43.611 123.72 60.646 71.15 28.333 160.59 60.293 236.31 47.331 97.73-16.717 181.79-89.759 279.31-108.672"/><path d="m85.6084 365.563c78.2216 3.06 147.7466 61.539 227.3126 39.666 69.369-18.955 125.789-75.932 194.196-97.89 71.087-22.808 154.329 7.21 223.541 28.333 68.672 20.966 134.702 50.333 202.401 74.784 60.239 21.746 98.821-22.666 152.181-45.531 33.16-14.166 61.32-9.576 92.61 8.5 39.82 23.076 80.97 42.793 123.16 59.004 71.37 27.242 160.31 56.495 235.75 43.306 97.02-16.999 181.95-85.296 278.56-105.186"/><path d="m85.627 355.819c78.69 3.145 148.203 62.191 228.358 40.615 69.32-18.671 126.185-74.685 194.664-95.963 71.027-22.057 153.753 8.061 222.869 28.914 68.191 20.583 134.161 49.214 201.8 71.597 59.831 19.833 99.892-22.766 153.672-43.661 33.39-12.962 61.76-7.877 92.98 9.916 39.54 22.726 80.5 41.841 122.52 57.176 71.65 25.996 159.87 52.232 235.1 38.887 96.3-17 182.03-80.607 277.72-101.318"/><path d="m85.6582 346.309c79.1828 3.258 148.7668 62.87 229.4268 41.592 69.357-18.232 126.665-73.283 195.229-93.824 70.954-21.25 153.104 8.854 222.22 29.395 67.687 20.145 133.608 47.954 201.175 68.254 59.423 17.864 101.041-22.751 155.261-41.578 33.64-11.673 62.21-6.092 93.41 11.616 39.25 22.327 80.01 40.774 121.85 55.15 71.92 24.664 159.25 47.67 234.31 34.17 95.55-17.099 182.04-75.748 276.83-97.168"/><path d="m85.6738 337.094c79.6752 3.358 149.3442 63.537 230.7122 42.613 69.249-17.821 127.038-71.795 195.674-91.558 70.87-20.414 152.454 9.619 221.415 29.75 67.194 19.663 133.067 46.551 200.49 64.783 59.05 15.98 102.315-22.666 156.955-39.326 33.88-10.356 62.68-4.25 93.89 13.331 38.96 21.88 79.49 39.607 121.13 52.968 72.39 23.233 158.64 42.641 233.58 29.169 94.8-17 181.98-70.719 275.86-92.748"/><path d="m85.7031 328.028c80.2519 3.556 150.0529 64.316 231.9979 43.789 69.236-17.326 127.53-70.223 196.214-89.164 70.81-19.507 151.782 10.356 220.646 30.146 66.69 19.167 132.515 45.035 199.758 61.199 58.702 14.167 103.671-22.397 158.721-36.832 34.13-8.996 63.15-2.239 94.4 15.101 38.66 21.39 78.98 38.35 120.39 50.645 72.84 21.703 157.88 37.385 232.73 23.899 94.05-16.929 181.86-65.52 274.85-88.059"/><path d="m85.7217 319.254c80.8283 3.74 150.7493 65.081 233.3793 45.007 69.176-16.816 127.938-68.594 196.742-86.671 70.714-18.586 151.062 11.064 219.818 30.416 66.209 18.629 131.95 43.406 198.976 57.501 58.402 12.283 105.113-22.071 160.583-34.353 34.37-7.608 63.6-.184 94.96 16.999 38.36 20.858 78.44 36.999 119.6 48.166 73.27 20.06 157.02 31.847 231.83 18.417 93.32-16.731 181.68-60.193 273.82-83.186"/><path d="m85.748 310.744c81.393 3.939 151.494 65.86 234.76 46.268 69.189-16.277 128.443-66.908 197.331-84.092 70.618-17.609 150.329 11.744 219.037 30.642 65.741 18.091 131.386 41.678 198.196 53.719 58.15 10.469 106.638-21.646 162.508-31.662 34.62-6.219 64.05 1.913 95.53 18.842 38.06 20.318 77.91 35.625 118.81 45.644 73.77 18.317 156.08 26.08 230.87 12.75 92.49-16.518 181.38-54.739 272.67-78.114"/><path d="m85.7773 302.519c81.9807 4.151 152.2627 66.582 236.2137 47.585 69.188-15.71 128.935-65.194 197.908-81.443 70.521-16.575 149.584 12.41 218.208 30.826 65.296 17.524 130.821 39.851 197.343 49.852 57.945 8.713 108.2-21.122 164.43-28.871 34.83-4.803 64.49 4.066 96.1 20.782 37.76 19.741 77.36 34.172 117.99 42.995 74.23 16.476 155.1 20.145 229.88 6.914 91.82-16.235 181.06-49.172 271.55-72.887"/><path d="m85.7979 294.59c82.5821 4.363 153.0671 67.432 237.6911 48.931 69.176-15.144 129.452-63.438 198.508-78.681 70.402-15.583 148.803 13.076 217.415 30.982 64.864 17 130.245 37.952 196.491 45.928 57.837 6.97 109.817-20.541 166.477-26.01 35.08-3.385 64.86 6.262 96.76 22.752 37.48 19.152 76.84 32.688 117.17 40.289 169.36 32.994 335.33-22.666 499.26-66.582"/><path d="m85.8252 286.922c83.1938 4.605 153.8838 68.226 239.2048 50.306 69.176-14.535 129.968-61.625 199.109-75.975 70.281-14.592 148.022 13.713 216.49 31.095 64.492 16.419 129.68 36.011 195.625 41.919 57.826 5.227 111.436-19.833 168.516-23.092 35.29-1.983 65.32 8.5 97.4 24.749 37.05 18.884 76.39 30.926 116.33 37.584 165.05 27.525 337.21-23.573 497.04-67.192"/><path d="m85.8428 279.541c83.8072 4.845 154.7132 69.019 240.7302 51.693 69.188-13.982 130.485-59.811 199.709-73.198 70.162-13.557 147.23 14.365 215.626 31.166 64.143 15.796 129.103 34 194.748 37.981 57.934 3.513 113.054-19.182 170.574-20.131 35.49-.581 65.71 10.724 98.05 26.775 36.8 18.26 75.88 29.268 115.48 34.736 75.45 10.412 151.95 1.544 226.77-11.192 89.78-15.285 179.69-32.058 268.02-56.666"/><path d="m85.8721 272.477c83.6989 5.001 154.5089 69.288 240.4419 53.45 68.912-12.75 130.329-56.793 199.013-70.152 69.428-13.501 144.947 13.288 212.742 29.466 65.537 15.583 131.927 32.994 199.013 35.176 59.555 1.94 117.588-19.508 177.008-17 35.87 1.516 65.76 15.342 98.64 30.699 34.15 15.951 70.21 25.088 106.68 29.409 77.62 9.194 154.6-4.363 231.3-17.155 88.53-14.762 177.85-26.123 264.91-50.801"/><path d="m85.8838 265.718c84.2752 5.242 155.3732 70.068 241.9432 54.839 68.924-12.127 130.834-55.009 199.626-67.39 69.284-12.41 144.202 13.996 211.901 29.65 65.225 15.102 131.362 31.166 198.1 31.166 59.903 0 119.216-18.6 179.136-13.854 35.91 2.833 66.06 17.453 99.19 32.483 33.92 15.385 69.74 23.559 105.9 26.789 77.87 6.956 153.52-10.936 230.21-23.375 87.95-14.265 177.26-20.343 263.7-45.332"/><path d="m85.915 259.283c84.912 5.483 156.154 70.833 243.457 56.199 68.948-11.56 131.338-53.238 200.226-64.656 69.14-11.489 143.47 14.733 211.133 29.877 64.864 14.549 130.749 29.169 197.139 27.1 60.335-1.884 120.82-17.694 181.23-10.738 35.97 4.151 66.36 19.55 99.7 34.255 33.64 14.832 69.29 22.043 105.11 24.182 78.07 4.689 152.48-17.453 229.14-29.551 87.39-13.799 176.57-14.564 262.52-39.865"/><path d="m85.9336 253.185c85.5004 5.667 157.0434 71.569 244.9584 57.544 68.96-11.007 131.83-51.551 200.826-61.95 68.997-10.398 142.726 15.47 210.208 30.09 64.708 14.025 130.281 27.27 196.311 23.12 60.864-3.825 122.373-16.802 183.303-7.664 36.03 5.397 66.64 21.632 100.3 35.997 33.65 14.364 68.85 20.541 104.33 21.618 78.08 2.394 151.5-23.899 228.07-35.657 86.9-13.345 176-8.812 261.37-34.482"/><path d="m85.9424 247.395c86.0896 5.95 157.8846 72.249 246.4236 58.876 68.996-10.469 132.323-49.781 201.415-59.301 68.804-9.477 142.077 16.221 209.439 30.345 64.516 13.515 129.729 25.372 195.434 19.181 61.466-5.794 123.886-15.951 185.356-4.675 35.93 6.602 66.89 23.687 100.79 37.726 33.27 13.769 68.47 19.068 103.57 19.11 78.07.113 150.55-30.203 227.02-41.649 86.49-12.949 175.38-3.131 260.21-29.212"/><path d="m85.9482 241.973c86.6658 6.148 158.6768 72.999 247.8528 60.136 69.033-9.916 132.816-48.166 201.992-56.666 68.732-8.499 141.272 17 208.647 30.628 64.383 12.977 129.271 23.503 194.592 15.3 62.128-7.791 125.358-15.13 187.388-1.757 35.91 7.721 67.14 25.67 101.29 39.383 33.12 13.288 68.01 17.638 102.79 16.674 77.96-2.139 149.68-36.337 226.04-47.514 85.99-12.58 174.65 2.522 259.1-24.083"/><path d="m85.9775 236.891c87.2065 6.36 159.4695 73.665 249.2345 61.369 69.068-9.478 133.332-46.495 202.544-54.187 68.588-7.622 140.539 17.836 207.878 30.954 64.264 12.48 128.827 21.689 193.776 11.517 62.82-9.831 126.83-14.393 189.29 1.034 35.88 8.854 67.38 27.653 101.83 41.083 32.91 12.75 67.63 16.263 102.1 14.322 77.75-4.349 148.86-42.258 225.09-53.195 85.59-12.282 173.98 8.061 258.02-19.068"/><path d="m85.9922 232.156c87.6868 6.559 160.2148 74.346 250.5558 62.545 69.104-9.038 133.728-44.936 203.097-51.778 68.468-6.743 139.89 18.671 207.121 31.336 64.179 12.112 128.419 19.932 192.982 7.834 63.552-11.9 128.142-13.741 191.142 3.683 35.81 9.917 67.61 29.566 102.28 42.684 32.75 12.381 67.27 14.946 101.38 12.084 77.48-6.503 148.1-47.911 224.18-58.706 85.29-12.056 173.32 13.501 256.98-14.28"/><path d="m86.0068 227.805c88.2392 6.715 160.9592 74.954 251.8052 63.621 69.164-8.613 134.185-43.448 203.625-49.455 68.36-5.907 139.23 19.507 206.4 31.776 64.12 11.715 128.047 18.232 192.251 4.249 64.202-13.982 129.432-13.16 192.922 6.191 35.72 10.894 67.83 31.166 102.7 44.228 32.43 12.169 67 13.699 100.7 9.916 77.16-8.499 147.38-53.251 223.31-63.904 84.91-11.914 172.7 18.813 256-9.719"/><path d="m86.0801 223.762c88.7199 6.856 161.5959 75.55 252.9819 64.655 69.141-8.202 134.545-41.989 204.07-47.216 68.204-5.129 138.617 20.371 205.716 32.285 64.083 11.333 127.71 16.617 191.541.793 65.031-16.107 130.641-12.749 194.591 8.5 35.65 11.815 68.04 32.852 103.11 45.73 32.3 11.857 66.69 12.537 100.04 7.99 36.38-4.973 71.85-16.363 106.78-28.999 37.7-13.614 76.48-34.382 115.75-39.879 84.62-11.857 172.1 23.97 255.07-5.411"/><path d="m86.0801 220.223c89.1519 6.97 162.1599 76.102 254.0749 65.576 69.201-7.933 134.954-40.785 204.563-45.233 68.095-4.406 138.004 21.249 205.042 32.866 64.084 11.078 127.459 15.116 190.917-2.493 65.743-18.247 131.783-12.453 196.203 10.639 35.49 12.749 68.15 34.424 103.41 47.117 32.17 11.574 66.4 11.489 99.42 6.163 36.31-5.837 71.58-18.218 106.31-31.662 37.41-14.478 76.26-36.323 115.52-41.862 84.35-11.886 171.56 28.97 254.2-1.417"/><path d="m86.0801 217c89.5609 7.083 162.7609 76.626 255.0719 66.412 69.249-7.678 135.314-39.538 204.983-43.349 67.999-3.726 137.44 22.227 204.43 33.546 64.096 10.809 127.242 13.713 190.329-5.666 66.496-20.358 132.836-12.283 197.716 12.579 35.36 13.544 68.26 35.884 103.7 48.436 32.03 11.333 66.06 10.539 98.84 4.519 36.23-6.659 71.32-19.975 105.86-34.156 37.17-15.257 76.06-38.065 115.32-43.689 84.08-12.042 171.08 33.787 253.45 2.309"/><path d="m86.0801 214.199c89.9329 7.083 163.2539 77.108 255.9609 67.135 69.333-7.466 135.734-38.448 205.475-41.635 67.928-3.117 136.936 23.219 203.854 34.311 64.119 10.611 127.086 12.438 189.788-8.599 67.182-22.539 133.692-12.339 199.022 14.166 35.25 14.323 68.36 37.244 103.94 49.682 31.93 11.149 65.84 9.733 98.31 3.074 36.18-7.423 71.07-21.589 105.46-36.45 36.96-15.994 75.88-39.581 115.18-45.333 83.92-12.296 170.7 38.392 252.71 5.667"/><path d="m86.0801 211.77c90.2809 7.083 163.6739 77.547 256.7419 67.729 69.345-7.309 136.047-37.47 205.848-40.162 67.855-2.564 136.407 24.239 203.325 35.176 64.155 10.483 127.001 11.333 189.343-11.333 67.882-24.693 134.422-12.566 200.242 15.583 35.08 15.016 68.39 38.462 104.1 50.815 31.83 11.021 65.58 9.066 97.82 1.842 36.13-8.118 70.87-23.049 105.11-38.533 36.79-16.646 75.68-40.842 115.09-46.75 83.73-12.679 170.41 42.783 252.09 8.614"/><path d="m86.0771 209.766c89.8369 7.083 162.9889 77.547 255.5169 68.41 73.116-7.211 143.794-39.78 217.571-39.114 63.074.567 126.365 25.004 188.671 35.515 66.197 11.163 129.56 10.852 193.667-13.047 71.087-26.435 137.697-12.537 206.207 18.898 30.72 14.081 59.98 33.291 90.92 46.48 32.74 13.954 68.69 12.594 102.39 4.845 38.23-8.783 74.83-25.5 110.89-42.499 36.35-17.198 74.99-41.409 114.19-47.075 82.88-11.914 169.08 46.905 249.68 11.432"/><path d="m86.0771 208.188c90.0889 6.984 163.2419 77.915 256.0209 68.764 73.141-7.225 144.143-39.029 217.896-37.967 63.026.921 125.993 26.038 188.262 36.564 66.246 11.192 129.596 10.087 193.391-15.371 71.803-28.672 138.063-13.146 207.143 19.834 30.57 14.591 59.92 33.971 90.94 47.174 32.68 13.968 68.47 12.325 101.97 4.136 38.21-9.335 74.67-26.774 110.62-44.227 36.3-17.623 74.93-42.103 114.22-48.053 82.73-12.438 169.02 50.787 249.25 13.6"/><path d="m86.0801 207.043c90.2689 6.871 163.3619 78.227 256.4059 68.934 73.152-7.31 144.31-38.434 218.159-37.031 63.003 1.19 125.669 27.114 187.914 37.725 66.282 11.333 129.729 9.534 193.115-17.453 72.506-30.855 138.236-14.025 207.906 20.343 30.49 15.031 59.91 34.609 90.96 47.968 32.65 14.039 68.13 12.268 101.61 3.697 77.35-19.833 146.64-81.924 224.73-94.448 82.58-13.245 169.1 54.244 248.91 15.187"/><path d="m86.0801 206.32c90.4129 6.729 163.4819 78.511 256.6339 68.991 73.164-7.494 144.563-38.009 218.376-36.379 63.014 1.416 125.404 28.247 187.625 39.042 66.306 11.503 129.969 9.18 192.995-19.266 73.14-33.022 138.14-15.215 208.47 20.541 30.24 15.343 59.73 35.671 90.85 48.506 33.06 13.614 67.48 12.509 101.31 3.556 77.48-20.513 146.39-82.661 224.76-96.091 82.47-14.167 169.36 57.445 248.64 16.32"/><path d="m86.082 206.051c90.51 6.531 163.446 78.737 256.694 68.863 73.164-7.749 144.659-37.754 218.616-35.997 63.026 1.502 125.176 29.466 187.385 40.516 66.306 11.772 130.305 9.067 192.959-20.81 73.704-35.176 137.784-16.731 208.794 20.385 64.86 33.886 118.3 72.462 191.75 52.6 77.69-21.009 146.27-82.633 224.91-97.139 82.38-15.201 169.73 60.278 248.65 17"/></g><g mask="url(#b)"><path d="m1915.52 885.607c-85.92-1.593-174.03 1.743-259.5-8.264-98.12-11.406-193.62-42.983-291.33-57.183-82-11.905-158.11-3.489-237.83 21.436-68.26 21.352-134.382 42.773-205.564 41.58-70.385-1.228-132.475-32.318-198.888-55.381-75.659-26.264-145.954-20.231-220.832 8.599-76.209 29.332-146.321 64.311-228.054 62.09-101.861-2.858-198.9761-45.703-301.1524-46.752"/><path d="m1915.89 864.069c-83.74-1.603-170.54 2.297-253.6-9.626-102.57-14.715-201.56-52.132-303.71-70.023-83.1-14.551-155.67-1.807-234.27 31.878-64.84 27.795-128.58 58.029-198.618 57.795-74.019-.24-140.016-42.606-207.974-71.538-78.476-33.414-146.079-27.779-223.136 9.928-73.381 35.908-142.034 82.454-224.086 78.349-101.458-5.08-195.8303-57.333-297.7244-60.638"/><path d="m1916.26 842.868c-81.59-1.614-167.05 2.66-247.82-10.959-106.92-18.022-209.42-61.103-315.77-82.666-84.74-17.189-153.28-.395-230.39 42.548-60.98 33.959-122.326 73.341-191.412 74.27-77.659 1.018-148.798-53.759-218.245-87.875-36.378-17.779-74.759-34.511-114.806-31.516-39.196 2.946-76.59 21.732-111.186 42.636-69.735 42.037-137.973 100.386-219.978 94.403-100.973-7.379-191.9967-68.998-293.5525-74.669"/><path d="m1916.56 822.039c-79.61-1.627-163.67 2.813-242.21-12.183-110.96-21.133-216.58-69.602-326.83-94.639-86.64-19.69-151.3.817-226.51 52.915-57.01 39.505-115.98 87.971-184.468 90.136-81.033 2.551-158.146-64.923-228.851-103.582-37.036-20.258-77.9-41.65-119.73-37.826-39.208 3.583-76.277 26.243-109.421 49.831-66.084 47.051-133.843 117.428-216.019 109.611-100.502-9.584-187.8182-80.26-289.0656-88.138"/><path d="m1916.89 801.565c-77.71-1.641-160.53 2.821-237.04-13.143-114.53-23.917-222.94-77.354-336.56-105.538-43.26-10.72-84.33-17.199-127.18-.466-34.92 13.639-65.85 38.109-95.71 62.868-53.41 44.264-109.98 101.241-178.324 104.586-84.03 4.123-167.223-75.444-239.021-117.942-37.649-22.291-80.974-48.104-124.409-43.56-39.392 4.089-76.037 30.307-107.819 56.274-62.687 51.186-129.845 132.764-212.438 123.317-100.105-11.472-183.6011-90.646-284.6412-100.351"/><path d="m1917.25 781.438c-76.08-1.629-157.78 2.821-232.51-13.78-117.41-26.085-227.82-83.982-344.27-114.683-43.4-11.439-84.33-18.775-127.01.317-34.62 15.586-64.38 42.847-92.85 70.114-50.39 48.201-104.76 112.49-173.46 116.785-43.903 2.752-87.518-24.991-124.984-48.489-41.566-26.068-81.45-55.641-123.002-81.741-38.186-23.971-83.568-53.354-128.472-48.167-39.684 4.578-75.81 33.542-106.507 61.503-59.913 54.673-125.993 145.63-209.359 134.848-99.904-12.885-179.7167-99.732-280.7221-110.646"/><path d="m1917.57 761.674c-74.72-1.605-155.55 2.875-228.84-13.987-119.46-27.474-231.1-89.213-349.48-121.731-43.19-11.896-84.42-19.731-126.69.784-34.61 16.797-63.52 46.46-91.01 75.654-48.39 51.356-100.84 121.092-170.388 125.977-45.111 3.129-89.969-26.881-128.006-51.709-42.934-28.05-83.995-59.841-126.929-87.923-38.703-25.334-85.395-56.983-131.506-51.499-40.105 4.777-75.657 35.598-105.559 65.212-58.141 57.554-122.366 155.15-207.056 143.724-99.895-13.474-176.4842-107.126-277.6874-118.314"/><path d="m1917.88 742.269c-73.66-1.538-154 3.063-226.21-13.654-120.47-27.89-232.36-92.769-351.64-126.13-42.59-11.886-84.6-19.878-126.27.791-34.9 17.301-63.46 48.594-90.47 79.054-47.67 53.837-98.66 126.431-169.664 131.116-46.109 3.048-91.083-27.266-129.64-53.202-43.829-29.419-85.631-62.815-129.445-92.265-39.185-26.345-86.071-58.492-133.125-53.072-40.576 4.674-75.544 36.078-105.104 66.987-57.745 60.363-119.031 160.509-205.707 149.144-100.157-13.128-174.2857-112.42-275.9246-122.613"/><path d="m1918.21 723.163c-73.39-1.821-153.48 3.533-225.38-13.481-119.64-28.368-230.05-95.101-348.37-129.177-42.47-12.219-84.45-19.828-126.1.587-35.4 17.388-64.51 49.053-91.92 79.889-48.55 54.617-100.09 128.141-172.036 133.828-46.444 3.663-91.154-26.28-129.88-52.618-43.888-29.865-85.598-63.896-129.473-93.777-39.365-26.826-86.016-58.539-133.429-52.679-40.852 5.051-75.619 36.522-105.239 67.781-57.989 61.217-118.118 160.047-205.493 149.243-100.453-12.385-173.7524-114.337-275.8283-123.471"/><path d="m1918.51 704.483c-73.69-2.271-153.58 4.853-225.7-13.263-117.49-29.509-225.38-97.264-341.51-132.433-42.96-13.023-83.85-20.119-126.09.429-36.04 17.504-66.16 48.817-94.55 79.365-50.11 53.984-103.78 128.22-175.776 136.437-46.188 5.276-91.059-24.75-129.448-51.066-43.351-29.713-84.426-63.764-127.763-93.509-39.282-26.967-85.936-58.441-133.304-51.323-40.75 6.119-76.023 38.043-106.042 68.945-58.264 59.955-120.048 156.877-206.374 146.362-100.698-12.278-174.2306-114.807-276.5516-123.818"/><path d="m1918.81 686.144c-74.11-2.47-153.82 7.029-226.37-12.081-115.07-30.311-220.09-98.876-333.76-134.766-43.32-13.713-83.25-20.188-125.96.081-36.59 17.367-67.88 47.832-97.31 78.123-51.75 53.224-107.83 127.147-179.794 137.657-45.795 6.699-90.325-22.716-128.365-48.914-42.614-29.398-82.816-63.227-125.403-92.608-39.16-27.013-85.384-57.604-132.556-49.353-40.808 7.153-76.705 39.21-107.379 69.766-58.998 58.669-122.709 153.106-208.376 142.729-101.145-12.238-175.0838-115.427-277.8506-124.414"/><path d="m1919.1 668.145c-74.62-2.431-154.34 9.95-227.39-10.077-112.42-30.79-214.34-99.985-325.3-136.417-43.49-14.273-82.68-20.035-125.73-.377-37.23 16.99-69.65 46.544-100.19 76.258-53.85 52.216-111.83 125.024-184.034 137.694-45.276 7.935-89.032-20.225-126.698-46.241-41.679-28.809-80.847-62.333-122.499-91.173-39.011-27.027-84.357-56.122-131.263-46.862-41.014 8.12-77.637 40.036-109.208 70.147-60.134 57.328-126.007 148.798-211.217 138.477-101.764-12.328-176.2712-116.212-279.658-125.257"/><path d="m1919.38 650.496c-75.23-2.203-154.98 13.489-228.68-7.361-109.58-30.995-208.21-100.738-316.3-137.311-43.45-14.734-82.12-19.754-125.37-.991-37.88 16.437-71.4 44.921-103.15 73.691-56.23 50.965-115.91 121.975-188.417 136.647-87.507 17.72-173.851-83.949-243.669-132.383-38.864-26.977-83.002-54.093-129.52-43.871-41.355 9.101-78.728 40.686-111.357 70.316-61.609 55.933-129.826 144.052-214.819 133.687-102.517-12.485-177.74-117.129-281.8669-126.299"/><path d="m1919.66 633.219c-75.89-1.817-155.72 17.535-230.18-4.013-106.62-30.959-201.8-100.96-306.87-137.592-43.3-15.082-81.6-19.316-124.95-1.685-38.55 15.709-73.21 42.885-106.17 70.71-58.6 49.443-119.98 118.02-192.885 134.658-86.218 19.638-168.82-79.069-237.343-126.717-37.89-26.306-82.132-52.93-127.419-40.507-42.045 11.525-79.415 40.595-113.866 70.241-63.325 54.455-134.043 138.916-219.034 128.456-103.39-12.708-179.4231-118.146-284.4236-127.538"/><path d="m1919.92 616.253c-76.62-1.335-156.59 21.993-231.88-.317-103.57-30.699-195.22-100.925-297.17-137.311-177.07-63.246-273.86 157.157-431.066 196.921-84.738 21.463-163.137-73.669-230.421-120.355-37.717-26.129-80.278-50.065-125.012-36.884-42.589 12.55-80.812 40.953-116.616 70.002-65.242 52.989-138.578 133.504-223.742 122.897-104.344-12.962-181.2803-119.228-287.249-128.828"/><path d="m1920.19 599.664c-77.38-.68-157.56 26.704-233.73 3.757-100.48-30.263-188.58-100.586-287.33-136.614-173.39-63.23-283.32 146.295-438.05 189.143-83.309 23.095-156.976-67.799-223.035-113.589-37.557-26.03-78.295-46.878-122.405-33.049-43.175 13.575-82.342 41.228-119.553 69.632-67.279 51.361-143.285 127.898-228.81 117.078-105.364-13.315-183.2718-120.361-290.2616-130.234"/><path d="m1920.44 583.432c-78.15-.009-158.57 31.574-235.7 8.069-97.4-29.684-181.83-100.023-277.52-135.536-169.69-62.99-292.56 134.752-444.85 180.683-81.851 24.68-150.481-61.716-215.38-106.61-37.425-25.885-76.182-43.467-119.626-29.148-43.784 14.503-83.94 41.518-122.595 69.181-69.384 49.732-148.072 122.163-234.025 111.129-106.397-13.683-185.3433-121.544-293.3944-131.706"/><path d="m1920.7 567.552c-78.92.677-159.65 36.474-237.79 12.49-94.38-28.995-175.28-99.304-267.88-134.19-166.07-62.577-301.49 122.943-451.349 171.829-80.407 26.235-143.853-55.535-207.647-99.566-37.266-25.722-74.178-39.945-116.916-25.073-44.409 15.463-85.591 41.761-125.665 68.698-71.501 48.103-152.844 116.412-239.333 105.13-107.511-14.037-187.443-122.663-296.5676-133.194"/><path d="m1920.94 552.023c-79.66 1.349-160.72 41.262-239.76 16.881-91.49-28.228-168.92-98.461-258.55-132.642-162.78-62.058-310.24 111.025-457.732 162.835-78.975 27.755-137.225-49.387-199.98-92.635-37.106-25.561-72.255-36.426-114.191-21.094-45.033 16.44-87.23 42.098-128.707 68.247-73.55 46.38-157.496 110.712-244.575 99.212-108.585-14.39-189.5138-123.909-299.7011-134.649"/><path d="m1921.17 536.839c-80.47 1.988-161.79 45.861-241.79 21.144-88.74-27.416-162.85-97.543-249.69-130.975-159.64-61.462-318.44 99.23-463.526 153.962-77.693 29.306-130.686-43.525-192.579-85.915-36.989-25.32-70.342-33.065-111.585-17.26-45.63 17.417-88.83 42.532-131.63 67.878-75.518 44.706-161.947 105.126-249.629 93.361-109.605-14.726-191.4917-125.042-302.6864-136.07"/><path d="m1921.41 522.031c-81.23 2.532-162.85 50.125-243.76 25.154-86.19-26.592-157.18-96.665-241.42-129.303-81.72-31.672-169.81.94-247.27 36.076-74.7 33.896-145.93 78.82-221.673 109.418-76.751 31.01-124.149-38.333-185.588-79.648-81.585-54.832-167.279 11.411-243.571 54.003-77.299 43.099-166.066 99.784-254.324 87.787-110.572-15.014-193.3628-126.11-305.5386-137.378"/><path d="m1921.63 507.535c-82 2.98-163.69 53.963-245.63 28.798-83.9-25.787-152.02-95.762-233.99-127.677-80.96-31.563-171.34-.392-249.1 31.667-76.16 31.403-148.85 73.356-224.614 106.039-75.768 32.683-118.542-33.22-179.195-73.949-79.731-53.526-169.036 17.749-243.965 57.275-78.88 41.608-169.811 94.721-258.553 82.572-111.431-15.267-195.0457-127.11-308.041-138.599"/><path d="m1921.84 493.429c-82.77 3.333-164.44 57.245-247.34 31.921-81.9-25.005-147.47-94.904-227.27-126.191-80.35-31.409-172.75-1.611-250.82 27.673-77.45 29.072-151.53 68.406-227.217 103.176-35.705 16.395-61.667 16.643-95.518-5.9-27.514-18.325-50.596-44.644-78.067-63.096-36.65-24.645-66.187-24.492-105.32-7.328-47.023 20.655-92.902 44.546-139.092 67.731-80.163 40.121-172.996 90.017-262.14 77.765-112.198-15.423-196.5153-128.01-310.3183-139.626"/><path d="m1922.07 479.644c-83.55 3.32-165.02 59.878-248.89 34.457-80.28-24.339-143.56-94.453-221.75-124.949-79.94-31.178-174-2.715-252.34 24.256s-153.76 64.181-229.236 101.072c-34.88 17.046-60.198 19.104-93.754-3.322-26.606-17.784-48.614-43.734-75.15-61.645-36.448-24.61-65.558-22.57-104.027-4.806-47.274 21.829-93.853 45.66-140.895 68.162-81.139 38.798-175.716 85.798-264.995 73.512-112.817-15.514-197.7032-128.779-312.0584-140.468"/><path d="m1922.28 466.247c-84.32 3.179-165.37 61.75-250.18 36.249-79.09-23.809-140.36-94.413-217.47-124.03-79.83-30.699-174.89-3.622-253.68 21.319-79.43 25.121-155.46 60.713-230.664 99.709-34.189 17.712-59.247 21.127-92.548-1.295-25.883-17.405-46.99-43.18-72.789-60.743-36.271-24.687-65.379-21.294-103.28-2.82-47.362 23.054-94.482 46.939-142.23 68.935-81.645 37.627-177.744 82.086-266.957 69.88-113.262-15.506-198.5557-129.415-313.3972-141.08"/><path d="m1922.48 453.17c-85.09 2.735-165.48 62.767-251.23 37.186-78.27-23.35-138.19-94.232-214.37-123.499-79.58-30.551-175.87-4.116-254.83 19.182-80.21 23.675-156.57 58.258-231.46 99.441-33.65 18.516-58.856 22.693-91.979.131-25.345-17.268-45.777-43.048-71.08-60.475-36.132-24.891-65.656-20.821-103.127-1.463-47.291 24.423-94.765 48.478-143.034 70.083-81.87 36.635-179.04 79.006-267.891 66.966-113.535-15.367-199.0337-129.885-314.1473-141.427"/><path d="m1922.66 440.445c-85.51 2.298-165.36 63.007-251.63 37.194-78.01-23.328-137.55-94.141-213.5-123.244-79.5-30.455-176.23-3.454-255.21 19.318-80.49 23.208-156.6 57.525-231.585 98.898-33.528 18.518-59.074 22.053-91.97-.362-25.172-17.154-45.473-42.708-70.644-59.91-36.016-24.603-66.078-20.669-103.208-.733-47.104 25.287-94.635 49.531-143.102 70.909-81.467 35.943-179.883 77.798-268.039 65.373-113.363-15.954-199.4614-128.572-314.2579-141.271"/><path d="m1922.84 427.936c-85.69 2.104-165.32 63.231-251.79 37.128-77.88-23.517-137.75-93.747-213.75-122.676-79.5-30.264-176.04-2.002-254.9 20.932-80.24 23.34-156.02 57.598-231.484 96.941-71.433 37.232-105.473-22.534-163.111-60.44-36.032-23.695-66.278-20.02-103.072.002-46.905 25.529-94.355 49.711-142.803 70.835-80.984 35.298-180.672 77.339-268.177 64.001-112.855-17.218-200.1123-125.335-314.0988-140.361"/><path d="m1923.04 415.589c-85.95 1.972-165.39 63.564-252.13 37.25-77.88-23.645-138-93.147-214.05-121.822-79.51-30.041-175.78-.628-254.52 22.387-79.93 23.361-155.42 57.466-231.284 94.748-70.797 34.807-106.111-23.93-163.818-60.166-36.049-22.692-66.563-19.149-103.034.91-46.692 25.676-94.003 49.67-142.432 70.412-80.646 34.556-181.311 76.118-268.074 61.997-112.27-18.259-200.7009-121.764-313.8148-138.843"/><path d="m1923.22 403.483c-86.25 1.872-165.58 63.975-252.64 37.544-77.78-23.612-138.28-92.34-214.39-120.729-79.52-29.564-175.49.634-254.09 23.668-79.54 23.288-154.87 57.125-230.965 92.269-70.256 32.413-106.833-25.057-164.717-59.655-36.164-21.597-66.907-18.057-103.107 1.991-46.437 25.728-93.648 49.437-141.987 69.671-80.429 33.7-181.683 74.185-267.841 59.422-111.701-19.124-201.2547-117.857-313.4725-136.784"/><path d="m1923.4 391.583c-86.61 1.834-165.8 64.433-253.31 37.978-77.72-23.483-138.61-91.454-214.79-119.304-79.5-29.069-175 1.853-253.57 24.808-79.11 23.137-154.2 56.611-230.568 89.554-69.688 30.067-107.614-25.93-165.8-58.719-36.304-20.469-67.292-16.79-103.263 3.198-46.079 25.869-93.301 48.779-141.455 68.63-80.345 32.73-181.855 71.651-267.503 56.292-110.961-19.812-201.7194-113.663-312.9241-134.179"/><path d="m1923.57 379.894c-87.01 1.826-166.18 64.983-254.12 38.552-77.65-23.306-138.98-90.393-215.27-117.703-79.48-28.449-174.58 2.989-253 25.836-78.69 22.889-153.57 55.89-230.072 86.602-69.136 27.768-108.494-26.614-167.064-57.484-36.501-19.246-67.723-15.333-103.489 4.563-45.802 25.697-92.845 48.166-140.879 67.287-80.367 31.663-181.824 68.372-267.007 52.655-110.236-20.341-202.1354-109.165-312.3433-131.113"/><path d="m1923.73 368.464c-87.45 1.835-166.62 65.549-255.06 39.3-77.6-23.035-139.39-89.174-215.72-115.865-79.45-27.779-174.06 4.066-252.41 26.707-78.1 22.517-152.94 54.977-229.488 83.412-68.61 25.501-109.484-27.077-168.494-55.933-36.726-17.961-68.197-13.717-103.814 6.15-45.488 25.449-92.312 47.398-140.176 65.707-80.481 30.436-181.584 64.587-266.396 48.542-109.461-20.693-202.4614-104.394-311.6494-127.55"/><path d="m1923.9 357.267c-87.93 1.905-167.18 66.239-256.14 40.109-77.56-22.653-139.82-87.766-216.24-113.773-79.41-27.015-173.51 5.078-251.68 27.451-77.56 22.209-152.31 53.906-228.84 80.049-68.099 23.249-110.572-27.399-170.065-54.13-36.979-16.564-68.699-11.959-104.205 7.735-45.184 25.144-91.805 46.488-139.511 63.872-80.715 29.206-181.198 60.328-265.696 44.034-108.658-20.998-202.724-99.385-310.8673-123.621"/><path d="m1924.07 346.312c-88.46 1.992-167.71 66.963-257.33 41.155-77.51-22.333-140.29-86.372-216.81-111.617-79.36-26.17-172.88 6.044-250.93 28.117-77.01 21.788-151.68 52.659-228.105 76.479-67.602 21.109-111.771-27.531-171.774-52.058-37.26-15.215-69.232-10.058-104.652 9.319-44.865 24.756-91.254 45.428-138.759 61.832-81.001 27.8-180.616 55.546-264.868 39.081-107.849-20.983-202.9102-94.118-310.0118-119.26"/><path d="m1924.22 335.631c-89.02 2.11-168.36 67.715-258.55 42.232-77.56-21.841-140.86-84.807-217.48-109.225-79.3-25.262-172.17 6.948-250.22 28.67-76.43 21.305-151.03 51.254-227.335 72.736-67.105 18.905-113.066-27.537-173.61-49.75-37.554-13.772-69.766-8.061-105.157 11.221-44.533 24.313-90.68 44.238-137.964 59.569-81.285 26.298-179.838 50.433-263.898 33.797-106.997-21.08-203.0189-88.66-309.0811-114.579"/><path d="m1924.38 325.272c-89.57 2.211-169.01 68.452-260.01 43.353-77.44-21.377-141.31-83.143-218.03-106.688-79.21-24.321-171.45 7.82-249.31 29.084-75.88 20.773-150.4 49.689-226.503 68.851-66.65 16.795-114.498-27.467-175.557-47.253-37.85-12.297-70.328-6.002-105.73 13.137-44.192 23.817-90.078 42.938-137.112 57.132-81.784 24.682-179.051 44.796-262.977 28.193-106.162-20.954-203.0498-83.009-308.088-109.595"/><path d="m1924.53 315.082c-90.23 2.423-169.83 69.314-261.48 44.649-77.44-20.82-141.9-81.386-218.68-104.009-79.17-23.301-170.72 8.661-248.47 29.545-75.29 20.226-149.74 47.997-225.601 64.838-66.223 14.765-116.029-27.191-177.589-44.486-38.161-10.774-70.895-3.751-106.346 15.116-43.849 23.272-89.468 41.535-136.229 54.537-82.253 22.954-178.099 38.906-261.916 22.29-105.327-20.86-203.0169-77.166-307.0466-104.308"/><path d="m1924.68 305.231c-90.88 2.618-170.63 70.159-263.06 45.99-77.38-20.246-142.38-79.564-219.32-101.219-79.08-22.264-169.92 9.471-247.54 29.864-74.74 19.631-149.08 46.178-224.656 60.7-65.849 12.654-117.654-26.853-179.729-41.738-38.458-9.219-71.434-1.452-107.004 17.238-43.5 22.681-88.841 40.028-135.303 51.767-82.707 21.1-177.019 32.701-260.797 16.149-104.507-20.623-202.9186-71.179-305.9813-98.813"/><path d="m1924.82 295.689c-91.52 2.831-171.48 71.02-264.64 47.38-77.4-19.641-142.98-77.68-220.03-98.334-78.99-21.164-169.11 10.249-246.66 30.134-74.21 19.035-148.42 44.247-223.709 56.466-65.53 10.622-119.377-26.406-181.941-38.752-38.768-7.664-71.988.895-107.688 19.296-43.154 22.08-88.215 38.496-134.363 48.95-83.226 19.132-175.853 26.241-259.606 9.801-103.581-20.367-202.6884-65.046-304.7855-93.092"/><path d="m1924.94 286.435c-92.17 3.057-172.35 71.816-266.29 48.83-77.42-19.004-143.57-75.763-220.73-95.368-78.9-20.001-168.29 11.012-245.74 30.356-73.7 18.408-147.74 42.206-222.67 52.139-65.266 8.652-121.141-25.848-184.155-35.654-39.038-6.078-72.529 3.304-108.359 21.464-42.811 21.437-87.584 36.873-133.394 45.99-83.716 17.055-174.63 19.593-258.385 3.264-102.831-20.036-202.4332-58.785-303.633-87.198"/><path d="m1925.08 277.532c-92.86 3.285-173.28 72.756-267.98 50.314-77.41-18.367-144.18-73.8-221.46-92.277-78.78-18.884-167.42 11.775-244.85 30.547-73.2 17.827-147.06 40.085-221.636 47.747-65.11 6.697-122.96-25.227-186.505-32.479-39.35-4.491-72.99 5.764-109.154 23.663-42.472 20.782-86.956 35.217-132.41 42.967-190.912 33.748-376.269-32.031-559.5629-84.576"/><path d="m1925.2 268.905c-93.55 3.543-174.21 73.631-269.71 51.828-77.43-17.683-144.8-71.774-222.19-89.249-78.67-17.769-166.55 12.506-243.81 30.692-72.77 17.182-146.39 37.915-220.586 43.26-65.063 4.74-124.796-24.462-188.856-29.241-39.607-2.919-73.547 8.27-109.908 25.895-41.986 20.489-86.415 33.246-131.413 39.943-185.961 27.69-378.357-33.085-557.055-85.216"/><path d="m1925.32 260.615c-94.24 3.801-175.15 74.505-271.44 53.357-77.46-17.062-145.42-69.746-222.92-86.141-78.56-16.604-165.68 13.254-242.85 30.789-72.36 16.488-145.7 35.666-219.518 38.853-65.151 2.812-126.631-23.763-191.222-25.955-39.864-1.348-74.036 10.76-110.676 28.158-41.704 19.793-85.816 31.393-130.413 36.76-84.96 10.22-170.73-1.241-254.535-17.013-100.555-18.93-201.2298-39.534-299.9833-68.907"/><path d="m1925.42 252.688c-94.12 3.978-174.93 74.812-271.15 55.336-77.17-15.672-145.3-66.353-222.2-82.706-77.73-16.526-163.09 12.089-239.57 28.936-73.93 16.222-148.85 34.481-224.259 35.618-66.942 1.014-131.712-24.217-198.516-22.564-40.323 1-74.18 15.947-111.414 32.555-38.676 17.251-79.365 26.809-120.417 30.949-87.379 8.809-173.597-7.929-259.506-23.802-99.162-18.317-199.2814-32.83-296.6031-62.258"/><path d="m1925.55 245.086c-94.78 4.238-175.92 75.67-272.87 56.867-77.2-14.973-145.9-64.359-222.94-79.615-77.59-15.298-162.27 12.899-238.63 29.159-73.57 15.687-148.18 32.439-223.157 31.132-67.295-1.173-133.564-23.23-200.966-19.072-40.402 2.479-74.559 18.312-112.07 34.549-38.408 16.619-78.808 25.1-119.488 28.02-87.619 6.289-172.254-15.292-258.156-30.767-98.524-17.749-198.7337-26.325-295.3611-56.091"/><path d="m1925.64 237.867c-95.5 4.496-176.81 76.515-274.6 58.365-77.23-14.336-146.5-62.379-223.67-76.555-77.45-14.261-161.46 13.741-237.77 29.429-73.15 15.074-147.45 30.207-221.994 26.584-67.744-3.299-135.377-22.244-203.388-15.613-40.483 3.959-74.924 20.662-112.672 36.529-38.073 16.004-78.265 23.406-118.546 25.107-87.804 3.739-170.952-22.593-256.834-37.685-97.913-17.212-198.0779-19.818-294.1324-49.925"/><path d="m1925.74 231.009c-96.17 4.692-177.83 77.325-276.32 59.848-77.25-13.716-147.08-60.495-224.39-73.527-77.31-13.033-160.64 14.583-236.74 29.685-72.96 14.488-146.89 28.084-220.981 22.128-68.3-5.489-137.149-21.271-205.77-12.2-40.588 5.358-75.288 22.997-113.38 38.475s-77.75 21.728-117.633 22.242c-87.758 1.161-169.719-29.815-255.513-44.523-97.355-16.694-197.5429-13.346-292.9425-43.855"/><path d="m1925.84 224.497c-96.83 4.998-178.78 78.072-277.98 61.315-77.31-13.112-147.68-58.515-225.11-70.563-77.11-11.994-159.93 15.44-235.88 29.987-72.74 13.919-146.23 25.963-219.921 17.721-68.936-7.713-138.866-20.346-208.136-8.882-40.49 6.713-75.612 25.299-113.967 40.407-37.648 14.817-77.29 20.08-116.72 19.44-87.714-1.402-168.543-36.878-254.222-51.235-96.904-16.239-196.9524-6.951-291.7502-37.912"/><path d="m1925.94 218.402c-97.48 5.21-179.69 78.9-279.62 62.703-77.35-12.492-148.26-56.71-225.8-67.614-77.05-10.894-159.04 16.331-234.99 30.321-72.59 13.317-145.69 23.871-218.908 13.377-69.639-9.97-140.528-19.452-210.474-5.643-40.498 7.97-75.934 27.522-114.566 42.258-37.464 14.28-76.749 18.482-115.796 16.719-87.534-3.93-167.438-43.752-253-57.804-96.358-15.817-196.2535-.588-290.5958-32.129"/><path d="m1926 212.699c-98.09 5.438-180.59 79.633-281.19 64.061-77.4-12-148.87-54.843-226.47-64.84-76.91-9.905-158.23 17.284-234.14 30.702-72.44 12.762-145.15 21.842-217.91 9.144-70.382-12.275-142.202-18.653-212.673-2.546-40.481 9.244-76.23 29.746-115.194 44.158-37.224 13.679-76.29 16.946-114.98 14.09-87.262-6.408-166.405-50.388-251.824-64.167-95.904-15.474-195.6055 5.648-289.4787-26.474"/><path d="m1926.08 207.387c-98.63 5.651-181.44 80.381-282.69 65.355-77.46-11.507-149.35-53.1-227.15-62.145-76.78-8.916-157.51 18.236-233.29 31.147-72.33 12.35-144.65 19.876-216.948 5.021-71.164-14.613-143.685-17.947-214.803.394-40.42 10.439-76.524 31.89-115.738 45.948-37.027 13.268-75.859 15.472-114.126 11.589-86.91-8.822-165.43-56.723-250.69-70.34-95.572-15.213-194.9705 11.772-288.4126-21.075"/><path d="m1926.15 202.488c-99.26 5.816-182.29 81.052-284.12 66.541-77.53-11.031-149.89-51.438-227.78-59.546-76.68-7.975-156.8 19.188-232.5 31.654-72.26 11.906-144.2 17.975-216.051 1.01-71.852-16.965-145.141-17.32-216.85 3.176-40.344 11.539-76.811 33.684-116.24 47.674-36.672 13.035-75.538 14.077-113.315 9.168-86.52-11.06-164.529-62.709-249.617-76.164-95.156-15.047-194.3724 17.752-287.395-15.931"/><path d="m1926.15 197.938c-99.8 5.965-183.01 81.707-285.46 67.679-77.52-10.569-150.33-49.806-228.33-57.04-76.52-7.097-156.12 20.171-231.73 32.241-72.21 11.476-143.8 16.166-215.194-2.86-72.741-19.369-146.512-16.882-218.77 5.737-40.282 12.575-77.074 35.574-116.729 49.353-36.518 12.688-75.164 12.778-112.535 7.017-40.776-6.299-80.401-19.789-119.394-34.669-42.078-16.032-85.243-40.122-129.248-47.066-94.833-14.978-193.8122 23.557-286.4403-11.075"/><path d="m1926.21 193.973c-100.28 6.084-183.66 82.317-286.71 68.692-77.58-10.267-150.8-48.461-228.91-54.821-76.42-6.283-155.45 21.169-230.99 32.906-72.21 11.19-143.48 14.484-214.427-6.54-73.496-21.786-147.799-16.57-220.62 8.109-40.125 13.628-77.24 37.338-117.094 50.907-36.363 12.372-74.82 11.606-111.811 4.975-40.678-7.268-80.054-21.868-118.802-37.651-41.75-16.997-84.962-42.298-128.952-49.289-94.537-15.005-193.3036 29.185-285.5476-6.57"/><path d="m1926.28 190.348c-100.75 6.203-184.35 82.894-287.85 69.611-77.64-9.981-151.23-47.067-229.43-52.712-76.31-5.518-154.83 22.278-230.31 33.682-72.21 10.887-143.21 12.913-213.7-10.094-74.304-24.171-148.99-16.399-222.359 10.26-39.991 14.522-77.389 38.975-117.442 52.381-36.211 12.104-74.424 10.547-111.132 3.141-40.567-8.189-79.723-23.836-118.254-40.443-41.452-17.868-84.699-44.252-128.687-51.339-94.223-15.174-192.8579 34.606-284.7703-2.37"/><path d="m1926.34 187.203c-101.17 6.196-184.91 83.426-288.86 70.406-77.75-9.745-151.73-45.85-230.02-50.797-76.25-4.831-154.28 23.402-229.68 34.553-72.24 10.664-143.01 11.484-213.035-13.377-75.031-26.636-149.948-16.48-223.861 12.017-39.872 15.399-77.524 40.5-117.737 53.776-36.086 11.9-74.152 9.644-110.496 1.528-40.499-9.047-79.421-25.645-117.764-43.013-41.208-18.691-84.467-45.951-128.507-53.182-94.028-15.457-192.5156 39.785-283.9987 1.416"/><path d="m1926.38 184.484c-101.56 6.19-185.39 83.911-289.75 71.06-77.75-9.57-152.1-44.759-230.46-49.15-76.17-4.209-153.71 24.559-229.1 35.534-72.28 10.521-142.89 10.245-212.485-16.44-75.771-29.068-150.766-16.748-225.251 13.585-39.711 16.182-77.589 41.868-117.949 55.046-35.975 11.758-73.841 8.901-109.918.154-40.431-9.827-79.163-27.281-117.332-45.347-41.006-19.42-84.213-47.363-128.371-54.771-93.819-15.884-192.2781 44.724-283.3686 4.739"/><path d="m1926.43 182.223c-101.06 6.198-184.62 83.924-288.39 71.847-81.99-9.533-160.76-47.504-243.65-48.201-70.87-.599-142.45 25.614-212.65 36.202-74.58 11.245-145.76 9.654-217.306-18.45-79.34-31.088-154.437-16.781-232.023 17.192-34.78 15.217-68.027 36.224-103.046 50.435-37.059 15.034-77.42 12.802-115.119 3.437-42.779-10.616-83.568-30.111-123.744-49.915-40.497-20.032-83.433-47.987-127.353-55.12-92.876-15.008-190.8613 49.381-280.7117 7.953"/><path d="m1926.45 180.449c-101.34 6.082-184.91 84.333-288.96 72.235-82.02-9.549-161.16-46.667-244.03-46.918-70.83-.2-142.05 26.783-212.21 37.388-74.64 11.275-145.79 8.793-216.957-21.054-80.106-33.618-154.843-17.473-233.094 18.223-34.628 15.793-67.973 36.99-103.087 51.214-36.977 15.052-77.158 12.505-114.632 2.65-42.742-11.235-83.355-31.54-123.401-51.851-40.434-20.509-83.351-48.765-127.374-56.219-92.69-15.593-190.8695 53.743-280.2681 10.397"/><path d="m1926.47 179.168c-101.54 5.951-185.05 84.681-289.39 72.418-82.04-9.644-161.37-46.002-244.36-45.873-70.8.103-141.7 28-211.84 38.701-74.68 11.433-145.92 8.169-216.598-23.389-80.846-36.082-155.015-18.463-233.954 18.781-34.556 16.288-67.986 37.706-103.13 52.105-36.952 15.132-76.778 12.448-114.218 2.164-86.5-23.795-163.132-94.905-250.611-110.503-92.513-16.497-191.032 57.625-279.9217 12.186"/><path d="m1926.49 178.355c-101.7 5.789-185.19 84.997-289.65 72.478-82.05-9.852-161.66-45.53-244.61-45.145-70.82.357-141.43 29.277-211.55 40.186-74.71 11.624-146.18 7.767-216.427-25.424-81.518-38.529-154.884-19.797-234.592 18.994-34.278 16.643-67.804 38.903-103.019 52.712-37.402 14.646-76.041 12.731-113.878 2.01-86.635-24.561-162.833-95.728-250.606-112.35-92.372-17.529-191.391 61.217-279.6464 13.464"/><path d="m1926.49 178.051c-101.81 5.564-185.16 85.252-289.72 72.333-82.04-10.138-161.77-45.245-244.88-44.72-70.84.452-141.2 30.651-211.3 41.845-74.72 11.927-146.57 7.634-216.365-27.157-82.111-40.959-154.463-21.493-234.953 18.812-73.532 36.797-134.323 79.086-216.45 55.335-86.855-25.122-162.699-95.694-250.76-113.53-92.245-18.69-191.852 64.392-279.6604 14.227"/></g></g></svg>