<svg fill="none" height="1000" viewBox="0 0 488 1000" width="488" xmlns="http://www.w3.org/2000/svg" xmlns:xlink="http://www.w3.org/1999/xlink"><clipPath id="a"><path d="m0 0h56.6803v71.9993h-56.6803z" transform="matrix(.99999977 -.00067105 .00067105 .99999977 212 368.037)"/></clipPath><clipPath id="b"><path d="m0 0h56.6803v71.9993h-56.6803z" transform="matrix(.96560708 -.26000569 .26000569 .96560708 13.1117 137.29)"/></clipPath><clipPath id="c"><path d="m0 220h71v71h-71z"/></clipPath><clipPath id="d"><path d="m0 0h56.6803v71.9993h-56.6803z" transform="matrix(.9744932 .22441703 -.22441703 .9744932 72.1562 619)"/></clipPath><clipPath id="e"><path d="m406.573 571.574h43.8529v43.8529h-43.8529z"/></clipPath><clipPath id="f"><path d="m319.604 886.604h66.7912v66.7912h-66.7912z"/></clipPath><g stroke="#3f8ae0" stroke-linecap="round" stroke-width="3"><path d="m309.318 65.4086c-34.213 0-72.544-4.7535-105.858 4.5268-40.825 11.3725-112.4358 48.0646-132.9618 81.5646-37.9444 61.928-44.9024 165.079 8.5 229.045 53.9468 64.618 174.7848 42.839 244.2478 25.768 33.246-8.171 66.312-12.078 100.635-11.84 31.212.217 43.721 9.675 53.973 39.001 26.517 75.851-10.56 162.825-87.75 191.519-57.878 21.515-123.554 11.763-183.859 14.625-45.95 2.181-108.6808 11.769-139.2863 50.84-20.457 26.115-36.4388 85.979-32.727 117.041 5.2778 44.168 25.7684 88.501 63.7684 119.001 35.9999 42 99.3099 47.821 160.4999 47 30.484-.409 64.746-15 79.023-24.317" stroke-dasharray="12 12"/><path d="m156 930h20v20" stroke-linejoin="round"/><path d="m136 990h-20v-20" stroke-linejoin="round"/><path d="m176 930-23.333 23.333" stroke-linejoin="round"/><path d="m116 990 23.333-23.333" stroke-linejoin="round"/></g><path d="m274.391.875c-10.22.012233-20.019 4.11334-27.246 11.4037-7.227 7.2904-11.293 17.1747-11.305 27.4849 0 33.2749 35.047 58.4089 36.539 59.4619.59.4158 1.292.6387 2.012.6387s1.423-.2229 2.013-.6387c1.492-1.053 36.539-26.187 36.539-59.4619-.012-10.3102-4.078-20.1945-11.305-27.4849-7.227-7.29036-17.026-11.391469-27.247-11.4037zm.003 24.7486c2.773 0 5.483.8294 7.788 2.3833 2.306 1.5537 4.102 3.7624 5.164 6.3463 1.061 2.584 1.338 5.4274.797 8.1705-.541 2.7432-1.876 5.263-3.836 7.2406-1.961 1.9777-4.459 3.3246-7.178 3.8701-2.72.5457-5.538.2656-8.1-.8047-2.561-1.0703-4.751-2.8828-6.291-5.2083-1.541-2.3256-2.363-5.0597-2.363-7.8565 0-1.8571.363-3.696 1.067-5.4117.705-1.7158 1.737-3.2747 3.039-4.5879 1.302-1.3131 2.847-2.3548 4.548-3.0653 1.701-.7108 3.524-1.0764 5.365-1.0764z" fill="#3f8ae0"/><path d="m274.391.875c-10.22.012233-20.019 4.11334-27.246 11.4037-7.227 7.2904-11.293 17.1747-11.305 27.4849 0 33.2749 35.047 58.4089 36.539 59.4619.59.4158 1.292.6387 2.012.6387s1.423-.2229 2.013-.6387c1.492-1.053 36.539-26.187 36.539-59.4619-.012-10.3102-4.078-20.1945-11.305-27.4849-7.227-7.29036-17.026-11.391469-27.247-11.4037zm.003 24.7486c2.773 0 5.483.8294 7.788 2.3833 2.306 1.5537 4.102 3.7624 5.164 6.3463 1.061 2.584 1.338 5.4274.797 8.1705-.541 2.7432-1.876 5.263-3.836 7.2406-1.961 1.9777-4.459 3.3246-7.178 3.8701-2.72.5457-5.538.2656-8.1-.8047-2.561-1.0703-4.751-2.8828-6.291-5.2083-1.541-2.3256-2.363-5.0597-2.363-7.8565 0-1.8571.363-3.696 1.067-5.4117.705-1.7158 1.737-3.2747 3.039-4.5879 1.302-1.3131 2.847-2.3548 4.548-3.0653 1.701-.7108 3.524-1.0764 5.365-1.0764z" fill="#3f8ae0"/><g clip-path="url(#a)"><path d="m240.445 368.642c-7.286.014-14.269 2.942-19.418 8.143-5.148 5.2-8.042 12.248-8.046 19.598.016 23.72 25.012 41.621 26.076 42.371.421.296.922.454 1.435.454s1.014-.16 1.435-.456c1.063-.752 26.034-18.685 26.018-42.406-.013-7.35-2.916-14.394-8.072-19.588-5.155-5.193-12.142-8.112-19.428-8.116zm.014 17.643c1.976-.002 3.909.588 5.553 1.695 1.644 1.106 2.926 2.68 3.683 4.521.758 1.842.957 3.869.573 5.824-.384 1.956-1.335 3.753-2.732 5.164-1.396 1.411-3.176 2.372-5.114 2.762-1.939.391-3.948.192-5.775-.57-1.826-.761-3.388-2.052-4.487-3.709s-1.687-3.606-1.688-5.6c-.001-1.324.257-2.635.758-3.858.501-1.224 1.237-2.335 2.164-3.272s2.029-1.68 3.241-2.188c1.212-.507 2.511-.769 3.824-.769z" fill="#3f8ae0"/></g><g clip-path="url(#b)"><path d="m40.7402 130.497c-7.0332 1.903-13.0179 6.542-16.6414 12.9-3.6236 6.358-4.5901 13.915-2.6874 21.014 6.1674 22.905 34.9504 33.71 36.1728 34.158.4832.177 1.008.2 1.5035.067.4956-.133.9378-.417 1.267-.813.8319-1.001 20.2977-24.798 14.1303-47.703-1.9193-7.094-6.5499-13.145-12.8759-16.823-6.3261-3.679-13.8312-4.686-20.8689-2.8zm4.589 17.035c1.9084-.514 3.9279-.445 5.8028.197s3.5211 1.83 4.7304 3.412c1.2092 1.582 1.9274 3.488 2.0635 5.476.136 1.988-.3159 3.97-1.299 5.695-.9829 1.725-2.4526 3.115-4.2234 3.995-1.7708.879-3.7629 1.209-5.7245.947-1.9617-.262-3.8047-1.104-5.2961-2.419-1.4913-1.315-2.564-3.045-3.0824-4.97-.3443-1.279-.4355-2.612-.2687-3.923.167-1.312.5888-2.576 1.2415-3.721.6527-1.146 1.5234-2.149 2.5625-2.953 1.0391-.805 2.2261-1.395 3.4934-1.736z" fill="#3f8ae0"/></g><rect fill="#feccb0" height="51" rx="20" transform="matrix(.98112901 -.19335426 .19335426 .98112901 -5.525557 56.950936)" width="123" x="289" y="56.7832"/><path d="m321.606 83.9923-14.03 2.7649-.659-3.3456 3.693-3.1047c3.676-3.0789 4.357-4.4016 4.14-5.5024-.187-.9497-1.169-1.6083-2.939-1.2595-2.611.5147-5.081 2.5486-6.28 3.9733l-.817-4.1443c1.03-1.0326 3.253-2.8384 6.922-3.5616 4.727-.9316 7.337.8189 7.852 3.4306.374 1.8995-.21 3.943-4.007 7.0905l-1.137.9417.021.108 6.476-1.2762zm12.222-1.9601c-5.958 1.174-10.118-1.6163-11.007-6.1275s1.902-8.6712 7.859-9.8453c5.958-1.174 10.118 1.6163 11.007 6.1275s-1.902 8.6712-7.859 9.8453zm-.715-3.6263c2.742-.5402 4.215-2.7365 3.717-5.2619s-2.694-3.9986-5.435-3.4583c-2.742.5402-4.215 2.7365-3.717 5.2619s2.694 3.9986 5.435 3.4583zm22.173-.6026c-5.957 1.1741-10.117-1.6162-11.006-6.1275-.889-4.5112 1.901-8.6712 7.858-9.8452 5.958-1.1741 10.118 1.6162 11.007 6.1274.889 4.5113-1.901 8.6713-7.859 9.8453zm-.714-3.6262c2.741-.5402 4.214-2.7365 3.716-5.262-.497-2.5254-2.694-3.9985-5.435-3.4583s-4.214 2.7365-3.717 5.2619c.498 2.5255 2.694 3.9986 5.436 3.4584zm22.173-.6026c-5.958 1.174-10.118-1.6163-11.007-6.1275s1.901-8.6713 7.859-9.8453c5.957-1.1741 10.117 1.6162 11.006 6.1275.889 4.5112-1.901 8.6712-7.858 9.8453zm-.715-3.6263c2.741-.5402 4.214-2.7365 3.717-5.2619-.498-2.5254-2.694-3.9986-5.436-3.4584-2.741.5403-4.214 2.7366-3.716 5.262.497 2.5254 2.694 3.9986 5.435 3.4583zm20.706-.4255c-5.677 1.1187-8.976-1.1686-9.695-4.8165-.744-3.7773 1.465-7.0157 6.43-7.994 4.749-.9359 8.056 1.2825 8.788 4.9951l.072.3669-10.382 2.0461c.526 1.421 2.078 2.1243 4.97 1.5543 1.921-.3786 3.663-1.4394 4.359-2.1148l.728 3.691c-.718.6797-2.723 1.7699-5.27 2.2719zm-5.094-6.9565 5.612-1.106c-.44-1.3258-1.547-2.1616-3.209-1.8341-1.662.3276-2.511 1.4815-2.403 2.9401z" fill="#595a5a"/><rect fill="#feccb0" height="51" rx="20" transform="matrix(.98112901 -.19335426 .19335426 .98112901 -77.954067 32.398058)" width="96" x="127" y="415.562"/><path d="m159.606 442.772-14.03 2.765-.659-3.346 3.693-3.105c3.676-3.079 4.357-4.401 4.14-5.502-.187-.95-1.169-1.609-2.939-1.26-2.611.515-5.081 2.549-6.28 3.974l-.817-4.145c1.03-1.032 3.253-2.838 6.922-3.561 4.727-.932 7.337.819 7.852 3.43.374 1.9-.21 3.943-4.007 7.091l-1.137.942.021.107 6.476-1.276zm12.222-1.961c-5.958 1.175-10.118-1.616-11.007-6.127s1.902-8.671 7.859-9.845c5.958-1.174 10.118 1.616 11.007 6.127s-1.902 8.671-7.859 9.845zm-.715-3.626c2.742-.54 4.215-2.736 3.717-5.262-.498-2.525-2.694-3.998-5.435-3.458-2.742.54-4.215 2.736-3.717 5.262.498 2.525 2.694 3.998 5.435 3.458zm26.794-1.961-14.03 2.765-.66-3.346 3.694-3.105c3.676-3.079 4.357-4.401 4.14-5.502-.187-.95-1.169-1.608-2.939-1.26-2.612.515-5.081 2.549-6.28 3.974l-.817-4.145c1.03-1.032 3.252-2.838 6.922-3.561 4.727-.932 7.337.819 7.851 3.43.375 1.9-.209 3.943-4.006 7.091l-1.138.942.022.107 6.475-1.276zm16.842-3.32-14.03 2.765-.66-3.345 3.694-3.105c3.676-3.079 4.357-4.401 4.14-5.502-.187-.95-1.169-1.609-2.939-1.26-2.612.515-5.081 2.549-6.28 3.974l-.817-4.145c1.03-1.032 3.252-2.838 6.922-3.561 4.727-.932 7.337.818 7.851 3.43.375 1.9-.209 3.943-4.006 7.091l-1.138.941.022.108 6.475-1.276z" fill="#595a5a"/><rect fill="#feccb0" height="51" rx="20" transform="matrix(.98783602 .15549921 -.15549921 .98783602 23.59 -9.564569)" width="102" x="72.9297" y="146"/><path d="m94.2031 182.755-14.1261-2.224.5303-3.368 4.5352-1.647c4.5101-1.628 5.6042-2.636 5.7787-3.745.1505-.956-.5454-1.912-2.3274-2.192-2.6296-.414-5.6474.647-7.2631 1.573l.6569-4.172c1.3218-.616 4.0297-1.549 7.7242-.967 4.7594.749 6.6089 3.29 6.1949 5.919-.301 1.913-1.5514 3.631-6.1988 5.283l-1.3917.493-.0171.109 6.5198 1.026zm12.1509 2.358c-5.998-.944-8.9461-4.994-8.2311-9.536s4.7651-7.49 10.7631-6.546 8.946 4.994 8.231 9.536-4.765 7.49-10.763 6.546zm.575-3.651c2.76.435 4.898-1.122 5.298-3.664.4-2.543-1.156-4.681-3.916-5.116-2.76-.434-4.898 1.122-5.298 3.665-.401 2.543 1.156 4.681 3.916 5.115zm21.03 7.052c-5.998-.944-8.946-4.994-8.231-9.536s4.765-7.49 10.763-6.546 8.946 4.994 8.231 9.536-4.765 7.49-10.763 6.546zm.575-3.651c2.76.435 4.898-1.122 5.298-3.665.401-2.542-1.156-4.68-3.916-5.115-2.76-.434-4.898 1.122-5.298 3.665s1.156 4.681 3.916 5.115zm19.367 6.79c-5.911-.93-7.706-3.395-7.346-5.677.29-1.847 2.017-2.912 3.953-2.763l.031-.195c-2.298-.54-3.608-2.261-3.3-4.217.379-2.412 2.87-4.225 9.194-3.23 6.324.996 8.137 3.486 7.757 5.898-.308 1.956-2.084 3.191-4.436 2.999l-.031.196c1.888.453 3.204 1.996 2.914 3.843-.36 2.282-2.825 4.077-8.736 3.146zm1.413-8.975c2.717.427 3.723-.305 3.873-1.261.154-.978-.578-1.984-3.295-2.412-2.716-.428-3.723.305-3.877 1.283-.15.956.582 1.962 3.299 2.39zm-.872 5.542c2.368.373 3.274-.287 3.401-1.091.123-.782-.536-1.688-2.905-2.061-2.369-.372-3.275.287-3.398 1.069-.126.804.533 1.71 2.902 2.083z" fill="#595a5a"/><g clip-path="url(#c)"><path d="m35.5 291c19.6061 0 35.5-15.894 35.5-35.5s-15.8939-35.5-35.5-35.5-35.5 15.894-35.5 35.5 15.8939 35.5 35.5 35.5z" fill="#95cfff"/><path d="m52.0667 234.2h-33.1334c-2.6625 0-4.7333 2.071-4.7333 4.734v32.837c0 2.663 2.0708 4.733 4.7333 4.733h32.8375c2.6625 0 4.7334-2.07 4.7334-4.733v-32.837c.2958-2.367-2.0709-4.734-4.4375-4.734zm-9.4667 17.75c0 1.775-1.775 3.55-3.55 3.55 1.775 0 3.55 1.775 3.55 3.55v3.55c0 2.663-2.0708 4.734-4.7333 4.734h-7.1c-1.4792 0-2.3667-1.184-2.3667-2.367s.8875-2.367 2.3667-2.367h7.1v-4.733h-2.3667c-1.4792 0-2.3667-.888-2.3667-2.367s.8875-2.366 2.3667-2.366h2.3667v-4.734h-7.1c-1.4792 0-2.3667-.887-2.3667-2.366 0-1.48.8875-2.367 2.3667-2.367h7.1c2.6625 0 4.7333 2.071 4.7333 4.733z" fill="#fff"/></g><g clip-path="url(#d)"><path d="m99.7351 625.992c-7.1022-1.627-14.5652-.346-20.7521 3.563-6.1869 3.908-10.5924 10.124-12.2503 17.284-5.3233 23.116 15.0022 46.183 15.8704 47.153.3435.383.7957.65 1.2958.766.5.115 1.0237.072 1.5002-.122 1.205-.493 29.5719-12.346 34.8959-35.462 1.641-7.164.398-14.681-3.457-20.901-3.854-6.221-10.005-10.638-17.1029-12.281zm-3.9574 17.192c1.926.444 3.6762 1.454 5.0293 2.902 1.353 1.448 2.248 3.27 2.571 5.235.324 1.965.062 3.984-.753 5.803-.814 1.819-2.145 3.356-3.8232 4.416-1.6784 1.061-3.629 1.597-5.6054 1.541s-3.8897-.702-5.4979-1.855c-1.6083-1.154-2.8393-2.763-3.5374-4.625-.698-1.862-.8317-3.893-.3843-5.836.297-1.29.8431-2.509 1.6069-3.588.7639-1.079 1.7307-1.997 2.8451-2.701s2.3546-1.181 3.6498-1.402c1.2953-.222 2.6202-.184 3.8991.11z" fill="#3f8ae0"/></g><rect fill="#feccb0" height="51" rx="20" transform="matrix(.97906217 .20356144 -.20356144 .97906217 134.808739 -8.635636)" width="96" x="109.383" y="651"/><path d="m128.836 688.75-14.001-2.911.694-3.338 4.61-1.424c4.585-1.406 5.727-2.359 5.955-3.458.197-.948-.451-1.936-2.217-2.304-2.607-.541-5.673.372-7.332 1.218l.86-4.136c1.35-.551 4.101-1.35 7.762-.588 4.717.981 6.441 3.608 5.899 6.215-.394 1.895-1.727 3.55-6.45 4.973l-1.414.425-.022.108 6.462 1.343zm12.021 2.949c-5.945-1.236-8.692-5.425-7.756-9.927.936-4.501 5.125-7.248 11.07-6.012s8.692 5.425 7.756 9.927c-.936 4.501-5.125 7.248-11.07 6.012zm.752-3.619c2.736.569 4.947-.881 5.471-3.401s-.926-4.732-3.661-5.3c-2.736-.569-4.947.881-5.471 3.401s.926 4.732 3.661 5.3zm25.446 8.617-14-2.911.694-3.339 4.61-1.423c4.584-1.406 5.726-2.36 5.955-3.458.197-.948-.451-1.937-2.218-2.304-2.606-.542-5.672.371-7.331 1.217l.86-4.136c1.35-.55 4.1-1.349 7.762-.588 4.717.981 6.44 3.609 5.899 6.215-.395 1.896-1.727 3.551-6.45 4.973l-1.414.425-.022.108 6.461 1.344zm9.243 2.371c-3.231-.672-5.563-2.101-6.415-2.974l.829-3.985c.902 1.064 3.151 2.677 6.015 3.273 2.348.488 3.467-.245 3.664-1.193s-.537-2.067-2.884-2.555c-1.594-.331-3.264-.296-4.076-.173l.439-2.111 4.549-1.885.04-.194-6.354-1.321.783-3.77 13.786 2.866-.538 2.585-5.802 2.187-.041.193c3.533.735 5.374 3.118 4.877 5.509-.586 2.821-3.422 4.681-8.872 3.548z" fill="#595a5a"/><rect fill="#95cfff" height="71.0003" rx="35.5" width="71" x="345" y="363"/><path d="m375.207 415.136h-15.124c-.417 0-.756.339-.756.756v3.025c0 .418.339.756.756.756h15.124c.418 0 .756-.338.756-.756v-3.025c0-.417-.338-.756-.756-.756z" fill="#ffeb3b"/><path d="m378.232 410.601h-15.124c-.418 0-.756.339-.756.756v3.025c0 .418.338.756.756.756h15.124c.417 0 .756-.338.756-.756v-3.025c0-.417-.339-.756-.756-.756z" fill="#ffc107"/><path d="m375.207 406.061h-15.124c-.417 0-.756.338-.756.756v3.024c0 .418.339.757.756.757h15.124c.418 0 .756-.339.756-.757v-3.024c0-.418-.338-.756-.756-.756z" fill="#ffeb3b"/><path d="m397.892 415.136h-15.123c-.418 0-.757.339-.757.756v3.025c0 .418.339.756.757.756h15.123c.418 0 .757-.338.757-.756v-3.025c0-.417-.339-.756-.757-.756z" fill="#ffeb3b"/><path d="m400.917 410.601h-15.124c-.417 0-.756.339-.756.756v3.025c0 .418.339.756.756.756h15.124c.418 0 .756-.338.756-.756v-3.025c0-.417-.338-.756-.756-.756z" fill="#ffc107"/><path d="m399.405 406.061h-15.124c-.418 0-.756.338-.756.756v3.024c0 .418.338.757.756.757h15.124c.417 0 .756-.339.756-.757v-3.024c0-.418-.339-.756-.756-.756z" fill="#ffeb3b"/><path d="m396.38 401.526h-15.124c-.417 0-.756.338-.756.756v3.025c0 .417.339.756.756.756h15.124c.418 0 .756-.339.756-.756v-3.025c0-.418-.338-.756-.756-.756z" fill="#ffc107"/><path d="m399.405 396.989h-15.124c-.418 0-.756.338-.756.756v3.025c0 .417.338.756.756.756h15.124c.417 0 .756-.339.756-.756v-3.025c0-.418-.339-.756-.756-.756z" fill="#ffeb3b"/><path d="m394.868 377.327h-10.587c-.149 0-.295.045-.42.128-.124.083-.221.201-.278.339s-.072.29-.043.437c.029.146.101.281.207.387l3.689 3.689-7.119 7.119h-7.249c-.2 0-.393.08-.535.222l-9.517 9.517c-.141.142-.221.334-.221.535 0 .2.08.392.221.534l2.139 2.139c.142.142.334.221.535.221.2 0 .393-.079.534-.221l8.41-8.41h7.249c.099 0 .197-.019.289-.057s.175-.094.245-.164l8.227-8.227 3.689 3.69c.106.105.241.177.387.206.147.03.299.015.437-.043.138-.057.256-.154.34-.278.083-.124.127-.271.127-.42v-10.587c0-.2-.08-.393-.221-.534-.142-.142-.335-.222-.535-.222z" fill="#fff"/><rect fill="#95cfff" height="71" rx="35.5" width="71" x="393" y="558"/><g clip-path="url(#e)"><path d="m449.429 604.424-14.169 8.644c-.829.506-1.781.773-2.752.773h-19.129l-.182-.038c.113-.212-2.339-4.029-2.339-4.287l2.521-12.342h2.116c1.567.003 3.086.537 4.31 1.516 1.225.978 2.744 1.512 4.31 1.515h3.954c1.33-.002 2.562.697 3.244 1.84l.068.114c.635 1.082.464 2.456-.416 3.349h1.777c.327 0 .651-.054.96-.16l13.996-4.674c.847-.278 1.777.014 2.313.728v.007c.352.468.489 1.063.378 1.637-.111.575-.46 1.076-.96 1.378z" fill="#fdd7ad"/><path d="m431.729 603.992c-.085.574-.353 1.106-.764 1.515h-4.188c-1.195-.001-2.363.352-3.357 1.015l-.545.371c-.124.086-.272.131-.423.129-.251-.001-.486-.126-.628-.333-.113-.167-.154-.372-.116-.569.038-.198.154-.372.321-.484l.551-.371c1.244-.83 2.703-1.273 4.197-1.273z" fill="#cf976a"/><path d="m432.584 572.66 3.931 2.273c.174.101.301.267.352.462s.023.402-.08.576l-1.391 2.416c.727.848 1.289 1.824 1.656 2.879h2.79c.417.001.755.34.756.757v4.546c-.001.418-.339.756-.756.757h-2.79c-.367 1.055-.929 2.032-1.656 2.879l1.391 2.417c.103.174.131.381.08.575-.051.195-.178.361-.352.463l-3.931 2.272c-.174.1-.38.126-.573.074-.192-.053-.357-.18-.456-.354l-1.391-2.417c-1.1.202-2.227.202-3.327 0l-1.391 2.417c-.099.174-.263.301-.456.354-.193.052-.399.026-.572-.074l-3.932-2.272c-.174-.102-.3-.268-.351-.463-.051-.194-.023-.401.079-.575l1.391-2.417c-.727-.847-1.288-1.824-1.656-2.879h-2.79c-.417-.001-.754-.339-.756-.757v-4.546c.002-.417.339-.756.756-.757h2.79c.368-1.055.929-2.031 1.656-2.879l-1.391-2.416c-.102-.174-.13-.381-.079-.576s.177-.361.351-.462l3.932-2.273c.173-.1.379-.126.572-.074.193.053.357.18.456.354l1.391 2.417c1.1-.202 2.227-.202 3.327 0l1.391-2.417c.099-.174.264-.301.456-.354.193-.052.399-.026.573.074z" fill="#3f5c6c"/><path d="m434.549 584.296c0 3.347-2.708 6.06-6.049 6.06-3.34 0-6.048-2.713-6.048-6.06s2.708-6.061 6.048-6.061c3.341 0 6.049 2.714 6.049 6.061z" fill="#fff"/><path d="m431.524 584.296c0 1.674-1.354 3.03-3.024 3.03s-3.024-1.356-3.024-3.03 1.354-3.03 3.024-3.03 3.024 1.356 3.024 3.03z" fill="#fff"/><path d="m413.379 597.174v15.909c0 .837-.678 1.515-1.513 1.515h-3.78c-.834-.002-1.51-.679-1.512-1.515v-15.909c.002-.836.678-1.512 1.512-1.515h3.78c.834.003 1.51.679 1.513 1.515z" fill="#2e89ff"/><path d="m424.436 586.838 1.084-1.673-1.071-1.616h1.052l.614 1.034h.025l.596-1.034h.977l-1.09 1.648 1.096 1.641h-1.052l-.633-1.071h-.025l-.608 1.071zm7.996 0h-4.127v-1.144l1.796-1.537c.162-.14.298-.265.41-.376.111-.117.2-.229.267-.334.072-.112.122-.22.15-.326.034-.106.05-.22.05-.343v-.117c0-.111-.022-.208-.066-.292-.045-.083-.104-.153-.176-.209-.072-.055-.156-.097-.25-.125-.09-.028-.181-.042-.276-.042-.139 0-.262.022-.368.067-.1.045-.189.106-.267.184-.072.072-.134.158-.184.259-.05.094-.089.197-.117.309l-1.094-.418c.067-.2.159-.39.276-.568.117-.184.261-.342.434-.476.178-.139.387-.248.627-.326.239-.078.509-.117.81-.117.317 0 .598.045.843.134s.452.212.619.367c.172.156.303.343.392.56.089.212.134.443.134.693 0 .251-.042.479-.125.685-.084.206-.198.401-.343.585-.139.178-.303.348-.493.51-.189.161-.387.325-.593.492l-1.086.852h2.757z" fill="#3f8ae0"/></g><rect fill="#95cfff" height="71" rx="35.5" width="71" x="4" y="780"/><path d="m24.3539 794.941c0-3.62 2.9349-6.555 6.5552-6.555h17.4647c3.6204 0 6.5552 2.935 6.5552 6.555v36.289c0 6.034-4.8914 10.926-10.9253 10.926h-8.7245c-6.0338 0-10.9253-4.892-10.9253-10.926z" fill="#fd5c00"/><path d="m31.3796 795.414h16.3226v25.5484h-16.3226z" fill="#3f8ae0"/><path d="m31.1611 808.445c0 8.511-.1111 12.383-.0248 12.861.0073.04.0414.05.0823.05 1.0556-.002 15.0404-.033 15.6592-.033l.3282.018c.1509.008.2777-.112.2777-.264v-12.632-12.729c0-.146-.118-.264-.2636-.264l-7.9492.001h-7.8462c-.1456 0-.2636.118-.2636.263zm11.1915-12.408c0 .162.0973.227.2433.162.1297-.049.2433-.016.2433.065 0 .097-.1136.162-.2433.162-.1298 0-.2433.114-.2433.243 0 .13-.0811.244-.1784.244-.0811 0-.1136-.081-.0649-.179.0649-.097-.0325-.211-.2271-.259-.1946-.049-.3406-.146-.3406-.227s.0973-.098.2271-.049c.1297.049.2757 0 .3568-.114.0811-.129.0487-.162-.0973-.064-.146.081-.1784.064-.0973-.049.1622-.276.4217-.243.4217.065zm-8.4342.259c0 .098.1298.114.2758.065.1622-.065.2271-.048.146.016-.0649.065-.3731.13-.6813.146-.4217 0-.5514-.048-.5514-.259s.0973-.26.4055-.195c.227.033.4054.146.4054.227zm10.3805.114c0 .162-.1135.292-.2433.292-.2595 0-.2919-.114-.1459-.503.1297-.324.3892-.178.3892.211zm1.2327.146c-.292.259-.292.259-.1298-.065.0706-.141.1241-.282.1358-.362.006-.04-.0083-.097.0283-.079.0225.011.0547.034.0955.068.1135.097.0648.243-.1298.438zm1.038-.162c0 .178-.1297.292-.3243.308-.1947.016-.3244-.065-.3244-.211 0-.13.0648-.211.1459-.146.0811.049.1947.016.2596-.081.1459-.243.2432-.195.2432.13zm.292 1.07c-.1622.162-.2433.179-.3406.033-.0973-.13-.1622-.114-.2271.048-.0649.179-.1135.179-.2108 0-.1136-.162-.1785-.162-.3893 0-.1622.13-.2595.146-.2595.049s-.1298-.211-.2757-.243c-.1622-.049.2108-.082.8109-.098.9245-.016 1.0705.016.8921.211zm-13.0242 1.557c.0486.097-.0811.162-.3082.162-.3893 0-.9083.373-.9083.665 0 .179.1135.179.4704-.016.2108-.097.3892-.081.6325.097.6488.455.3568 1.201-.4866 1.201-.9731 0-1.0867-1.817-.1297-2.157.3892-.146.6163-.13.7299.048zm2.6762-.081c0 .049-.1298.276-.2758.503-.2595.405-.2595.438 0 .584.3244.178.3569.632.0811.908-.2433.243-1.0542.26-1.2002 0-.0811-.13 0-.146.2433-.081.5028.13.8272-.016.8272-.389 0-.195-.1136-.308-.3244-.308-.3893 0-.4217-.211-.0811-.487.373-.308.2919-.487-.2595-.487-.2758 0-.4542-.065-.3893-.162.0973-.162 1.3787-.227 1.3787-.081zm8.499 15.765-.0552 1.56c-.0053.149.1141.273.2634.273h.1648c.3569 0 .4055.033.2109.162-.1784.114-.1136.163.2919.163.3244 0 .5028-.065.438-.163-.0487-.097.0486-.162.227-.162.3244 0 .3244-.097.292-2.757-.0162-1.525.0162-2.757.0973-2.757.0649 0 .1135 1.346.1135 3v2.742c0 .15-.1248.27-.2745.264l-.8933-.038-.9028-.037c-.1522-.006-.2674-.14-.2512-.291l.0187-.174c.0324-.276-.0163-.438-.146-.438-.1622 0-.1622-.049-.0162-.195.1459-.146.1946-1.979.227-7.104l.0325-6.893.1135 5.514c.0649 3.033.0811 6.342.0487 7.331zm-13.0405-1.978c0 1.978-.0324 2.351-.2433 2.351-.2108 0-.2433-.373-.2433-2.351 0-1.979.0325-2.352.2433-2.352.2109 0 .2433.373.2433 2.352zm12.5701 2.838c.0324.065-.0324.227-.1784.341-.2109.162-.2757.162-.4055-.033-.0811-.13-.146-.259-.146-.308 0-.146.6326-.146.7299 0zm-2.5789.308c0 .292-.7136.617-1.3949.633-.1297.016-.4541.048-.7298.081-.4704.065-1.3787-.308-1.3787-.568 0-.227.3082-.146.4542.13.1135.211.2432.227.7298.097.3406-.097.6001-.113.6001-.016 0 .09 1.4169-.445 1.6668-.615.0277-.019.0463-.023.0487.011.0038.053.0038.147.0038.247zm-5.6444.114c.2595.34.7623.503.957.308.2433-.26 1.0218-.114 1.0218.178 0 .26-.4217.309-.5677.049-.0811-.114-.2108-.081-.4217.097-.2757.26-.3244.26-.7299-.065-.2595-.21-.5676-.308-.7461-.259-.1784.065-.2919.016-.3081-.114 0-.113-.0649-.064-.146.114-.0973.227-.146.243-.146.065-.0162-.13.0649-.325.146-.406.2109-.211.7948-.178.9407.033zm-4.5901 1.054c-.1622.26 1.3787.162 1.6382-.097.146-.13.3406-.244.4379-.244.1135 0 .0973.065-.0486.163-.1007.063-.1624.135-.1698.187-.0038.027.0175.044.0444.048.5088.069 6.0554.219 9.4191.235 1.7031.016 1.7355.016 1.7355.389 0 .325-.0811.39-.4866.39-.2301 0-.3964-.052-.3973-.108-.0002-.016.0165-.03.0107-.045-.016-.041-.1656-.033-.3757.023-.8272.227-2.5302.065-2.7735-.26-.2109-.275-.2271-.275-.1298.033.0811.292.0162.324-.6325.324-.4055 0-.7299-.049-.7299-.113 0-.163-.5353.048-.6975.259-.0973.114-.1135.065-.0486-.097.0486-.162.0162-.325-.0649-.373-.0973-.065-.1622-.017-.1622.065 0 .097-.1946.178-.4217.178-.2038 0-.3423-.052-.3216-.122.0053-.017.0225-.033.0186-.051-.024-.112-.7406.057-1.0594.254-.0811.049-.1622-.032-.1784-.195 0-.275-.0163-.275-.1298.017-.1135.275-.1298.275-.3731.032-.2919-.292-.5352-.357-.373-.097.146.227-.1298.211-.373-.033-.1298-.129-.1947-.129-.1947-.016 0 .211-.7785.389-.8921.195-.0486-.065-.6325-.114-1.2975-.098l-.9459.026c-.1482.004-.2706-.116-.2706-.264v-.345c0-.374.0649-.584.1622-.519.0973.064.1298.178.0811.259z" fill="#f0f6fd"/><path d="m32.9957 800.108c-.292.114-.2596.649.0324.762.4055.146.7461-.081.6974-.454-.0486-.34-.3568-.47-.7298-.308z" fill="#f0f6fd"/><path d="m34.0384 827.496 2.1818 2.182c.2036.204.2083.533.0106.742l-2.181 2.309c-.1664.176-.431.218-.6434.101l-2.6798-1.474c-.1701-.093-.2757-.272-.2757-.466v-1.678c0-.201.1139-.386.2942-.476l2.6789-1.339c.2049-.103.4524-.063.6144.099z" fill="#3f8ae0"/><path d="m44.6065 827.496-2.1818 2.182c-.2037.204-.2083.533-.0106.742l2.181 2.309c.1664.176.431.218.6434.101l2.6798-1.474c.1701-.093.2757-.272.2757-.466v-1.678c0-.201-.1139-.386-.2942-.476l-2.6789-1.339c-.2049-.103-.4524-.063-.6144.099z" fill="#3f8ae0"/><path d="m41.5053 829.381h-4.2018c-.1412 0-.2765-.056-.3764-.156l-2.2342-2.234c-.2272-.227-.2029-.602.0518-.798l1.5316-1.178c.093-.072.2071-.111.3245-.111h5.6072c.1174 0 .2315.039.3245.111l1.5316 1.178c.2547.196.279.571.0519.798l-2.2343 2.234c-.0998.1-.2352.156-.3764.156z" fill="#3f8ae0"/><path d="m41.3397 830.873h-4.2018c-.1411 0-.2765.056-.3763.156l-2.2343 2.234c-.2272.228-.2029.603.0518.799l1.5316 1.178c.093.071.2071.11.3245.11h5.6072c.1174 0 .2315-.039.3245-.11l1.5316-1.178c.2547-.196.2791-.571.0519-.799l-2.2343-2.234c-.0998-.1-.2352-.156-.3764-.156z" fill="#3f8ae0"/><rect fill="#95cfff" height="108" rx="54" width="108" x="299" y="866"/><g clip-path="url(#f)"><path d="m368.082 916.229v.756c0 .926.15 1.847.443 2.725l1.712 5.137h3.232v-11.85h-2.155c-1.785 0-3.232 1.447-3.232 3.232z" fill="#ffda79"/><path d="m382.832 918.468-1.823 6.38-8.618-7.541c-1.19 0-2.155-.964-2.155-2.154 0-1.785 1.447-3.232 3.232-3.232h7.541c1.19 0 2.155.965 2.155 2.154v2.025c0 .801-.112 1.598-.332 2.368z" fill="#ffc700"/><path d="m378.854 928.079h-6.464v4.768h6.464z" fill="#eec195"/><path d="m372.392 930.058c.999.406 2.088.634 3.232.634 1.143 0 2.232-.228 3.231-.634v-1.979h-6.463z" fill="#c89a75"/><path d="m384.052 932.179-5.197-1.485-3.232 2.145-3.231-2.145-5.197 1.485c-1.388.397-2.344 1.665-2.344 3.108v7.876c0 .595.482 1.077 1.077 1.077h19.391c.595 0 1.077-.482 1.077-1.077v-7.876c0-1.443-.956-2.711-2.344-3.108z" fill="#d5dced"/><path d="m376.7 944.238h-2.154l.538-11.391h1.078z" fill="#afb9d2"/><path d="m375.624 929.157c-3.57 0-6.464-2.894-6.464-6.464v-1.262c0-.571.227-1.119.631-1.524l1.954-1.953c.413-.414.979-.652 1.564-.633 3.443.108 6.491.846 8.158 2.474.408.398.621.955.621 1.525v1.373c0 3.57-2.894 6.464-6.464 6.464z" fill="#f7d0a1"/><path d="m372.392 921.698c0-1.242 1.044-2.23 2.284-2.151 2.175.139 5.402.502 7.382 1.454-.065-.454-.26-.883-.591-1.206-1.667-1.628-4.715-2.366-8.158-2.474-.585-.018-1.151.219-1.564.633l-1.954 1.953c-.404.404-.631.952-.631 1.524v1.262c0 2.948 1.975 5.429 4.673 6.207-.898-1.108-1.441-2.514-1.441-4.053z" fill="#eec195"/><path d="m382.087 938.495c0-.857.34-1.679.946-2.285l2.773-2.773c.371.529.59 1.167.59 1.848v7.876c0 .595-.483 1.077-1.078 1.077h-3.231z" fill="#c7cfe2"/><path d="m376.162 935.001h-1.078c-.297 0-.538-.241-.538-.538v-1.616h2.154v1.616c0 .297-.241.538-.538.538z" fill="#959cb5"/><path d="m375.623 932.838-1.826 1.395c-.315.24-.769.144-.959-.204l-1.638-2.991.659-1.005c.146-.223.458-.261.653-.08z" fill="#c7cfe2"/><path d="m375.623 932.838 1.826 1.395c.315.24.769.144.959-.204l1.638-2.991-.659-1.005c-.146-.223-.458-.261-.653-.08z" fill="#c7cfe2"/><path d="m338.888 928.707c-.92-2.439-1.65-6.632-1.808-8.815-.3-4.154-3.431-7.541-7.663-7.541s-7.363 3.387-7.663 7.541c-.158 2.183-.888 6.376-1.808 8.815-.203.538.031 1.131.56 1.371.987.447 3.09 1.323 5.627 1.664h6.568c2.525-.342 4.643-1.218 5.626-1.664.53-.24.764-.833.561-1.371z" fill="#5a4146"/><path d="m338.327 930.078c.529-.24.764-.833.561-1.371-.921-2.439-1.651-6.632-1.809-8.815-.299-4.154-3.43-7.541-7.662-7.541-.011 0-.022 0-.032 0-3.248.013-4.395 4.442-1.6 6.095.168.099.276.147.276.147l2.448 13.149h2.192c2.524-.342 4.642-1.218 5.626-1.664z" fill="#694b4b"/><path d="m337.209 933.905-3.486-1.743c-.73-.365-1.191-1.111-1.191-1.927v-3.232h-6.464v3.232c0 .816-.461 1.562-1.191 1.927l-3.486 1.743c-1.095.547-1.786 1.667-1.786 2.891v6.366c0 .595.482 1.077 1.077 1.077h17.237c.595 0 1.077-.482 1.077-1.077v-6.366c0-1.224-.692-2.344-1.787-2.891z" fill="#eec195"/><path d="m329.3 931.312c1.16 0 2.271-.239 3.29-.665-.027-.136-.058-.271-.058-.412v-3.232h-6.464v3.232c0 .142-.031.278-.058.414 1.019.424 2.13.663 3.29.663z" fill="#c89a75"/><path d="m337.209 933.904-2.483-1.241c-1.152 1.778-3.149 2.957-5.426 2.957-2.276 0-4.273-1.179-5.425-2.957l-2.484 1.241c-1.094.548-1.786 1.667-1.786 2.891v6.366c0 .595.482 1.077 1.077 1.077h17.237c.595 0 1.077-.482 1.077-1.077v-6.366c0-1.224-.692-2.343-1.787-2.891z" fill="#d5dced"/><path d="m329.3 929.158c-3.286 0-5.999-2.452-6.41-5.627-.059-.46.162-.911.576-1.12.496-.25 1.217-.672 1.907-1.288.768-.685 1.219-1.408 1.474-1.939.219-.457.723-.716 1.215-.59 3.793.967 6.375 2.94 7.312 3.746.251.216.396.535.37.866-.261 3.331-3.046 5.952-6.444 5.952z" fill="#f7d0a1"/><path d="m335.374 922.34c-.937-.806-3.52-2.779-7.313-3.746-.491-.126-.995.133-1.214.59-.193.402-.512.914-.985 1.437v.004c-.147.166-.303.333-.489.499-.69.615-1.411 1.037-1.907 1.287-.414.209-.635.66-.576 1.12.369 2.851 2.6 5.121 5.43 5.553-1.289-.877-2.251-2.084-2.251-4.235v-1.536c.244-.181.491-.361.738-.582.599-.534 1.122-1.152 1.541-1.817 2.902.905 4.869 2.413 5.615 3.055.204.179.71.646 1.303 1.202.255-.614.424-1.273.478-1.965.026-.331-.119-.65-.37-.866z" fill="#eec195"/><path d="m320.262 934.854c-.415.551-.657 1.226-.657 1.942v6.366c0 .595.482 1.077 1.077 1.077h3.232v-5.428c0-.654-.298-1.273-.809-1.682z" fill="#c7cfe2"/><path d="m368.478 932.433-9.014-3.278-6.464 2.155-6.463-2.155-9.014 3.278c-1.703.619-2.836 2.238-2.836 4.05v6.677c0 .595.482 1.077 1.077 1.077h34.473c.595 0 1.077-.482 1.077-1.077v-6.677c0-1.812-1.133-3.431-2.836-4.05z" fill="#3f8ae0"/><path d="m351.872 933.466-1.026 10.773h4.31l-1.026-10.773z" fill="#707487"/><path d="m354.131 934.946h-2.262c-.417 0-.754-.338-.754-.754v-2.881h3.77v2.881c0 .416-.338.754-.754.754z" fill="#5b5d6e"/><path d="m370.155 933.549c.727.781 1.159 1.821 1.159 2.936v6.678c0 .595-.482 1.077-1.077 1.077h-5.386v-3.602c0-1.143.454-2.239 1.262-3.047z" fill="#0055a5"/><path d="m364.85 906.939v-9.025c0-1.19-.964-2.154-2.154-2.154h-12.928c-4.759 0-8.618 3.858-8.618 8.618v2.561c0 1.158.187 2.308.553 3.407l.358 1.075c.11.33.166.675.166 1.022v.553h21.546v-.553c0-.347.056-.692.166-1.022l.358-1.075c.367-1.099.553-2.249.553-3.407z" fill="#5a4146"/><path d="m346.537 900.136c0 2.417 1.959 4.377 4.377 4.377h.605l.293 8.483h11.961v-.553c0-.347.056-.692.166-1.022l.359-1.076c.366-1.098.553-2.248.553-3.406v-9.025c0-1.19-.965-2.154-2.155-2.154h-11.782c-2.418 0-4.377 1.959-4.377 4.376z" fill="#694b4b"/><path d="m359.465 921.616h-12.928v9.695h12.928z" fill="#eec195"/><path d="m346.537 925.258c1.903 1.103 4.106 1.744 6.464 1.744 2.357 0 4.561-.641 6.463-1.744v-3.642h-12.927z" fill="#c89a75"/><path d="m353 931.309-3.436 3.436c-.462.462-1.225.41-1.62-.111l-3.562-4.694.932-1.963c.275-.58.992-.792 1.538-.456z" fill="#0055a5"/><path d="m353 931.309 3.436 3.436c.462.462 1.225.41 1.62-.111l3.563-4.694-.932-1.963c-.275-.58-.993-.792-1.539-.456z" fill="#0055a5"/><path d="m353.001 924.847c-5.95 0-10.773-4.823-10.773-10.773v-1.262c0-.572.227-1.12.631-1.524l.892-.892c.404-.404.631-.952.631-1.524v-2.582c0-.499.335-.932.821-1.047 2.547-.602 10.476-2.027 15.872 1.941.35.258.544.681.544 1.116v.572c0 .572.227 1.12.631 1.524l.892.892c.404.404.631.952.631 1.524v1.262c0 5.95-4.823 10.773-10.772 10.773z" fill="#f7d0a1"/><path d="m361.075 907.185c-3.795-2.791-8.836-2.912-12.383-2.53-1.497.162-2.733.411-3.489.589-.486.115-.821.548-.821 1.047v2.582c0 .572-.227 1.12-.631 1.524l-.892.892c-.404.404-.631.953-.631 1.524v1.262c0 5.508 4.136 10.043 9.471 10.687-1.859-1.936-3.008-4.559-3.008-7.455v-7.874c0-1.092.812-2.004 1.895-2.14 2.586-.324 7.321-.519 11.033 1.581v-.573c0-.435-.194-.858-.544-1.116z" fill="#eec195"/><path d="m335.846 933.549c-.727.781-1.159 1.821-1.159 2.936v6.678c0 .595.482 1.077 1.077 1.077h5.386v-3.602c0-1.143-.454-2.239-1.262-3.047z" fill="#0055a5"/></g><path d="m362.041 860.834c3.674 4.17 11.31 14.18 12.462 20.862 1.441 8.353 19.699-31.243 31.444-41.32" stroke="#3f8ae0" stroke-linecap="round" stroke-linejoin="round" stroke-width="3"/><path d="m437.363 465.57c-.16-.78-.925-1.283-1.708-1.123l-12.755 2.611c-.783.16-1.287.922-1.126 1.702s.925 1.283 1.708 1.123l11.338-2.321 2.328 11.299c.161.78.926 1.283 1.709 1.123.782-.161 1.287-.923 1.126-1.703zm-61.469 58.868c0-4.612 2.303-13.335 5.755-20.968 1.716-3.796 3.672-7.22 5.689-9.671 2.079-2.526 3.942-3.68 5.434-3.68v-2.883c-2.881 0-5.495 2.089-7.672 4.735-2.239 2.722-4.318 6.397-6.089 10.314-3.525 7.795-6.011 16.952-6.011 22.153zm16.878-34.319c.848 0 1.306.205 1.581.425.288.231.54.61.732 1.246.412 1.373.372 3.249.409 5.546.033 2.114.136 4.608 1.14 6.569.526 1.028 1.305 1.93 2.434 2.56 1.116.622 2.477.926 4.09.926v-2.884c-1.256 0-2.099-.236-2.676-.559-.565-.314-.968-.762-1.271-1.353-.653-1.277-.789-3.101-.824-5.305-.032-2.021.03-4.462-.531-6.328-.295-.983-.799-1.953-1.692-2.667-.905-.724-2.053-1.059-3.392-1.059zm10.386 17.272c3.394 0 6.565-1.797 9.478-4.43 2.928-2.648 5.771-6.299 8.525-10.362 2.76-4.071 5.479-8.629 8.14-13.118 2.671-4.506 5.281-8.939 7.853-12.828l-2.416-1.587c-2.621 3.962-5.271 8.465-7.928 12.948-2.667 4.499-5.343 8.983-8.047 12.971-2.709 3.997-5.399 7.424-8.071 9.84-2.689 2.43-5.188 3.682-7.534 3.682z" fill="#3f8ae0"/><path d="m125.852 363.602c.701-.122 1.18-.845 1.07-1.615l-1.806-12.545c-.111-.77-.769-1.296-1.471-1.174-.702.121-1.181.844-1.07 1.614l1.605 11.152-10.164 1.761c-.702.121-1.181.844-1.07 1.614s.769 1.295 1.471 1.173zm-7.039-76.3c-5.029 7.796-10.771 20.918-11.649 35.03-.883 14.196 3.17 29.399 17.73 41.017l1.514-2.283c-13.738-10.961-17.509-25.16-16.677-38.542.837-13.466 6.349-26.099 11.182-33.592z" fill="#3f8ae0"/></svg>