<svg fill="none" height="832" viewBox="0 0 1920 832" width="1920" xmlns="http://www.w3.org/2000/svg"><g stroke="#8dbcf2" stroke-miterlimit="10" stroke-opacity=".15"><path d="m-15.5137 836.816c89.8175 0 180.2957 2.411 270.0457-.914 89.75-3.324 178.22-18.623 267.7-23.564 81.341-4.49 161.537-3.284 242.447 6.491 72.514 8.768 142.953 15.1 216.06 14.146 64.081-.848 124.111-10.411 187.401-19.325 72.42-10.213 146.98-5.444 218.73 7.563 78.96 14.332 153.45 28.041 234.09 29.604 101.71 1.986 202.28-17.432 304.07-14.001"/><path d="m-15.5156 818.304c87.8769 0 177.0876 3.245 264.8166-1.947 93.739-5.537 185.888-25.59 279.425-33.114 80.311-6.543 161.157-2.058 240.209 13.325 70.574 13.537 138.803 25.63 210.94 25.074 66.805-.517 127.245-17.14 192.085-30.584 73.61-15.259 146.45-9.471 218.93 9.033 77.69 19.869 149.41 41.273 230.6 41.843 101.9.728 201.47-25.855 303.54-23.617"/><path d="m-15.5156 800.063c85.8016-.08 173.7056 3.973 259.2106-3.113 98.159-8.066 194.054-32.955 291.85-43.352 82.068-8.716 157.911-.61 237.069 21.285 67.771 18.756 133.413 37.538 204.498 37.578 70.288 0 132.818-24.968 199.528-43.194 75.99-20.756 146.06-14.716 220.32 10.358 75.57 25.511 144.96 55.631 226.6 54.969 101.74-.901 199.44-35.141 301.47-34.531"/><path d="m-15.5156 782.135c83.632-.12 170.2156 4.384 253.3486-4.332 102.66-10.755 202.14-40.451 304.436-53.856 83.214-10.901 155.446.755 233.323 29.922 64.254 24.067 127.362 50.147 197.289 50.968 73.899.874 140.529-33.418 208.879-56.505 78.93-26.663 146.32-20.994 222.6 11.497 72.63 30.942 140.36 70.665 222.35 68.44 101.38-2.756 196.51-44.863 298.29-46.134"/><path d="m-15.5156 764.502c81.4893-.159 166.7246 4.636 247.6076-5.524 107.053-13.444 210.131-47.803 316.686-64.2 84.899-13.074 153.033 1.894 229.267 38.743 60.292 29.14 120.853 62.796 189.809 64.571 77.516 1.974 149.486-42.571 219.416-69.949 36.63-14.266 75.24-27.63 115.17-24.557 39.08 3.02 76.08 19.192 110.26 37.087 68.89 35.988 136 85.526 217.97 81.738 100.94-4.676 192.88-54.624 294.37-57.87"/><path d="m-15.4502 747.154c79.5083-.199 163.3562 4.715 242.0292-6.623 111.136-15.974 217.435-54.77 327.938-74.003 86.839-15.126 151.039 2.875 225.211 47.313 56.235 33.697 114.262 74.877 182.599 77.672 80.853 3.298 159.013-51.724 230.273-82.864 37.33-16.319 78.5-33.524 120.2-29.736 39.08 3.55 75.69 22.941 108.37 43.048 65.16 40.107 131.58 99.645 213.76 94.334 100.5-6.517 188.9-64.055 290.12-69.141"/><path d="m-15.4297 730.119c77.6082-.238 160.2157 4.676 236.8807-7.497 114.762-18.239 223.917-61.128 337.843-82.93 43.38-8.291 84.495-13.086 126.985 1.457 34.619 11.855 65.075 32.664 94.453 53.697 52.556 37.604 108.037 85.831 176.212 89.606 83.816 4.649 168.266-60.346 240.686-94.665 37.97-18.001 81.67-38.849 124.96-34.439 39.25 3.974 75.38 26.319 106.66 48.386 61.69 43.498 127.32 112.348 209.94 105.686 100.14-8.093 184.88-72.758 285.92-79.367"/><path d="m-15.4297 713.367c75.9776-.252 157.4667 4.636 232.3667-8.093 117.672-20.001 228.903-66.572 345.699-90.427 43.528-8.888 84.522-14.398 126.796 2.106 34.296 13.471 63.526 36.584 91.475 59.684 49.47 40.836 102.633 95.116 171.145 99.685 43.784 2.928 87.808-19.523 125.628-38.531 41.95-21.086 82.28-45.114 124.22-66.227 38.54-19.391 84.36-43.18 129.1-38.213 39.54 4.384 75.1 29.007 105.26 52.717 58.86 46.359 123.25 122.997 206.67 115.235 99.96-9.271 181.15-80.373 282.18-87.989"/><path d="m-15.4072 696.913c74.6165-.252 155.2432 4.649 228.7012-8.318 119.747-21.127 232.272-70.877 351.022-96.215 43.326-9.272 84.63-15.193 126.473 2.49 34.256 14.477 62.609 39.577 89.548 64.267 47.408 43.432 98.563 102.215 167.91 107.288 44.983 3.259 90.293-21.06 128.693-41.167 43.36-22.716 84.9-48.571 128.25-71.313 39.08-20.518 86.25-46.174 132.19-40.942 39.96 4.556 74.91 30.716 104.25 55.79 57.04 48.73 119.46 130.865 204.22 122.587 99.96-9.762 178.05-86.573 279.29-94.414"/><path d="m-15.3818 680.765c73.5654-.212 153.6938 4.782 226.0728-8.079 120.759-21.458 233.593-73.818 353.26-99.845 42.732-9.272 84.804-15.312 126.054 2.49 34.539 14.901 62.502 41.353 88.942 67.089 46.654 45.485 96.299 106.626 167.102 111.553 45.98 3.205 91.411-21.365 130.351-42.386 44.27-23.841 86.59-51.021 130.84-74.889 39.58-21.352 86.95-47.419 133.83-42.227 40.43 4.477 74.79 31.114 103.77 57.26 56.59 51.061 116.04 135.276 202.77 127.077 100.22-9.47 175.95-91.009 277.6-98.016"/><path d="m-15.377 664.862c73.296-.45 153.168 5.166 225.238-7.947 119.936-21.868 231.329-75.791 350.052-102.427 42.611-9.55 84.656-15.272 125.879 2.318 35.038 14.98 63.553 41.749 90.384 67.803 47.516 46.147 97.687 108.07 169.42 113.845 46.303 3.722 91.464-20.544 130.584-41.895 44.33-24.213 86.57-51.923 130.89-76.149 39.77-21.749 86.89-47.458 134.13-41.895 40.69 4.795 74.86 31.484 103.88 57.922 56.83 51.777 115.14 134.879 202.56 127.157 100.51-8.848 175.46-92.612 277.53-98.732"/><path d="m-15.3486 649.321c73.6058-.821 153.2356 6.266 225.5606-7.761 117.808-22.849 226.694-77.659 343.247-105.236 43.124-10.212 84.064-15.523 125.88 2.186 35.671 15.086 65.196 41.577 93.011 67.406 49.093 45.644 101.38 108.189 173.112 116.07 46.021 5.06 91.338-19.272 130.128-40.611 43.79-24.093 85.39-51.829 129.18-75.949 39.68-21.868 86.81-47.379 133.98-40.77 40.57 5.683 75.23 32.756 104.66 58.903 57.13 50.73 117.12 132.269 203.49 124.772 100.75-8.755 175.94-92.996 278.25-99.01"/><path d="m-15.3311 634.058c74.0237-.981 153.4381 8.079 226.2081-6.769 115.408-23.55 221.451-79.075 335.552-107.288 43.487-10.782 83.47-15.59 125.758 1.894 36.223 14.981 66.935 40.783 95.787 66.413 50.737 45.034 105.436 107.354 177.102 117.143 45.603 6.238 90.574-17.59 129.004-38.836 43.06-23.842 83.78-51.406 126.81-75.234 39.57-21.908 86.25-46.691 133.2-39.141 40.61 6.544 75.89 33.737 105.99 59.605 57.88 49.67 119.84 129.17 205.55 121.779 101.19-8.716 176.8-93.5 279.55-99.487"/><path d="m-15.3086 619.077c74.5357-.94 153.9096 10.517 227.1916-5.086 112.767-23.988 215.724-80.082 327.143-108.785 43.663-11.246 82.891-15.471 125.529 1.51 36.87 14.676 68.728 39.736 98.698 64.902 52.853 44.227 109.466 105.646 181.333 117.236 45.064 7.259 89.234-15.537 127.294-36.637 42.11-23.365 81.8-50.69 123.89-74.082 39.41-21.921 85.19-45.471 131.86-37.087 40.8 7.351 76.81 34.438 107.81 59.949 59.03 48.571 123.21 125.633 208.46 118.282 101.81-8.782 178-94.136 281.37-100.162"/><path d="m-15.2813 604.39c75.1422-.742 154.4883 13.47 228.4313-2.808 109.937-24.2 209.619-80.798 318.168-109.66 43.636-11.629 82.325-15.245 125.179.994 37.53 14.225 70.506 38.412 101.703 62.81 55.252 43.22 113.589 103.169 185.726 116.427 87.054 16.014 175.024-67.326 245.574-106.612 39.27-21.882 83.81-43.803 130.07-34.624 41.13 8.172 77.89 34.994 109.95 60.121 60.53 47.432 127.11 121.739 212.14 114.348 102.56-8.901 179.49-94.877 283.6-100.996"/><path d="m-15.2637 590.008c75.8025-.411 155.1627 16.848 229.8737 0 106.986-24.213 203.231-81.076 308.762-110.03 43.487-11.921 81.799-14.888 124.774.41 38.218 13.63 72.339 36.743 104.762 60.373 57.65 41.988 117.726 99.937 190.227 114.838 85.735 17.59 169.915-63.34 239.155-101.99 38.29-21.338 82.92-42.849 127.92-31.855 41.77 10.199 78.58 34.928 112.45 60.094 62.28 46.227 131.41 117.527 216.44 110.057 103.44-9.073 181.19-95.698 286.18-101.99"/><path d="m-15.2275 575.887c76.5166 0 155.9575 20.57 231.5035 3.099 103.941-24.04 196.656-81.142 299.073-109.937 177.883-50.055 270.679 134.733 426.933 170.098 84.228 19.087 164.148-58.929 232.138-96.798 38.11-21.193 81.02-40.491 125.45-28.875 42.3 11.06 79.96 35.246 115.2 59.936 64.22 45.034 136.03 113.09 221.24 105.5 104.4-9.272 183.06-96.573 289.02-103.023"/><path d="m-15.207 562.083c77.2578.556 156.834 24.504 233.283 6.516 100.841-23.722 190.011-80.956 289.235-109.5 174.204-50.094 280.3 125.832 434.034 163.727 82.765 20.425 157.895-54.134 224.645-91.274 37.95-21.113 78.98-37.869 122.78-25.723 42.87 11.921 81.49 35.498 118.14 59.671 66.28 43.71 140.83 108.494 226.4 100.732 105.42-9.55 185.07-97.487 292.05-104.149"/><path d="m-15.1748 548.568c78.026 1.126 157.7638 28.571 235.1698 10.133 97.754-23.285 183.273-80.585 279.424-108.745 170.512-49.949 289.734 116.361 440.975 156.787 81.286 21.722 151.306-49.168 216.886-85.579 37.81-20.994 76.81-35.061 119.93-22.518 43.46 12.703 83.08 35.763 121.19 59.34 68.41 42.386 145.7 103.791 231.71 95.857 106.46-9.841 187.15-98.44 295.2-105.328"/><path d="m-15.1543 535.356c78.7806 1.708 158.7473 32.663 237.1773 13.841 94.736-22.755 176.724-80.082 269.776-107.765 166.887-49.657 298.857 106.666 447.618 149.515 79.823 22.994 144.583-44.121 209.043-79.83 37.65-20.862 74.75-32.16 117.16-19.167 44.06 13.511 84.72 35.988 124.26 58.982 70.55 41.061 150.57 99.077 237.11 90.944 107.58-10.12 189.27-99.341 298.4-106.52"/><path d="m-15.1289 522.435c79.5083 2.278 159.7439 36.663 239.0779 17.524 91.825-22.16 170.35-79.473 260.437-106.613 163.585-49.273 307.791 96.877 454.14 142.124 78.364 24.239 137.864-39.101 201.264-74.175 37.49-20.729 72.77-29.259 114.37-15.895 44.67 14.332 86.36 36.293 127.31 58.651 72.62 39.657 155.31 94.401 242.45 86.096 108.65-10.398 191.35-100.348 301.55-107.686"/><path d="m-15.0967 509.797c80.3034 2.821 160.7277 40.505 241.0317 21.1 89.063-21.524 164.272-78.797 251.556-105.354 160.445-48.823 316.187 87.181 460.084 134.825 77.055 25.511 131.225-34.319 193.755-68.691 37.37-20.53 70.81-26.491 111.71-12.742 45.25 15.153 87.94 36.677 130.23 58.386 74.61 38.293 159.85 89.818 247.59 81.301 109.68-10.663 193.36-101.262 304.56-108.825"/><path d="m-15.0742 497.474c81.0581 3.285 161.7122 44.068 242.9182 24.464 86.516-20.875 158.612-78.148 243.282-104.083 82.136-25.166 169.515 3.246 246.233 33.604 73.984 29.286 144.315 67.698 219.403 94.255 76.088 26.915 124.608-30.094 186.668-63.578 82.41-44.439 166.81 11.921 242.23 48.465 76.42 36.981 164.06 85.433 252.38 76.731 110.65-10.888 195.24-102.123 307.43-109.871"/><path d="m-15.043 485.403c81.8127 3.669 162.48 47.273 244.724 27.524 84.211-20.239 153.438-77.473 235.83-102.838 81.381-25.087 171.064 2.159 248.147 29.961 75.479 27.233 147.319 63.194 222.394 91.487 75.078 28.292 118.928-25.922 180.188-58.929 80.53-43.379 168.45 17.219 242.57 51.193 78.02 35.763 167.88 81.275 256.69 72.453 111.51-11.086 196.94-102.931 309.95-110.851"/><path d="m-15.0078 473.669c82.5808 3.973 163.1808 50.014 246.3818 30.146 82.203-19.616 148.882-76.824 229.092-101.699 80.761-24.967 172.492 1.166 249.925 26.664 76.813 25.312 150.096 59.114 225.049 89.142 35.361 14.159 61.276 14.742 95.46-3.524 27.79-14.848 51.29-36.411 79.04-51.366 37.02-19.974 66.5-19.417 105.28-4.569 46.58 17.868 91.97 38.412 137.68 58.373 79.33 34.544 171.14 77.406 260.36 68.505 112.28-11.206 198.42-103.659 312.23-111.672"/><path d="m-14.9902 462.199c83.3489 3.973 163.7062 52.213 247.8772 32.279 80.573-19.087 144.975-76.506 223.567-100.745 80.344-24.783 173.759.265 251.502 23.842s152.387 55.631 227.097 87.42c34.526 14.689 59.766 16.769 93.657-1.404 26.87-14.411 49.3-35.684 76.1-50.201 36.82-19.947 65.84-17.828 103.94-2.49 46.82 18.849 92.9 39.353 139.48 58.757 80.33 33.458 173.93 73.936 263.28 65.009 112.9-11.272 199.62-104.282 313.99-112.348"/><path d="m-14.9707 451.051c84.1306 3.867 164.0297 53.776 249.1437 33.789 79.374-18.663 141.768-76.519 219.268-100.043 80.236-24.385 174.662-.477 252.891 21.418 78.861 22.054 154.151 52.77 228.552 86.307 33.825 15.233 58.783 18.438 92.416.265 26.15-14.106 47.67-35.246 73.73-49.485 36.64-20.014 65.64-16.769 103.16-.848 46.88 19.869 93.51 40.426 140.8 59.42 80.85 32.491 176.02 70.876 265.3 62.015 113.34-11.259 200.48-104.798 315.34-112.838"/><path d="m-14.9375 440.164c84.8987 3.51 164.1105 54.624 250.1685 34.584 78.551-18.292 139.598-76.4 216.168-99.646 79.98-24.265 175.646-.874 254.077 19.657 79.67 20.861 155.297 50.743 229.347 86.095 33.273 15.895 58.365 19.736 91.827 1.444 25.6-14 46.45-35.153 72.01-49.286 36.51-20.186 65.92-16.372 102.99.278 46.79 21.007 93.76 41.71 141.58 60.386 81.1 31.67 177.37 68.333 266.28 59.604 113.62-11.139 200.97-105.182 316.1-113.116"/><path d="m-14.9043 429.573c85.33 3.153 163.9893 54.823 250.5723 34.598 78.282-18.279 138.965-76.334 215.293-99.447 79.899-24.187 175.996-.318 254.453 19.775 79.953 20.478 155.338 50.134 229.483 85.645 33.151 15.895 58.594 19.206 91.823 1.033 25.43-13.907 46.14-34.875 71.57-48.822 36.39-19.948 66.33-16.239 103.05.887 46.59 21.723 93.62 42.584 141.64 61.075 80.7 31.087 178.23 67.34 266.46 58.28 113.45-11.63 201.37-104.083 316.2-112.984"/><path d="m-14.8672 419.157c85.5186 2.994 163.9492 55.009 250.7342 34.545 78.161-18.438 139.153-76.003 215.535-98.971 79.899-24.027 175.781.888 254.117 21.114 79.697 20.583 154.758 50.187 229.415 84.016 70.666 32.014 105.696-17.219 163.896-47.922 36.38-19.193 66.52-15.696 102.9 1.496 46.39 21.922 93.34 42.73 141.34 61.009 80.23 30.544 179.03 66.969 266.62 57.141 112.97-12.689 201.97-101.381 316.03-112.229"/><path d="m-14.8486 408.883c85.7746 2.887 164.0166 55.286 251.0716 34.65 78.16-18.544 139.395-75.499 215.818-98.255 79.899-23.842 175.497 2.027 253.712 22.319 79.387 20.596 154.165 50.068 229.254 82.188 70.073 29.988 106.353-18.372 164.593-47.684 36.39-18.358 66.79-14.967 102.85 2.252 46.17 22.04 92.99 42.69 140.97 60.651 79.92 29.921 179.69 65.962 266.56 55.472 112.4-13.563 202.49-98.401 315.71-110.971"/><path d="m-14.8184 398.802c86.0712 2.809 164.1914 55.631 251.5694 34.902 78.067-18.517 139.666-74.823 216.142-97.341 79.899-23.444 175.188 3.073 253.254 23.379 79.01 20.53 153.626 49.776 228.984 80.121 69.579 27.988 107.089-19.298 165.489-47.246 36.48-17.444 67.11-14.054 102.9 3.152 45.91 22.08 92.63 42.492 140.54 60.029 79.71 29.206 180.09 64.359 266.37 53.326 111.85-14.292 202.97-95.142 315.33-109.262"/><path d="m-14.7881 388.908c86.435 2.781 164.4071 56.015 252.2301 35.272 77.999-18.411 139.975-74.081 216.519-96.148 79.872-23.034 174.676 4.079 252.715 24.318 78.579 20.398 152.966 49.34 228.634 77.857 69.05 26.028 107.89-20.014 166.55-46.452 36.6-16.504 67.47-12.993 103.04 4.159 45.55 22.193 92.3 41.94 140.03 59.155 79.64 28.398 180.3 62.253 266.08 50.717 111.12-14.875 203.37-91.646 314.74-107.103"/><path d="m-14.748 379.176c86.8258 2.782 164.771 56.479 253.025 35.763 77.932-18.265 140.326-73.194 216.964-94.811 79.845-22.517 174.244 5.02 252.135 25.167 78.161 20.186 152.346 48.73 228.189 75.393 68.535 24.107 108.775-20.57 167.785-45.406 36.78-15.484 67.88-11.775 103.24 5.299 45.28 22.045 91.86 41.422 139.48 58.028 79.68 27.511 180.34 59.525 265.65 47.684 110.41-15.325 203.71-87.897 314.12-104.56"/><path d="m-14.7207 369.665c87.2705 2.795 165.2017 56.955 253.9547 36.398 77.878-18.04 140.717-72.174 217.381-93.274 79.805-21.961 173.706 5.907 251.53 25.881 77.581 19.869 151.739 47.962 227.663 72.731 68.052 22.213 109.772-20.941 169.192-44.094 36.98-14.411 68.32-10.424 103.54 6.623 44.97 21.834 91.33 40.776 138.8 56.704 79.82 26.491 180.16 56.373 265.11 44.253 109.64-15.63 203.95-83.923 313.36-101.606"/><path d="m-14.6895 360.34c87.7557 2.861 165.7545 57.539 255.0195 37.088 77.824-17.723 141.121-70.996 217.867-91.527 79.75-21.325 173.139 6.742 250.788 26.491 77.042 19.604 151.119 47.061 227.07 69.923 67.585 20.332 110.865-21.193 170.725-42.571 37.21-13.245 68.8-8.954 103.9 7.948 44.67 21.575 90.85 40.011 138.17 55.167 80.08 25.471 179.85 52.823 264.49 40.491 108.85-15.894 204.13-79.751 312.51-98.347"/><path d="m-14.6699 351.227c88.2812 2.94 166.2669 58.147 256.1919 37.974 77.77-17.457 141.565-69.83 218.392-89.724 79.684-20.624 172.493 7.536 250.034 27.034 76.503 19.245 150.513 46.014 226.396 66.942 67.126 18.544 112.066-21.285 172.396-40.822 37.47-12.12 69.3-7.365 104.32 9.272 44.36 21.248 90.31 39.12 137.46 53.458 80.38 24.306 179.35 48.836 263.75 36.359 108.03-15.894 204.21-75.367 311.58-94.732"/><path d="m-14.6348 342.343c88.8338 3.046 166.8998 58.783 257.3918 38.888 77.81-17.047 142.104-68.518 219.025-87.724 79.603-19.869 171.765 8.278 249.306 27.484 75.937 18.835 149.893 44.836 225.696 63.817 66.666 16.702 113.356-21.273 174.186-38.876 37.74-10.914 69.8-5.695 104.79 10.862 44.04 20.875 89.76 38.122 136.7 51.564 80.7 23.06 178.67 44.571 262.88 31.948 107.19-15.987 204.23-70.823 310.57-90.85"/><path d="m-14.6172 333.707c89.3863 3.14 167.5472 59.406 258.8332 39.843 77.689-16.663 142.522-67.128 219.524-85.606 79.508-19.086 171.037 8.994 248.403 27.816 75.385 18.385 149.287 43.524 224.928 60.571 66.249 14.941 114.789-21.192 176.089-36.769 38-9.682 70.32-3.974 105.33 12.464 43.7 20.458 89.18 37.032 135.89 49.525 81.22 21.722 177.98 39.869 262.06 27.272 106.35-15.894 204.16-66.121 309.49-86.718"/><path d="m-14.584 325.236c90.0331 3.324 168.342 60.134 260.275 40.942 77.676-16.2 143.075-65.658 220.131-83.367 79.441-18.239 170.282 9.682 247.54 28.186 74.819 17.921 148.667 42.107 224.106 57.22 65.852 13.246 116.312-20.941 178.072-34.438 38.28-8.411 70.84-2.093 105.91 14.12 43.37 19.999 88.6 35.856 135.05 47.352 81.72 20.292 177.13 34.955 261.1 22.345 105.52-15.828 204.03-61.26 308.36-82.333"/><path d="m-14.5635 317.037c90.68 3.497 169.1235 60.85 261.8255 42.081 77.608-15.722 143.532-64.134 220.723-81.035 79.333-17.379 169.474 10.344 246.61 28.438 74.28 17.417 148.034 40.584 223.23 53.763 65.525 11.484 117.925-20.637 180.165-32.12 38.55-7.113 71.34-.173 106.52 15.894 43.04 19.502 88 34.593 134.18 45.035 82.21 18.755 176.16 29.776 260.09 17.219 104.7-15.643 203.82-56.28 307.2-77.777"/><path d="m-14.5332 309.086c91.3133 3.682 169.9592 61.578 263.3752 43.259 77.621-15.219 144.098-62.558 221.383-78.625 79.225-16.464 168.652 10.981 245.735 28.65 73.754 16.915 147.4 38.968 222.354 50.227 65.236 9.788 119.636-20.239 182.316-29.604 38.84-5.814 71.85 1.788 107.17 17.617 42.7 18.997 87.4 33.309 133.3 42.677 82.75 17.126 175.1 24.385 259 11.921 103.77-15.445 203.49-51.181 305.91-73.036"/><path d="m-14.5 301.395c91.9736 3.881 170.822 62.254 265.005 44.492 77.622-14.689 144.652-60.956 222.031-76.148 79.117-15.497 167.816 11.603 244.805 28.822 73.255 16.385 146.767 37.259 221.397 46.611 65.012 8.146 121.392-19.749 184.472-26.995 39.08-4.49 72.35 3.802 107.81 19.432 42.37 18.457 86.8 31.949 132.37 40.2 83.28 15.404 174 18.835 257.91 6.463 103.01-15.179 203.12-45.975 304.65-68.148"/><path d="m-14.4775 293.982c92.6474 4.079 171.7245 63.048 266.6625 45.75 77.609-14.16 145.231-59.314 222.705-73.566 78.982-14.57 166.94 12.226 243.915 28.968 72.77 15.895 146.12 35.485 220.44 42.942 64.885 6.517 123.195-19.206 186.765-24.319 39.36-3.165 72.77 5.855 108.56 21.272 42.04 17.908 86.2 30.563 131.45 37.671 190.01 30.848 376.21-21.193 560.11-62.254"/><path d="m-14.4473 286.803c93.3347 4.305 172.6413 63.791 268.3613 47.035 77.608-13.59 145.81-57.618 223.378-71.035 78.848-13.643 166.064 12.821 242.877 29.073 72.353 15.352 145.487 33.67 219.47 39.194 64.871 4.887 125.021-18.544 189.051-21.59 39.6-1.855 73.29 7.947 109.28 23.139 41.56 17.657 85.69 28.915 130.5 35.141 185.18 25.736 378.31-22.041 557.63-62.824"/><path d="m-14.4277 279.909c94.0219 4.53 173.5707 64.532 270.0727 48.332 77.621-13.073 146.389-55.922 224.051-68.439 78.714-12.676 165.176 13.431 241.908 29.14 71.962 14.769 144.84 31.789 218.486 35.511 64.99 3.285 126.84-17.934 191.36-18.822 39.82-.543 73.73 10.027 110 25.034 41.29 17.074 85.13 27.365 129.56 32.478 84.64 9.736 170.47 1.444 254.42-10.464 100.71-14.292 201.58-29.974 300.68-52.982"/><path d="m-14.3945 273.308c93.9007 4.676 173.3415 64.784 269.7485 49.975 77.312-11.92 146.215-53.101 223.271-65.591 77.891-12.623 162.614 12.424 238.673 27.55 73.525 14.57 148.007 30.849 223.27 32.889 66.812 1.815 131.912-18.239 198.582-15.895 40.24 1.418 73.78 14.345 110.67 28.703 38.31 14.915 78.76 23.458 119.68 27.498 87.08 8.596 173.44-4.08 259.49-16.04 99.32-13.802 199.52-24.425 297.2-47.499"/><path d="m-14.3818 266.978c94.5475 4.901 174.3118 65.512 271.4338 51.273 77.325-11.338 146.78-51.432 223.957-63.008 77.73-11.603 161.779 13.086 237.73 27.722 73.175 14.12 147.373 29.141 222.246 29.141 67.205 0 133.745-17.392 200.965-12.955 40.3 2.65 74.12 16.319 111.29 30.372 38.05 14.385 78.24 22.028 118.8 25.047 87.37 6.504 172.24-10.225 258.27-21.855 98.67-13.338 198.86-19.02 295.85-42.385"/><path d="m-14.3467 260.967c95.2618 5.126 175.1877 66.228 273.1317 52.545 77.352-10.808 147.346-49.776 224.631-60.452 77.568-10.742 160.957 13.775 236.867 27.934 72.771 13.604 146.687 27.273 221.168 25.339 67.689-1.762 135.539-16.544 203.329-10.04 40.34 3.881 74.44 18.279 111.85 32.028 37.73 13.868 77.73 20.61 117.91 22.61 87.6 4.384 171.07-16.319 257.07-27.63 98.05-12.902 198.1-13.617 294.52-37.273"/><path d="m-14.3262 255.27c95.9221 5.298 176.1852 66.916 274.8162 53.803 77.365-10.292 147.899-48.2 225.305-57.922s160.121 14.464 235.83 28.133c72.595 13.113 146.16 25.498 220.238 21.617 68.287-3.577 137.297-15.709 205.647-7.166 40.42 5.046 74.76 20.226 112.52 33.657s77.25 19.206 117.05 20.212c87.6 2.239 169.96-22.345 255.87-33.339 97.49-12.477 197.45-8.238 293.23-32.239"/><path d="m-14.3164 249.844c96.5824 5.563 177.1284 67.552 276.4594 55.048 77.407-9.788 148.452-46.545 225.966-55.446 77.19-8.861 159.394 15.166 234.967 28.372 72.38 12.636 145.541 23.723 219.255 17.935 68.959-5.418 138.989-14.915 207.949-4.371 40.31 6.172 75.05 22.146 113.08 35.272 37.32 12.875 76.81 17.829 116.19 17.868 87.59.106 168.9-28.239 254.69-38.941 97.03-12.107 196.75-2.928 291.93-27.312"/><path d="m-14.3086 244.781c97.2293 5.749 178.0176 68.254 278.0636 56.227 77.447-9.272 149.004-45.034 226.612-52.982 77.11-7.947 158.491 15.895 234.078 28.637 72.231 12.133 145.029 21.974 218.311 14.305 69.694-7.285 140.634-14.146 210.224-1.642 40.29 7.219 75.33 24.001 113.64 36.822 37.16 12.424 76.31 16.491 115.32 15.59 87.46-2 167.92-33.975 253.59-44.425 96.47-11.762 195.94 2.357 290.68-22.518"/><path d="m-14.2754 240.031c97.8357 5.947 178.9074 68.877 279.6134 57.38 77.487-8.862 149.583-43.472 227.232-50.664 76.948-7.126 157.669 16.676 233.215 28.941 72.097 11.669 144.53 20.279 217.395 10.769 70.48-9.193 142.29-13.458 212.37.967 40.25 8.278 75.59 25.855 114.23 38.411 36.93 11.921 75.87 15.206 114.55 13.392 87.23-4.067 167.01-39.512 252.53-49.737 96.01-11.484 195.18 7.537 289.46-17.829"/><path d="m-14.2607 235.609c98.3747 6.133 179.7427 69.513 281.0957 58.479 77.527-8.45 150.028-42.015 227.852-48.412 76.813-6.305 156.941 17.457 232.366 29.299 72.003 11.325 144.072 18.636 216.506 7.325 71.301-11.127 143.761-12.848 214.441 3.443 40.17 9.272 75.84 27.644 114.75 39.909 36.74 11.577 75.47 13.974 113.74 11.298 86.92-6.079 166.14-44.796 251.5-54.889 95.68-11.272 194.44 12.623 288.3-13.351"/><path d="m-14.2432 231.531c98.9947 6.279 180.5782 70.082 282.4972 59.486 77.595-8.054 150.54-40.624 228.445-46.24 76.692-5.524 156.2 18.239 231.558 29.709 71.935 10.954 143.654 17.047 215.683 3.974 72.03-13.073 145.2-12.305 216.44 5.788 40.08 10.186 76.1 29.14 115.22 41.353 36.38 11.377 75.17 12.808 112.97 9.271 86.57-7.947 165.35-49.789 250.53-59.75 95.26-11.139 193.74 17.59 287.2-9.086"/><path d="m-14.1621 227.75c99.5336 6.411 181.2921 70.638 283.8181 60.452 77.567-7.669 150.944-39.259 228.943-44.147 76.517-4.795 155.513 19.047 230.79 30.187 71.894 10.596 143.277 15.537 214.888.741 72.963-15.06 146.563-11.921 218.313 7.948 39.99 11.046 76.33 30.716 115.68 42.756 36.23 11.086 74.81 11.722 112.22 7.47 40.82-4.649 80.62-15.298 119.81-27.113 42.28-12.729 85.8-32.147 129.85-37.286 94.94-11.086 193.08 22.411 286.16-5.06"/><path d="m-14.1621 224.438c100.0188 6.516 181.9261 71.154 285.0441 61.313 77.635-7.418 151.403-38.134 229.496-42.293 76.395-4.119 154.826 19.868 230.035 30.729 71.895 10.358 142.994 14.133 214.188-2.331 73.749-17.06 147.849-11.642 220.119 9.948 39.82 11.921 76.46 32.186 116.01 44.054 36.09 10.822 74.5 10.742 111.54 5.762 40.74-5.457 80.31-17.034 119.27-29.604 41.97-13.537 85.55-33.961 129.59-39.14 94.65-11.113 192.48 27.087 285.2-1.325"/><path d="m-14.1621 221.438c100.477 6.622 182.6001 71.644 286.1631 62.094 77.689-7.179 151.806-36.968 229.967-40.531 76.288-3.483 154.192 20.782 229.348 31.365 71.908 10.107 142.751 12.822 213.527-5.298 74.607-19.034 149.027-11.484 221.817 11.762 39.67 12.663 76.58 33.551 116.34 45.286 35.94 10.597 74.11 9.855 110.89 4.226 40.64-6.226 80.01-18.676 118.76-31.935 41.7-14.265 85.33-35.591 129.37-40.849 94.34-11.259 191.94 31.59 284.35 2.159"/><path d="m-14.1621 218.812c100.8947 6.623 183.1521 72.096 287.1601 62.771 77.783-6.981 152.278-35.948 230.52-38.929 76.207-2.914 153.626 21.71 228.701 32.081 71.935 9.921 142.576 11.629 212.921-8.04 75.37-21.074 149.99-11.537 223.28 13.245 39.54 13.392 76.7 34.823 116.61 46.452 35.82 10.424 73.86 9.1 110.29 2.874 40.59-6.94 79.74-20.186 118.32-34.08 41.46-14.954 85.13-37.008 129.22-42.386 94.14-11.497 191.51 35.896 283.51 5.299"/><path d="m-14.1621 216.539c101.2855 6.623 183.6241 72.506 288.0361 63.327 77.797-6.835 152.629-35.035 230.938-37.551 76.126-2.398 153.033 22.663 228.108 32.888 71.975 9.802 142.481 10.597 212.422-10.596 76.148-23.087 150.808-11.749 224.648 14.57 39.36 14.04 76.73 35.961 116.79 47.511 35.71 10.305 73.57 8.478 109.74 1.722 40.53-7.589 79.51-21.55 117.93-36.027 41.27-15.564 84.9-38.187 129.11-43.71 93.94-11.855 191.18 40.001 282.82 8.053"/><path d="m-14.1641 214.664c100.787 6.623 182.8561 72.506 286.6611 63.962 82.028-6.741 161.321-37.193 244.091-36.57 70.762.53 141.767 23.378 211.667 33.206 74.266 10.438 145.352 10.146 217.273-12.199 79.752-24.716 154.472-11.722 231.342 17.669 34.46 13.166 67.29 31.127 102 43.459 36.74 13.047 77.07 11.775 114.87 4.53 42.89-8.212 83.96-23.842 124.41-39.737 40.78-16.08 84.13-38.716 128.1-44.014 92.99-11.14 189.69 43.855 280.11 10.689"/><path d="m-14.1641 213.188c101.07 6.53 183.1391 72.85 287.2271 64.293 82.055-6.755 161.712-36.491 244.455-35.498 70.708.861 141.349 24.345 211.209 34.187 74.32 10.464 145.392 9.43 216.963-14.372 80.56-26.808 154.89-12.291 232.39 18.544 34.3 13.643 67.22 31.763 102.03 44.107 36.66 13.06 76.81 11.524 114.4 3.868 42.87-8.729 83.76-25.034 124.1-41.352 40.72-16.478 84.06-39.366 128.14-44.929 92.81-11.629 189.62 47.485 279.63 12.716"/><path d="m-14.1621 212.125c101.2721 6.424 183.2731 73.141 287.6581 64.452 82.069-6.834 161.901-35.935 244.751-34.623 70.682 1.112 140.986 25.352 210.819 35.272 74.36 10.597 145.54 8.915 216.653-16.318 81.341-28.849 155.081-13.113 233.241 19.021 34.22 14.053 67.22 32.358 102.06 44.849 36.62 13.126 76.43 11.47 113.99 3.457 86.77-18.544 164.51-76.599 252.12-88.308 92.65-12.384 189.72 50.717 279.25 14.199"/><path d="m-14.1621 211.445c101.4337 6.292 183.4081 73.407 287.9141 64.506 82.083-7.007 162.184-35.538 244.994-34.015 70.695 1.325 140.689 26.412 210.495 36.505 74.387 10.755 145.81 8.583 216.518-18.014 82.051-30.875 154.971-14.226 233.881 19.206 33.93 14.345 67.01 33.352 101.93 45.352 37.08 12.729 75.69 11.696 113.65 3.325 86.92-19.179 164.24-77.287 252.15-89.844 92.53-13.245 190.01 53.71 278.96 15.259"/><path d="m-14.1602 211.195c101.5416 6.106 183.3682 73.619 287.9822 64.387 82.082-7.246 162.291-35.3 245.263-33.657 70.708 1.404 140.433 27.55 210.225 37.882 74.387 11.007 146.188 8.477 216.478-19.458 82.692-32.888 154.582-15.643 234.242 19.061 72.77 31.683 132.72 67.75 215.13 49.18 87.15-19.643 164.1-77.261 252.32-90.824 92.42-14.213 190.42 56.359 278.96 15.894"/><g opacity=".5"><path d="m208.479 1000.3c657.148-110.324 1314.291-220.653 1971.441-330.982"/><path d="m207.173 980.257c332.147-53.856 661.071-115.815 989.687-178.814 142.18-27.281 287.26-49.615 433.92-64.948 183.58-19.208 359.84-58.094 543.41-77.207"/><path d="m204.333 958.769c93.907-14.982 188.42-28.447 282.029-44.173 83.66-14.047 161.925-41.726 244.869-57.577 154.511-29.522 312.779-49.109 466.959-79.462 136.85-26.947 272.1-62.073 418.11-64.696 85.15-1.407 167.09-8.938 249.74-17.101 103.15-10.185 197.82-42.307 301.78-50.248"/><path d="m201.299 933.892c92.316-14.281 186.107-25.427 277.069-43.128 85.475-16.644 162.926-52.61 247.33-71.832 152.086-34.649 318.632-28.642 472.552-58.117 135.48-25.855 256.25-84.304 406.68-71.998 87.92 7.196 171.71 10.518 254.36 2.483 104.15-10.213 195.15-52.994 300.39-60.366"/><path d="m200.256 907.897c90.271-13.345 183.132-21.948 270.681-41.957 87.548-20.01 164.245-63.868 250.231-87.082 78.166-21.1 159.73-30.595 248.857-22.992 79.885 6.83 155.735 9.075 228.455-3.702 63.72-11.222 116.42-39.342 172.91-66.64 64.63-31.262 143.37-32.768 225.87-17.315 90.82 17.039 176.63 33.496 258.93 24.652 103.81-11.124 189.38-65.05 294.42-73.286"/><path d="m198.88 881.666c87.943-12.449 179.765-18.852 263.488-41.258 89.468-23.919 165.962-75.507 253.67-103.214 75.241-23.951 159.664-26.787 250.836-8.427 81.236 16.013 159.006 29.584 230.756 18.295 66.45-10.456 113.9-50.96 168.25-85.98 61.7-39.747 139.13-38.944 226.18-13.658 93.32 27.171 181.88 58.14 263.58 47.731 102.54-13.035 181.34-78.222 285.24-88.381"/><path d="m198.541 856.221c85.377-11.707 176.024-16.115 255.719-40.638 91.541-28.026 167.895-86.61 257.281-118.865 75.021-27.049 156.774-22.395 252.43 7.11 81.899 25.279 161.709 50.895 232.519 41.389 70-9.471 113.06-63.705 165.47-106.133 59.72-48.321 134.14-46.681 227.35-10.683 94.87 36.623 187.12 82.536 267.9 70.32 100.62-15.361 171.59-91.347 273.65-103.976"/><path d="m198.207 831.862c82.769-10.979 171.954-14.205 247.736-40.245 93.589-32.144 169.72-97.206 260.947-133.964 74.212-29.896 154.58-18.689 253.767 22.602 81.833 34.072 164.063 71.834 233.963 64.274 73.88-7.979 113.99-76.896 164.27-126.319 58.06-57.078 129.11-55.782 229.22-8.436 95.34 45.089 192.44 106.26 271.99 91.787 98.37-17.903 160.81-104.241 260.7-119.585"/><path d="m197.712 808.708c80.226-10.359 167.829-12.776 240.02-40.026 95.551-36.062 171.63-107.115 264.493-148.127 73.983-32.69 152.29-15.733 254.854 37.346 81.111 41.973 165.851 91.576 235.161 86.05 77.89-6.248 115.73-90.731 164.31-145.838 25.51-28.736 53.64-56.19 95.29-55.92 40.78.285 89.29 23.142 136.29 49.27 94.68 52.527 197.69 128.262 275.69 111.687 96.04-20.429 149.55-116.553 247.2-134.623"/><path d="m196.978 786.85c77.893-9.852 163.797-11.811 232.694-39.895 97.358-39.603 173.218-116.183 267.563-161.073 74.133-35.296 150.356-13.365 255.771 50.879 79.924 48.716 167.104 109.533 236.224 105.945 81.78-4.26 118.12-104.171 165.21-163.955 24.66-31.327 52.44-64.574 96.14-63.335 40.97 1.159 91.14 28.684 137.97 57.858 93.39 58.197 202.28 148.219 279.04 129.633 93.86-22.766 138.4-128.046 234.01-148.543"/><path d="m196.576 766.491c75.668-9.415 159.96-11.158 226.05-39.583 98.92-42.577 174.482-123.993 270.001-172.181 36.378-18.333 73.079-30.8 125.151-12.447 42.43 14.962 87.285 44.754 131.251 75.031 78.631 54.126 167.831 124.929 237.191 123.041 85.29-2.308 120.66-116.262 166.54-179.672 24.06-33.258 51.64-71.745 97.14-69.717 41.24 1.797 92.76 33.389 139.33 65.101 91.84 62.504 205.91 165.166 281.82 144.875 91.99-24.621 127.9-138.079 221.84-160.429"/><path d="m194.757 746.942c73.822-9.063 156.71-10.675 220.508-39.234 100.228-44.872 175.07-130.786 271.673-181.618 36.003-18.94 71.969-32.28 125.016-11.154 43.095 17.267 88.19 50.274 132.029 83.406 77.557 58.563 168.387 137.843 238.407 137.212 44.75-.392 71.48-40.715 94.64-74.914 25.69-37.941 47.7-80.321 73.36-118.302 23.59-34.887 51.1-77.517 98.26-74.812 41.66 2.383 94.01 37.042 140.44 70.879 90.68 66.176 208.52 179.33 284.19 157.609 90.7-25.982 118.64-147.039 211.56-170.54"/><path d="m192.193 728.483c72.323-8.786 154.17-10.251 216.273-38.642 101.247-46.263 175.005-136.139 272.271-188.827 35.467-19.266 71.367-33.102 124.67-10.365 43.638 18.615 89.138 54.382 132.969 89.671 77.124 62.076 168.864 147.556 239.874 147.628 46.04-.004 72.67-42.846 95.61-78.374 25.88-40.135 47.76-84.939 73.62-125.114 23.3-36.242 50.79-81.369 99.17-78.418 42.08 2.577 94.75 39.246 141.19 74.861 90.27 69.214 209.66 189.671 286.09 167.287 90.15-26.399 111.11-154.401 203.86-177.961"/><path d="m188.689 711.161c71.238-8.545 152.555-9.798 213.624-37.713 101.886-46.572 174.052-139.903 271.622-193.4 34.857-19.068 71.378-33.08 124.1-10.242 44.14 19.115 90.134 56.773 134.141 93.497 77.704 64.915 169.474 153.634 241.694 153.321 46.9-.195 73.47-43.151 96.27-79.911 25.96-41.703 47.65-88.335 73.58-130.078 23.18-37.341 50.56-82.822 99.76-80.054 42.43 2.386 94.76 39.614 141.52 76.689 91.33 72.401 209.06 195.6 287.37 173.27 90.51-25.798 105.87-159.972 199.51-182.131"/><path d="m185.01 695.134c70.765-8.854 152.227-9.116 212.786-37.298 100.749-46.971 170.39-142.263 266.568-196.429 34.526-19.425 71.229-32.903 123.733-10.455 44.647 19.126 91.361 57.099 135.933 94.16 78.94 65.645 171.69 155.243 245.37 156.132 47.55.565 74.07-41.764 96.81-78.942 25.76-42.156 46.99-89.453 72.73-131.628 23.08-37.86 50.48-82.628 100.25-79.336 42.89 2.838 95.02 40.06 141.99 77.467 91.98 73.261 207.7 194.509 286.99 172.904 91.17-24.793 104.22-161.899 198.86-182.672"/><path d="m181.629 679.647c70.759-9.429 152.98-7.408 213.109-36.934 97.94-48.094 164.508-144.182 257.872-199.385 34.536-20.438 70.442-33.123 123.564-10.624 45.301 19.162 92.755 56.485 138.079 92.982 80.038 64.504 175.187 154.556 250.317 158.671 48.21 2.646 74.83-39.675 97.25-76.684 25.32-41.787 45.92-88.913 71.21-130.739 22.92-37.921 50.46-82.249 100.87-77.355 43.37 4.204 96.22 41.85 143.33 78.655 91.44 71.407 207.57 189.713 285.95 168.636 91.43-24.601 104.42-162.056 199.3-182.629"/><path d="m177.678 664.103c71.027-9.701 154.41-4.639 214.37-35.42 95.091-48.819 158.391-145.52 248.902-201.328 34.476-21.314 69.801-33.1 123.196-11.036 45.742 18.906 93.83 54.98 139.995 90.996 81.156 63.28 178.429 152.567 254.829 159.602 48.61 4.492 75.26-36.948 97.4-73.712 24.78-41.248 44.66-87.932 69.42-129.157 22.77-37.902 50.39-80.991 101.25-74.642 44 5.511 97.51 43.206 145.04 79.45 91.37 69.581 207.89 184.347 285.68 163.542 91.86-24.547 104.89-162.642 200.19-183.187"/><path d="m173.303 648.634c71.543-9.691 156.58-.961 216.494-32.935 92.213-49.167 152.117-146.343 239.675-202.571 34.313-22.03 69.318-32.835 122.687-11.591 46.144 18.358 94.808 53.15 141.719 88.314 82.618 61.774 181.092 149.421 258.952 159.185 48.81 6.109 75.42-33.639 97.3-70.118 24.2-40.391 43.24-86.569 67.4-126.997 22.62-37.885 50.24-78.965 101.41-71.312 44.75 6.722 98.88 44.153 147.03 79.73 91.69 67.732 208.6 178.462 285.97 157.781 92.4-24.702 105.59-163.654 201.46-184.317"/><path d="m168.534 633.23c72.278-9.46 159.253 3.491 219.332-29.603 89.326-49.198 145.7-146.821 230.369-202.998 34.017-22.624 68.934-32.442 121.991-12.348 46.47 17.603 95.602 50.949 143.161 84.816 84.237 59.994 183.353 145.237 262.663 157.528 95.72 14.852 121.75-122.383 162.19-190.296 22.51-37.823 50.09-76.291 101.43-67.375 45.66 7.946 100.33 44.904 149.24 79.789 92.35 65.853 209.64 172.148 286.78 151.421 93.05-24.979 106.5-165.022 203.03-185.917"/><path d="m163.415 617.927c73.173-9.039 162.353 8.593 222.784-25.503 86.474-48.957 139.331-146.735 221.025-202.795 33.671-23.084 68.693-31.88 121.217-13.214 46.728 16.638 96.227 48.257 144.447 80.855 85.719 57.92 185.132 140.02 265.992 154.801 95.59 17.433 119.65-115.873 159.28-182.757 21.94-36.933 49.9-74.834 101.33-62.986 47.74 10.988 100.98 44.784 151.7 79.575 93.22 63.9 210.9 165.445 288 144.569 93.8-25.374 107.57-166.689 204.85-187.974"/><path d="m157.511 602.46c74.205-8.518 165.889 14.249 226.716-21.009 83.685-48.514 132.948-146.584 211.771-202.236 136.875-96.722 358.415 176.913 535.122 213.864 95.27 19.955 117.24-108.831 156.22-174.592 21.87-36.81 49.74-71.243 101.1-58.339 48.89 12.287 102.64 45.261 154.39 79.279 94.33 62.057 212.42 158.643 289.66 137.495 94.64-25.871 108.77-168.783 206.94-190.492"/><path d="m152.127 587.473c75.351-7.764 169.62 20.237 230.974-15.994 80.93-47.785 126.659-145.876 202.585-200.905 133.315-96.584 361.614 162.508 537.774 203.713 94.85 22.219 114.61-100.986 152.9-165.63 21.78-36.749 49.65-67.132 100.79-53.313 50.09 13.575 104.36 45.575 157.15 78.712 95.45 59.919 213.94 151.369 291.43 129.867 95.47-26.47 110.08-170.781 209.13-192.979"/><path d="m146.64 572.696c76.543-6.992 173.524 26.463 235.508-10.668 78.277-46.894 120.409-144.94 193.653-199.18 129.879-96.205 364.262 147.253 539.909 192.751 94.41 24.446 111.8-92.85 149.48-156.411 21.72-36.648 49.54-62.732 100.35-48.189 51.25 14.751 106.16 45.925 159.98 78.066 96.64 57.793 215.48 143.96 293.3 122.086 96.32-27.108 111.44-172.943 211.41-195.669"/><path d="m141.094 558.107c77.736-6.197 177.516 32.762 240.244-5.187 75.756-45.871 114.433-143.845 185.032-197.157 126.613-95.628 366.462 131.632 541.56 181.288 93.95 26.649 108.9-84.55 145.99-147.082 21.67-36.531 49.63-58.191 100.1-42.83 52.45 15.976 108 46.22 162.83 77.389 97.85 55.666 217.01 136.523 295.26 114.216 97.25-27.745 112.86-175.077 213.72-198.442"/><path d="m135.585 543.78c78.897-5.414 181.47 38.961 244.875.298 73.385-44.762 108.695-142.63 176.828-194.932 123.725-94.958 368.421 115.821 543.012 169.623 93.5 28.827 106-76.26 142.53-137.881 21.6-36.421 49.79-53.644 99.78-37.569 53.66 17.231 109.88 46.65 165.67 76.768 98.95 53.422 218.47 129.144 297.21 106.432 98.15-28.387 114.18-177.421 216.02-201.228"/><path d="m130.167 529.764c80.108-4.678 185.31 44.955 249.495 5.644 71.185-43.603 103.287-141.346 169.136-192.591 121.04-94.206 369.917 100.124 543.972 158.105 93.21 31.045 103.02-68.305 139.2-128.93 21.63-36.213 49.87-49.279 99.49-32.476 54.86 18.498 111.79 47.214 168.47 76.264 99.99 51.238 219.78 121.895 299 98.71 99.02-29.008 115.47-179.637 218.19-203.988"/><path d="m124.452 515.909c81.241-4.061 189.004 50.604 253.96 10.71 69.211-42.486 98.264-140.293 162.047-190.488 61.868-48.704 167.295-14.162 263.746 24.637 93.018 37.43 189.034 89.556 281.165 122.591 93.37 33.482 99.67-61.236 136.03-120.678 48.3-78.893 170.89-.279 270.52 48.346 100.91 49.196 220.97 115.07 300.68 91.427 99.87-29.597 116.7-181.967 220.32-206.827"/><path d="m119.326 502.522c82.299-3.558 192.187 55.698 258.074 15.334 67.451-41.357 93.721-139.076 155.716-188.272 61.211-48.644 168.119-16.091 263.159 18.77 93.069 34.15 188.868 82.415 282.305 118.274 93.44 35.86 97.17-54.229 133.1-113.015 47.23-77.259 176.39 7.845 272.98 52.733 101.68 47.248 221.89 108.452 302.02 84.493 100.62-30.101 117.78-183.989 222.13-209.291"/><path d="m114.497 489.606c83.31-3.177 194.964 60.084 261.721 19.31 65.966-40.264 89.756-137.92 149.995-186.233 60.71-48.521 168.881-17.865 262.666 13.422 93.047 31.067 188.764 75.901 283.391 114.602 44.64 18.247 70.31 16.205 90.47-16.449 16.38-26.543 23.76-63.167 40.03-89.873 21.69-35.666 50.81-38.158 99.27-19.216 58.24 22.802 117.24 49.953 176.14 76.15 102.15 45.31 222.44 102.287 302.94 78.089 101.32-30.461 118.7-185.816 223.82-211.428"/><path d="m109.979 477.084c84.093-3.273 197.157 63.619 264.829 22.54 64.776-39.33 86.18-137.272 145.314-184.502 60.45-48.288 169.533-19.473 262.283 8.816 92.751 28.289 188.586 70.305 284.295 111.894 44.23 19.218 70.33 19.609 90.27-12.936 15.81-25.807 22.34-61.927 38-87.894 21.51-35.679 51.33-35.659 99.51-15.827 59.2 24.372 118.89 51.437 178.25 76.714 102.39 43.579 222.77 96.711 303.42 72.402 101.91-30.704 119.43-187.339 225.08-213.156"/><path d="m105.865 465.19c84.808-3.539 198.684 66.168 267.253 24.819 63.927-38.598 83.045-137.185 141.641-183.25 60.643-47.739 169.937-20.788 261.987 4.839 92.782 25.806 188.328 65.711 285.044 110.176 43.95 20.192 70.6 22.395 90.29-10.182 15.31-25.291 21.06-61.167 36.2-86.658 21.29-35.831 51.9-34.03 99.96-13.173 60.03 26.02 120.31 53.158 180.1 77.75 102.25 42.071 222.7 91.816 303.35 67.572 102.39-30.794 119.9-188.609 226.08-214.489"/><path d="m102.271 453.811c85.313-4.196 199.414 67.556 268.872 25.978 63.4-37.951 81.016-136.867 138.911-182.426 60.485-47.563 170.636-21.549 261.917 1.919 92.729 23.849 188.021 62.43 285.719 109.843 43.91 21.32 71.15 24.515 90.58-8.259 14.87-25.084 19.94-60.934 34.67-86.223 21.04-36.119 52.46-33.462 100.62-11.384 60.77 27.855 121.51 55.206 181.6 79.256 101.92 40.781 222.23 87.717 302.63 63.703 102.75-30.664 120.1-189.438 226.63-215.205"/><path d="m99.0739 442.97c85.4811-4.813 199.4561 67.908 269.2951 25.961 63.15-37.913 80.446-136.74 138.202-182.078 60.466-47.445 171.389-20.717 262.389 2.065 92.735 23.217 187.637 61.483 285.55 109.154 43.79 21.342 70.99 23.659 90.29-8.912 14.76-24.926 19.84-60.481 34.57-85.47 21.09-35.741 52.97-33.313 101.13-10.432 61.1 29.02 122.01 56.626 182.16 80.368 101.13 39.918 222.38 86.078 301.88 61.609 102.24-31.432 121.28-187.814 226.83-215.086"/><path d="m95.7877 432.374c85.5693-5.093 199.6053 68.287 269.4803 25.888 62.926-38.197 80.868-136.403 138.789-181.571 60.588-47.252 172.085-18.81 263.086 4.222 92.587 23.442 187.162 61.706 284.397 106.71 92.03 42.589 90.65-39.433 125.26-94.764 21.64-34.589 53.55-32.515 101.45-9.464 61.06 29.393 121.87 56.957 181.88 80.393 100.3 39.159 222.94 85.5 301.28 59.857 101.03-33.093 123.82-183.829 227.23-214.132"/><path d="m92.3725 421.958c85.7715-5.301 199.9575 68.845 269.9865 26.061 62.863-38.437 81.467-135.888 139.592-180.81 60.732-47.046 172.689-17.007 263.656 6.186 92.332 23.541 186.577 61.698 283.043 104.023 90.02 39.519 90.49-41.413 126.14-94.646 22.24-33.329 54.35-31.451 101.97-8.278 60.97 29.66 121.56 57.039 181.35 80.015 99.58 38.28 222.96 83.983 300.13 57.323 99.87-34.479 126.49-179.506 227.88-212.503"/><path d="m88.8823 411.816c86.0477-5.479 200.5057 69.562 270.8067 26.471 62.811-38.494 82.218-135.229 140.584-179.906 61.036-46.548 173.229-15.358 264.117 7.937 91.972 23.543 185.959 61.466 281.46 101.052 88.16 36.503 90.58-43.093 127.37-94.323 22.99-31.98 55.34-30.123 102.73-6.876 60.78 29.835 121.15 56.921 180.6 79.295 98.93 37.271 222.34 81.617 298.57 54.085 98.85-35.674 129.32-174.885 228.79-210.344"/><path d="m85.2867 401.842c86.4363-5.585 201.1513 70.385 271.9043 27.071 62.847-38.452 83.056-134.549 141.834-178.67 61.328-46.051 173.562-13.748 264.444 9.521 91.523 23.461 185.141 61.051 279.701 97.816 86.3 33.556 90.88-44.478 129.03-93.505 23.79-30.603 56.49-28.579 103.65-5.311 60.56 30.157 120.52 56.271 179.61 78.226 98.36 36.114 221.2 78.504 296.62 50.129 97.76-36.646 132.25-169.952 229.84-207.558"/><path d="m81.6396 392.123c86.8824-5.657 202.0334 71.376 273.2614 27.869 62.916-38.374 84.041-133.736 143.261-177.334 61.702-45.416 173.951-12.254 264.702 10.979 91.044 23.265 184.266 60.397 277.746 94.319 84.48 30.674 91.39-45.665 131.05-92.37 24.71-29.118 57.8-26.794 104.75-3.534 60.25 30.079 119.84 55.727 178.44 76.809 97.84 34.834 219.45 74.448 294.25 45.515 96.79-37.443 135.32-164.7 231.14-204.288"/><path d="m77.9036 382.611c87.3994-5.718 203.0174 72.429 274.8864 28.908 63.06-38.192 85.163-132.784 144.812-175.764 62.095-44.735 174.214-10.826 264.866 12.245 90.337 22.928 183.308 59.512 275.592 90.532 82.72 27.823 92.15-46.602 133.43-90.87 25.69-27.553 59.26-24.8 106.1-1.455 59.86 29.917 118.99 55.008 177.01 75.115 97.34 33.338 217.22 69.737 291.51 40.257 95.88-38.028 138.47-159.121 232.64-200.43"/><path d="m74.1125 373.349c88.0065-5.704 204.2325 73.702 276.7225 30.046 63.278-37.886 86.417-131.666 146.592-173.976 62.538-43.951 174.434-9.476 264.855 13.375 89.721 22.687 182.266 58.45 273.298 86.545 80.99 24.982 93.1-47.403 136.12-89.096 26.77-25.847 60.83-22.615 107.52.635 59.47 29.697 118.11 54.128 175.5 73.111 96.96 31.837 214.59 64.401 288.48 34.446 94.98-38.58 141.71-153.276 234.28-196.181"/><path d="m70.2635 364.352c88.6735-5.678 205.4615 75.093 278.8505 31.531 63.461-37.693 87.703-130.662 148.457-172.217 63.022-43.082 174.568-8.173 264.818 14.421 89.048 22.307 181.153 57.178 270.821 82.302 79.35 22.275 94.28-48.004 139.13-87.019 27.86-24.207 62.53-20.229 109.02 2.744 59.01 29.386 117.11 53.077 173.79 70.865 96.55 30.097 211.48 58.357 285.08 27.999 94.27-38.735 145.06-147.122 236.13-191.436"/><path d="m66.3877 355.537c89.3913-5.613 206.8473 76.557 281.0463 33.085 63.845-37.282 89.19-129.462 150.58-170.182 63.535-42.128 174.593-6.935 264.752 15.329 88.313 21.846 179.936 55.693 268.224 77.794 77.65 19.453 95.63-48.466 142.4-84.633 29.02-22.426 64.3-17.689 110.78 5.309 58.51 29.008 116.02 51.858 171.92 68.315 96.08 28.214 207.97 51.82 281.34 21.036 93.45-39.053 148.46-140.669 238.11-186.253"/><path d="m62.5019 347.092c90.1101-5.576 208.2701 78.072 283.5491 34.719 64.056-36.918 90.621-128.194 152.668-168.031 64.06-41.145 174.619-5.727 264.457 16.084 87.57 21.327 178.653 54.005 265.494 73.088 76.06 16.732 97.16-48.878 145.92-82.026 30.21-20.592 66.15-15.042 112.63 7.928 57.98 28.572 114.84 50.507 169.91 65.542 95.76 26.145 204.14 44.503 277.47 13.541 92.77-39.099 151.9-133.954 240.22-180.707"/><path d="m58.5388 338.642c90.9942-5.394 209.9302 79.788 286.1762 36.629 64.433-36.437 92.247-126.822 154.956-165.701 64.664-40.052 174.606-4.545 264.239 16.914 86.804 20.784 177.278 52.129 262.62 68.157 74.54 14.079 98.93-49.034 149.7-79.034 31.45-18.671 68.13-12.094 114.58 10.671 57.41 28.068 113.59 49.006 167.76 62.525 95.34 23.898 199.99 36.749 273.26 5.531 92.09-39.201 155.43-126.896 242.48-174.696"/><path d="m54.5804 330.551c91.8776-5.238 211.5986 81.559 288.9746 38.644 64.772-35.943 93.825-125.408 157.312-163.282 65.244-38.938 174.535-3.385 263.889 17.575 86.041 20.175 175.822 50.078 259.624 63.015 73.02 11.273 100.83-49.147 153.61-76.081 32.69-16.683 70.11-9.035 116.66 13.661 56.82 27.509 112.27 47.366 165.48 59.257 94.83 21.452 195.51 28.461 268.85-2.936 91.5-39.13 159.01-119.595 244.87-168.405"/><path d="m50.625 322.63c92.762-5.056 213.342 83.391 291.819 40.768 65.21-35.414 95.553-123.917 159.801-160.726 65.866-37.723 174.434-2.249 263.565 18.176 85.289 19.557 174.292 47.842 256.56 57.659 71.59 8.527 102.9-49.125 157.73-72.761 33.97-14.667 72.17-5.859 118.76 16.611 56.22 26.932 110.93 45.671 163.14 55.877 94.32 18.802 190.76 19.683 264.21-11.835 90.82-39.03 162.56-111.971 247.29-161.705"/><path d="m46.6684 314.802c93.6826-4.85 215.0776 85.165 294.7896 43.011 65.657-34.828 97.293-122.355 162.335-158.014 66.531-36.397 174.31-1.114 263.156 18.727 84.538 18.879 172.679 45.409 253.321 52.084 70.25 5.815 105.09-48.952 161.95-69.228 35.23-12.564 74.26-2.535 120.92 19.775 55.59 26.284 109.52 43.817 160.67 52.238 93.7 15.95 185.81 10.486 259.4-21.161 90.35-38.838 166.19-104.031 249.86-154.6487"/><path d="m42.7314 307.414c94.6316-4.65 216.9866 87.249 297.8606 45.374 66.097-34.263 99.095-120.815 164.989-155.221 67.148-35.145 174.169.045 262.799 19.252 83.839 18.274 171.021 42.859 250.07 46.359 69.02 3.067 107.37-48.738 166.37-65.597 36.54-10.44 76.32.926 123.25 23.045 54.97 25.631 108.11 41.921 158.15 48.488 210.93 29.307 355.97-84.117 506.97-178.2797"/><path d="m38.8145 299.061c95.5635-4.38 218.7155 88.956 300.8135 47.659 66.56-33.491 100.943-118.704 167.592-151.891 67.747-33.741 173.911 1.182 262.109 19.673 83.109 17.491 169.221 40.042 246.561 40.24 67.84.251 109.73-48.129 170.79-61.566 37.77-8.256 78.47 4.502 125.49 26.339 54.38 25.413 106.5 39.376 155.5 44.503 202.52 21.205 357.67-86.406 504.41-180.1004"/><path d="m34.932 291.37c96.52-4.116 220.532 90.827 303.878 50.07 67.008-32.86 102.798-116.76 170.264-148.65 68.388-32.303 173.69 2.359 261.518 20.049 82.395 16.653 167.395 37.135 243.128 34.215 66.84-2.576 112.08-47.687 175.3-57.514 39.02-6.057 80.57 8.118 127.81 29.764 53.76 24.624 104.93 37.038 152.78 40.301 91.16 6.208 169.89-19.325 244.04-50.952 88.96-37.956 177.02-78.368 257.81-131.3885"/><path d="m31.0583 283.346c96.5957-3.877 220.7707 91.875 305.1187 53.313 67.608-31.005 104.76-112.526 171.683-144.502 67.651-32.318 170.553.918 257.368 17.776 83.882 16.204 170.005 35.298 246.142 29.179 67.58-5.425 116.94-49.197 184.78-53.669 40.96-2.695 83.97 15.774 131.38 36.335 49.25 21.357 95.8 31.201 139.4 33.044 92.8 3.919 168.81-29.586 245.04-61.789 88-37.162 179.28-68.834 258.63-122.1361"/><path d="m27.2689 275.274c97.4781-3.587 222.5091 93.52 308.0361 55.664 68.093-30.143 106.592-110.248 174.357-140.794 68.293-30.665 170.355 2.197 256.767 18.285 83.268 15.534 168.233 32.531 242.481 22.809 66.65-8.726 119.47-48.201 189.49-49.062 41.97-.535 85.87 19.309 133.38 39.4 48.64 20.563 94.28 28.896 136.8 28.983 91.57.188 163.06-40.493 239.56-72.283 87.75-36.46 182.81-59.544 261.29-113.5634"/><path d="m23.6283 267.295c98.4167-3.3 224.1127 95.093 310.9107 57.945 68.548-29.342 108.416-107.876 176.998-136.973 68.812-29.252 170.17 3.533 256.243 18.846 82.535 14.732 166.257 29.433 238.69 16.271 65.83-11.969 121.94-47.149 194.13-44.41 42.99 1.648 87.75 22.841 135.31 42.447 47.96 19.775 92.77 26.564 134.16 24.883 90.25-3.62 157.36-51.382 234.11-82.749 87.49-35.77 186.22-50.097 263.94-104.8095"/><path d="m20.0464 259.394c99.2546-3.096 225.7916 96.555 313.7346 60.187 68.977-28.537 110.17-105.556 179.621-133.08 69.45-27.525 169.957 4.881 255.51 19.401 82.04 13.933 164.489 26.436 235.078 9.792 65.07-15.341 124.35-46.076 198.7-39.756 43.97 3.725 89.6 26.366 137.3 45.432s91.29 24.217 131.57 20.801c88.66-7.474 151.74-62.219 228.66-93.131 87.29-35.082 189.75-40.601 266.58-96.0611"/><path d="m16.5929 251.648c100.1541-2.721 227.3491 97.875 316.4761 62.388 69.42-27.734 111.987-103.002 182.19-129.159 69.912-26.042 169.846 6.246 254.955 19.996 81.504 13.148 162.604 23.414 231.406 3.341 64.35-18.783 126.67-45.026 203.19-35.181 44.73 5.772 91.39 29.856 139.15 48.399 46.88 18.185 89.86 21.879 129 16.773 87.07-11.327 146.24-72.859 223.29-103.334 87.14-34.471 193.17-31.119 269.13-87.3703"/><path d="m14.0361 244.656c100.9359-2.472 228.7609 99.003 318.9589 64.283 69.853-26.809 113.685-100.351 184.707-124.806 70.526-24.389 169.5 7.67 254.268 20.585 80.972 12.263 160.761 20.343 227.698-3.044 63.672-22.227 128.892-43.857 207.522-30.581 45.51 7.649 93.09 33.14 140.9 51.097 46.36 17.397 88.33 19.544 126.39 12.8 85.33-15.084 140.9-83.004 218.01-113.008 86.86-33.7754 196.39-21.529 271.53-78.5929"/><path d="m12.6719 238.609c101.6281-2.181 229.9231 99.568 321.1431 65.866 70.176-25.958 115.433-97.185 187.038-120.184 70.96-22.79 169.171 9.146 253.478 21.162 80.429 11.402 158.867 17.298 223.962-9.215 62.967-25.633 131.007-42.643 211.527-26.057 46.24 9.515 94.67 36.274 142.58 53.636 45.71 16.454 86.86 17.223 123.87 8.924 83.49-18.672 135.74-92.393 212.85-121.838 86.57-33.0649 199.46-12.0793 273.76-69.7006"/><path d="m11.3789 232.875c102.2411-1.907 231.0351 100.147 323.2091 67.342 70.498-25.113 116.96-94.206 189.31-115.708 71.417-21.206 168.93 10.597 252.735 21.824 80.018 10.754 157.058 14.367 220.332-15.168 62.295-29.057 132.865-41.551 215.345-21.796 46.88 11.249 96.2 39.258 144.1 55.992 45.23 15.793 85.46 15.012 121.4 5.275 81.62-22.122 130.84-101.248 207.86-130.299 86.36-32.4902 202.47-2.8788 275.87-61.2633"/><path d="m10.1953 227.508c102.9017-1.716 232.0927 100.602 325.1187 68.65 70.835-24.3 118.498-91.378 191.485-111.407 71.855-19.708 168.674 12.035 252.072 22.567 79.613 10.062 155.333 11.551 216.849-20.91 61.52-32.462 134.65-40.583 218.97-17.798 47.45 12.829 97.51 41.699 145.54 58.238 44.69 15.417 84.23 12.924 119.03 1.77 79.81-25.277 126.24-109.515 203.15-138.173 86.02-32.0501 205.41 6.0227 277.87-53.283"/><path d="m9.15723 222.414c103.46977-1.54 233.01377 101.039 326.90877 69.883 71.065-23.506 119.903-88.602 193.498-107.265 72.196-18.308 168.487 13.499 251.495 23.414 79.245 9.395 153.71 8.894 213.489-26.394 60.912-35.929 136.222-39.889 222.322-14.146 47.98 14.3 98.84 44.259 146.93 60.392 44.29 14.854 83 11 116.85-1.31 36.94-13.45 68.32-37.336 98.23-63.196 32.28-27.87 60.72-67.678 100.49-82.4081 85.7-31.7639 208.26 14.5811 279.73-45.7999"/><path d="m8.18164 217.93c103.96936-1.406 233.84136 101.45 328.54136 70.957 71.292-22.972 121.18-86.311 195.383-103.627 72.552-17.029 168.319 14.978 250.995 24.376 79.014 8.94 152.275 6.437 210.364-31.575 60.175-39.386 137.635-39.393 225.495-10.801 48.43 15.798 100 46.639 148.13 62.378 43.9 14.349 81.88 9.281 114.81-4.208 36.23-14.799 66.68-40.18 95.78-67.226 31.36-29.129 59.12-70.5435 98.83-85.2783 85.34-31.6359 211.05 22.8071 281.44-38.9211"/><path d="m7.29004 213.797c104.44296-1.269 234.69196 101.822 330.01196 71.907 71.495-22.467 122.43-83.975 197.114-100.186 72.889-15.832 168.274 16.602 250.636 25.487 78.787 8.466 150.955 4.158 207.369-36.538 59.509-42.782 138.869-39.103 228.419-7.796 48.8 17.051 101.07 48.823 149.26 64.244 43.55 13.918 80.78 7.745 112.94-6.788 35.55-16.068 65.14-42.847 93.52-70.96 30.53-30.247 57.66-73.0745 97.29-87.8873 84.9-31.7202 213.78 30.6595 283.08-32.5596"/><path d="m6.5127 210.164c104.8013-1.314 235.4073 102.171 331.2993 72.704 71.709-22.048 123.635-81.947 198.804-97.092 73.206-14.771 168.315 18.233 250.389 26.729 78.629 8.112 149.805 2.096 204.614-41.091 58.731-46.271 139.721-39.169 230.871-5.364 49.18 18.275 102.05 50.847 150.29 66.008 43.28 13.585 79.92 6.438 111.28-9.033 34.94-17.246 63.71-45.282 91.44-74.375 29.78-31.305 56.4-75.2461 95.98-90.2176 84.5-31.992 216.46 38.1023 284.48-26.8603"/><path d="m5.83789 206.984c105.13811-1.355 236.02711 102.493 332.39411 73.329 71.805-21.723 124.639-80.132 200.193-94.428 73.484-13.813 168.356 19.907 250.277 28.125 78.538 7.876 148.862.314 202.118-45.32 57.98-49.707 140.32-39.506 233.1-3.213 49.47 19.364 102.88 52.653 151.17 67.609 43.06 13.347 79.12 5.376 109.82-10.929 34.39-18.307 62.45-47.468 89.58-77.454 29.13-32.233 55.29-77.011 94.87-92.1997 84-32.478 219.1 45.1471 285.74-21.8956"/><path d="m5.28027 204.25c104.59673-1.285 235.11973 102.275 331.32973 74.382 76.033-22.027 131.586-84.709 213.873-94.093 70.348-8.027 157.669 22.511 234.136 30.672 81.24 8.664 151.293-.824 205.636-48.556 60.305-52.822 143.915-39.796 241.935 1.317 43.94 18.413 89.85 45.325 133.42 62.262 46.09 17.92 85.01 10.623 116.94-6.684 36.25-19.623 65.12-51.841 93.2-84.441 28.25-32.961 54.13-77.5864 93.63-92.3063 83.57-31.0157 220.39 51.8668 284.91-16.9176"/><path d="m4.84082 202.133c104.77118-1.476 235.54718 102.6 332.00118 74.715 76.03-21.999 132.476-83.346 214.988-92.063 70.521-7.429 157.92 24.183 234.328 32.355 81.283 8.684 150.745-2.058 203.645-52.147 59.527-56.41 143.867-40.735 243.547 2.695 44.11 19.215 90.22 46.326 133.86 63.237 46.01 17.911 84.54 10.197 115.95-7.75 35.82-20.464 64.03-53.751 91.67-86.99 27.9-33.563 53.58-78.5156 92.98-93.6708 83-31.7649 222.95 58.0208 285.86-13.3141"/><path d="m4.52734 200.531c104.85966-1.678 235.80266 102.883 332.42866 74.791 75.965-22.092 133.058-82.241 215.892-90.406 70.664-6.975 158.261 25.917 234.677 34.214 81.395 8.891 150.459-2.959 201.833-55.352 58.772-59.905 143.402-42.087 244.672 3.409 44.32 19.894 90.62 47.261 134.38 64.386 46.01 17.993 84.1 10.135 115.21-8.388 71.85-42.845 105.21-152.5864 183-183.7683 82.27-32.97903 225.39 63.4613 286.52-10.68"/><path d="m4.3252 199.523c104.9018-1.923 236.0758 103.199 332.6488 74.762 75.839-22.362 133.623-81.491 216.562-89.275 70.823-6.603 158.727 27.746 235.23 36.334 81.524 9.151 150.45-3.557 200.402-58.18 57.962-63.4065 142.442-43.934 245.382 3.647 44.25 20.406 91.15 48.937 134.62 65.189 46.15 17.231 83.51 10.604 114.75-8.562 71.52-43.903 104.42-153.5467 181.87-186.1862 81.49-34.40293 227.87 68.4972 286.96-8.8039"/><path d="m4.25781 199.531c104.88519-2.259 236.24219 103.671 332.68619 74.621 75.67-22.796 133.918-81.178 217.117-88.786 70.906-6.476 159.354 29.766 236.035 38.774 81.726 9.593 150.767-3.793 199.306-60.722 57.078-67.0169 141.008-46.371 245.678 3.352 95.6 45.39 181.82 99.939 249.33 57.606 71.4-44.775 104.31-153.6411 181.32-188.0865 80.67-36.089695 230.29 73.0735 287.48-7.7212"/></g></g></svg>