<svg fill="none" height="21" viewBox="0 0 73 21" width="73" xmlns="http://www.w3.org/2000/svg"><path clip-rule="evenodd" d="m11.2026 15.9025h-3.17887c-4.95902 0-1.3563-10.82677 2.81857-10.82677h5.0227c.8052 0 2.2252.15251 2.9245-1.89523l1.0808-3.1805h-6.8875c-3.72987 0-6.63328 1.35062-8.73131 3.61619-3.623917 3.87758-4.853076 9.93361-3.984185 12.83091.826505 2.6794 3.072905 4.444 6.590835 4.4876l2.73385.0217h3.36961l.8265-2.5487c.6146-1.8081-.7629-2.5052-2.5855-2.5052zm38.6975-4.4876 1.0382-3.46364h-11.0835c-1.8437 0-2.6703.52282-2.9881 1.612l-1.0385 3.46374h11.0837c1.8437 0 2.6702-.5228 2.9882-1.6121zm-15.7249 6.0996-1.0384 3.4637h11.0837c1.8225 0 2.6702-.5228 2.9881-1.612l1.0384-3.4637h-11.0836c-1.8226 0-2.6491.5228-2.9882 1.612zm18.3103-14.02902 1.0386-3.4636961h-11.0838c-1.8437 0-2.6703.5228211-2.9881 1.6120361l-1.0385 3.46369h11.0837c1.8228 0 2.6489-.52282 2.9881-1.61203zm-16.742.6971c-.4663-3.224071-2.1405-4.1607961-6.2094-4.1607961h-7.4174l-4.3232 13.0052161h2.7338c1.6318 0 2.4583.0218 3.3272-2.3745l1.8014-5.57677h2.755c2.3524 0 1.8225 3.02803.6357 5.96887-1.0595 2.5923-2.9033 4.8797-5.1285 4.8797h-4.5988c-1.8437 0-2.6914.5228-3.0305 1.612l-1.1444 3.4637h3.3696l3.306-.0218c2.9246-.0218 5.3193-.2396 8.1167-2.8319 2.967-2.7666 6.4002-9.8683 5.8068-13.96372zm37.2565-4.18258h-6.4213l-6.04 6.60062c-.6995.76244-1.42 1.52488-2.1195 2.41808h-.0636l3.0093-9.0187h-5.2341l-7.0573 20.9782h5.2346l2.2462-6.6006 2.3311-2.0259 1.844 5.9689c.572 1.8516 1.1658 2.6576 2.4373 2.6576h4.0053l-4.1115-11.71989z" fill="#00b33c" fill-rule="evenodd"/></svg>