<svg fill="none" height="50" viewBox="0 0 105 50" width="105" xmlns="http://www.w3.org/2000/svg"><path d="m0 49.994h50.8686v-49.994h-50.8686z" fill="#0055a5"/><path d="m103.479.0078125h-49.3403v49.9939875h50.8603v-49.9939875z" fill="#0055a5"/><path d="m57.1865 47.0016h44.7575v-44.0016h-44.7575z" fill="#fff"/><path d="m4.65625 27.3984v10.4236h1.74835v-3.0264c.34176.2917.71819.4668 1.12137.4668.57771 0 1.05265-.2988 1.42543-.8966.41839-.6653.62698-1.6474.62698-2.9326 0-.8966-.16724-1.7035-.4938-2.391l-.05716-.1124-.05716-.0932-.03832-.0932-.05716-.0747-.05716-.0933-.07602-.0932-.05716-.0748-.05716-.0747-.07602-.0747-.05716-.0747-.07602-.0747-.07601-.0562-.07602-.0747-.07601-.0562-.07602-.0562-.07601-.0562-.09487-.0371-.07601-.0562-.07602-.037-.09487-.0371-.09486-.0376-.09487-.0377-.09487-.0371-.09486-.0185-.09487-.0185-.09487-.0186-.11371-.037h-.09487l-.11372-.0186h-.09487l-.11432-.0185h-.11372-1.82558zm1.65348 1.4759h.17088c.44089 0 .78326.2504 1.0259.7286.24325.4782.36122 1.2176.36122 2.2416 0 .5529-.06871.9899-.22804 1.2887-.15203.2989-.34967.4484-.56981.4484-.21284 0-.38798-.1417-.53211-.4113-.14412-.2612-.22804-.6384-.22804-1.1393z" fill="#fff"/><path d="m45.7916 26.8906-.1441.1417s-3.656 3.7509-3.9297 4.0348v-3.6762h-1.71v10.4457h1.71v-4.2888c.0457-.052 2.2422-2.339 2.4933-2.6003.0152.3808.2506 6.8891.2506 6.8891h1.7483z" fill="#fff"/><path d="m37.4523 27.0329-.0079.0149-.0152.0072-.0152.0227-.0231.0221-.0304.0299-.0304.0299-.0383.0377-.0377.0376-.0457.0449-.0456.0526-.0535.052-.0529.052-.0535.0597-.0608.0598-.0681.067-.1368.1422-.1442.1495-.152.1572-.1593.1643-.1673.1716-.1751.1716-.1745.1793-.1752.1871-.3569.3658-.1746.1793-.1745.1722-.1672.1715-.1594.1722-.1593.1572-.1447.1494-.1368.1417-.0682.067-.0608.0675-.0608.0598-.0535.0598-.0529.0526-.0456.0526-.0456.0448-.0456.0448-.0377.0377-.0304.0299-.0304.0299-.0232.0298-.0231.015-.0152.0227v-3.6761h-1.7185v10.4456h1.7179v-4.2888c.0456-.052 2.2428-2.3391 2.4933-2.6003.0152.3808.2512 6.8891.2512 6.8891h1.7404l-.4184-10.9478z" fill="#fff"/><path d="m27.51 35.2473-.1064-.1267-.0912-.1267-.0913-.1423-.076-.1417-.076-.1494-.0687-.1494-.0687-.1566-.0529-.1572-.0456-.1716-.0457-.1644-.0383-.1793-.0304-.1793-.0231-.1871-.0152-.1871-.0079-.1943-.0079-.1943c0-1.098.2737-1.9725.8058-2.6151.5856-.7024 1.437-1.0532 2.5468-1.0532h.0833v-1.8232h-.0833c-1.7332 0-3.0637.523-3.968 1.5763-.821.9492-1.2388 2.2714-1.2388 3.9302 0 1.599.4561 2.9212 1.3452 3.9152.9426 1.0461 2.2428 1.5841 3.8847 1.5841h.0833v-1.8303h-.0833c-1.0782-.0006-1.9296-.3593-2.5304-1.0766z" fill="#fff"/><path d="m13.7615 27.1373c-.9195 0-1.6535.5117-2.1856 1.5129-.5169.9863-.779 2.2978-.779 3.904 0 1.6587.2469 3.0001.7413 3.9786.5017 1.0012 1.2503 1.5128 2.2233 1.5128.9961 0 1.7824-.5415 2.3376-1.5875.5169-.9792.779-2.3014.779-3.9231 0-1.599-.2664-2.9069-.7985-3.8854l-.0571-.0932-.0572-.0932-.0383-.0933-.076-.0747-.0384-.0747-.076-.0748-.0571-.0747-.0572-.0747-.0572-.0747-.076-.0747-.0571-.0562-.076-.0562-.0572-.0562-.076-.0562-.0572-.0562-.076-.0562-.076-.0376-.076-.0371-.0761-.0371-.076-.037-.076-.0377-.076-.0376-.076-.0186-.0949-.0376-.076-.0185-.0949-.0186-.076-.0185h-.076l-.0949-.0185-.0948-.0186h-.0949-.0936zm0 1.6809c.4865 0 .844.3401 1.0642 1.0275.2128.6199.304 1.5243.304 2.6899 0 1.128-.1064 2.0658-.3417 2.7831l-.0383.0748-.0189.0561-.0188.0562-.0189.0562-.0189.0562-.0377.0562-.0188.0562-.0383.0376-.0189.0562-.0383.0377-.0188.0562-.0189.0376-.0377.0371-.0383.0371-.0189.037-.0377.0185-.0188.0371-.0383.0371-.0377.0185-.0383.0371-.0383.0185-.0384.0185-.0188.0185-.0383.0186h-.0383l-.0383.0185-.0377.0185h-.0384l-.0383.0186h-.0383-.0383-.0572c-.4177 0-.7333-.3509-.9693-1.0461-.2432-.7251-.3612-1.6552-.3612-2.7461 0-1.113.118-2.0323.3612-2.7269.222-.6641.5449-1.0078.9706-1.0078z" fill="#fff"/><path d="m20.9179 35.2434-.0456-.0597-.0536-.067-.0991-.1267-.0833-.1423-.0839-.1417-.076-.1494-.0681-.1494-.0609-.1566-.0608-.1572-.0456-.1716-.0456-.1644-.0304-.1793-.0304-.1793-.0225-.1871-.0152-.1871-.0152-.1943v-.1943c0-1.098.2657-1.9725.8058-2.6151.5777-.7024 1.429-1.0532 2.5389-1.0532h.0912v-1.8232h-.0912c-1.7259 0-3.0638.523-3.9601 1.5763-.8289.9492-1.2388 2.2714-1.2388 3.9302 0 1.599.4482 2.9212 1.3452 3.9152.9347 1.0461 2.2421 1.5841 3.8847 1.5841h.0833v-1.8303h-.0833c-1.088-.0006-1.9393-.3593-2.5395-1.0766z" fill="#fff"/><path d="m4.67578 12.0781v10.4977h1.9691v-8.757h2.43248v8.757h1.96114v-10.4977z" fill="#fff"/><path d="m17.0683 11.8014c-1.0417 0-1.8779.5153-2.4702 1.532-.5856.9941-.8745 2.3091-.8745 3.9225 0 1.6659.2737 3.03.8362 4.0162.5698 1.009 1.4139 1.513 2.5085 1.513 1.1171 0 1.9989-.5267 2.6222-1.5877.5856-.9863.8933-2.3198.8933-3.9415 0-1.614-.3192-2.9368-.9121-3.9225l-.0572-.0932-.0572-.0933-.0571-.0932-.076-.0747-.0572-.0933-.076-.0747-.0572-.0747-.076-.0748-.076-.0747-.0572-.0562-.076-.0747-.076-.0562-.076-.0562-.076-.0561-.0949-.0562-.076-.0377-.076-.0562-.0761-.0376-.0948-.0377-.076-.0371-.0949-.0376-.0949-.0377-.076-.0185-.0949-.0377-.0948-.0185-.0949-.0185-.0949-.0186-.0948-.0185h-.1143-.0949l-.0949-.0185h-.1143zm.0195 1.7747c.5321 0 .9085.3365 1.159 1.009.2281.6127.3418 1.5057.3418 2.6714 0 1.113-.1332 2.0437-.3989 2.746-.2585.6874-.6155 1.0084-1.1019 1.0084h-.0572-.0383-.0383-.0377l-.0383-.0185-.0384-.0185h-.0383l-.0383-.0186-.0377-.0185-.0383-.0185-.0383-.0186-.0383-.0185-.0383-.0377-.0377-.0185-.0383-.037-.0384-.0186-.0188-.0376-.0383-.0371-.0383-.0376-.0189-.0377-.0383-.0377-.0383-.0562-.0189-.0376-.0383-.0377-.0188-.0561-.0377-.0563-.0189-.0376-.0188-.0747-.0383-.0562-.0189-.0562-.0188-.0562-.0384-.0562c-.2657-.725-.3989-1.6438-.3989-2.7275 0-1.113.1332-2.021.3989-2.7084.2542-.6635.6076-.9887 1.0868-.9887z" fill="#fff"/><path d="m31.2891 12.0781v1.7407h1.634v8.757h1.9691v-8.757h1.6571v-1.7407z" fill="#fff"/><path d="m26.978 15.7322h-1.0715c-.4409 0-.7754-.0968-.9809-.2911-.1521-.1345-.2208-.3216-.2208-.5607v-2.8023h-1.9685v2.9965c0 .6875.281 1.2775.8283 1.7407.5394.4561 1.2089.6874 1.9764.6874h1.4364v5.0731h1.9691v-10.4977h-1.9691z" fill="#fff"/><path d="m39.1112 12.0793-.3612 10.4983h1.9575s.1825-4.9051.1898-5.1371h2.4513c.0231.217.5698 5.1371.5698 5.1371h1.9764l-.9122-7.6775v-.0932-.0933-.0933l-.0188-.0932v-.0933l-.0189-.0747v-.0932l-.0188-.0747-.0189-.0933-.0188-.0747-.0189-.0747-.0188-.0748-.0189-.0747-.0383-.0747-.0189-.0747-.0188-.0747-.0383-.0747-.0383-.0562-.0383-.0748-.0189-.0561-.0383-.0748-.0383-.0561-.0572-.0562-.0383-.0747-.0383-.0377-.0572-.0747-.0383-.0377-.0571-.0562-.0572-.0562-.0572-.0376-.0383-.0562-.076-.0562c-.4938-.3814-1.1633-.5607-2.0141-.5607h-2.905zm1.8815 1.7371h.703c.509 0 .8514.1608 1.0642.4668.1752.254.2926.7394.3613 1.4197h-2.1856v-.0185-.0186-.0185-.0185-.0186-.0185-.0185-.0562-.0562-.0562l.0188-.0562v-.0747-.0562-.0747-.0747-.0747-.0748-.1679-.1495l.0189-.0747v-.0747-.0747-.0747-.0748-.0561-.0748-.0562-.0562l.0188-.0376v-.0186-.0185-.0185-.0185-.0186-.0185-.0191z" fill="#fff"/><g fill="#0055a5"><path d="m69.5461 16.1641.0681.1566.0839.1494.0833.1566.0991.1644.053.0747.0608.0819.0535.0825.0608.0825.0681.0819.0681.0825.0681.0819.076.0825.0833.0896.084.0825.0839.0897.0912.0897.0991.0896.0985.0897.1065.0896.1143.0969.1137.0896.1216.0968.1217.0969.1289.1046.1447.0974.1368.1047.1521.0968.152.1046c.3722.254.7985.7848.4792 1.5242-.3193.7472-.9122 1.7933-.5552 2.2045.3576.4107 1.6188.6199 2.6532.2164 0 0 .2208.6426.6008 1.0533 0 0-.1824.3508-.7753.1715 0 0 .2207.5308-.0839 1.0987 0 0-.6915-.1196-.9961-.7472 0 0-.2737.4931-.8283.6647 0 0-.4561-.2314-.357-1.128 0 0-.3344.7998-1.3682.9343 0 0-.593-.7394.1824-1.7335 0 0-.5625.4854-1.5659.2541 0 0-.1672-.5081.7528-1.2104 0 0-1.0338-.0449-1.429-.8967 0 0 .4329-.5302 1.5051-.4112 0 0-.9955-.217-1.2163-1.3826 0 0 .7146-.4483 1.8548.269 0 0-.1977-.3736-.6762-.7472-.4798-.3569-1.0576-1.3958-.852-2.92z"/><path d="m73.6954 27.9299-.0304-.0371-.0225-.037-.0304-.0377-.0225-.0377-.0231-.037-.0232-.0371-.0225-.0299-.0225-.037-.0231-.0377-.0225-.0377-.0152-.037-.0231-.0371-.0152-.0298-.0231-.0371-.0152-.0377-.0152-.0376c.1824 1.4196.2432 2.376 1.0186 3.2954 0 0 .4792-.6127.1672-2.1071-.1216-.0377-.2736-.0968-.4183-.1943 0 0 .1824.6055.0687 1.2176 0 0-.2816-.2026-.4865-1.6294z"/><path d="m72.3419 27.779-.0073-.0072-.0073-.0149-.0073-.015-.0152-.0071-.0073-.015-.0152-.0149-.0079-.015-.0152-.0149-.0079-.015-.0152-.0221-.0231-.0298-.0225-.0377-.0304-.0377-.0225-.0371-.0231-.037-.0304-.0371-.0225-.0376-.0225-.0299-.0231-.0371-.0073-.0221-.0079-.0149-.0152-.015-.0073-.0149c-.0681.8219-.2889 2.9887.4561 3.669 0 0 .5017-.3664.6841-3.5267-.1064.1793-.2968.3658-.388.4704 0 0 .1216 1.0012-.2432 1.7107-.0012-.0012-.3661-.2779-.1454-1.7944z"/><path d="m70.5875 29.4395.0535-.0675.0529-.0819.0535-.0897.0535-.0968.0456-.0974.0456-.1046.0383-.1118.0456-.1124.0384-.1195.0377-.1196.0304-.1195.0304-.1267.0608-.2469.0225-.1196.0304-.1195.0231-.1196.0152-.1117.0231-.1118.0152-.1124.0152-.1046.0152-.0969.0152-.0896.0073-.0825.0079-.0819.0079-.0675.0073-.0299v-.0299l.0073-.0299v-.0221-.0227l.0079-.015v-.0227-.0072-.0149-.0072-.0071c.0833-.0526.1746-.1196.2585-.1871.0383-.0299.0687-.0527.1064-.0897 0 .0819 0 .1644.0073.2469-.0912 1.315-.1976 2.6749-.6154 3.3545-.4105.6653-1.1634 1.009-1.1634 1.009-.7066-1.2403.1442-2.899.8587-4.0569.0912-.0299.1824-.0676.2737-.1124-.2591.8883-.7304 1.9415-.5327 2.7562z"/><path d="m68.8314 25.6346v.0298.0222.0298.0228l.0079.0221v.0221.0227l.0073.0072v.0149.0072.0072.0077l.0073.015v.0071.0072.0078l.0079.0078v.0072.0071.0078l.0079.0078v.0071.0072.0078l.0073.0077c.0073.015.0152.0521.0304.0897-.5929.5607-1.0338 1.113-1.9077 2.3085-.8818 1.2027-2.2731 1.2475-2.2731 1.2475.1368-.9713.4031-1.7412 1.1475-2.5631.7376-.8291 1.6954-1.5841 2.3948-2.0844.1824.0825.4177.1345.7145.0974.0152 0 .0456-.0077.0687-.0077-.0912.1195-.152.2391-.1824.3514-.5321.2989-2.0676 1.0683-2.6909 2.3014-.0007.0018.9723-.2977 2.6526-2.061z"/><path d="m67.7277 24.4358.0608-.1118c.0152-.0299.0377-.0597.0608-.0896-.5777.217-2.6149.9713-3.2765 1.3072-.6538.3366-1.6116 1.0987-2.1285 2.6529 0 0 1.3762.1195 2.5164-.807 1.1324-.9188 2.455-2.2117 3.0181-2.6223-.0535-.0449-.0991-.0969-.1295-.1417 0 0-1.5355 1.3377-3.1622 1.9128 0 0 .3497-.6127.9882-1.0682.7832-.5469 1.3682-.7263 2.0524-1.0323z"/><path d="m66.5656 23.5127.0073-.0149.0079-.0222.0079-.0221.0073-.0149.0073-.0221.0079-.0228.0079-.0077v-.0078l.0073-.0078.0073-.0149c-.6763.1416-2.3565.3359-3.1087.5607-.7529.2241-2.106.7693-2.9117 2.2792 0 0 1.1858.3586 3.4134-.6725 2.2348-1.0311 2.9341-1.2481 3.3598-1.3599-.3424-.0227-.5856-.1344-.7072-.2092-.8891.3886-2.0749.8518-3.2608.8817 0 0 .585-.4035 1.1932-.6575.6689-.2768 1.3986-.5231 1.9539-.6653z"/><path d="m66.6193 22.4245.0377.0221.0378.015.0377.0149.0456.0228.0377.0071.0377.015.0377.0149.0383.0078.0383.0149.0456.0078.0383.0078.0456.0077.0225.0078h.0225l.0231.0078h.0231.0225l.0304.0077h.0225l.0232.0078c-.1521.0974-.2968.2242-.4336.3886-.7906.2241-2.1285.4632-4.3402.6204-2.2123.1644-3.3903-.2391-3.3903-.2391.7675-.4632 1.9989-.9343 2.8278-1.0909.8362-.1572 3.0181-.1345 3.968-.269.0152.015.1368.1046.3272.217-.8137.0747-2.5237.1495-3.4134.5828.0006-.0024 1.6352.214 3.7867-.3987z"/><path d="m66.4529 21.1738.0225-.0149.0231-.0078.0225-.0149.0225-.0072.0231-.0149.0231-.0078.0225-.015.0304-.0149.0225-.0078.0231-.0149.0305-.0078.0304-.015.0225-.0149.0304-.0072.0304-.0149.0304-.0078c-1.1177-.3287-2.6533-.8667-4.9635-1.0161-1.6954-.1118-2.9269-.015-3.5575.1494 0 0 1.5428 1.0688 3.3143 1.4495 1.7635.3736 3.1999.1345 4.2416.1417.076-.1046.152-.2092.2736-.3288-1.2235.0072-3.2686-.2988-3.9983-.5379.0006.0012 1.7793-.3724 4.2799.3299z"/><path d="m66.4517 19.8802v.0077.0078l.008.0072v.0149l.0073.0149v.0222l.0072.0227.008.0227.0152.0299.0073.0227.0152.0377.0152.0299.0152.0298.0152.0377.0231.0377.0225.0376.0225.0377.0304.037.0231.0449.0304.0376.0377.0377.0377.0448.0383.0377.0377.0448.0456.0377.0456.037.0529.0377.0536.0448.0608.0299.0529.0377.0681.037.0687.0299c-1.5738-.6725-4.6752-1.061-6.3324-1.7484-2.25-.9116-2.6605-2.0623-2.6605-2.0623 1.946-.0526 3.5192.4185 4.7282.7849 1.429.4256 3.5879 1.2176 4.3401 1.5542-.2816.0077-.5929.0824-.8514.2618-1.0563-.3957-1.5507-.5679-2.5158-.8369-.7528-.2092-1.3153-.2469-1.7866-.2917 0 0 .6689.4334 1.7635.7771 1.0892.3401 1.5605.3999 2.4495.5643z"/><path d="m66.3297 18.1922.008.0078.0073.0149.0073.015.0079.0077.0079.015.0073.0149.0073.015.0152.0149.0073.015.0073.0149.0152.0221.0073.0149.0231.0377.0304.0299.0225.0371.0231.0299.0073.0226.0152.015.0073.015.0152.0149.0079.0149.0152.015.0079.0149.0079.015.0073.0078.0073.0149.0079.0077.0079.015c-2.486-.4112-5.2225-2.2565-6.066-3.4072-.8435-1.1429-.6008-2.8542-.6008-2.8542.8209.1643 2.5997 1.6737 3.0558 2.1291.4634.4484 1.8621 1.7861 2.8277 2.5333l.2962.8518c-.821-.6497-1.8013-1.3748-2.4173-1.8303-.4713-.3509-1.1779-.8368-1.8699-1.0759 0 0 .6385.8219 1.1633 1.2253.6008.4711 1.2083.8746 1.71 1.1435.45.2374.6781.3796 1.5823.8052z"/><path d="m73.3381 25.0392.0152-.0149.0152-.015.0073-.0078.0152-.0149.0152-.0149.0152-.0072.0079-.0149.0152-.0078.0079-.015.0152-.0149.0073-.0078.0152-.0149.0079-.0078.0152-.0149.0079-.0078.0152-.0149c.1144.1494.4938.6204.6842 1.0909.1441.3963.2967.9414.3728 1.2474.076.3216.2967.9636.4408 1.1878 0 0-.6081.0825-1.0569-.4406-.4409-.5003-.5856-1.0084-.6616-1.5314-.0535-.4095-.0304-.9773.0225-1.3587z"/><path d="m72.3803 25.1133.0152.0149.0073.015.0152.0077.0073.015.0073.0149.0152.0072.0073.0072.0073.0149.0152.0072.0073.0071.0073.0078.0079.015.0152.0072.0073.0077h.0073l.0079.0078.0079.0072.0073.0071.0073.0078h.0079v.0078h.0079l.0073.0071h.0073v.0072h.0079v.0072h.0079v.0078l.0912.0376.0834-.0227c.076-.0299.1447-.0597.2055-.0819.0912.232.1216.3515.152.5607.0225.269.0833.6952-.0225 1.0461-.1289.4262-.3879.6802-.5321.8518 0 0-.3953-.4334-.509-.7843-.1216-.3658-.1593-.7992-.0152-1.2403.0852-.2391.2141-.4561.3205-.5828z"/><path d="m71.0208 25.1477.0377-.0077h.0377l.0304-.0078.0377-.0072.0681-.0149.0687-.015.0687-.0221.0681-.0149.0608-.0227.0608-.0222.053-.0299.0535-.0221.0608-.0299.0456-.0227.0529-.0299.0456-.0298.0456-.0299.0456-.0299c.0535.1345.1296.3287.076.5899-.0681.269-.2511.5757-.5248.7849-.4104.3216-.9505.6199-1.558.523.0012 0-.1356-.4411 1.0655-1.5392z"/><path d="m70.5641 24.4102.0079.0376v.0377l.008.0299.0073.0376.0073.0299.0079.0299.0079.0377.0073.0299.0152.0298.0079.0228.0073.0298.0152.0299.0079.0228.0152.0226.0073.0222.0079.0227.0152.0221.0073.0227.0079.015.0152.0149.0073.0221.0079.015.0079.0077.0073.015.0073.0149.0079.0072.0079.0078.0073.0078.0073.0077v.0078h.0079v.0078c-.1441.1643-.6537 1.0233-1.7179.8816 0 0-.2889-.5905.4184-1.0538.4779-.324.7133-.3838 1.0404-.4961z"/><path d="m70.6557 23.6696-.0529.0149-.0529.015-.0608.0077-.0608.0078-.0608.0078-.0608.0078h-.0682l-.0681.0071h-.0687l-.076-.0071h-.0681l-.0377-.0078h-.0377l-.0456-.0078h-.0377l-.0377-.0078-.0383-.0077-.0377-.0078-.0456-.0078-.0378-.0077-.0456-.015-.1216-.0221-.0383-.1196c-.5394.4412-1.1931.5153-1.4139.9116 0 0 .2737.4932.9803.4035.7073-.0825 1.2394-.4035 1.6194-.8739.0049-.067.0353-.1943.0736-.2911z"/><path d="m69.4322 23.0585.0152-.0299.0231-.0299.0152-.0299.0152-.0376.0225-.0299.0152-.0371.0225-.0376.0152-.0377.0231-.0377.0225-.0448.0152-.0221.0152-.0149.0079-.0228.0152-.0227.0152-.0221.0152-.0149.0152-.0228.0152-.0221.0232-.0221.0152-.0221.0231-.0227.0152-.015c-.4713-.0825-.8891-.0974-1.437.015-.6538.1195-1.3227.269-1.6571 1.2403 0 0 .4177.3587 1.1858.2021.6385-.1268 1.201-.4035 1.5276-.859z"/><path d="m69.1497 22.0026-.0304-.0298-.0304-.0221-.0304-.0299-.0304-.0299-.0231-.0299-.0305-.0377-.0304-.0299-.0225-.0298-.0304-.0377-.0225-.0377-.0304-.0376-.0231-.0377-.0231-.0448-.0225-.0377-.0225-.0448-.0231-.0448-.0529-.1196c-.5625-.2242-1.1554-.3437-1.7331-.1345-.5778.2164-.7298.4633-.8745.6725 0 0 .6385.5302 1.3762.5529.737.0161 1.4132-.1931 1.71-.4095z"/><path d="m69.3262 20.8522.0152-.0077.0225-.0072.0152-.0078h.0225l.0152-.0072.0231-.0077.0152-.0078.0231-.0078h.0231l.0225-.0078.0225-.0077h.0152l.0225-.0078.0231-.0078h.0231l.0225-.0077c-.2432-.2164-.4938-.5452-.616-1.0461-.2584.0598-.8818.0598-1.1475-.0377-.2737-.1046-.8058-.1123-1.2242.1644 0 0 .1369.7101 1.0795.9564.8902.2343 1.2168.1746 1.5817.055z"/><path d="m68.9834 19.4585.1216-.0825c.0152-.0072.2281-.1345.593-.1572-.3041-.2313-1.0338-.8291-1.5435-1.1058-.5546-.3061-1.4819-.7245-1.9611-.7849 0 0 .4488 1.1429.9577 1.6068.5401.4788.9122.6581 1.8323.5236z"/><path d="m69.9332 18.9278-.0377-.0526-.0377-.0598-.0457-.0598-.0383-.0598-.0304-.0675-.0377-.0669-.0377-.0676-.0304-.0747-.0304-.0747-.0377-.0748-.0304-.0747-.0231-.0825-.0304-.0818-.0304-.0825-.0225-.0897-.0225-.0825c-.1144-.3885-.3576-1.33-.5017-1.584-.1441-.2469-.669-1.0981-1.6876-1.3677 0 0-.2663 1.113.2433 2.0097.4397.7639 1.3439 1.5708 2.469 2.0939z"/><path d="m75.5968 24.1389.0304.0227.0225.0221.0232.0228.0225.0149.0231.0227.0225.015.0231.0227.0225.0149.0231.015.0304.0227.0152.0077.0152.0078.0152.0078.0152.0149.0152.0078.0152.0078.0231.0071.0152.015.0152.0078.0225.0077.0225.015.0152.0078s.3272.6127-.0681 1.3449c-.3953.7394-.7224 1.4943-.8818 1.9128 0 0-.2128-.0299-.4481-1.1878-.1594-.777-.357-.979-.5699-1.2403.2281.1118.4105.1417.4336.1417l.1521.0377.076-.1495c.1368-.2618.1745-.5159.1745-.7251 0-.0747 0-.1416-.0079-.202.3649.0149.5625-.1716.6385-.2612.0073-.015.0152-.015.0152-.0221z"/><path d="m66.9309 15.2944v.015.0227.0227.0221.0228.0227.0376.0449.0448.0526.0448l.0225.2762c-.6081-.755-1.3299-1.6659-2.0141-2.5105-.4713-.5751-.8665-.9188-1.3153-1.2033.38 1.0682 1.049 1.9205 1.5203 2.339.4713.4256 1.1554 1.1429 1.8243 1.584l.0608.2092c.0529.2021.129.4035.2354.5978.1672.269.3649.5308.6081.792-.1903-.0968-.4178-.2015-.6385-.2911l-.2129-.0897c-1.8322-.9486-3.6566-2.9361-4.3857-4.3109-.7371-1.3826-.4336-2.981-.2433-3.84058.8362.69518 2.0451 2.06218 2.562 2.80228.6465.9115 1.4674 2.2116 1.9764 3.2655z"/><path d="m92.6774 21.1738-.0224-.0149-.0153-.0078-.0225-.0149-.0231-.0072-.0225-.0149-.0304-.0078-.0231-.015-.0225-.0149-.0231-.0078-.0304-.0149-.0225-.0078-.0304-.015-.0304-.0149-.0304-.0072-.0304-.0149-.0304-.0078c1.125-.3287 2.6605-.8667 4.9793-1.0161 1.6948-.1118 2.9111-.015 3.5491.1494 0 0-1.5502 1.0688-3.3138 1.4495-1.7635.3736-3.2005.1345-4.2495.1417-.0681-.1046-.1442-.2092-.2658-.3288 1.2236.0072 3.2608-.2988 3.9984-.5379-.0006.0012-1.7794-.3724-4.2879.3299z"/><path d="m92.6846 19.8802v.0077.0078l-.0079.0072v.0149l-.0073.0149-.0079.0222v.0227l-.0152.0227-.0073.0299-.0079.0227-.0152.0377-.0152.0299-.0152.0298-.0231.0377-.0152.0377-.0225.0376-.0231.0377-.0304.037-.0304.0449-.0304.0376-.0304.0377-.0384.0448-.0377.0377-.0456.0448-.0456.0377-.0456.037-.0456.0377-.0608.0448-.0529.0299-.0608.0377-.0608.037-.0681.0299c1.5732-.6725 4.6673-1.061 6.3396-1.7484 2.2423-.9116 2.6533-2.0623 2.6533-2.0623-1.946-.0526-3.5272.4185-4.7355.7849-1.4218.4256-3.58 1.2176-4.3401 1.5542.2888.0077.6008.0824.8586.2618 1.0569-.3957 1.5507-.5679 2.5085-.8369.7602-.2092 1.3148-.2469 1.7867-.2917 0 0-.6617.4334-1.7563.7771-1.0958.3401-1.5671.3999-2.4483.5643z"/><path d="m92.808 18.1955v.0078l-.0079.0149-.0079.0149-.0073.0078-.0152.015-.0073.0149-.0079.015-.0073.0149-.0152.0149-.0079.015-.0225.0376-.0231.0377-.0304.0299-.0225.037-.0231.0299-.0073.0228-.0152.0149-.0073.0149-.0152.015-.0079.0149-.0152.015-.0073.0149-.0079.015-.0073.0077-.008.015-.0152.0078-.0073.0149c2.4854-.4113 5.222-2.2565 6.066-3.4072.8514-1.1429.6082-2.8542.6082-2.8542-.821.1643-2.5997 1.6737-3.0631 2.1292-.4561.4483-1.8548 1.786-2.8199 2.5332l-.2968.8518c.821-.6498 1.8019-1.3748 2.4094-1.8303.4786-.3509 1.1707-.8369 1.8779-1.076 0 0-.6464.8219-1.1633 1.2254-.6009.471-1.2163.8745-1.718 1.1435-.4415.2367-.6768.379-1.5738.8046z"/><path d="m92.2055 15.2912v.0376.0449.0448.0376.0449.0448.0526.0449l-.0231.2761c.6008-.7549 1.3227-1.6659 2.0068-2.5105.4786-.5751.8739-.9188 1.3148-1.2033-.3728 1.0682-1.0417 1.9206-1.513 2.339-.4713.4256-1.1555 1.1429-1.8244 1.584l-.0608.2092c-.0608.2021-.1368.4035-.2433.5978-.1593.269-.3648.5308-.6008.792.1904-.0968.4105-.2014.6385-.2911l.2056-.0897c1.8323-.9486 3.6566-2.9361 4.3858-4.3109.7528-1.3826.4408-2.981.2432-3.84059-.8362.69519-2.0372 2.06229-2.5541 2.80229-.6458.9116-1.4668 2.2116-1.9764 3.2655v.0281z"/><path d="m69.2792 26.1906-.076.0747-.076.0747-.0839.0825-.0833.0896-.0912.0897-.0913.0969-.0912.1045-.0912.1047-.0985.1124-.0985.1117-.0912.1196-.0986.1195-.0912.1268-.0985.1344-.0912.1345-.0912.1345-.0833.1423-.0833.1417-.084.1422-.076.1495-.076.1494-.0608.1572-.0608.1495-.0608.1643-.0456.1566-.0457.1573-.0304.1643-.0304.1644-.0152.1644-.0073.1716-.0073.1643.0152.1722s1.4747-.4561 2.0901-1.5243c.6082-1.061.9809-1.7412 1.2394-1.9803-.1672.0227-.3345.0227-.4865 0l-.1368-.0222c-.3801.6725-1.125 1.7784-1.794 2.1597 0 0-.1672-.8966 1.8019-2.7048.0304-.0747.0681-.1566.1216-.2468-.1824.0669-.3801.0968-.616.0896"/><path d="m89.5908 16.1641-.076.1566-.0839.1494-.0833.1566-.0985.1644-.0529.0747-.0536.0819-.0608.0825-.0608.0825-.0608.0819-.0687.0825-.076.0819-.076.0825-.0761.0896-.0833.0825-.0839.0897-.0912.0897-.0991.0896-.0985.0897-.1065.0896-.1137.0969-.1137.0896-.1216.0968-.1216.0969-.129.1046-.1368.0974-.1441.1047-.1521.0968-.152.1046c-.3801.254-.7984.7848-.4792 1.5242.3193.7472.9122 1.7933.5546 2.2045-.3569.4107-1.6267.6199-2.6605.2164 0 0-.2201.6426-.5929 1.0533 0 0 .1824.3508.7753.1715 0 0-.2207.5308.0833 1.0987 0 0 .6921-.1196.9882-.7472 0 0 .2737.4931.8283.6647 0 0 .4634-.2314.3576-1.128 0 0 .3344.7998 1.3755.9343 0 0 .593-.7394-.1824-1.7335 0 0 .5546.4854 1.5659.2541 0 0 .1593-.5081-.7528-1.2104 0 0 1.0338-.0449 1.429-.8967 0 0-.4408-.5302-1.5123-.4112 0 0 .9961-.217 1.2162-1.3826 0 0-.7145-.4483-1.8475.269 0 0 .1977-.3736.6769-.7472.4713-.3569 1.049-1.3958.8513-2.92z"/><path d="m85.4414 27.9299.0304-.0371.0231-.037.0225-.0377.0304-.0377.0231-.037.0225-.0371.0225-.0299.0231-.037.0225-.0377.0152-.0377.0231-.037.0152-.0371.0225-.0298.0152-.0371.0152-.0377.0152-.0376c-.1745 1.4196-.2359 2.376-1.0186 3.2954 0 0-.4712-.6127-.1672-2.1071.1368-.0377.2737-.0968.4184-.1943 0 0-.1745.6055-.0687 1.2176 0 0 .2815-.2026.4944-1.6294z"/><path d="m86.7856 27.779.0152-.0072.0079-.0149.0073-.015.0079-.0071.0152-.015.0073-.0149.0152-.015.008-.0149.0152-.015.0073-.0221.0304-.0298.0225-.0377.0231-.0377.0304-.0371.0225-.037.0231-.0371.0225-.0376.0231-.0299.0225-.0371.0152-.0221.0073-.0149.0079-.015.0079-.0149c.0681.8219.2889 2.9887-.4488 3.669 0 0-.509-.3664-.6841-3.5267.1064.1793.2967.3658.3801.4704 0 0-.1217 1.0012.2432 1.7107 0-.0012.3728-.2779.1447-1.7944z"/><path d="m88.5505 29.4395-.0608-.0675-.053-.0819-.0535-.0897-.0456-.0968-.0529-.0974-.0377-.1046-.0456-.1118-.0383-.1124-.0377-.1195-.0383-.1196-.0304-.1195-.0383-.1267-.0529-.2469-.0305-.1196-.0231-.1195-.0225-.1196-.0152-.1117-.0225-.1118-.0152-.1124-.0152-.1046-.0152-.0969-.0152-.0896-.0079-.0825-.0073-.0819-.0079-.0675-.0073-.0299v-.0299l-.0079-.0299v-.0221-.0227l-.0073-.015v-.0227-.0072-.0149-.0072-.0071c-.0912-.0526-.1745-.1196-.2584-.1871-.0384-.0299-.0761-.0527-.1065-.0897 0 .0819 0 .1644-.0152.2469.0985 1.315.2056 2.6749.6234 3.3545.4104.6653 1.1633 1.009 1.1633 1.009.7066-1.2403-.1441-2.899-.8666-4.0569-.0912-.0299-.1745-.0676-.2663-.1124.2499.8883.7212 1.9415.5315 2.7562z"/><path d="m90.3041 25.6346v.0149.0149.0222.0298.0228l-.0079.0221v.0221.0078.0149l-.0073.0072v.0149.0072.0072l-.0079.0077v.015.0071.0072l-.0073.0078v.0078.0072.0071l-.0079.0078v.0078.0071.0072.0078l-.0073.0077c-.0079.015-.0152.0521-.0304.0897.5929.5607 1.0338 1.113 1.9077 2.3085.8739 1.2027 2.2731 1.2475 2.2731 1.2475-.1368-.9713-.4104-1.7412-1.1554-2.5631-.7376-.8291-1.6948-1.5841-2.3869-2.0844-.1824.0825-.4177.1345-.7145.0974-.0304 0-.0456-.0077-.0681-.0077.0912.1195.152.2391.1824.3514.5242.2989 2.0676 1.0683 2.691 2.3014 0 .0018-.973-.2977-2.6533-2.061z"/><path d="m91.4079 24.4358-.0608-.1118c-.0153-.0299-.0378-.0597-.0609-.0896.5705.217 2.6071.9713 3.2687 1.3072.6616.3366 1.6115 1.0987 2.1284 2.6529 0 0-1.3762.1195-2.5085-.807-1.1329-.9188-2.455-2.2117-3.0254-2.6223.0608-.0449.1064-.0969.1368-.1417 0 0 1.5355 1.3377 3.1623 1.9128 0 0-.3497-.6127-.9961-1.0682-.7754-.5469-1.361-.7263-2.0445-1.0323z"/><path d="m92.571 23.5154-.0079-.0149-.0073-.0222-.0079-.0221-.0153-.0149-.0073-.0221-.0079-.0228-.0072-.0149-.008-.0221c.669.1416 2.3565.3359 3.1088.5607.7449.2241 2.1059.7693 2.9116 2.2792 0 0-1.1858.3587-3.4206-.6725-2.227-1.0311-2.9263-1.2481-3.352-1.3599.3418-.0227.5856-.1344.7066-.2092.8897.3886 2.0749.8518 3.2614.8817 0 0-.5856-.4035-1.2011-.6575-.661-.278-1.3907-.5243-1.9459-.6665z"/><path d="m92.518 22.4245-.0377.0221-.0383.015-.0456.0149-.0383.0228-.0377.0071-.0383.015-.0377.0149-.0377.0078-.0383.0149-.0457.0078-.0377.0078-.0456.0077-.0456.0078-.0225.0078h-.0231-.0304l-.0225.0077h-.0231l-.0304.0078c.152.0974.3041.2242.4409.3886.7832.2241 2.1211.4632 4.3328.6204 2.2118.1644 3.3905-.2391 3.3905-.2391-.7682-.4632-1.9991-.9343-2.828-1.0909-.8282-.1572-3.0101-.1345-3.9679-.269-.0152.015-.1217.1046-.3193.217.8058.0747 2.5237.1495 3.4055.5828-.0006-.0024-1.6274.214-3.7783-.3987z"/><path d="m85.7897 25.0392-.0231-.0299-.0152-.0078-.0152-.0149-.0152-.0149-.0073-.0072-.0152-.0149-.0079-.0078-.0152-.015-.0073-.0149-.0152-.0078-.0079-.0149-.0152-.0078-.0079-.0149-.0152-.0078-.0073-.0149c-.1217.1494-.5017.6204-.6921 1.0909-.1368.3963-.2967.9414-.3649 1.2474-.0833.3216-.304.9636-.4408 1.1878 0 0 .6008.0825 1.049-.4406.4409-.5003.6008-1.0084.6616-1.5314.0535-.4095.0383-.9773-.0225-1.3587z"/><path d="m86.7483 25.1133-.0073.0149-.0152.015-.0079.0077-.0073.015-.0152.0149-.0079.0072-.0073.0072-.0152.0149-.0079.0072-.0073.0071-.008.0078-.0152.015-.0073.0072-.0079.0077h-.0073l-.0079.0078-.0073.0072-.0073.0071-.0079.0078h-.0079l-.0073.0078h-.0073l-.0079.0071-.0073.0072h-.0079v.0072h-.0073-.0079v.0078l-.076.0376-.0912-.0227c-.0687-.0299-.1368-.0597-.2056-.0819-.0839.232-.1216.3515-.1447.5607-.0304.269-.0833.6952.0231 1.0461.1289.4262.3801.6802.5242.8518 0 0 .4026-.4334.509-.7843.1216-.3658.1673-.7992.0152-1.2403-.0754-.2391-.2043-.4561-.3186-.5828z"/><path d="m88.1158 25.1477-.0377-.0077h-.0378l-.0383-.0078-.0377-.0072-.0687-.0149-.0681-.015-.0681-.0221-.0608-.0149-.0608-.0227-.0608-.0222-.0609-.0299-.0529-.0221-.0529-.0299-.0535-.0227-.0456-.0299-.0535-.0298-.0456-.0299-.0377-.0299c-.0529.1345-.1368.3287-.076.5899.0608.269.2511.5757.5242.7849.4032.3216.9499.6199 1.5507.523 0 0 .1435-.4411-1.0575-1.5392z"/><path d="m88.5729 24.4102-.0073.0376-.0079.0377-.0073.0299v.0376l-.0079.0299-.0073.0299-.0152.0377-.0079.0299-.0073.0298-.0079.0228-.0152.0298-.0073.0299-.0079.0228-.0152.0226-.0079.0222-.0152.0227-.0073.0221-.0079.0227-.0152.015-.0073.0149-.0079.0221-.0073.015-.0152.0077-.0079.015-.0073.0149-.0079.0072v.0078l-.0073.0078-.0079.0077v.0078h-.0073v.0078c.1368.1643.6537 1.0233 1.7179.8816 0 0 .2816-.5905-.4257-1.0538-.4786-.324-.7066-.3838-1.0338-.4961z"/><path d="m88.4727 23.6696.0529.0149.0608.015.0608.0077.0608.0078.0608.0078.0608.0078h.0681l.0681.0071h.0681l.0761-.0071h.0687l.076-.0078.0383-.0078h.0456l.0377-.0078.0377-.0077.0383-.0078.0456-.0078.0378-.0077.0383-.015.1216-.0221.0456-.1196c.5394.4412 1.1931.5153 1.4139.9116 0 0-.2737.4932-.9809.4035-.7067-.0825-1.2388-.4035-1.6188-.8739-.0146-.067-.045-.1943-.0827-.2911z"/><path d="m89.7043 23.0585-.0079-.015-.0073-.0149-.0231-.0299-.0152-.0299-.0152-.0376-.0225-.0299-.0152-.0371-.0225-.0376-.0231-.0377-.0152-.0377-.0225-.0448-.0152-.0221-.0152-.0149-.008-.0228-.0152-.0227-.0152-.0221-.0152-.0149-.0152-.0228-.0152-.0221-.0231-.0221-.0152-.0221-.0225-.0227-.0152-.015c.4634-.0825.8891-.0974 1.4364.015.6537.1195 1.3227.269 1.6571 1.2403 0 0-.4257.3587-1.1858.2021-.6385-.1268-1.2083-.4035-1.5276-.859z"/><path d="m89.9785 22.0026.0304-.0298.0304-.0221.0304-.0299.0304-.0299.0304-.0299.0305-.0377.0231-.0299.0304-.0298.0225-.0377.0304-.0377.0231-.0376.0225-.0377.0231-.0448.0225-.0377.0225-.0448.0231-.0448.0529-.1196c.5698-.2242 1.1554-.3437 1.7331-.1345.5778.2164.7298.4633.8739.6725 0 0-.6385.5302-1.3683.5529-.737.0161-1.4211-.1931-1.7173-.4095z"/><path d="m89.8124 20.8522-.0377-.0149-.0225-.0078h-.0152l-.0231-.0072-.0152-.0077-.0225-.0078-.0232-.0078h-.0225l-.0152-.0078-.0225-.0077h-.0231l-.0225-.0078-.0231-.0078h-.0225l-.0231-.0077c.2585-.2164.4938-.5452.616-1.0461.2737.0598.8818.0598 1.1555-.0377.2736-.1046.8057-.1123 1.2235.1644 0 0-.1368.7101-1.0867.9564-.8824.2343-1.2169.1746-1.5744.055z"/><path d="m90.1467 19.4585-.1216-.0825c-.0152-.0072-.2281-.1345-.5856-.1572.304-.2313 1.0265-.8291 1.5355-1.1058.5625-.3061 1.4899-.7245 1.9611-.7849 0 0-.4408 1.1429-.9577 1.6068-.5321.4788-.9043.6581-1.8317.5236z"/><path d="m89.1953 18.9278.0456-.0526.0383-.0598.0377-.0598.0383-.0598.0378-.0675.0377-.0669.0383-.0676.0304-.0747.0304-.0747.0377-.0748.0304-.0747.0304-.0825.0225-.0818.0304-.0825.0231-.0897.0304-.0825c.0985-.3885.3497-1.33.4938-1.584.1441-.2469.6689-1.0981 1.6875-1.3677 0 0 .2664 1.113-.2432 2.0097-.4476.7639-1.3525 1.5708-2.4775 2.0939z"/><path d="m83.5401 24.1428-.0304.0227-.0231.0221-.0225.0228-.0231.0149-.0225.0227-.0231.015-.0225.0227-.0225.0149-.0304.015-.0304.0227-.008.0077-.0152.0078-.0152.0078-.0152.0149-.0225.0078-.0152.0078-.0152.0071-.0152.015-.0225.0078-.0152.0077-.0231.015-.0225.0078s-.3192.6127.0681 1.3449c.3953.7394.7298 1.4943.8891 1.9128 0 0 .2128-.0299.4488-1.1878.1593-.777.3649-.979.5704-1.2403-.2359.1118-.4184.1417-.4336.1417l-.152.0377-.076-.1495c-.1442-.2618-.1825-.5158-.1825-.7251 0-.0747.0079-.1416.0152-.202-.3648.0149-.5698-.1716-.6385-.2612-.0079-.015-.0079-.015-.0231-.0221z"/><path d="m89.8562 26.1906.076.0747.076.0747.0833.0825.0833.0896.0913.0897.0833.0969.0991.1045.0912.1047.0991.1124.0913.1117.0991.1196.0985.1195.0912.1268.0912.1344.0992.1345.0833.1345.0912.1423.0833.1417.0833.1422.076.1495.0681.1494.0688.1572.0608.1495.0529.1643.0529.1566.0383.1573.0377.1643.0304.1644.0152.1644.0073.1716v.1643l-.0073.1722s-1.4826-.4561-2.0901-1.5243c-.6081-1.061-.9809-1.7412-1.2387-1.9803.1593.0227.3265.0227.4865 0l.1368-.0222c.3801.6725 1.1177 1.7784 1.7866 2.1597 0 0 .1746-.8966-1.7939-2.7048-.0304-.0747-.0687-.1566-.1289-.2468.1824.0669.3873.0968.6233.0896"/><path d="m78.4082 11.7505v-.015l.0073-.015.0079-.0077.0073-.0149.0152-.0078.0152-.015.0152-.0077.0225-.015.0231-.0077.0225-.015.0304-.0078.0304-.0077.0304-.015.0377-.0078.0384-.0071.0377-.0078.0383-.0078.0377-.0072.0456-.0077.0456-.0078.0456-.0078.0529-.0071.0456-.0078h.0529l.0535-.0078.0529-.0077h.053.0608l.0529-.0078h.0608.0535.0608c.6385 0 1.1554.1118 1.1554.2468 0 .1268-.5169.2392-1.1554.2392-.6367.003-1.1536-.1088-1.1536-.2355z"/><path d="m74.4785 13.0599v-.0077l.0073-.0078v-.0072l.0073-.0077.0079-.0072.0152-.0078h.0073l.0152-.0078.0152-.0077.0152-.0078h.0152l.0231-.0078.0225-.0077.0152-.0078h.0304l.0232-.0078h.0225l.0304-.0071.0304-.0078h.0225l.0304-.0078h.0377.0304l.0304-.0078h.0383.0304l.0377-.0077h.0383.0377.0304.0456.0377c.4026 0 .745.0597.745.1345 0 .0747-.3424.1267-.745.1267-.4165.0036-.751-.0485-.751-.1232z"/><path d="m79.7924 12.2754v.015.0149.0078.0149l-.0073.0078v.0149l-.0079.0078v.015l-.0079.0077v.0078l-.0072.0078-.0073.0149-.0079.0078-.0073.0077-.0079.0078-.0073.0078-.0079.0078-.0073.0077-.0079.0078-.0073.0078-.0079.0072h-.0073l-.0151.0071-.0079.0078h-.0073l-.0152.0077h-.0079-.0152l-.0073.0072h-.0152-.0078-.0152c-.1215 0-.2278-.0968-.2278-.2313 0-.1124.1063-.217.2278-.217.1287-.0042.2277.1005.2277.2128z"/><path d="m78.3267 11.5142-.0377-.0897-.0304-.0818-.0377-.0747-.0305-.082-.0304-.0747-.0304-.0818-.0383-.0748-.0225-.0675-.0304-.0747-.0304-.0676-.0225-.0675-.0304-.067-.0231-.0675-.0225-.0598-.0225-.0598-.0231-.0597-.0225-.0598-.0152-.052-.0152-.0526-.0231-.0526-.0152-.0448-.0152-.0449-.0073-.0448-.0152-.04486-.0079-.03766-.0073-.03706-.0079-.03765-.0073-.02989-.0073-.02988v-.02991-.02269-.02211c.0073-.1345.1672-.23194.3192-.27677.1594-.04483.2889-.0598.3953.01492.1976.15661.3874 1.36706.4482 1.87576-.191.0376-.3053.0675-.5333.1799z"/><path d="m79.0333 11.317.0152-.0077h.0151.0225.0152l.0383-.0078h.0376.0383.0376l.0759-.0078c-.0686-.4854-.2356-1.2852-.334-1.60615-.099-.32159-.2277-.54515-.4403-.60552 0 0 .167.44114.2581.89663.0911.45724.1518.90504.2205 1.33834z"/><path d="m77.8096 12.937.0456-.0078.0377-.015.0377-.0149.0383-.0149.0377-.015.0456-.0227.0377-.015.0383-.0227.0377-.0227.0304-.0221.0383-.0227.0378-.0227.0304-.0221.0377-.0227.0304-.0222.0304-.0299.0304-.0227.0231-.0221.0304-.0227.0231-.015.0225-.0221.0231-.0221.0225-.0149.0231-.0221.0152-.015.0152-.0078.0073-.0149.0152-.015.0073-.0071h.0079v-.0078c-.6829.0981-.858.5464-.858.5464z"/><path d="m78.4467 12.8979-.0608.0299-.0529.0227-.0535.0299-.0608.0227-.0536.0227-.0529.0221-.0608.015-.0529.0221-.0535.0149-.0529.0078-.0529.0149-.0535.015-.0456.0078-.0529.0071-.0457.0078-.0456.0078h-.0456l-.0377.0077h-.0377l-.0383.0078h-.0377-.0383-.0304-.0231-.0304-.0225-.0152-.0152-.0152-.0079-.0073c.1289-.2319.2511-.4483.616-.7023.3722-.2619.973-.3288 1.2083-.2989-.0541.1775-.2973.5511-.571.7155z"/><path d="m78.3166 13.2031c-.4409.2021-1.8092.2242-2.5468.2618h-.0572-.076-.0572-.076-.076-.0572-.0754l-.0571-.0185h-.076l-.0572-.0185h-.0572l-.0571-.0186-.0572-.0185h-.0572l-.0571-.0185h-.0572l-.0571-.0186h-.0378l-.0571-.0185-.0377-.0185h-.0371l-.0383-.0185-.0377-.0186h-.0189-.0383l-.0188-.0185h-.0189l-.0383-.0185h-.0189c.084 1.584 1.1786 1.6814 1.1786 1.6814-.0152-.1267 0-.3365 0-.3365.3417.3138 1.0453.5416 1.0453.5416-.0079-.1943-.076-.3551-.076-.3551.2968.1716.475.168.475.168-.0304-.2242-.1709-.4854-.1709-.4854.2055.2612.4561.2803.4561.2803.0456-.1267-.0383-.4483-.0383-.4483.1064.1267.304.4633.9121.5978.6234.1267.8934-.2242.8934-.2242-.5929.0377-1.1591-.523-1.1591-.523.3193-.1196.4372-.336.4372-.336-.1903-.1572-.38-.1679-.38-.1679.349-.1596.4366-.4322.4366-.4322zm-2.0907.5978v.0562s-.9499.0035-.9882.4668c-.1521-.0974-.2281-.2762-.2664-.4854 0 0 .6775.0371 1.2546-.0376z"/><path d="m74.136 13.3464.0073.0675.0079.0598.0073.0675.0079.0598.0072.0669.0152.0598.0152.0598.0152.0598.0152.0597.0152.0598.0152.052.023.0526.0152.0526.0231.0526.0225.0449.023.0448s-.4324-.3138-.5387-.59c-.1069-.2773-.1372-.4573.3031-.3299z"/><path d="m72.8631 13.6475c-.1879.0203-.3612.0968-.475.2612-.2207.3216-.1404.9343.323 1.1955 0 0 .6957-.5941 1.5391-.0185 0 0 .1861-.1082.627-.2057v-.0185h-.0189v-.0185l-.0188-.0185-.0189-.0186h-.0188v-.0185l-.0189-.0185-.0188-.0186-.0189-.0185-.0188-.0185-.0189-.0186h-.0201l-.0188-.0376h-.0189l-.0188-.0377h-.0189l-.0188-.0185-.0377-.0185-.0189-.0186-.0188-.0185-.0377-.0185-.0189-.0185-.0188-.0186-.0383-.0185h-.0207l-.0377-.0185-.0189-.0186c-.2584-.1117-.7905-.2689-.9498-.7471-.1223-.0317-.3254-.0598-.5139-.0395zm.3995.6348c.0992 0 .1904.0897.1904.1871v.0186.0185h-.0189v.0185.0185h-.0188v.0186.0185h-.0189v.0185h-.0188v.0186h-.0189-.0188v.0185h-.0207-.0189l-.0188.0185h-.0189c-.0985 0-.1709-.0896-.1709-.1871-.0006-.0956.0718-.1853.1709-.1853z"/><path d="m74.9745 14.9922.0073.0078.0079.0071v.0078h.0073l.008.0149.0072.0078.0153.015.0079.0227.0152.0149.0152.0149.0152.0222.0152.0227.0231.0149.0152.0227.0225.0222.0152.0299.0231.0221.0456.0448.0377.0448.0456.0526.0225.0227.0231.0222.0225.0227.0231.0221.0225.015.0225.0226.0231.015.0225.0221s-1.1402-.0149-1.4211.9564c0 0-.388-.5978-.1065-.9791.3041-.4119.593-.471.9961-.5535z"/><path d="m76.2207 15.2155.0079.0077h.0073.0079l.0073.0078h.0079.0073.0079l.0152.0078.0152.0078h.0152l.0225.0071.0152.0078h.0231l.0152.0078.0231.0078.0378.0071.0383.015.0456.0072.0152.0077.0225.0078.0152.0078h.0225l.0152.0077.0152.0078h.0152l.0152.0078h.0152l.0152.0077s0-.2092-.0073-.306c.1137.0221.2433.0598.3649.0747 0 0 .3648.792.6537 1.113 0 0 .0152.1871-.1441.4483 0 0-.2129-.4632-.5777-.8518-.2062-.2122-.343-.3246-.776-.6234z"/><path d="m75.2539 15.0547h.0079l.0152.0078h.0225l.0152.0077.0231.0072.0225.0078.0304.0077.0231.0072.0304.015.0305.0071.0304.0078.0383.0149.0304.0078.0377.0149.0304.015.0377.015.076.0298.076.0299.076.0299.0681.0299.0377.0227.0384.015.0304.0149.0377.0221.0304.015.0304.0149.0304.0221.0225.0149c.3576.2541.6008.538.5625 1.0383 0 0-.2816-.3957-.6008-.575-.2494-.1351-.7054-.5236-.9414-.8673z"/><path d="m75.2604 11.4258h.0079.0151l.0079.0078h.0152.0073.0152l.0152.0077h.0152.0079l.0151.0078h.0152l.0073.0078h.0152l.0152.0077.0152.0078.0072.0072.0152.0078.0079.0077.0152.0078.0073.0078.0152.0077.0079.0078.0073.0078.0079.0149.0073.0078.0078.0149.0073.0072v.0078.0077l.0079.0072v.0078.0078.0077l.0073.0078v.0078.0077.0078c0 .1716-.2733.5828-.3492.7621-.0759-.1793-.3413-.5899-.3413-.7621 0-.1721.2046-.2241.3109-.2241h.0608z"/><path d="m75.0267 12.763-.0073-.0299-.0079-.0221v-.0299l-.0073-.0299-.008-.0299-.0073-.0299-.0079-.0376v-.0299l-.0073-.0377-.0079-.037-.0152-.0748-.0225-.0747-.0152-.0825-.0152-.0747-.0152-.037-.0079-.0377-.0073-.0299-.0152-.0377-.0073-.0298-.0152-.0299-.0079-.0299-.0152-.0299-.0152-.0299-.0073-.0221-.0152-.0227-.0152-.0227-.0152-.015-.0079-.0149c-.152-.1273-.3649-.1423-.4634-.1345-.1064.0077-.2207.1124-.1745.254.0462.1417.5169.8369.5777.9188.1058-.0138.0827-.0138.3564-.0287z"/><path d="m75.4375 12.763.0073-.0299.0079-.0221v-.0299l.0073-.0299.0079-.0299.0073-.0299.0079-.0376.0073-.0299.0079-.0377.0073-.037.0152-.0748.0152-.0747.0152-.0825.0231-.0747.0073-.037.0079-.0377.0152-.0299.0073-.0377.0152-.0298.0073-.0299.0152-.0299.0079-.0299.0152-.0299.0073-.0221.0152-.0227.0152-.0227.0152-.015.008-.0149c.152-.1273.3569-.1423.4633-.1345.1065.0077.2129.1124.1746.254-.0456.1417-.5169.8369-.5777.9188-.1052-.0138-.09-.0138-.3564-.0287z"/><path d="m75.7407 10.5877h-.3648v-.3963h-.2962v.3963h-.3649v.2541h.3649v.4626h.2962v-.4626h.3648z"/><path d="m71.3106 13.1541v-.0221-.0298-.03-.0298l.0073-.0299v-.0299-.0078-.0149l.0073-.015v-.0149c.0231-.1943.0304-.3658.0079-.5003-.2664.0974-.4488.1644-.8058.7394 0 0 .5778-.3515.7833-.015z"/><path d="m71.8113 14.0657v-.0149l.0079-.0227v-.015-.0149-.0227l.0073-.0222v-.0221l.0073-.0298.0079-.0222v-.0299l.0079-.0227.0073-.0299v-.0299l.0073-.0298.0079-.0377.0079-.0299.0152-.0598.0152-.0675.0225-.0676.0152-.0669.0231-.0675.0225-.0676.0231-.0669.0073-.0299.0152-.0299c.152-.3886.0529-.9564-.1216-1.2924-.1673-.3359-.2664-.6503-.236-.994 0 0-.3417.1124-.5394.2319-.0304.4035.2056.7998.3193 1.024.1295.2689.1064.6127.076.829-.0456.3671.0304.7556.2737 1.1214z"/><path d="m71.8477 11.0135v-.0072-.0077-.0078h-.0079v-.0072-.0078-.0077-.0078-.0078-.0078-.0077-.0078-.0078-.0149-.015-.0149-.0078l.0079-.0078v-.0077-.0078-.0071-.0078-.0078l.0073-.0072v-.0077-.0078l.0073-.0072s.5394-.5152.9882-.6055c.2889-.0598.4634.0675.5546.1345 0 0-.1672-.015-.4031.1793-.2433.1871-.5394.4262-.7754.486-.2189.0562-.2724.0412-.3789.0263z"/><path d="m73.4455 10.3672.0377.0377.0383.0376.0383.0371.0304.0376.0378.0377.0304.0376.0073.015.0152.0221.0152.015.0152.0221.0079.0227.0152.0149.0079.0228.0152.0149.0073.0149.0079.0227.0073.015.0079.0221.0073.015.0079.0221.0073.0149v.0227l.0079.015v.0149.0227.015c-.0079.1871-.2281.6647-.3497.844-.1143.1793-.2815.4184-.2663.7024.0079.1494.1137.2988.2359.4184 0 0-.6616-.1566-.737-.5529-.076-.3587.076-.6127.1824-.8142.0985-.1871.4105-.6204.4786-.7998.076-.1655.1064-.3001.0833-.3897z"/><path d="m77.3076 14.8828.0231.0819.0304.0897.0304.0818.0304.0825.0304.0819.0384.0825.0377.0825.0377.0747.0383.0747.0377.0819.0383.0748.0377.0675.0456.0747.0377.0675.0383.067.0456.0598c.1977.306.3193.8147.3041.9863 0 0 .2961-.6504.1441-1.1059-.1137-.3586-.4403-.8816-1.0259-1.1058z"/><path d="m78.0449 15.0312h.0073.0079.0073.0079.0152.0152l.0152.0078h.0152.0232.0224.0232l.0225.0078h.0231.0225l.0304.0078h.0225l.0304.0077h.0231l.0304.0078.0304.0072.0225.0077.0304.0078h.0225l.0304.015.0231.0077.0304.0072.0225.0077.0231.015.0225.0078.0225.0149.0231.0078c.2737.1793.5322.5607.6313 1.0239 0 0-.464-.0747-.6842-.2989-.228-.2199-.5017-.5558-.6154-.8697z"/><path d="m75.7019 15.8359h-.0079-.0073-.0079-.0152-.0073l-.0152.0072h-.0152-.0073l-.0152.0078h-.0152-.0152l-.0152.0078-.0304.0071-.0304.0078h-.0304l-.0304.0078-.0305.0077-.0304.0078-.0152.0078h-.0152l-.0152.0077h-.0152l-.0073.0078h-.0152-.0152l-.0073.0078s.3874.1118.5777.2618c.1594.1345.3041.3437.3722.6874.0991.4854.388 1.0084.4713 1.1656l.0383-.0071c-.0608-.3366.152-1.024.2129-1.1208 0 0-.312-.1943-.4482-.3885-.1077-.1453-.2828-.3844-.7918-.6905z"/><path d="m77.7107 16.8789.0152.0227.0079.0227.0152.0299.0152.0299.0152.0227.0073.0299.0152.0377.0231.0299.0152.0298.0152.0377.0304.0676.0305.0675.0079.0371.0152.0376.0152.0449.0073.0376.0152.0377.0079.037.0073.0449.0079.0376.0073.0449.0079.0448v.037.0449.0448l-.0079.0448v.0377l-.0073.0448-.0079.0449-.0152.0448c-.1369.4704-.4409.6725-.6386 1.0682 0 0-.152-.7173-.1216-1.2702.0377-.5625.2426-.7718.4938-.9738z"/><path d="m78.5837 16.8906v.0078l.0073.0078v.0077l.0079.0078v.0072l.0073.0077.0079.0072v.0149l.0073.015.0152.0221.0152.0299.0152.0377.0225.0376.0152.0371.0232.0448.0225.0377.0231.0448.0152.052.0225.0449.0231.0448.0304.0526.0456.1046.0383.0974.0225.052.0231.0448.0225.0449.0152.0526.0152.0448.0152.0377.0152.0448.0152.0377.0073.0376.0152.0299c.076.3365 0 .5529-.152.7544-.152.202-.4105.4261-.6537.8446 0 0-.2737-.3587-.3114-.5452-.0304-.1942.0225-.6426.0833-.8296.0608-.1871.2974-.8016.5023-1.4221z"/><path d="m78.8111 19.6367-.0073.0078h-.0079v.0072l-.0073.0077-.0079.0078-.0073.015-.0231.0149-.0152.0221-.0225.0227-.0231.0299-.0225.0227-.0225.0299-.0231.0299-.0304.0377-.0304.0299-.0225.037-.0304.0299-.0608.0747-.0529.067-.0304.0376-.0231.0377-.0304.0376-.0225.0299-.0225.0371-.0232.0299-.0225.0299-.0231.0299-.0225.0298-.0152.0299-.0152.0221-.0079.0222-.0073.0149-.0079.0078v.0077l-.0073.0078c-.0681.1871-.1903.5231-.0304.7622.1746.2391.5394.6204.8666.7848 0 0-.3497-.5452-.3193-.9941.0225-.2911.2506-.5451.2962-.7172.0371-.1734.0067-.4723-.115-.7413z"/><path d="m77.7781 19.293.0073.0077.0079.015.0073.0077.0079.015.0152.0149.0073.015.0079.0149.0073.015.0079.0227.0152.0149.0073.0227.0079.015.0073.0227.0073.0149.0231.0449.0152.0448.0152.0448.0152.0449.0152.0448.0152.0448v.0299l.0073.0227.0079.0222v.0226.0299l.0073.0228c.0152.254-.0225.4632-.1672.844-.1745.4704-.4561 1.0012-.5856 1.2403 0 0-.2512-.3509-.388-.6575 0 0 .388-.523.5473-.8889.1988-.4357.2749-.8392.3509-1.1751z"/><path d="m77.6031 19.0859v.0072l-.0079.0078v.0227.0227l-.0073.0299-.0079.0299-.0073.0448-.0079.0449-.0152.0526-.0073.052-.0152.0598-.0152.0675-.0225.0669-.0152.0676-.0231.0747-.0225.0819-.0304.0747-.0231.0819-.0304.0897-.0377.0819-.0304.0896-.0377.0897-.0384.0897-.0456.0896-.0456.0897-.0535.0896-.0456.0897-.0608.0968-.0535.0897-.0608.0819-.0609.0896-.0681.0897c-.4938.6127-.8969.8297-1.1627.8297-.4032 0-.8058-.3366-.9426-.7102s-.0912-.9635.1673-1.1655c0 0 .2432.7322.7522.7621.585.0304 1.33-.6121 2.0828-1.8525z"/><path d="m77.0029 18.5781.0073.0227v.0222l.0079.0227v.0221l.0152.0448.0073.0526v.052l.0079.0526.0073.0526v.0598.0526.0598l-.0073.0597-.0079.0598v.0598l-.0152.0598-.0073.0598-.0152.0597c-.0609.2391-.2129.5529-.4938.7323-.2512.1494-.8289.1871-1.057-.3587 0-.0012 1.0643.0813 1.5508-1.2487z"/><path d="m78.7426 23.5078.0152.0299.0152.0376.0225.0377.0152.0371.0231.0376.0225.0377.0304.0377.0225.0376.0535.0747.0529.0747.0609.0748.0529.0747.0535.0747.0304.0299.0225.037.0225.0377.0231.0376.0225.03.0231.037.0152.0299.0152.0377.0152.0298.0152.0299.0079.0299.0079.0299v.0299l.0073.0227c-.0152.7621-.3576 1.2254-.433 1.4794 0 0-.616-.4853-.7224-1.0382-.0602-.2864.0006-1.1382.4871-1.5566z"/><path d="m78.0512 24.0431.0079-.0222.0073-.0226.0079-.0222.0152-.0227.0079-.0299.0152-.0221.0073-.0299.0152-.0299.0152-.0299.0152-.037.0152-.0299.0152-.0299.0305-.0675.0383-.067.0377-.0747.0377-.0675.0231-.0299.0152-.0299.0225-.0299.0231-.0299.0225-.0299.0225-.0299.0231-.0299.0225-.0227.0231-.0227.0225-.0221.0231-.0227.0225-.0227s.3424-.9714-.737-1.5691c0 0-.4488.5756-.5625 1.1285-.1217.5458.4713.8745.7449 1.3677z"/><path d="m76.6985 21.5781-.0383.0449-.0377.0376-.0305.0449-.0377.0448-.0383.0371-.0377.0448-.0456.0448-.0383.0377-.0377.0376-.0377.0449-.0231.0149-.0225.015-.0152.0227-.0231.0149-.0152.015-.0225.0149-.0152.0149-.0225.0078-.0152.0149-.0231.015-.0152.0072-.0225.0078s-.0688.4333-.0231.7244c.0535.4262.3344.8668.456 1.1955 0 0 .4713-.6127.5242-.9713.0536-.3587.0456-.6498.0609-.8219 0-.0012-.2585-.4197-.4032-.7108z"/><path d="m75.4436 23.6726-.0152-.0221-.0152-.0227-.0153-.0299-.0152-.0227-.0231-.0377-.0152-.0299-.0225-.0376-.0231-.0371-.0225-.0448-.0231-.0377-.0225-.0448-.0225-.0526-.0231-.0448-.0225-.0526-.0304-.0449-.0231-.052-.0456-.1046-.0456-.1118-.0383-.1123-.0152-.052-.0225-.0526-.0152-.0598-.0153-.0526-.0079-.052-.0152-.0598-.0079-.0526-.0079-.052v-.0526l-.0073-.0526s.5394.2839.9882.0747c0 0 .0535.7024-.0304.9343-.0681.1955-.1593.3078-.3794.4722z"/><path d="m75.5684 23.818.0152-.0078.0079-.0072.0073-.0149.0152-.0078.0079-.0078.0152-.0077.0079-.015.0152-.0077.0152-.015.0073-.0078.0304-.0298.0231-.0228.0304-.0299.0304-.0227.0225-.0299.0304-.0227.0152-.0149.0073-.0072.0152-.0149.0152-.015.0079-.0077.0073-.015.0152-.0077.0079-.015.0073-.0078.0079-.0149s.357.6426.4178.8297c0 0-.1745.0376-.3722-.0969-.1903-.1321-.2438-.1697-.4335-.3562z"/><path d="m77.216 23.4375-.0073.0078v.0077l-.0079.015v.0078l-.0073.0149-.0079.0078-.0073.0149-.0079.015-.0152.0299-.0152.0298-.0231.0371-.0225.0299-.0232.0376-.0225.0449-.0304.0376-.0231.0449-.0304.0376-.0304.0449-.0608.0824-.0608.0897-.0304.0377-.0304.0448-.0225.0371-.0304.0376-.0304.0377-.0231.0376-.0225.0299-.0304.0299-.0152.0299-.0225.0221-.0079.0078-.0073.015-.008.0077-.0073.0078-.0079.0078-.0073.0077-.0079.0078-.0073.0072s.0457.2839.2585.6874c.2128.4112.509.6951.6689.8368 0 0 .3497-.6055.4561-.8667.1216-.306.1064-.6127.0529-.7251-.1216-.2654-.5321-.6462-.7145-.9827z"/><path d="m78.075 25.4883.0073.0299.0152.0221.0152.0299.0152.0227.0225.0299.0152.0299.0231.0227.0152.0299.0225.0299.0231.0376.0457.0598.0383.0669.0456.0598.0456.067.0456.0669.0383.067.0152.0376.0225.0299.0152.0371.0152.0298.0152.0299.0152.0377.0079.0299.0073.037.0152.0299v.0299c.0456.2541.0079.4633-.0608.6426-.076.1716-.304.5153-.4561.7771 0 0-.5242-.4854-.6385-.8291-.0833-.2618-.0529-.6277.076-.8668.1216-.2319.3953-.4781.5169-.7244z"/><path d="m76.5917 25.4219.0152.0299.0152.0298.0152.0221.0152.0299.0152.0299.0152.0227.0377.0521.0383.0597.0377.0526.0456.0526.0378.052.0383.052.0377.0526.0377.0521.0152.0221.0152.0298.0152.0228.0152.0299.0152.0221.0152.0221.0079.0299.0152.0227.0073.0227.0079.0299c.0833.2917.1137.4853-.0304.8368-.1368.3061-.2889.4854-.3424.6725 0 0-.4257-.538-.5017-.7621-.0681-.2319-.0912-.5978-.0073-.8291.0919-.2391.2439-.5457.3503-.7621z"/><path d="m78.6827 27.4844v.0072h-.0079v.0071l-.0073.0078-.0079.0078-.0073.0071-.0073.0072-.0079.015-.0073.0077-.0152.015-.0079.0149-.0152.015-.0225.0298-.0231.0377-.0304.0377-.0305.037-.0304.0448-.0304.0449-.0383.0448-.0304.0526-.0377.052-.0304.0521-.0377.0525-.0304.0521-.0304.0597-.0304.052-.0304.0526-.0304.0598-.0225.052-.0231.052-.0225.0598-.0152.0526-.0231.052-.0073.0448-.008.052-.0072.0222v.0226.0228.0221c.0225.5756.4104.9492.4633 1.3079 0 0 .388-.4256.5321-.7096.1594-.3287.2889-.5977.2433-.9636-.0462-.3658-.1447-.5977-.5248-.9635z"/><path d="m77.3377 27.3906.0073.0149.0152.0228.0152.0227.0152.0221.0152.0221.0152.0299.0152.0299.0152.0299.0231.0299.0152.0299.0152.037.0225.0299.0152.0371.0152.0376.0305.0747.0152.0449.0152.0376.0152.0377.0152.0371.0073.0448.0152.0371.0079.0376.0073.0371.0079.0448.0073.0377v.037.0371.0298.0371l-.0073.0377-.0079.0299c-.0913.3365-.4561.8069-.5777 1.0161 0 0-.2889-.5828-.3497-.8518-.0602-.2683-.0067-.7017.5783-1.2397z"/><path d="m84.6494 13.0599v-.0077l-.0079-.0078v-.0072l-.0073-.0077-.0079-.0072-.0073-.0078h-.0152l-.0152-.0078-.0152-.0077-.0152-.0078h-.0152l-.0231-.0078-.0152-.0077-.0225-.0078h-.0225l-.0304-.0078h-.0231l-.0304-.0071-.0225-.0078h-.0304l-.0304-.0078h-.0304-.0304l-.0377-.0078h-.0304-.0384l-.0304-.0077h-.0383-.0377-.0383-.0377-.0377c-.4105 0-.7449.0597-.7449.1345 0 .0747.3344.1267.7449.1267.4099.0036.7443-.0485.7443-.1232z"/><path d="m79.5705 10.812.0073-.0299.0079-.0377.0079-.0376.0073-.0377.0152-.037.0152-.0377.0152-.0448.0152-.0449.0152-.0448.0152-.0448.0377-.0897.0377-.0968.0383-.0975.0377-.0896.0384-.09746.0152-.04484.0225-.0448.0152-.04484.0079-.04484.0152-.03765.0152-.04484.0073-.03765.0073-.03765.0079-.03769.0073-.03703v-.02991-.02988c0-.2391-.1977-.43336-.4409-.43336-.2433 0-.4409.19426-.4409.43336 0 .30604.3874 1.00838.433 1.33718h.0164z"/><path d="m80.8031 11.5142.0377-.0897.0383-.0818.0304-.0747.0383-.082.0304-.0747.0304-.0818.0304-.0748.0304-.0675.0304-.0747.0231-.0676.0304-.0675.0226-.067.0304-.0675.0231-.0598.0225-.0598.0231-.0597.0152-.0598.0231-.052.0152-.0526.0152-.0526.0152-.0448.0152-.0449.0152-.0448.0073-.04486.0152-.03766.0079-.03706.0073-.03765v-.02989l.0079-.02988v-.02991-.02269-.02211c0-.1345-.1672-.23194-.312-.27677-.1672-.04483-.2967-.0598-.4031.01492-.1977.15661-.3801 1.36706-.4561 1.87576.1976.0376.3192.0675.5394.1799z"/><path d="m80.1044 11.317-.0231-.0077h-.0152-.0225-.0151l-.0383-.0078h-.0377-.0376-.0383l-.0376-.0078h-.0304c.0607-.4854.2277-1.2852.3267-1.60615.1063-.32159.2278-.54515.4404-.60552 0 0-.1592.44114-.2503.89663-.0917.45724-.1603.90504-.221 1.33834z"/><path d="m80.4609 12.3906h.0079v.0078h.0073v.0072h.0079l.0073.0149.0152.015.0152.0077.0153.015.0225.0221.0152.015.0231.0221.0225.0221.0304.0149.0231.0227.0304.0221.0304.0228.0304.0298.0304.0222.0383.0227.0304.0221.0377.0227.0304.0227.0377.0222.0383.0227.0377.0227.0384.0149.0377.0227.0377.015.0456.0149.0383.015.0377.0149.0377.0078c.0006-.0012-.1739-.4495-.8581-.5464z"/><path d="m80.1113 12.1796h.0231.0225l.0304-.0077h.0304.0305.0304l.0304.0077h.0377.0377l.0383.0078h.0377l.0383.0078.0377.0078h.0456l.0377.0077.0456.0072.0383.0149.0456.0078.0457.0078.0383.0149.0456.015.0456.0077.0383.015.0456.0149.0456.015.0377.0221.0377.0149.0456.0228.0383.0221.0377.0149.0304.0299.0378.0221c.3727.2541.4944.4704.6233.7024 0 0-.669.052-1.254-.2839-.2809-.1656-.5242-.5392-.5771-.7186z"/><path d="m80.8234 13.2031s.076.2726.4178.4298c0 0-.1861.0114-.3612.168 0 0 .1137.2163.4177.3359 0 0-.5588.5607-1.159.523 0 0 .2773.3515.8933.2242.616-.1345.7985-.4711.9122-.5978 0 0-.076.321-.0383.4483 0 0 .2621-.0185.4749-.2803 0 0-.1593.2612-.1903.4854 0 0 .1709.0036.4749-.168 0 0-.0681.1608-.076.3551 0 0 .7145-.2278 1.0642-.5416v.0185.0186.0185.0185.0186.0185.0185.0186.0185.0185.0185.0377l-.0188.0185v.0185.0186.0185.0185s1.0946-.0974 1.1779-1.6814c0 0-.7182.2612-1.4632.2241-.7285-.0346-2.0931-.0573-2.5261-.2588zm2.0713.5978c.5777.0747 1.2734.0376 1.2734.0376v.0371h-.0189v.0376l-.0188.0377v.0376l-.0189.0186v.0185.0185l-.0188.0186v.0185.0185h-.0189v.0186l-.0188.0185v.0185l-.0189.0185-.0188.0186v.0185h-.0189l-.0188.0185v.0186h-.0207l-.0189.0185v.0186h-.0188l-.0189.0185-.0188.0185c-.0377-.4632-.9882-.4668-.9882-.4668v-.0544z"/><path d="m84.9987 13.3464-.0079.0675-.0073.0598-.0079.0675-.0073.0598-.0151.0669-.0079.0598-.0152.0598-.0152.0598-.0152.0597-.0152.0598-.0224.052-.0152.0526-.0225.0526-.0152.0526-.0231.0449-.0224.0448s.4324-.3138.5387-.59c.1063-.2773.1293-.4573-.3037-.3299z"/><path d="m85.9174 13.6523-.0383.0186h-.0188-.0189l-.0383.0185h-.0188-.0189c-.1593.4782-.703.6354-.9693.7472-.2816.1345-.551.4483-.551.4483.4409.0974.6465.2056.6465.2056.8434-.575 1.5391.0185 1.5391.0185.4561-.2618.551-.8745.3229-1.1955l-.0377-.0376-.0188-.0371-.0189-.0185-.0383-.0185-.0189-.0186-.0377-.0185-.0188-.0185-.0377-.0186-.0377-.0185-.0189-.0185h-.0377l-.0377-.0186h-.0383l-.0188-.0185h-.0377-.0384-.0377-.0383-.0377-.0377-.0219-.0377-.0377-.0188-.0377-.039zm-.0571.6348h.0188.0189.0188v.0186h.0189.0188v.0185h.0189l.0188.0185v.0186h.0189v.0185h.0189v.0185.0186.0185.0185l.0188.0186c0 .0974-.0912.1871-.1903.1871-.0986 0-.1709-.0897-.1709-.1871.0018-.0957.0742-.1854.1727-.1854z"/><path d="m84.1633 14.9922h-.0079v.0078h-.0073v.0071l-.0079.0078-.0073.0149-.0152.0078-.0073.015-.0152.0227-.0152.0149-.0079.0149-.0225.0222-.0152.0227-.0152.0149-.0231.0227-.0152.0222-.0225.0299-.0152.0221-.0456.0448-.0456.0448-.0377.0526-.0231.0227-.0225.0222-.0231.0227-.0225.0221-.0225.015-.0232.0226-.0225.015-.0231.0221s1.133-.0149 1.4218.9564c0 0 .388-.5978.1064-.9791-.3046-.4119-.5935-.471-.9967-.5535z"/><path d="m82.9175 15.2155h-.0073v.0077h-.0079-.0073-.0079v.0078h-.0073-.0079-.0152l-.0073.0078-.0152.0078h-.0231l-.0152.0071-.0152.0078h-.0231l-.0152.0078-.0225.0078-.0383.0071-.0457.015-.0377.0072-.0225.0077-.0152.0078-.0231.0078h-.0152l-.0225.0077-.0152.0078h-.0152l-.0152.0078h-.0152l-.0079.0077s-.0073-.2092.0079-.306c-.1137.0221-.2511.0598-.3728.0747 0 0-.3569.792-.6458 1.113 0 0-.0152.1871.1441.4483 0 0 .2056-.4632.5777-.8518.2056-.2122.3424-.3246.7754-.6234z"/><path d="m83.8825 15.0547h-.0152l-.0152.0078h-.0152l-.0225.0077-.0232.0072-.0225.0078-.0231.0077-.0304.0072-.0304.015-.0304.0071-.0304.0078-.0304.0149-.0383.0078-.0304.0149-.0383.015-.0377.015-.076.0298-.0761.0299-.0681.0299-.076.0299-.0377.0227-.0304.015-.0383.0149-.0304.0221-.0304.015-.0304.0149-.0304.0221-.0231.0149c-.357.2541-.6009.538-.5698 1.0383 0 0 .2888-.3957.6081-.575.2505-.1351.7066-.5236.9426-.8673z"/><path d="m83.8735 11.4258h-.0079-.0151l-.0073.0078h-.0152-.0079-.0152l-.0152.0077h-.0152-.0072l-.0152.0078h-.0152l-.0073.0078h-.0152l-.0152.0077-.0151.0078-.0079.0072-.0152.0078-.0073.0077-.0152.0078-.0079.0078-.0152.0077-.0073.0078-.0079.0078-.0072.0149-.0079.0078-.0073.0149-.0079.0072v.0078.0077l-.0073.0072v.0078.0078.0077l-.0079.0078v.0078.0077.0078c0 .1716.2733.5828.3492.7621.0759-.1793.3413-.5899.3413-.7621 0-.1721-.2052-.2241-.3188-.2241h-.0529z"/><path d="m84.1094 12.763.0073-.0299v-.0221l.0073-.0299.0079-.0299v-.0299l.0073-.0299.0079-.0376.0073-.0299.0079-.0377.0073-.037.0152-.0748.0152-.0747.0152-.0825.0231-.0747.0073-.037.0152-.0377.0079-.0299.0073-.0377.0152-.0298.0079-.0299.0152-.0299.0152-.0299.0079-.0299.0152-.0221.0152-.0227.0073-.0227.0152-.015.0152-.0149c.1442-.1273.3576-.1423.464-.1345.1064.0077.2129.1124.1746.254-.0457.1417-.5169.8369-.5778.9188-.1064-.0138-.0912-.0138-.3569-.0287z"/><path d="m83.693 12.763v-.0299l-.0073-.0221-.0079-.0299-.0073-.0299v-.0299l-.0079-.0299-.0073-.0376-.0079-.0299-.0073-.0377-.0079-.037-.0152-.0748-.0152-.0747-.0225-.0825-.0153-.0747-.0152-.037-.0073-.0377-.0079-.0299-.0152-.0377-.0073-.0298-.0152-.0299-.0079-.0299-.0152-.0299-.0152-.0299-.0073-.0221-.0152-.0227-.0152-.0227-.0079-.015-.0152-.0149c-.1441-.1273-.3497-.1423-.4634-.1345-.0985.0077-.2128.1124-.1672.254.0377.1417.509.8369.5777.9188.1058-.0138.0833-.0138.3491-.0287z"/><path d="m83.3945 10.5877h.357v-.3963h.3041v.3963h.3648v.2541h-.3648v.4626h-.3041v-.4626h-.357z"/><path d="m78.9941 8.23949h.3728v-.39574h.2889v.39574h.3721v.25404h-.3721v.46323h-.2889v-.46323h-.3728z"/><path d="m87.8267 13.1541v-.0221-.0298l-.0073-.03v-.0298-.0299-.015-.0149l-.0079-.0078v-.0149-.015-.0149c-.0304-.1943-.0377-.3658-.0152-.5003.2664.0974.4488.1644.8058.7394 0 0-.5777-.3515-.7754-.015z"/><path d="m87.3264 14.0657-.0073-.0149v-.0227-.015-.0149l-.0073-.0227v-.0222l-.0079-.0221v-.0298l-.0073-.0222v-.0299l-.0079-.0227-.0073-.0299-.0079-.0299-.0073-.0298-.0079-.0377-.0073-.0299-.0152-.0598-.0152-.0675-.0152-.0676-.0231-.0669-.0152-.0675-.0225-.0676-.0225-.0669-.0079-.0299-.0152-.0299c-.1441-.3886-.0608-.9564.1137-1.2924.1745-.3359.2737-.6503.236-.994 0 0 .3496.1124.5394.2319.0304.4035-.2056.7998-.3114 1.024-.1368.2689-.1143.6127-.076.829.045.3671-.031.7556-.2743 1.1214z"/><path d="m87.289 11.0135v-.0072-.0077-.0078-.0072-.0078-.0077-.0078-.0078-.0078-.0077-.0078-.0078-.0149-.015-.0149-.0078-.0078l-.0073-.0077v-.0078-.0071-.0078-.0078-.0072l-.0079-.0077v-.0078-.0072s-.5473-.5152-.9961-.6055c-.2816-.0598-.4634.0675-.5394.1345 0 0 .152-.015.3953.1793.2432.1871.5394.4262.768.486.2275.0562.2731.0412.3874.0263z"/><path d="m85.6842 10.3672-.0383.0377-.0377.0376-.0304.0371-.0377.0376-.0304.0377-.0304.0376-.0152.015-.0152.0221-.0152.015-.0079.0221-.0152.0227-.0152.0149-.008.0228-.0073.0149-.0152.0149-.0079.0227-.0073.015-.0079.0221-.0073.015v.0221l-.0079.0149-.0073.0227v.015.0149.0227.015c0 .1871.2281.6647.3418.844.1143.1793.2968.4184.2737.7024-.0152.1494-.1138.2988-.236.4184 0 0 .6616-.1566.737-.5529.0761-.3587-.0833-.6127-.1903-.8142-.0985-.1871-.4026-.6204-.4786-.7998-.0675-.1655-.1052-.3001-.0827-.3897z"/><path d="m81.8297 14.8828-.0304.0819-.0304.0897-.0232.0818-.0377.0825-.0304.0819-.0304.0825-.0377.0825-.0383.0747-.0377.0747-.0383.0819-.0377.0748-.0456.0675-.0377.0747-.0383.0675-.0456.067-.0377.0598c-.2056.306-.3345.8147-.3041.9863 0 0-.3041-.6504-.152-1.1059.121-.3586.4403-.8816 1.0332-1.1058z"/><path d="m81.0866 15.0312h-.0079-.0073-.0079-.0073-.0079-.0152l-.0152.0078h-.0225-.0153-.0231-.0225l-.0231.0078h-.0225-.0304l-.0225.0078h-.0304l-.0231.0077h-.0304l-.0225.0078-.0304.0072-.0304.0077-.0225.0078h-.0304l-.0304.015-.0231.0077-.0225.0072-.0304.0077-.0225.015-.0231.0078-.0225.0149-.0232.0078c-.2663.1793-.5321.5607-.6233 1.0239 0 0 .4561-.0747.6842-.2989.2195-.2199.501-.5558.6075-.8697z"/><path d="m83.4337 15.8359h.0073.0152.0079.0073.0152l.0079.0072h.0152.0073l.0152.0078h.0152.0152l.0152.0078h.0152l.0152.0071.0304.0078h.0304l.0304.0078.0304.0077.0304.0078.0153.0078h.0152l.0152.0077h.0152l.0079.0078h.0152.0073l.0152.0078s-.3874.1118-.5857.2618c-.1593.1345-.304.3437-.3648.6874-.0985.4854-.3874 1.0084-.4786 1.1656l-.0304-.0071c.0529-.3366-.1593-1.024-.2129-1.1208 0 0 .3041-.1943.4482-.3885.0998-.1453.2822-.3844.7912-.6905z"/><path d="m81.4276 16.8789-.0152.0227-.0073.0227-.0152.0299-.0152.0299-.0152.0227-.0152.0299-.0152.0377-.0153.0299-.0152.0298-.0152.0377-.0304.0676-.0304.0675-.0152.0371-.0152.0376-.0152.0449-.0073.0376-.0152.0377-.0079.037-.0073.0449-.0079.0376-.0073.0449-.0079.0448v.037.0449.0448.0448.0377l.0079.0448.0152.0449.0073.0448c.1441.4704.4561.6725.6537 1.0682 0 0 .1521-.7173.1138-1.2702-.0304-.5625-.2354-.7718-.4865-.9738z"/><path d="m79.5725 18.186v-.0149-.0078l.0073-.0299.0152-.0299.0073-.0376.0225-.0299.0152-.0377.0231-.0377.0225-.0376.0231-.0449.0225-.037.0304-.0448.0304-.0449.0305-.0448.0225-.0448.0608-.0897.0608-.0897.0304-.0448.0304-.0526.0225-.0448.0304-.0448.0231-.0449.0225-.0448.0225-.0448.0152-.0371.0152-.0448.0152-.0377.0079-.0448.0073-.0371v-.0376-.0299c-.0377-.3587-.5169-.6127-.6385-.6653h-.0073c-.1216.0526-.6081.3066-.6385.6653-.0304.3586.616 1.0233.6312 1.2923h.0164z"/><path d="m80.5529 16.8906-.0073.0078v.0078.0077l-.0079.0078-.0079.0072v.0077l-.0073.0072-.0073.0149-.0079.015-.0073.0221-.0152.0299-.0231.0377-.0152.0376-.0225.0371-.0152.0448-.0231.0377-.0225.0448-.0231.052-.0226.0449-.0225.0448-.0231.0526-.0456.1046-.0456.0974-.0225.052-.0152.0448-.0225.0449-.0152.0526-.0231.0448-.0152.0377-.0152.0448-.0073.0377-.0152.0376-.0079.0299c-.076.3365-.0073.5529.1447.7544.1594.202.4178.4261.6538.8446 0 0 .2809-.3587.3113-.5452.0304-.1942-.0152-.6426-.0833-.8296-.0541-.1889-.2901-.8016-.495-1.4221z"/><path d="m79.5714 20.2177.0377-.0377.0383-.0376.0377-.0371.0304-.0377.0383-.0376.0304-.0377.0377-.0376.0304-.0449.0225-.037.0304-.0377.0079-.0221.0152-.0149.0152-.0227.0073-.015.0073-.0221.0152-.015.0073-.0149.0073-.0227.0079-.015.0073-.0149.0079-.0149.0073-.015c.0535-.1572.0687-.3814-.0681-.5529-.1593-.2021-.3649-.4334-.3801-.6199h-.0152c-.0073.1871-.2128.4184-.38.6199-.1369.1715-.1217.3957-.0608.5529.0608.1495.2432.4113.4487.59h.0086z"/><path d="m80.325 19.6367.0073.0078.0073.0072.0079.0077.0079.0078.0073.015.0152.0149.0152.0221.0225.0227.0231.0299.0225.0227.0232.0299.0304.0299.0225.0377.0304.0299.0304.037.0225.0299.0608.0747.0535.067.0304.0376.0304.0377.0231.0376.0225.0299.0304.0371.0231.0299.0225.0299.0152.0299.0225.0298.0152.0299.0152.0221.0152.0222.008.0149v.0078l.0073.0077v.0078c.076.1871.1903.5231.0304.7622-.1594.2391-.5394.6204-.8666.7848 0 0 .3576-.5452.3193-.9941-.0232-.2911-.2433-.5451-.2889-.7172-.045-.1734-.0146-.4723.1149-.7413z"/><path d="m81.3509 19.293-.0073.0077-.0079.015-.0073.0077-.0079.015-.0073.0149-.0152.015-.0079.0149-.0073.015-.0073.0227-.0079.0149-.0152.0227-.0073.015-.0079.0227-.0073.0149-.0231.0449-.0152.0448-.0152.0448-.0152.0449-.0152.0448-.0153.0448-.0072.0299v.0227l-.008.0222v.0226l-.0073.0299v.0228c-.0152.254.0305.4632.1746.844.1745.4704.4482 1.0012.5856 1.2403 0 0 .2432-.3509.3801-.6575 0 0-.388-.523-.5546-.8889-.191-.4357-.267-.8392-.343-1.1751z"/><path d="m81.5342 19.0859v.0072.0078l.0073.0227v.0227l.0079.0299.0073.0299.0079.0448.0073.0449.0079.0526.0152.052.0152.0598.0152.0675.0152.0669.0225.0676.0225.0747.0231.0819.0225.0747.0304.0819.0304.0897.0304.0819.0377.0896.0383.0897.0377.0897.0457.0896.0456.0897.0456.0896.0529.0897.0535.0968.0608.0897.0608.0819.0608.0896.0681.0897c.4944.6127.897.8297 1.1634.8297.4026 0 .8057-.3366.9426-.7102.1295-.3736.0912-.9635-.1673-1.1655 0 0-.2432.7322-.7601.7621-.5765.0304-1.3294-.6121-2.0743-1.8525z"/><path d="m82.1336 18.5781-.0079.0227-.0073.0222v.0227l-.0079.0221-.0073.0227v.0227l-.0079.0526-.0073.052-.0079.0526v.0526.0598.0526.0598.0597l.0079.0598.0073.0598.0079.0598.0152.0597.0152.0598c.0608.2391.2055.5529.4938.7323.2432.1494.8282.187 1.049-.3587 0-.0018-1.0642.0807-1.5428-1.2493z"/><path d="m79.5649 22.2037.0304-.015.0225-.0149.0304-.0078.0225-.0149.0304-.015.0231-.0149.0152-.0078.0152-.0149.0152-.0078.0079-.0078.0152-.0149.0152-.0078.0152-.0149.0152-.0078.0152-.0149.0152-.015.0073-.0149.0152-.015.0152-.0149.0152-.0221.0153-.015.0152-.0227.0152-.0149.0152-.0221.0152-.0228.0225-.0298c.1289-.2015.2584-.5751.1897-.8441-.0912-.3287-.281-.4632-.3874-.6724-.0833.0819-.1368.1416-.2511.2092h-.0073c-.1064-.067-.1673-.1267-.2585-.2092-.1137.2092-.2888.3437-.3801.6724-.0681.269.0536.6426.1904.8441.1672.2707.2968.3156.4488.3903z"/><path d="m79.565 24.2596.0073-.0299.0152-.0299.0152-.0376.0152-.0377.0225-.0377.0232-.0376.0225-.0371.0304-.0376.0304-.0449.0304-.0448.0304-.0377.0304-.0448.0608-.0896.0681-.0897.0608-.0897.0304-.0448.0304-.0448.0304-.0449.0225-.0376.0231-.0449.0225-.0448.0225-.037.0153-.0449.0152-.0376.0152-.0377.0079-.037v-.0377-.0149-.015-.0149-.015c-.0986-.5152-.4336-.4112-.6921-.6204h-.0073c-.2584.2092-.6008.1046-.692.6204-.0669.3312.6172.9588.6932 1.2798z"/><path d="m80.3867 23.5078-.0073.0299-.0225.0376-.0152.0377-.0225.0371-.0225.0376-.0231.0377-.0225.0377-.0231.0376-.0529.0747-.0608.0747-.0529.0748-.0608.0747-.0529.0747-.0231.0299-.0304.037-.0225.0377-.0231.0376-.0225.03-.0152.037-.0225.0299-.0152.0377-.0153.0298-.0079.0299-.0073.0299-.0079.0299-.0073.0299v.0227c.0152.7621.3497 1.2254.4257 1.4794 0 0 .6233-.4853.7298-1.0382.0583-.2864-.0098-1.1382-.4963-1.5566z"/><path d="m81.085 24.0431-.0079-.0222-.0073-.0226-.008-.0222-.0152-.0227-.0072-.0299-.0153-.0221-.0079-.0299-.0152-.0299-.0152-.0299-.0152-.037-.0152-.0299-.0152-.0299-.0304-.0675-.0377-.067-.0377-.0747-.0383-.0675-.0225-.0299-.0231-.0299-.0225-.0299-.0225-.0299-.0231-.0299-.0225-.0299-.0231-.0299-.0225-.0227-.0231-.0227-.0225-.0221-.0225-.0227-.0304-.0227s-.3345-.9714.7449-1.5691c0 0 .4482.5756.5704 1.1285.1204.5458-.4725.8745-.7461 1.3677z"/><path d="m82.4384 21.5781.0304.0449.0377.0376.0384.0449.0377.0448.0377.0371.0383.0448.0377.0448.0383.0377.0456.0376.0377.0449.0152.0149.0225.015.0231.0227.0152.0149.0225.015.0152.0149.0231.0149.0152.0078.0225.0149.0152.015.0225.0072.0152.0078s.0688.4333.0304.7244c-.0529.4262-.3417.8668-.456 1.1955 0 0-.4786-.6127-.5242-.9713-.0609-.3587-.053-.6498-.0682-.8219.0007-.0012.2664-.4197.4111-.7108z"/><path d="m83.6848 23.6726.0153-.0221.0152-.0227.0152-.0299.0225-.0227.0152-.0377.0225-.0299.0231-.0376.0152-.0371.0225-.0448.0231-.0377.0225-.0448.0304-.0526.0225-.0448.0231-.0526.0225-.0449.0231-.052.0456-.1046.0456-.1118.0377-.1123.0225-.052.0152-.0526.0152-.0598.0152-.0526.0152-.052.0079-.0598.0073-.0526.0079-.052v-.0526-.0526s-.5321.2839-.9729.0747c0 0-.0609.7024.0231.9343.0687.1955.1678.3078.3806.4722z"/><path d="m83.5645 23.818-.008-.0078-.0072-.0072-.0153-.0149-.0072-.0078-.0153-.0078-.0079-.0077-.0152-.015-.0073-.0077-.0152-.015-.0152-.0078-.0079-.0149-.0152-.0149-.0304-.0228-.0304-.0299-.0225-.0227-.0304-.0299-.0225-.0227-.0152-.0149-.0152-.0072-.0079-.0149-.0152-.015-.0152-.0077-.0073-.015-.0079-.0077-.0152-.015-.0073-.0078-.0079-.0149s-.3497.6426-.4105.8297c0 0 .1745.0376.3649-.0969.197-.1321.2426-.1697.433-.3562z"/><path d="m81.921 23.4375.0079.0078v.0077l.0073.015v.0078l.0079.0149.0073.0078v.0149l.0079.015.0152.0299.0225.0298.0152.0371.0231.0299.0225.0376.0304.0449.0225.0376.0304.0449.0305.0376.0231.0449.0608.0824.0608.0897.0304.0377.0304.0448.0304.0371.0225.0376.0304.0377.0231.0376.0304.0299.0225.0299.0231.0299.0152.0221.0073.0078.0152.015.0079.0077.0073.0078.0073.0078v.0077l.0079.0078.0073.0072s-.0456.2839-.2505.6874c-.2208.4112-.5096.6951-.6689.8368 0 0-.3497-.6055-.4561-.8667-.1216-.306-.1144-.6127-.0535-.7251.1143-.2654.5248-.6462.7151-.9827z"/><path d="m79.5714 28.0799.0073-.0227.0079-.0221.0079-.0222.0073-.0227.0152-.0149.0073-.0221.0152-.0228.0152-.0227.0152-.0221.0152-.0227.0231-.0299.0152-.0227.0377-.0448.0378-.0526.0383-.052.0456-.052.0377-.0598.0377-.0598.0231-.0299.0152-.0298.0225-.03.0152-.0298.0152-.0299.0152-.0371.0152-.0299.0152-.037c.076-.2164.076-.4782-.0152-.6576-.0985-.202-.4713-.7101-.5169-.8517-.0456.1422-.4105.6503-.5169.8517-.0912.1794-.0912.4406-.0079.6576.1368.3736.464.6276.5169.844z"/><path d="m81.0547 25.4883-.0079.0299-.0152.0221-.0152.0299-.0152.0227-.0152.0299-.0225.0299-.0152.0227-.0232.0299-.0225.0299-.0225.0376-.0383.0598-.0456.0669-.0456.0598-.0456.067-.0383.0669-.0377.067-.0231.0376-.0152.0299-.0152.0371-.0225.0298-.0073.0299-.0152.0377-.0152.0299-.0079.037-.0073.0299-.0079.0299c-.0456.2541 0 .4633.0608.6426.076.1716.304.5153.4561.7771 0 0 .5242-.4854.6385-.8291.0833-.2618.0608-.6277-.0681-.8668-.1295-.2319-.4032-.4781-.5248-.7244z"/><path d="m82.545 25.4219-.0152.0299-.0152.0298-.0152.0221-.0152.0299-.0152.0299-.0152.0227-.0377.0521-.0383.0597-.0456.0526-.0377.0526-.0456.052-.0377.052-.0384.0526-.0377.0521-.0152.0221-.0152.0298-.0152.0228-.0152.0299-.0152.0221-.0152.0221-.0073.0299-.0079.0227-.0152.0227-.0073.0299c-.0839.2917-.1064.4853.0377.8368.1289.3061.2889.4854.3424.6725 0 0 .4257-.538.4938-.7621.076-.2319.0985-.5978.0073-.8291-.0839-.2391-.236-.5457-.3424-.7621z"/><path d="m79.5665 32.2258.0073-.0299.0073-.0298.0079-.0299.0152-.0371.0152-.037.0152-.0377.0152-.0448.0225-.052.0231-.0449.0225-.0526.0231-.052.0225-.0598.0304-.0597.0225-.0598.0304-.0598.0231-.0669.0304-.0598.0304-.0669.0225-.0748.0231-.0669.0304-.0747.0232-.0747.0225-.0748.0231-.0747.0225-.0747.0152-.0747.0152-.0825.0152-.0747.0152-.0825.0079-.0819.0073-.0747v-.0819c.0225-.4334-.3801-1.1208-.6008-1.3749h-.0152c-.2208.2541-.6082.9415-.6009 1.3749.0317.8577.5863 1.6796.6094 1.9486z"/><path d="m80.4537 27.4844v.0072h.0073v.0071l.0079.0078.0073.0078.0079.0071.0073.0072.0079.015.0073.0077.0152.015.0073.0149.0079.015.0304.0298.0225.0377.0304.0377.0304.037.0304.0448.0304.0449.0377.0448.0304.0526.0304.052.0383.0521.0304.0525.0377.0521.0305.0597.0304.052.0304.0526.0225.0598.0304.052.0231.052.0225.0598.0152.0526.0152.052.0152.0448.0073.052v.0222.0226.0228.0221c-.0152.5756-.4026.9492-.4634 1.3079 0 0-.3801-.4256-.5242-.7096-.1672-.3287-.2968-.5977-.2433-.9636.039-.3658.1381-.5977.5255-.9635z"/><path d="m81.7989 27.3906-.0152.0149-.0079.0228-.0152.0227-.0152.0221-.0152.0221-.0152.0299-.0152.0299-.0225.0299-.0152.0299-.0152.0299-.0152.037-.0225.0299-.0152.0371-.0152.0376-.0383.0747-.0152.0449-.0152.0376-.0152.0377-.0073.0371-.0152.0448-.0073.0371-.0152.0376-.0079.0371-.0073.0448v.0377l-.0079.037v.0371.0298l.0079.0371v.0377l.0152.0299c.0833.3365.4481.8069.5698 1.0161 0 0 .2888-.5828.3569-.8518.0609-.2683.0073-.7017-.5777-1.2397z"/><path d="m80.0671 33.6145.0079-.0598.0073-.0598.0079-.0597.0073-.0598.0152-.0598.0079-.0526.0152-.052.0152-.0526.0232-.0526.0152-.052.0152-.0448.0225-.052.0231-.0449.0152-.0448.0456-.0897.0377-.0825.0456-.0818.0377-.0748.0383-.0747.0152-.0376.0152-.0377.0152-.037.0152-.0371.0152-.0299.0073-.0371.0073-.0298.0079-.03c.076-.3885.0529-.7549-.2584-1.2032-.2433.8297-.5169 1.4346-.7225 1.853-.0079.015-.0152.0221-.0225.0371 0-.015-.0079-.0227-.0152-.0371-.2128-.4184-.4865-1.0239-.7297-1.853-.3041.4483-.3345.8141-.2585 1.2032.0687.3438.4561.7544.5017 1.4269.0456.6802-.7297.9343-.7297.9343.2663.0896.5625.1345 1.0338-.3061.0833-.0825.152-.1644.1976-.2618.0529.0968.1217.1793.1977.2618.4786.4406.7753.3957 1.0338.3061 0 0-.7681-.2541-.7298-.9343z"/><path d="m77.6268 29.125.0079.0221.0152.0299.0073.0227.0079.0299.0152.0299.0152.0299.0073.0299.0152.0299.0225.0598.0304.0597.0304.0676.0231.0597.0304.0676.0152.0299.0073.0299.0152.0221.0152.0299.0073.0298.0079.0228.0152.0298.0073.0228.0079.0221.0073.0149.0079.0222.0073.0149v.0227l.0079.0072c.0608.269-.0231.5977-.5169.9414 0 0-.3192-.2241-.4482-.5152-.1216-.269-.0456-.4633.0761-.5978.1216-.15.4183-.4716.5321-.688z"/><path d="m78.6746 30.125v.0149.0228.0149l-.0073.0299v.0227.0299l-.0079.037v.0299l-.0073.0371-.0073.0376-.0079.0449-.0073.0448-.0079.0448-.0073.0449-.0079.0448-.0073.0448-.0231.0969-.0225.0968-.0304.1046-.0152.0449-.0079.0448-.0225.052-.0152.0448-.0152.0448-.0152.0449-.0225.0448-.0153.0371-.0231.0376-.0152.0371c-.3113.5308-.7674.9343-1.1706.9343-.3649 0-.4409-.2164-.6306-.3061 0 0 .0912-.4632.509-.5828.509-.1566 1.2916-.7543 1.6109-1.3222z"/><path d="m77.3453 31.0992-.0152-.015-.0152-.0072-.0304-.0227-.0152-.0149-.0152-.0078-.0231-.0149-.0152-.0072-.0152-.015-.0152-.0149-.0073-.0072-.0079-.0078-.0073-.0077-.0079-.0072-.0152-.0072-.0079-.0077-.0073-.0078-.0079-.0072-.0073-.0149-.0152-.0078-.0079-.0072-.0073-.0149s-.388.1417-.7225.3586c-.3192.217-.6385.5829-.8057.77 0 0 .4786.1195.7905-.015 0 0 .1138-.4555.4561-.6575.0839-.0454.3199-.1202.5479-.2319z"/><path d="m76.9342 30.7116-.0079-.0072-.0073-.0149-.0079-.0078-.0073-.0149-.008-.0149-.0073-.015-.0079-.015-.0073-.0149-.0079-.0149-.0152-.015-.0073-.0227-.0079-.015-.0073-.0149-.0079-.0221-.0073-.0221-.0079-.015-.0152-.0221-.0073-.0227v-.0227l-.0079-.0221-.0073-.0221-.0073-.0228-.0079-.0298v-.0222l-.0073-.0221v-.0298-.03l-.0079-.0227v-.0298-.03l.0079-.0298v-.0299s-.6841.4262-.8897.5828c-.2055.1644-.6306.5978-.7297.74 0 0 .5169-.1124.9195-.2391.4336-.1429.7297-.3371.8897-.4268z"/><path d="m75.7794 31.4375-.0304.015-.0383.0071-.0456.015-.0377.0149-.0456.0078-.0456.0149-.0529.0072-.0456.015-.0529.0149-.0536.0078-.1064.0221-.1064.0299-.1137.0227-.1064.0221-.1138.0221-.1064.0227-.0456.0072-.0529.0149-.0456.0072-.0529.015-.0456.0077-.0383.0072-.0456.015-.0377.0077-.0377.0078-.0305.0149c-.3496.1046-.6008.269-.9273.6277 0 0 .5017.1345.7753.2241 0 0 .433-.2917.9043-.4632.3101-.119.4543-.4406.7814-.7544z"/><path d="m75.0103 33.8354.0152-.0149.0152-.015.0152-.0221.0152-.015.0079-.0077.0073-.015.0073-.0077.0079-.0078v-.015l.0073-.0077.0079-.015.0073-.0071v-.015l.0079-.0072v-.0149-.0149l.0073-.0072v-.015-.0149-.015-.0149-.0149-.015l-.0073-.0149v-.015l-.0079-.0227v-.0149l-.0073-.0228c-.0535-.1416-.3576-.3066-.5394-.3885-.2968-.1416-1.1171-.3586-1.3835-.4405 0 0-.1368.1566-.2049.3216-.0383.0669.0073.1267.1216.1416.236.0449.7833-.0597.9195.0299.1441.0897.0912.2164.0912.3366 0 0 .2512-.1495.4105-.1118.2201.0442.357.1488.4786.5003z"/><path d="m74.2812 32.7106h.008.0073l.0073.0077h.0079l.0152.0072h.0152l.0152.0072.0152.0078h.0152l.0152.0078.0225.0071.0152.0072.0231.0078.0225.0077.0231.0072.0225.0149.0225.0078.0231.0072.0304.0149.0225.0078.0304.015.0225.0149.0304.0078.0304.0149.0231.015.0304.0149.0305.0149.0304.015.0225.0149.0304.0221.0304.015.0304.0149s.1368-.052.2055-.1793c.0681-.1195.3497-.5308.6081-.5828 0 0-.2207-.015-.3496-.0598 0 0-.2585.067-.4561.1494-.1891.067-.4251.1865-.6988.3659z"/><path d="m76.4027 32.1953h-.0079l-.0152.0072-.008.0078h-.0073-.0079l-.0073.0077h-.0079-.0073l-.0079.0072h-.0073-.0079l-.0073.0072h-.0079-.0152l-.0073.0078h-.0152-.0079l-.0073.0077h-.0152-.0152-.0079l-.0152.0072h-.0152-.0152-.0152l-.0152.0072h-.0152-.0152-.0231s-.7219.4931-.8058.9791c-.076.4256.1521.6276.2585.6802.1137.0598.616.2541.9426-.4035 0 0-.5546.1794-.7146-.0819-.1441-.269.0985-.6575.2512-.7621.2055-.1494.5625-.254.7826-.2092 0 0-.1818-.165-.3867-.2696z"/><path d="m71.666 37.8373.0304-.1345.0377-.1345.0383-.1417.0152-.0669.0225-.067.0225-.0675.0232-.0747.0231-.067.0225-.0669.0304-.0669.0225-.0676.0304-.0675.0304-.067c.3265-.6802 1.1329-2.4956 2.8046-2.8094.1521-.0371-.1824-.4184-.3344-.3963-.1521.0149-.4482.2092-.5778.2917 0 0 0-.3885-.0079-.4555 0-.0669-.0608-.0969-.1289-.0969-.0608.0072-.4713 0-.5929.1495-.388.4334-1.0265 1.599-1.3914 2.4657-.3648.8667-.616 1.1358-1.0034 1.0013-.38-.1345-.6081-.5679-1.2843-.4334-.2281.0448-.4865.202-.6921.4262.0609.1046.129.2391.4409.2391.3114 0 .9195.1267 1.2467.3514.3363.229.6853.3115 1.1718.3563z"/><path d="m78.3414 32.2188.0079.0519.0073.052.0152.0526.0152.0521.0152.052.0231.0526.0152.0448.0225.0526.0225.0526.0232.052.0225.0526.0304.0448.0231.052.0304.0526.0225.052.0304.052s-.5017 2.3086-2.3486 2.4807c0 0 .0377-.4782.5777-.8369.5473-.3664 1.3683-.9342 1.3075-1.7932 0 0-.152.0299-.4105.3515-.2584.3216-.8362 1.2553-1.7179 1.2624 0 0 .1289-.4405.5242-.6874.388-.254.8896-.575 1.1177-.9636.228-.3807.464-.56.6233-.6347z"/><path d="m77.4658 40.6305 1.125 1.5464.8514-1.4866-.304-.538c-.2208.3958-.464.8148-.593 1.0539-.0985-.1495-.38-.538-.7522-1.0539z"/><path d="m77.1841 39.3252-.2049-.2839-.2129-.2912-.2128-.2917-.2129-.2911-.2128-.2917-.2056-.2839-.0985-.1345-.0991-.1345-.0985-.1345-.0912-.1267-.0912-.1273-.084-.1196-.0833-.1195-.0839-.1118-.076-.1046-.076-.0974-.0681-.0969-.0608-.0825-.0609-.0819-.0535-.0747-.0456-.0675-.0377-.0598-.0383-.0448-.0304-.0449-.0225-.0298-.0152-.0222.4257-.2989-1.3379-.5008.0225 1.4274.4561-.3216 2.6909 3.721z"/><path d="m67.9714 30.8871.0304-.0299.0377-.0299.0304-.0221.0383-.0222.0377-.0149.0377-.0149.0377-.0078.0383-.0078.0383-.0071h.0456l.0383.0071h.0456l.0457.015.0456.0071.0456.015.0456.0149.0456.0227.0535.0221.0456.0228.0535.0227.0456.0299.0536.0299.0529.037.0456.0299.0535.0371.0529.037.0529.0449.0535.037.0529.0449.0456.0448.0529.0448.0529.0448c.5625.5081.9195 1.0312.593 1.3898-.3041.3216-.897.0449-1.4522-.4632-.5692-.5075-.9189-1.0306-.5923-1.3814z"/><path d="m68.885 37.1658-.0073-.0072-.0073-.0077-.0079-.0072h-.0079v-.0072h-.0073v-.0078h-.0073v-.0078h-.0079c-.2967-.2612-.4713-.6574-.4713-1.0908 0-.8369.6915-1.5165 1.5355-1.5165.8514 0 1.5435.6796 1.5435 1.5165 0 .1124-.0232.2917-.0232.2917.0682-.1268.3272-.7024.3728-.807-.228-.8141-.9882-1.4125-1.8931-1.4125-.7753 0-1.4363.4412-1.7635 1.0837.1216-.7621.509-1.4495.7826-1.7035.3272-.3061.8891-.4035.8891-.4035-.3721.0526-.8434-.1644-1.3914-.6498-.509-.4632-.7674-.8667-.7905-1.2026.0304.4782.0225.7394-.1137 1.1357-.1904.523-.6994 1.4943-.5169 2.593.0985.6055.5394 1.5022 1.2922 2.2338.1521.1644.2129.4113.236.538 0 0 1.0946 0 1.3609.0221 0 0 .2585-.0221.2433-.1871 0-.1572-.1441-.1943-.2658-.1943-.1374-.0006-.6847.0072-.9736-.202z"/><path d="m74.9494 37.5312-.1289.0449-.1368.0448-.129.0377-.1289.0376-.1368.0371-.1295.0371-.129.0298-.1289.0299-.1368.0299-.1289.0227-.1289.0221-.129.0222-.2511.0448-.2585.0376c-.4257.067-.8513.0897-1.2618.0748.0073.0669.0073.1494-.0304.2163 0 0 .076.0897.076.2021.4184.0078.8514-.0078 1.2843-.0819.7298-.1124 1.4978-.254 2.2653-.538z"/><path d="m76.1058 37.4789.1745-.0975.1745-.1046.1745-.1118.1746-.1195.1672-.1267.1745-.1345.1673-.1417.1745-.1494.1672-.1567.1594-.1715.1672-.1715.1593-.1872.1673-.202.1593-.202.152-.217.0833-.1118.076-.1195.1442-.2392c-.2208.0969-.509.0299-.509.0299-.0152.0221-.0529.0819-.076.1047-.7602 1.1136-1.6116 1.8231-2.486 2.2863z"/><path d="m69.9334 37.8665h-.0153-.0079-.0225-.0152-.0152l-.0231-.0071h-.0225-.0225-.0231-.0231-.0225-.0225-.0304-.0231-.0608l-.0529.0071h-.0608l-.0536.0078h-.0608l-.0529.0078h-.0304-.0225l-.0304.0072h-.0231l-.0231.0071h-.0225c-.2737.0371-.5777.0969-.616.2391-.0225.1417.0681.2911.2055.5004.0912.1267.2889.0597.3953.0149.1143-.0449.7529-.3736.8514-.4854.0985-.1046.1368-.2618-.0535-.2989z"/><path d="m70.5803 38.2857-.0079-.0072-.0079-.0078h-.0073l-.0073-.0072h-.0079l-.0079-.0071-.0073-.0078h-.0152l-.0079-.0078h-.0152l-.0079-.0071h-.0152l-.0073-.0072h-.0152-.0152l-.0073-.0078h-.0152-.0152l-.0152-.0078h-.0152-.0152-.0152-.0152-.0152-.0152-.0152l-.0152.0078h-.0152l-.0152.0078h-.0152l-.0152.0072h-.0152c-.1746.0669-.7979.4333-.8435.5977-.0383.1722.0456.2618.1441.2989s.2129.0747.3041.0819c.152.0077.304-.0819.388-.1794.076-.0968.3648-.4405.4104-.523.0377-.0675.0681-.1871 0-.2241z"/><path d="m70.6571 38.6592-.0073.0078-.0073.015-.0152.0077-.0073.015-.0152.0149-.0152.015-.0073.0149-.0152.015-.0152.0149-.0152.0221-.0152.0149-.0152.015-.0225.0371-.0304.0376-.0152.0149-.0152.0228-.0152.0149-.0152.015-.008.0149-.0152.0149-.0152.015-.0079.0149-.0152.015-.0079.0149-.0079.0078-.0073.0149-.0073.0078v.0078h-.0079v.0072l-.0079.0071c-.0304.0449.0152.1268.0912.1124.084-.0078.509-.0526.7602-.2164.2432-.1644.4105-.4782.2432-.5977-.1751-.1214-.4336-.0616-.7224.245z"/><path d="m70.7928 37.7396h-.0079-.0073l-.0152-.0072h-.0079-.0152l-.0152-.0078h-.0152l-.0152-.0072h-.0152-.0152l-.0225-.0077h-.0152l-.0152-.0072h-.0231-.0152-.0225l-.0152-.0072h-.0225-.0152-.0153-.0225-.0152-.0152l-.0152.0072h-.0152l-.0152.0072h-.0152v.0077h-.0073-.0079l-.0079.0072-.0073.0078h-.0073v.0072h-.0079v.0071c-.0912.1345-.0304.269.2281.3886.2511.1195.7218.2169.813.0896.0906-.1267-.031-.3431-.5704-.4853z"/><path d="m81.5028 29.125-.0079.0221-.0152.0299-.0073.0227-.0073.0299-.0152.0299-.0079.0299-.0152.0299-.0152.0299-.0225.0598-.0304.0597-.0231.0676-.0304.0597-.0304.0676-.0152.0299-.0079.0299-.0152.0221-.0152.0299-.0073.0298-.0152.0228-.0079.0298-.0073.0228-.0079.0221-.0073.0149-.0079.0222-.0073.0149-.008.0227v.0072c-.0529.269.0232.5977.5169.9414 0 0 .3272-.2241.4482-.5152.1217-.269.0456-.4633-.0681-.5978-.1289-.15-.4178-.4716-.5394-.688z"/><path d="m80.4531 30.125.0073.0149v.0228.0149.0299.0227l.0079.0299v.037l.0073.0299.0079.0371v.0376l.0073.0449.0079.0448.0073.0448.0079.0449.0152.0448.0079.0448.0225.0969.0232.0968.0225.1046.0152.0449.0152.0448.0152.052.0152.0448.0231.0448.0152.0449.0152.0448.0231.0371.0225.0376.0152.0371c.312.5308.7601.9343 1.1706.9343.3649 0 .4488-.2164.6233-.3061 0 0-.0912-.4632-.5096-.5828-.509-.1566-1.2922-.7543-1.6115-1.3222z"/><path d="m81.7852 31.0992.0225-.015.0152-.0072.0304-.0227.0152-.0149.0152-.0078.0152-.0149.0152-.0072.0152-.015.0152-.0149.0073-.0072.0079-.0078.0073-.0077.0152-.0072.0079-.0072.0073-.0077.0079-.0078.0073-.0072.0079-.0149.0152-.0078.0073-.0072.0073-.0149s.3953.1417.7224.3586c.3193.217.6386.5829.8131.77 0 0-.4865.1195-.7979-.015 0 0-.1137-.4555-.456-.6575-.0754-.0454-.3187-.1202-.5467-.2319z"/><path d="m82.1953 30.7116.0073-.0072.0079-.0149.0073-.0078.0079-.0149.0073-.0149.0073-.015.0079-.015.0152-.0149.0073-.0149.0079-.015.0073-.0227.0079-.015.0152-.0149.0073-.0221.0079-.0221.0073-.015.0079-.0221.0073-.0227.0079-.0227.0073-.0221.0079-.0221.0073-.0228v-.0298l.0079-.0222v-.0221l.0073-.0298v-.03-.0227l.008-.0298v-.03l-.008-.0298v-.0299s.6842.4262.8891.5828c.1977.1644.6312.5978.7225.74 0 0-.5169-.1124-.9122-.2391-.433-.1429-.7371-.3371-.8964-.4268z"/><path d="m83.3496 31.4375.0377.015.0377.0071.0383.015.0456.0149.0456.0078.0457.0149.0456.0072.0535.015.0456.0149.0535.0078.1064.0221.1137.0299.1065.0227.1143.0221.1064.0221.1064.0227.0529.0072.0536.0149.0456.0072.0456.015.0456.0077.0456.0072.0383.015.0377.0077.0377.0078.0383.0149c.3418.1046.5929.269.9274.6277 0 0-.5096.1345-.7754.2241 0 0-.4329-.2917-.9121-.4632-.312-.119-.4567-.4406-.7833-.7544z"/><path d="m84.1172 33.8354-.0152-.0149-.0152-.015-.0152-.0221-.0152-.015-.0073-.0077-.0079-.015-.0073-.0077-.0079-.0078v-.015l-.0073-.0077-.0079-.015-.0073-.0071v-.015l-.0079-.0072v-.0149-.0149l-.0073-.0072v-.015-.0149-.015-.0149-.0149-.015l.0073-.0149v-.015l.0079-.0227.0073-.0149v-.0228c.0608-.1416.3576-.3066.5394-.3885.304-.1416 1.125-.3586 1.3914-.4405 0 0 .1289.1566.2055.3216.0231.0669-.0152.1267-.1289.1416-.2281.0449-.7833-.0597-.9122.0299-.1441.0897-.0985.2164-.0985.3366 0 0-.2512-.1495-.4105-.1118-.2213.0442-.3503.1488-.4798.5003z"/><path d="m84.8564 32.7106h-.0073-.0073l-.0079.0077h-.0152l-.0073.0072h-.0152l-.0152.0072-.0152.0078h-.0152l-.0231.0078-.0152.0071-.0225.0072-.0152.0078-.0225.0077-.0231.0072-.0225.0149-.0304.0078-.0231.0072-.0225.0149-.0304.0078-.0225.015-.0304.0149-.0232.0078-.0304.0149-.0304.015-.0304.0149-.0225.0149-.0304.015-.0304.0149-.0304.0221-.0304.015-.0304.0149s-.1368-.052-.2055-.1793c-.0682-.1195-.3497-.5308-.6003-.5828 0 0 .2129-.015.3418-.0598 0 0 .2664.067.4561.1494.1891.067.4245.1865.706.3659z"/><path d="m82.7343 32.1953h.0073l.0079.0072h.0073l.0079.0078h.0073l.0079.0077h.0073.0079l.0073.0072h.0073.0079l.0073.0072h.0152.0079l.0073.0078h.0152.0079l.0152.0077h.0073.0152.0079l.0152.0072h.0152.0152.0152l.0152.0072h.0152.0232.0152s.7297.4931.813.9791c.0681.4256-.152.6276-.2663.6802-.1065.0598-.6082.2541-.9426-.4035 0 0 .5546.1794.7145-.0819.152-.269-.0912-.6575-.2511-.7621-.1977-.1494-.5626-.254-.7754-.2092.0012-.0006.1757-.165.3886-.2696z"/><path d="m87.4707 37.8373-.0383-.1345-.0304-.1345-.0377-.1417-.0225-.0669-.0231-.067-.0152-.0675-.0225-.0747-.0231-.067-.0304-.0669-.0225-.0669-.0304-.0676-.0304-.0675-.0304-.067c-.3193-.6802-1.125-2.4956-2.7974-2.8094-.1593-.0371.1752-.4184.3272-.3963.152.0149.4482.2092.5856.2917v-.4555c.0073-.0669.0681-.0969.1289-.0969.0681.0072.4713 0 .6009.1495.38.4334 1.0265 1.599 1.3834 2.4657.3722.8667.6234 1.1358 1.0034 1.0013.3801-.1345.6081-.5679 1.2844-.4334.2359.0448.4938.202.692.4262-.0535.1046-.1216.2391-.4409.2391-.3119 0-.9122.1267-1.2466.3514-.3357.229-.6854.3115-1.164.3563z"/><path d="m80.7954 32.2188-.0152.0519-.0073.052-.0152.0526-.0152.0521-.0152.052-.0152.0526-.0225.0448-.0231.0526-.0152.0526-.0304.052-.0225.0526-.0231.0448-.0304.052-.0232.0526-.0608.1047s.509 2.3084 2.3565 2.4806c0 0-.0377-.4782-.5856-.8368-.5473-.3665-1.361-.9343-1.2996-1.7933 0 0 .1369.0299.4026.3515.2585.3216.8362 1.2552 1.7259 1.2624 0 0-.129-.4405-.5242-.6874-.3953-.254-.8891-.575-1.1172-.9635-.2286-.3814-.4719-.5607-.6239-.6354z"/><path d="m79.5724 34.4609.0073.0299.0152.0371.0152.037.0231.0371.0225.0448.0304.0449.0231.0526.0377.052.0304.0519.0304.0527.0377.052.0383.0597.0377.0598.0457.0598.0833.1124.0839.1195.0833.1118.0456.0598.0456.0526.0377.0526.0456.052.0377.0526.0383.0448.0377.0448.0384.0449.0377.0376.0377.0299.0304.0377.0304.0221c.2967.2762 1.0417 1.009 1.4443 1.3748 0 0-1.1324-.2761-1.7709-.844 0 0-.4488.254-.7753.254h-.0225c-.3272 0-.7827-.254-.7827-.254-.6312.5679-1.7635.844-1.7635.844.3952-.3658 1.1402-1.0986 1.4443-1.3748.304-.269 1.0034-1.2403 1.1098-1.5464z"/><path d="m79.5721 37.0244h.0231.0225l.0225-.0072h.0231.0225.0231l.0457-.0078.0456-.0077.0383-.015.0456-.0077.0377-.015.0456-.0072.0377-.0149.0304-.015.0383-.0071.0152-.0078.0152-.0077.0152-.0072.0152-.0072.0152-.0078h.0152l.0152-.0078.0152-.0071c-.1368.269-.3873.7101-.6233.8817h-.0073c-.2432-.1716-.4944-.6127-.6312-.8817.1368.0598.3722.1572.6233.1572z"/><path d="m80.5384 42.1801 4.4241-6.0971.4488.321.0304-1.4274-1.3379.5009.4178.2989c-.2128.3066-3.5192 4.8567-3.9376 5.4317l-1.9989-3.5715-.2511.3658-1.7788 2.6528-.4488-.2917v1.4047l1.3531-.523-.4561-.3061c.2512-.3586 1.2084-1.7932 1.5355-2.2714z"/><path d="m81.3513 39.7815-.1137-.1644-.0608-.0819-.0529-.0825-.0529-.0747-.0535-.0825-.0529-.0747-.0457-.0747-.0529-.0748-.0456-.0669-.0231-.0299-.0225-.0376-.0152-.03-.0225-.0298-.0231-.0299-.0152-.0299-.0225-.0299-.0152-.0227-.0152-.0299-.0231-.0227-.0152-.0221-.0152-.0221c-.1064.2014-.3345.6049-.5856 1.046l-.3193-.5529.8666-1.5243.2432.3658.8891 1.3151z"/><path d="m82.2634 40.1797.3119.4782.4482-.2917.0073 1.4047-1.3531-.523.4482-.3061c-.0456-.0669-.1137-.1721-.2055-.3066z"/><path d="m91.1637 30.8871-.0304-.0299-.0377-.0299-.0304-.0221-.0384-.0222-.0377-.0149-.0383-.0149-.0377-.0078-.0377-.0078-.0383-.0071h-.0456l-.0377.0071h-.0456l-.0456.015-.0456.0071-.0456.015-.0456.0149-.0536.0227-.0456.0221-.0456.0228-.0529.0227-.0456.0299-.0529.0299-.0535.037-.0529.0299-.0456.0371-.0529.037-.0536.0449-.0529.037-.0529.0449-.0535.0448-.0529.0448-.0529.0448c-.5704.5081-.9195 1.0312-.5856 1.3898.3041.3216.8818.0449 1.4516-.4632.5613-.5075.9182-1.0306.5917-1.3814z"/><path d="m90.2442 37.1658.0073-.0072h.0079v-.0077h.0073v-.0072h.0079v-.0072h.0073l.0079-.0078h.0073v-.0078h.0079c.2962-.2612.4634-.6574.4634-1.0908 0-.8369-.6841-1.5165-1.5434-1.5165-.8434 0-1.5355.6796-1.5355 1.5165 0 .1124.0225.2917.0225.2917-.0608-.1268-.3192-.7024-.3722-.807.2281-.8141.9882-1.4125 1.8852-1.4125.7833 0 1.4522.4412 1.7715 1.0837-.1217-.7621-.509-1.4495-.7827-1.7035-.3272-.3061-.8818-.4035-.8818-.4035.3649.0526.8435-.1644 1.3835-.6498.509-.4632.7754-.8667.7906-1.2026-.0304.4782-.0152.7394.1216 1.1357.1903.523.692 1.4943.5169 2.593-.0985.6055-.5473 1.5022-1.2923 2.2338-.1593.1644-.2207.4113-.2359.538 0 0-1.1019 0-1.3531.0221 0 0-.2663-.0221-.2584-.1871 0-.1572.152-.1943.2736-.1943.1369-.0006.6769.0072.9657-.202z"/><path d="m83.0229 37.4789-.1746-.0975-.1745-.1046-.1745-.1118-.1673-.1195-.1745-.1267-.1745-.1345-.1672-.1417-.1673-.1494-.1672-.1567-.1673-.1715-.1672-.1715-.1593-.1872-.1593-.202-.1594-.202-.1593-.217-.076-.1118-.0833-.1195-.1441-.2392c.228.0969.509.0299.509.0299.0231.0221.0529.0819.0681.1047.7753 1.1136 1.6267 1.8231 2.4933 2.2792z"/><path d="m84.1786 37.5312.1289.0449.1369.0448.1289.0377.1368.0376.1295.0371.129.0371.1368.0298.1289.0299.1295.0299.129.0227.1289.0221.1289.0222.2585.0448.2505.0376c.4336.067.8593.0897 1.2618.0748 0 .0669 0 .1494.0305.2163 0 0-.0682.0897-.0682.2021-.4183.0078-.8513-.0078-1.2922-.0819-.7298-.1124-1.4978-.254-2.2726-.538z"/><path d="m89.1955 37.8665h.0152.0152.0152.0152.0231l.0225-.0071h.0152.0231.0225.0231.0304.0231.0304.0225.0536l.0608.0071h.0535l.0608.0078h.0529l.0608.0078h.0225.0304l.0231.0072h.0304l.0225.0071h.0225c.2664.0371.5705.0969.6082.2391.0304.1417-.0682.2911-.2056.5004-.0833.1267-.2815.0597-.3953.0149-.1137-.0449-.7449-.3736-.8513-.4854-.0986-.1046-.1363-.2618.0535-.2989z"/><path d="m88.5577 38.2857.0079-.0072v-.0078h.0073l.0152-.0072h.0079l.0073-.0071.0079-.0078h.0073l.0152-.0078h.0079l.0152-.0071h.0079l.0152-.0072h.0152.0073l.0152-.0078h.0152.0079l.0152-.0078h.0153.0152.0152.0152.0152.0152.0152l.0152.0078h.0152l.0152.0078h.0152l.0152.0072h.0152c.1745.0669.7984.4333.8434.5977.0384.1722-.0456.2618-.1368.2989-.1064.0371-.2207.0747-.3119.0819-.1521.0077-.3041-.0819-.3801-.1794-.0833-.0968-.3722-.4405-.4105-.523-.0456-.0675-.0681-.1871 0-.2241z"/><path d="m88.4728 38.6592.0073.0078.0152.015.0079.0077.0073.015.0152.0149.0152.015.008.0149.0152.015.0152.0149.0152.0221.0152.0149.0152.015.0304.0371.0304.0376.0304.0377.0079.0149.0152.015.0152.0149.0152.0149.0073.015.0152.0149.0079.015.0152.0149.0073.0078.0079.0149.0073.0078.0073.0078v.0072l.0079.0071c.0225.0449-.0225.1268-.0985.1124-.0839-.0078-.509-.0526-.7529-.2164-.2511-.1644-.4104-.4782-.2432-.5977.1672-.1214.433-.0616.7145.245z"/><path d="m88.3372 37.7396h.0079.0152l.0073-.0072h.0152.0079l.0152-.0078h.0152l.0152-.0072h.0152.0152l.0231-.0077h.0152l.0225-.0072h.0152.0152.0231l.0152-.0072h.0225.0152.0225.0152.0152.0152l.0152.0072h.0152l.0153.0072h.0152l.0079.0077h.0073.0079v.0072h.0073l.0079.0078.0073.0072.0079.0071c.0833.1345.0225.269-.2281.3886-.2511.1195-.7297.2169-.8209.0896-.0919-.1267.0377-.3431.5698-.4853z"/></g></svg>