<svg fill="none" height="55" viewBox="0 0 82 55" width="82" xmlns="http://www.w3.org/2000/svg"><path d="m54.1535 13.9649c0 3.4393-1.4679 7.1228-4.013 10.8226-2.3285 3.3848-5.495 6.6894-9.0403 9.7014-3.4268-2.955-6.5904-6.2565-8.9494-9.6543-2.5885-3.7285-4.1186-7.443-4.1186-10.8697 0-6.82572 5.7878-12.4649 13.0607-12.4649 7.2728 0 13.0606 5.63918 13.0606 12.4649z" stroke="#3f8ae0" stroke-width="3"/><ellipse cx="41.17" cy="12.7563" fill="#3f8ae0" rx="5.48936" ry="5.46728"/><path d="m21 13.1634-4.7558-2.8421c-2.6486-1.58272-6.078-.2273-6.92879 2.7385l-7.32669 25.5403c-.58389 2.0354.26537 4.2099 2.07416 5.3108l14.93712 9.0915m0 0 4-31.8712m-4 31.8712 22-5.9758m0 0v-6.9719m0 6.9719 22 5.9758m0 0-4-31.8712m4 31.8712 14.9371-9.0915c1.8088-1.1009 2.6581-3.2754 2.0742-5.3108l-7.3267-25.5403c-.8508-2.9658-4.2802-4.32122-6.9288-2.7385l-4.7558 2.8421" stroke="#3f8ae0" stroke-width="3"/></svg>