<svg fill="none" height="284" viewBox="0 0 900 284" width="900" xmlns="http://www.w3.org/2000/svg"><g stroke="#3f8ae0" stroke-miterlimit="10" stroke-opacity=".2"><path d="m0 288.96c69.9199 0 140.025.674 209.925-.054 65.686-.686 130.991-5.498 196.626-6.736 118.271-2.231 235.614 4.144 353.761 3.007 103.963-.982 206.454-8.961 310.528-1.823 60.84 4.173 119.79 7.44 181.06 8.393 77.26 1.184 154.13-4.575 231.37-2.787"/><path d="m0 280.567c68.653 0 137.811 1.077 206.412-.408 68.602-1.486 136.225-8.322 204.62-10.53 62.174-2.007 123.472-1.468 185.317 2.9 55.427 3.919 109.268 6.748 165.148 6.322 48.979-.379 94.868-4.653 143.239-8.636 55.355-4.564 112.344-2.433 167.184 3.38 60.36 6.404 117.3 12.53 178.93 13.229 77.75.887 154.63-7.79 232.42-6.257"/><path d="m0 272.29c67.1697 0 135.359 1.451 202.416-.87 71.65-2.474 142.085-11.435 213.581-14.797 61.386-2.924 123.182-.92 183.607 5.954 53.943 6.05 106.095 11.454 161.234 11.205 51.059-.231 97.257-7.659 146.823-13.667 56.262-6.819 111.939-4.232 167.339 4.037 59.39 8.878 114.21 18.443 176.27 18.698 77.88.325 153.99-11.554 232-10.554"/><path d="m0 264.145c65.5834-.035 132.774 1.776 198.131-1.391 75.029-3.604 148.327-14.726 223.078-19.372 62.73-3.895 120.701-.273 181.207 9.511 51.801 8.382 101.975 16.775 156.31 16.792 53.728 0 101.522-11.157 152.51-19.301 58.084-9.275 111.644-6.576 168.404 4.628 57.76 11.4 110.8 24.86 173.2 24.564 77.77-.402 152.45-15.703 230.43-15.431"/><path d="m0 256.133c63.925-.053 130.106 1.959 193.65-1.936 78.469-4.806 154.508-18.076 232.699-24.066 63.606-4.871 118.816.337 178.343 13.371 49.113 10.754 97.35 22.409 150.8 22.776 56.488.391 107.414-14.934 159.658-25.25 60.33-11.915 111.84-9.382 170.14 5.137 55.52 13.827 107.29 31.578 169.96 30.583 77.49-1.231 150.2-20.047 228-20.615"/><path d="m0 248.248c62.2872-.071 127.438 2.072 189.262-2.468 81.827-6.008 160.616-21.362 242.062-28.689 64.893-5.842 116.973.846 175.243 17.313 46.084 13.021 92.375 28.061 145.082 28.855 59.249.882 114.264-19.024 167.714-31.258 27.996-6.375 57.507-12.347 88.027-10.974 29.87 1.349 58.16 8.576 84.28 16.573 52.66 16.082 103.95 38.219 166.61 36.526 77.15-2.09 147.43-24.41 225.01-25.86"/><path d="m.0507812 240.501c60.7730188-.088 124.8632188 2.108 184.9972188-2.959 84.948-7.138 166.199-24.475 250.663-33.069 66.377-6.76 115.448 1.284 172.143 21.142 42.984 15.058 87.338 33.46 139.572 34.709 61.803 1.474 121.546-23.113 176.015-37.029 28.532-7.292 60-14.981 91.869-13.288 29.87 1.586 57.86 10.252 82.84 19.237 49.8 17.922 100.57 44.528 163.38 42.154 76.83-2.912 144.4-28.624 221.76-30.897"/><path d="m.0664062 232.883c59.3206938-.107 122.4625938 2.089 181.0625938-3.35 87.719-8.151 171.153-27.316 258.234-37.059 33.157-3.705 64.584-5.848 97.062.651 26.462 5.298 49.741 14.597 72.196 23.996 40.172 16.804 82.579 38.355 134.69 40.042 64.069 2.077 128.612-26.967 183.967-42.303 29.027-8.044 62.432-17.361 95.512-15.389 30.01 1.775 57.63 11.76 81.53 21.621 47.16 19.438 97.32 50.205 160.48 47.228 76.54-3.617 141.31-32.513 218.54-35.467"/><path d="m.0664062 225.399c58.0742938-.113 120.3615938 2.071 177.6115938-3.617 89.944-8.937 174.965-29.748 264.24-40.408 33.27-3.972 64.604-6.434 96.917.941 26.215 6.019 48.557 16.348 69.92 26.671 37.813 18.248 78.449 42.504 130.817 44.546 33.466 1.308 67.118-8.725 96.021-17.219 32.066-9.423 62.895-20.16 94.95-29.594 29.46-8.666 64.482-19.296 98.677-17.077 30.22 1.96 57.41 12.963 80.46 23.558 44.99 20.716 94.21 54.963 157.97 51.495 76.41-4.144 138.47-35.917 215.69-39.32"/><path d="m.0820312 218.046c57.0339688-.112 118.6619688 2.078 174.8099688-3.717 91.531-9.44 177.54-31.672 268.308-42.995 33.116-4.143 64.687-6.789 96.67 1.113 26.184 6.469 47.857 17.686 68.447 28.719 36.238 19.408 75.338 45.676 128.345 47.943 34.383 1.456 69.013-9.411 98.37-18.396 33.137-10.151 64.893-21.705 98.03-31.868 29.872-9.168 65.923-20.633 101.038-18.295 30.54 2.036 57.26 13.726 79.68 24.93 43.61 21.776 91.32 58.48 156.1 54.78 76.41-4.362 136.1-38.686 213.48-42.19"/><path d="m.100586 210.829c56.230514-.095 117.477414 2.137 172.801414-3.611 92.303-9.588 178.549-32.986 270.018-44.617 32.663-4.143 64.821-6.842 96.351 1.113 26.4 6.659 47.774 18.479 67.983 29.98 35.661 20.325 73.608 47.647 127.727 49.849 35.145 1.432 69.868-9.547 99.637-18.941 33.837-10.654 66.181-22.8 100.007-33.465 30.253-9.542 66.455-21.19 102.295-18.87 30.9 2.001 57.17 13.904 79.31 25.588 43.27 22.817 88.7 60.45 155 56.786 76.6-4.232 134.49-40.669 212.19-43.8"/><path d="m.105469 203.726c56.024531-.201 117.075531 2.308 172.162531-3.552 91.675-9.772 176.819-33.868 267.567-45.771 32.57-4.267 64.708-6.824 96.217 1.036 26.781 6.694 48.577 18.657 69.085 30.299 36.32 20.622 74.669 48.293 129.499 50.874 35.392 1.663 69.909-9.181 99.812-18.722 33.888-10.82 66.17-23.202 100.049-34.028 30.396-9.719 66.413-21.208 102.523-18.722 31.11 2.143 57.22 14.07 79.4 25.884 43.44 23.137 88.01 60.272 154.83 56.822 76.82-3.954 134.11-41.386 212.13-44.12"/><path d="m.126953 196.782c56.261447-.367 117.127047 2.799 172.410047-3.469 90.047-10.21 173.275-34.703 262.365-47.026 32.961-4.563 64.254-6.937 96.217.977 27.265 6.741 49.834 18.579 71.094 30.121 37.525 20.397 77.491 48.346 132.32 51.868 35.177 2.261 69.817-8.612 99.462-18.147 33.477-10.767 65.275-23.161 98.741-33.94 30.335-9.772 66.356-21.172 102.404-18.218 31.02 2.539 57.51 14.637 80.01 26.321 43.66 22.67 89.52 59.107 155.54 55.757 77-3.912 134.48-41.557 212.68-44.244"/><path d="m.142578 189.958c56.580722-.438 117.281422 3.611 172.904422-3.024 88.214-10.524 169.269-35.337 256.483-47.944 33.24-4.818 63.802-6.967 96.125.846 27.687 6.695 51.162 18.225 73.216 29.678 38.781 20.124 80.591 47.973 135.369 52.347 34.857 2.788 69.23-7.86 98.607-17.354 32.91-10.654 64.038-22.972 96.928-33.62 30.242-9.79 65.923-20.864 101.815-17.49 31.04 2.924 58.01 15.075 81.01 26.635 44.24 22.196 91.6 57.722 157.11 54.419 77.35-3.895 135.15-41.782 213.69-44.457"/><path d="m.15625 183.261c56.97215-.42 117.64275 4.7 173.65675-2.272 86.195-10.72 164.891-35.787 250.055-48.613 33.374-5.025 63.359-6.913 95.95.675 28.182 6.558 52.532 17.757 75.441 29.003 40.398 19.763 83.671 47.209 138.603 52.388 34.445 3.244 68.21-6.942 97.299-16.371 32.189-10.441 62.524-22.652 94.693-33.105 30.129-9.796 65.12-20.32 100.786-16.573 31.19 3.285 58.72 15.389 82.41 26.789 45.13 21.705 94.18 56.141 159.34 52.856 77.82-3.924 136.06-42.066 215.07-44.759"/><path d="m.178711 176.697c57.435689-.332 118.085289 6.019 174.604289-1.255 84.031-10.814 160.224-36.106 243.195-49.003 33.353-5.197 62.926-6.813 95.682.444 28.687 6.357 53.892 17.165 77.738 28.067 42.232 19.314 86.823 46.103 141.962 52.028 66.541 7.156 133.783-30.086 187.706-47.642 30.016-9.778 64.059-19.574 99.424-15.472 31.43 3.652 59.53 15.638 84.04 26.866 46.27 21.196 97.15 54.401 162.15 51.099 78.4-3.978 137.19-42.398 216.77-45.132"/><path d="m.193359 170.273c57.940441-.183 118.600641 7.529 175.706641 0 81.775-10.82 155.342-36.23 236.005-49.168 33.24-5.328 62.524-6.653 95.373.183 29.212 6.091 55.293 16.419 80.076 26.979 44.066 18.763 89.985 44.658 145.402 51.317 65.532 7.86 129.879-28.304 182.803-45.576 29.264-9.535 63.38-19.148 97.771-14.235 31.93 4.558 60.06 15.608 85.96 26.854 47.6 20.657 100.44 52.519 165.44 49.181 79.06-4.055 138.49-42.765 218.74-45.576"/><path d="m.219727 163.965c58.486373 0 119.208273 9.192 176.952273 1.385 79.448-10.743 150.316-36.259 228.6-49.127 135.967-22.3679 206.896 60.207 326.331 76.011 64.378 8.529 125.47-26.333 177.436-43.256 29.13-9.47 61.927-18.094 95.891-12.903 32.33 4.942 61.12 15.75 88.06 26.783 49.08 20.125 103.97 50.536 169.1 47.145 79.8-4.143 139.92-43.155 220.91-46.038"/><path d="m.235352 157.8c59.052848.248 119.877648 10.95 178.312648 2.912 77.078-10.601 145.237-36.177 221.08-48.932 133.154-22.3859 214.25 56.23 331.759 73.164 63.266 9.127 120.691-24.191 171.709-40.788 29.007-9.435 60.372-16.922 93.848-11.494 32.766 5.327 62.286 15.862 90.306 26.665 50.66 19.532 107.64 48.482 173.05 45.013 80.58-4.267 141.45-43.563 223.23-46.54"/><path d="m.260742 151.763c59.640058.503 120.588258 12.767 179.754258 4.528 74.72-10.405 140.087-36.011 213.581-48.595 130.333-22.3199 221.462 51.998 337.064 70.063 62.133 9.707 115.655-21.971 165.777-38.242 28.903-9.382 58.713-15.668 91.674-10.062 33.219 5.676 63.499 15.981 92.629 26.516 52.29 18.941 111.37 46.381 177.11 42.836 81.38-4.398 143.05-43.99 225.64-47.068"/><path d="m.275391 145.855c60.216809.764 121.340609 14.596 181.289609 6.185 72.412-10.168 135.081-35.786 206.206-48.156 127.561-22.1904 228.434 47.665 342.142 66.813 61.01 10.275 110.514-19.716 159.781-35.674 28.78-9.322 57.137-14.371 89.553-8.564 33.683 6.037 64.763 16.081 94.983 26.357 53.92 18.349 115.09 44.274 181.24 40.639 82.22-4.522 144.67-44.392 228.08-47.6"/><path d="m.294922 140.08c60.773078 1.018 122.102078 16.384 182.741078 7.831 70.188-9.902 130.209-35.514 199.068-47.642 125.038-22.018 235.264 43.292 347.128 63.511 59.897 10.832 105.374-17.473 153.838-33.146 28.656-9.263 55.623-13.075 87.42-7.103 34.15 6.404 66.01 16.218 97.31 26.209 55.51 17.721 118.71 42.185 185.32 38.473 83.05-4.646 146.26-44.842 230.49-48.121"/><path d="m.321289 134.439c61.380811 1.26 122.854711 18.1 184.234711 9.428 68.077-9.618 125.564-35.211 192.28-47.0789 122.638-21.8173 241.681 38.9589 351.67 60.2489 58.899 11.4 100.307-15.336 148.101-30.696 28.564-9.174 54.119-11.837 85.381-5.694 34.589 6.772 67.222 16.39 99.542 26.091 57.04 17.112 122.19 40.137 189.25 36.331 83.84-4.765 147.8-45.251 232.8-48.63"/><path d="m.334961 128.93c61.957639 1.467 123.606039 19.692 185.677039 10.932 66.129-9.328 121.237-34.922 185.955-46.5113 62.782-11.246 129.571 1.4501 188.212 15.0163 56.549 13.087 110.308 30.252 167.702 42.119 58.157 12.028 95.249-13.448 142.683-28.411 62.988-19.858 127.5 5.327 185.156 21.658 58.41 16.526 125.39 38.177 192.9 34.288 84.58-4.865 149.24-45.635 234.99-49.097"/><path d="m.361328 123.537c62.534472 1.639 124.193672 21.125 187.057672 12.299 64.368-9.044 117.281-34.62 180.259-45.9544 62.205-11.2105 130.755.9648 189.674 13.3884 57.693 12.17 112.605 28.24 169.989 40.883 57.384 12.642 90.902-11.584 137.728-26.334 61.556-19.3845 128.757 7.695 185.411 22.877 59.64 15.981 128.32 36.319 196.2 32.377 85.24-4.955 150.53-45.997 236.91-49.536"/><path d="m.385742 118.289c63.121558 1.776 124.729258 22.35 188.324258 13.472 62.833-8.766 113.8-34.3303 175.109-45.4461 61.731-11.1572 131.847.5209 191.033 11.9149 58.713 11.3112 114.728 26.4162 172.019 39.8342 27.029 6.328 46.837 6.588 72.969-1.574 21.24-6.635 39.204-16.271 60.413-22.954 28.295-8.926 50.833-8.677 80.467-2.042 35.609 7.985 70.3 17.165 105.24 26.085 60.64 15.437 130.82 34.59 199.01 30.613 85.82-5.008 151.66-46.322 238.66-49.903"/><path d="m.401367 113.163c63.708733 1.776 125.130633 23.333 189.467633 14.425 61.587-8.529 110.813-34.188 170.886-45.0196 61.411-11.0744 132.815.1183 192.238 10.6541 59.424 10.5355 116.479 24.8595 173.585 39.0655 26.39 6.564 45.682 7.493 71.588-.628 20.54-6.44 37.68-15.945 58.167-22.433 28.141-8.914 50.329-7.967 79.448-1.112 35.784 8.422 71.009 17.585 106.609 26.256 61.4 14.951 132.95 33.04 201.24 29.05 86.3-5.037 152.58-46.6 240-50.204"/><path d="m.416992 108.182c64.306108 1.729 125.378008 24.031 190.436008 15.1 60.67-8.34 108.361-34.1943 167.6-44.7063 61.329-10.8968 133.505-.2131 193.299 9.5709 60.279 9.8551 117.828 23.5814 174.697 38.5684 25.854 6.806 44.931 8.239 70.641.118 19.983-6.304 36.433-15.75 56.354-22.113 28.007-8.9439 50.174-7.4937 78.851-.379 35.835 8.878 71.475 18.065 107.615 26.552 61.81 14.52 134.55 31.673 202.79 27.713 86.64-5.031 153.24-46.831 241.03-50.424"/><path d="m.443359 103.318c64.893241 1.569 125.439641 24.41 191.218641 15.454 60.042-8.174 106.703-34.1401 165.231-44.5278 61.133-10.8436 134.257-.3907 194.206 8.7837 60.897 9.3223 118.703 22.6751 175.304 38.4731 25.432 7.103 44.612 8.819 70.188.645 19.571-6.256 35.506-15.709 55.046-22.024 27.904-9.0207 50.38-7.316 78.717.124 35.763 9.388 71.666 18.639 108.216 26.985 61.99 14.152 135.58 30.536 203.54 26.635 86.84-4.978 153.61-47.002 241.61-50.548"/><path d="m.467773 98.5846c65.222927 1.4087 125.347227 24.4984 191.528227 15.4604 59.835-8.168 106.219-34.1111 164.561-44.4396 61.072-10.808 134.525-.1421 194.494 8.837 61.113 9.1507 118.734 22.4036 175.408 38.2716 25.339 7.103 44.786 8.583 70.187.462 19.438-6.215 35.269-15.585 54.707-21.8173 27.811-8.9139 50.699-7.2566 78.768.3966 35.609 9.7067 71.559 19.0297 108.259 27.2927 61.69 13.891 136.23 30.092 203.67 26.043 86.72-5.197 153.92-46.511 241.69-50.4887"/><path d="m.494141 93.9282c65.367059 1.3377 125.315859 24.5818 191.651859 15.4368 59.743-8.239 106.363-33.9631 164.746-44.2266 61.072-10.7369 134.36.3966 194.237 9.4349 60.917 9.198 118.291 22.4269 175.356 37.5437 54.016 14.306 80.787-7.694 125.275-21.4146 27.811-8.5766 50.843-7.014 78.655.6688 35.454 9.7958 71.345 19.0948 108.035 27.2628 61.33 13.649 136.84 29.926 203.79 25.534 86.35-5.67 154.38-45.3034 241.56-50.151"/><path d="m.509766 89.3395c65.562834 1.2903 125.367234 24.7055 191.909234 15.4835 59.743-8.2861 106.548-33.7376 164.963-43.9063 61.071-10.6542 134.143.9056 193.927 9.9734 60.681 9.204 117.838 22.3737 175.233 36.7269 53.563 13.401 81.292-8.2094 125.811-21.308 27.811-8.2037 51.049-6.6884 78.613 1.0062 35.29 9.8492 71.074 19.0768 107.754 27.1028 61.08 13.371 137.35 29.477 203.74 24.789 85.92-6.061 154.78-43.9722 241.32-49.5893"/><path d="m.53418 84.8383c65.78942 1.2548 125.50182 24.8597 192.28982 15.5967 59.671-8.275 106.755-33.4365 165.21-43.4987 61.072-10.4765 133.907 1.3732 193.578 10.447 60.392 9.1743 117.426 22.2434 175.026 35.8037 53.182 12.507 81.859-8.6239 126.491-21.1129 27.883-7.7953 51.296-6.28 78.655 1.4087 35.093 9.8669 70.806 18.9882 107.426 26.8252 60.93 13.051 137.65 28.76 203.6 23.829 85.49-6.386 155.14-42.5156 241.03-48.8252"/><path d="m.556641 80.4112c66.067559 1.243 125.666359 25.0308 192.794359 15.7622 59.62-8.2274 106.992-33.1047 165.499-42.9657 61.051-10.2931 133.515 1.823 193.166 10.8672 60.062 9.1152 116.921 22.0481 174.758 34.7916 52.78 11.6305 82.466-8.9435 127.304-20.7578 27.977-7.375 51.575-5.8064 78.758 1.8586 34.82 9.917 70.554 18.7413 107.034 26.4337 60.88 12.691 137.82 27.819 203.38 22.664 84.94-6.647 155.45-40.9532 240.58-47.8606"/><path d="m.586914 76.0656c66.366286 1.243 125.944086 25.2384 193.402086 15.9812 59.568-8.1622 107.26-32.7081 165.839-42.3679 61.03-10.0622 133.186 2.2433 192.723 11.246 59.743 9.0205 116.447 21.7759 174.418 33.6908 52.389 10.7723 83.146-9.1922 128.252-20.2902 28.11-6.9193 51.884-5.262 78.912 2.3676 34.61 9.8513 70.207 18.5102 106.607 25.9309 60.91 12.294 137.85 26.6 203.06 21.308 84.39-6.848 155.7-39.278 240.09-46.724"/><path d="m.607422 71.8129c66.706178 1.2489 126.273578 25.4515 194.113578 16.2653 59.526-8.0616 107.558-32.2524 166.157-41.6813 61-9.8136 132.774 2.6399 192.259 11.5657 59.301 8.8784 115.984 21.4325 174.017 32.501 52.018 9.9264 83.908-9.3579 129.323-19.7042 28.265-6.4399 52.224-4.6583 79.139 2.9594 34.374 9.7572 69.814 18.2213 106.094 25.3391 61.01 11.8381 137.71 25.1911 202.64 19.7751 83.81-6.984 155.89-37.5024 239.52-45.4042"/><path d="m.630859 67.6492c67.077041 1.2785 126.696141 25.712 194.927141 16.5731 59.485-7.9196 107.867-31.7256 166.528-40.9 60.959-9.5295 132.342 3.0128 191.693 11.8379 58.888 8.7601 115.51 21.0301 173.564 31.2462 51.657 9.0856 84.742-9.4703 130.497-19.0235 28.44-5.919 52.584-4.0012 79.417 3.5514 34.146 9.6414 69.443 17.8796 105.613 24.6524 61.2 11.3823 137.47 23.6053 202.17 18.0943 83.19-7.103 156.02-35.6381 238.87-43.9483"/><path d="m.646484 63.5739c67.478716 1.314 127.087516 25.9842 195.823516 16.9696 59.444-7.8012 108.207-31.2047 166.93-40.095 60.907-9.2158 131.847 3.3679 191.116 12.0806 58.476 8.6002 115.046 20.5625 173.049 29.9144 51.306 8.2865 85.659-9.5118 131.774-18.2422 28.636-5.4159 52.965-3.291 79.736 4.1433 33.907 9.4952 69.035 17.4816 105.065 23.8889 61.44 10.8615 137.09 21.8235 201.6 16.2475 82.58-7.103 156.1-33.6789 238.16-42.3324"/><path d="m.673828 59.6022c67.901072 1.3613 127.572172 26.2683 196.740172 17.378 59.475-7.6177 108.619-30.6187 167.414-39.2012 60.845-8.8785 131.291 3.6993 190.56 12.2818 58.043 8.4168 114.572 20.0357 172.513 28.5175 50.957 7.4638 86.648-9.5058 133.144-17.3721 28.842-4.8772 53.347-2.5452 80.097 4.8535 33.66 9.3286 68.608 17.0359 104.488 23.0425 61.68 10.3049 136.56 19.9178 200.93 14.2768 81.93-7.1444 156.11-31.6489 237.39-40.5984"/><path d="m.6875 55.7515c68.3234 1.4028 128.0665 26.5465 197.8425 17.8042 59.382-7.4461 108.938-29.9973 167.795-38.2542 60.773-8.5292 130.734 4.0189 189.87 12.4298 57.621 8.2155 114.109 19.4497 171.926 27.0674 50.637 6.6765 87.739-9.4704 134.596-16.4311 29.048-4.3267 53.749-1.7756 80.509 5.5698 33.406 9.142 68.164 16.5485 103.874 22.131 62.08 9.707 136.04 17.8156 200.3 12.1871 81.29-7.1028 156.05-29.5474 236.56-38.7514"/><path d="m.712891 51.9624c68.817809 1.4856 128.674109 26.872 198.944109 18.2955 59.372-7.2389 109.361-29.3403 168.259-37.2539 60.722-8.1504 130.158 4.3267 189.21 12.5955 57.189 8.0083 113.636 18.8164 171.298 25.5699 50.339 5.9189 88.904-9.3579 136.111-15.3893 29.264-3.7585 54.15-.9352 80.952 6.3096 33.152 8.937 67.723 16.023 103.233 21.1603 62.46 9.0678 135.39 15.6201 199.57 9.9853 80.65-7.0732 155.95-27.3752 235.7-36.7923"/><path d="m.728516 48.2971c69.312184 1.5626 129.271484 27.1917 200.128484 18.8045 59.321-7.0258 109.711-28.6596 168.713-36.2122 60.639-7.7657 129.539 4.6227 188.499 12.708 56.777 7.7834 113.151 18.1357 170.628 24.0251 50.081 5.1317 90.14-9.2218 137.708-14.3535 29.47-3.1785 54.531-.077 81.425 7.1027 32.894 8.7148 67.26 15.4586 102.56 20.1245 62.84 8.3812 134.65 13.3058 198.8 7.6946 80.03-6.9903 155.8-25.1496 234.81-34.7561"/><path d="m.749023 44.7462c69.796377 1.6455 129.909977 27.5172 201.312977 19.3313 59.331-6.8009 110.144-27.9552 169.217-35.1349 60.557-7.3573 128.911 4.9068 187.83 12.8027 56.375 7.5585 112.667 17.4136 169.959 22.4447 49.865 4.3741 91.448-9.0442 139.356-13.2289 29.686-2.5984 54.922.7991 81.92 7.8722 32.638 8.4894 66.806 14.885 101.886 19.0709 63.25 7.6532 133.84 10.8968 197.97 5.3271 79.32-6.9015 155.54-22.8709 233.82-32.6372"/><path d="m.774414 41.3057c70.301086 1.7342 130.569586 27.8191 202.559586 19.8818 59.331-6.5642 110.566-27.2391 169.711-34.0281 60.475-6.9252 128.273 5.185 187.12 12.8796 55.993 7.3218 112.183 16.6501 169.227 20.8288 49.69 3.6402 92.787-8.8251 141.004-12.0628 29.871-2.0065 55.303 1.6987 82.404 8.6831 32.384 8.2478 66.35 14.2773 101.18 17.964 63.66 6.8838 133 8.4168 197.13 2.8885 78.74-6.7831 155.26-20.5447 232.87-30.453"/><path d="m.793945 37.9934c70.816055 1.8231 131.259055 28.1743 203.827055 20.4441 59.32-6.3274 111.008-26.5051 170.226-32.8739 60.371-6.5108 127.603 5.4632 186.439 12.9448 55.623 7.1027 111.689 15.8569 168.496 19.1892 49.597 2.9122 94.168-8.5825 142.755-10.8672 30.088-1.4146 55.623 2.6162 82.981 9.5059 32.135 8.0021 65.892 13.6574 100.472 16.8335 145.24 13.7852 287.56-9.4704 428.13-27.8191"/><path d="m.81543 34.7889c71.34137 1.9237 131.95957 28.5057 205.12457 21.0182 59.321-6.0728 111.452-25.7474 170.741-31.7433 60.269-6.0966 126.934 5.7295 185.647 12.9921 55.303 6.86 111.204 15.046 167.754 17.5142 49.587 2.184 95.558-8.2866 144.506-9.6479 30.263-.8287 56.014 3.5513 83.527 10.3404 31.767 7.8899 65.505 12.921 99.755 15.703 141.53 11.5005 289.16-9.8492 426.22-28.0736"/><path d="m.831055 31.7072c71.866745 2.0243 132.670945 28.8372 206.432945 21.5983 59.331-5.842 111.894-24.9899 171.256-30.5833 60.166-5.6644 126.254 6.0019 184.905 13.0217 55.005 6.5997 110.71 14.2055 167.002 15.8688 49.68 1.4679 96.949-8.0143 146.268-8.4109 30.438-.2427 56.354 4.4807 84.083 11.1868 31.561 7.6296 65.072 12.2286 99.032 14.5133 64.69 4.3505 130.3.6452 194.46-4.676 76.99-6.3865 154.09-13.3945 229.84-23.6758"/><path d="m.855469 28.7548c71.774031 2.0894 132.495531 28.9496 206.185531 22.3322 59.094-5.3271 111.761-23.7291 170.659-29.3107 59.537-5.6407 124.296 5.552 182.432 12.3115 56.2 6.5108 113.131 13.7852 170.66 14.6967 51.07.8109 100.831-8.1504 151.788-7.1027 30.757.6333 56.395 6.4102 84.588 12.8264 29.284 6.6647 60.202 10.4824 91.482 12.2877 66.56 3.8414 132.57-1.823 198.34-7.1678 75.92-6.1676 152.51-10.9146 227.17-21.2254"/><path d="m.866211 25.9284c72.268489 2.19 133.236789 29.2751 207.472789 22.9122 59.105-5.0666 112.194-22.9833 171.185-28.1564 59.413-5.185 123.657 5.8479 181.711 12.3883 55.932 6.3096 112.647 13.0217 169.876 13.0217 51.369 0 102.233-7.7715 153.612-5.7887 30.798 1.1838 56.653 7.2922 85.062 13.5722 29.088 6.428 59.805 9.8432 90.805 11.1927 66.78 2.9062 131.66-4.5694 197.41-9.7663 75.42-5.9603 152.01-8.4996 226.14-18.9406"/><path d="m.891602 23.2432c72.814398 2.2907 133.906398 29.5948 208.771398 23.4805 59.125-4.8298 112.625-22.2434 171.699-27.0141 59.29-4.8002 123.029 6.1557 181.052 12.4831 55.623 6.0788 112.121 12.1871 169.052 11.323 51.74-.7872 103.603-7.3928 155.414-4.4866 30.84 1.7343 56.901 8.1682 85.495 14.312 28.845 6.1972 59.415 9.2099 90.125 10.1037 66.96 1.9592 130.76-7.2922 196.5-12.3469 74.94-5.7651 151.41-6.0847 225.11-16.656"/><path d="m.907227 20.6953c73.319073 2.3676 134.668773 29.9026 210.058773 24.0428 59.135-4.599 113.048-21.5391 172.214-25.8836s122.391 6.4635 180.259 12.5719c55.489 5.8598 111.72 11.394 168.342 9.6597 52.192-1.5981 104.941-7.0199 157.186-3.2021 30.901 2.2551 57.147 9.0382 86.009 15.04 28.864 6.0019 59.044 8.5825 89.474 9.0324 66.95 1.0003 129.91-9.9853 195.57-14.898 74.52-5.5757 150.93-3.6816 224.13-14.4068"/><path d="m.916992 18.2756c73.823808 2.4859 135.390008 30.1866 211.315008 24.5991 59.166-4.3741 113.471-20.7992 172.719-24.7767 59.002-3.9598 121.835 6.7772 179.6 12.6784 55.324 5.6467 111.246 10.6008 167.59 8.0143 52.707-2.4209 106.239-6.6648 158.947-1.9533 30.809 2.7582 57.363 9.8965 86.432 15.7622 28.53 5.7532 58.71 7.9669 88.81 7.9847 66.95.0473 129.11-12.6193 194.68-17.4018 74.16-5.4099 150.39-1.3081 223.14-12.2049"/><path d="m.921875 16.0078c74.318225 2.5688 136.070125 30.5004 212.541125 25.126 59.197-4.1433 113.893-20.1245 173.213-23.6758 58.94-3.5514 121.145 7.1027 178.92 12.7967 55.211 5.4218 110.855 9.8196 166.869 6.3925 53.274-3.2554 107.496-6.3214 160.688-.7339 30.798 3.2258 57.58 10.7251 86.864 16.4547 28.403 5.5519 58.323 7.3691 88.143 6.9666 66.85-.8938 128.35-15.1822 193.83-19.8522 73.75-5.256 149.77 1.0536 222.19-10.0622"/><path d="m.948242 13.8867c74.781758 2.6576 136.749758 30.7786 213.725758 25.6409 59.228-3.9597 114.335-19.426 173.687-22.64 58.816-3.1844 120.516 7.452 178.261 12.9329 55.108 5.2146 110.473 9.062 166.168 4.8122 53.871-4.1078 108.763-6.0137 162.326.432 30.767 3.6994 57.775 11.5538 87.317 17.165 28.227 5.3271 57.997 6.795 87.557 5.9841 66.67-1.8171 127.65-17.6563 193.02-22.2257 73.39-5.1317 149.19 3.3679 221.25-7.9669"/><path d="m.958008 11.9062c75.193792 2.7405 137.387992 31.0627 214.858992 26.1322 59.258-3.7763 114.675-18.7749 174.161-21.6337 58.713-2.8175 119.96 7.8011 177.612 13.0927 55.035 5.0607 110.122 8.328 165.488 3.2732 54.5-4.972 109.886-5.7414 163.912 1.5389 30.706 4.1433 57.971 12.3529 87.709 17.8338 28.081 5.1732 57.681 6.2445 86.941 5.0489 66.43-2.7168 126.99-20.0179 192.23-24.5282 73.14-5.037 148.63 5.6408 220.37-5.9663"/><path d="m.97168 10.0898c75.66762 2.8056 138.02732 31.3172 215.92932 26.5821 59.311-3.5988 115.068-18.1535 174.615-20.6631 58.62-2.4682 119.393 8.1504 176.994 13.2762 54.984 4.895 109.803 7.6177 164.86 1.7757 55.056-5.842 110.988-5.4987 165.436 2.5866 30.634 4.5517 58.167 13.0217 88.07 18.479 27.814 5.0843 57.454 5.7236 86.354 4.1432 66.17-3.5513 126.38-22.2493 191.49-26.7004 72.82-4.9778 148.09 7.8604 219.53-4.0604"/><path d="m1.0332 8.39844c76.0796 2.86476 138.5728 31.56576 216.9388 27.01416 59.29-3.4271 115.377-17.5438 174.996-19.7279 58.486-2.1427 118.868 8.5114 176.407 13.4893 54.953 4.7351 109.515 6.9429 164.252.3314 55.767-6.7298 112.028-5.327 166.868 3.5514 30.572 4.9364 58.342 13.7261 88.42 19.1064 27.695 4.9542 57.185 5.2383 85.785 3.3383 31.2-2.0776 61.62-6.8364 91.57-12.1161 32.32-5.6881 65.58-14.3653 99.25-16.6619 72.57-4.9541 147.59 10.0149 218.74-2.261"/><path d="m1.0332 6.92188c76.4505 2.91212 139.0568 31.79662 217.8768 27.39882 59.341-3.3146 115.726-17.0407 175.418-18.8992 58.393-1.8408 118.342 8.8784 175.83 13.732 54.953 4.6286 109.298 6.3155 163.716-1.0418 56.375-7.6236 113.007-5.2027 168.249 4.4452 30.438 5.327 58.445 14.383 88.677 19.6864 27.58 4.8358 56.94 4.8003 85.26 2.5748 31.14-2.4387 61.38-7.6118 91.16-13.2289 32.08-6.0492 65.39-15.1762 99.06-17.4905 72.34-4.966 147.12 12.1042 217.99-.5919"/><path d="m1.0332 5.57422c76.8007 2.95948 139.5718 32.01558 218.7318 27.74808 59.382-3.2081 116.035-16.5198 175.778-18.112 58.311-1.5567 117.859 9.2868 175.305 14.0161 54.963 4.5161 109.113 5.7295 163.211-2.3676 57.024-8.5056 113.914-5.1318 169.547 5.256 30.325 5.6585 58.538 14.9927 88.924 20.2369 27.47 4.7352 56.65 4.4037 84.76 1.8882 31.07-2.7819 61.16-8.3458 90.78-14.2706 31.87-6.3748 65.22-15.9043 98.89-18.2541 72.1-5.0311 146.71 14.1167 217.34.9648"/><path d="m1.0332 4.40234c77.12 2.95948 139.9948 32.21686 219.4938 28.04996 59.455-3.1193 116.396-16.0641 176.201-17.3958 58.249-1.3022 117.426 9.7011 174.81 14.3357 54.984 4.4333 108.979 5.1968 162.748-3.5928 57.611-9.4171 114.645-5.1554 170.669 5.9189 30.222 5.9841 58.62 15.561 89.131 20.7578 27.374 4.6582 56.454 4.0663 84.304 1.2844 31.02-3.1015 60.94-9.0205 90.43-15.2295 31.7-6.6825 65.07-16.5375 98.78-18.9406 71.95-5.1377 146.38 16.0404 216.7 2.3676"/><path d="m1.0332 3.39062c77.4187 2.95948 140.3548 32.40038 220.1638 28.29858 59.464-3.0542 116.663-15.6557 176.52-16.7803 58.187-1.0713 116.972 10.1273 174.356 14.6968 55.016 4.38 108.908 4.7351 162.368-4.7352 58.208-10.3167 115.273-5.2501 171.709 6.5109 30.088 6.2741 58.651 16.0699 89.275 21.2313 27.295 4.6049 56.235 3.7881 83.875.7694 30.99-3.3915 60.78-9.6301 90.14-16.0995 31.55-6.9548 64.9-17.0644 98.69-19.5326 71.81-5.2975 146.13 17.8753 216.18 3.5987"/><path d="m1.0332 2.55469c77.0376 2.95948 139.7678 32.40041 219.1128 28.58261 62.699-3.0127 123.307-16.6204 186.573-16.3422 54.088.2367 108.362 10.4469 161.79 14.8388 56.766 4.6642 111.102 4.5339 166.076-5.4513 60.958-11.0448 118.074-5.2383 176.829 7.8958 26.338 5.8835 51.43 13.9096 77.964 19.4201 28.082 5.8302 58.912 5.262 87.802 2.0243 32.79-3.6697 64.17-10.6541 95.09-17.7568 31.17-7.1857 64.31-17.3012 97.92-19.6687 71.07-4.9779 144.99 19.5976 214.11 4.7766"/><path d="m1.0332 1.89062c77.2539 2.91805 139.9838 32.55428 219.5448 28.73058 62.72-3.0186 123.607-16.3067 186.852-15.8628 54.047.3848 108.042 10.8791 161.44 15.2769 56.807 4.6759 111.132 4.2143 165.838-6.4221 61.577-11.98 118.395-5.4928 177.633 8.2865 26.215 6.0966 51.379 14.1937 77.985 19.7101 28.014 5.8361 58.714 5.1495 87.444 1.7284 32.76-3.9006 64.03-11.1868 94.85-18.479 31.13-7.3632 64.26-17.5911 97.95-20.0771 70.94-5.19683 144.94 21.2195 213.74 5.6822"/><path d="m1.0332 1.41406c77.4084 2.8707 140.0868 32.68444 219.8748 28.80164 62.73-3.0542 123.751-16.0581 187.078-15.4722 54.026.4972 107.764 11.3289 161.142 15.7622 56.838 4.7352 111.245 3.9835 165.601-7.2921 62.174-12.8915 118.538-5.8598 178.281 8.4996 26.153 6.28 51.379 14.46 78.006 20.0416 27.994 5.8657 58.424 5.1258 87.134 1.5448 66.32-8.2865 125.75-34.2293 192.71-39.4617 70.82-5.53417 145.01 22.6637 213.45 6.3452"/><path d="m1.0332 1.11328c77.532 2.81151 140.1898 32.80282 220.0708 28.82532 62.74-3.1311 123.967-15.8806 187.263-15.1999 54.037.5919 107.538 11.8024 160.894 16.3127 56.859 4.8062 111.452 3.8354 165.499-8.0498 62.72-13.79711 118.456-6.357 178.765 8.5825 25.937 6.4102 51.225 14.9039 77.913 20.2665 28.352 5.6881 57.862 5.2264 86.872 1.4856 66.44-8.5706 125.54-34.5371 192.74-40.1482 70.72-5.919 145.23 24.0013 213.22 6.8186"/><path d="m1.0332 1c77.6144 2.72864 140.1588 32.8976 220.1218 28.772 62.741-3.2376 124.049-15.774 187.47-15.04 54.047.6274 107.341 12.3114 160.688 16.9282 56.859 4.9186 111.74 3.7881 165.467-8.695 63.204-14.69672 118.158-6.9902 179.044 8.5174 55.623 14.1582 101.446 30.2755 164.436 21.9771 66.61-8.7778 125.43-34.5253 192.87-40.5863 70.64-6.35101 145.54 25.1852 213.22 7.1028"/></g></svg>