<svg fill="none" height="592" viewBox="0 0 1820 592" width="1820" xmlns="http://www.w3.org/2000/svg" xmlns:xlink="http://www.w3.org/1999/xlink"><linearGradient id="a"><stop offset="0" stop-color="#e8f2ff"/><stop offset="1" stop-color="#7ab8e8"/></linearGradient><linearGradient id="b" gradientUnits="userSpaceOnUse" x1=".000002" x2="147.94" xlink:href="#a" y1="28.7883" y2="295.88"/><linearGradient id="c" gradientUnits="userSpaceOnUse" x1=".000003" x2="116.259" xlink:href="#a" y1="28.7883" y2="333.459"/><g opacity=".5"><circle cx="147.94" cy="147.94" fill="url(#b)" r="147.94" transform="matrix(-.816861 .576834 .576834 .816861 -13.1201 154.902)"/><circle cx="147.94" cy="147.94" fill="url(#b)" r="147.94" transform="matrix(-.816861 .576834 .576834 .816861 -11.8311 151.57)"/><ellipse cx="214.741" cy="147.94" fill="url(#c)" rx="214.741" ry="147.94" transform="matrix(-.816861 .576834 .576834 .816861 -10.501 148.254)"/><g fill="url(#b)"><circle cx="147.94" cy="147.94" r="147.94" transform="matrix(-.816861 .576834 .576834 .816861 -9.12305 144.961)"/><circle cx="147.94" cy="147.94" r="147.94" transform="matrix(-.816861 .576834 .576834 .816861 -7.70801 141.68)"/><circle cx="147.94" cy="147.94" r="147.94" transform="matrix(-.816861 .576834 .576834 .816861 -6.24023 138.418)"/><circle cx="147.94" cy="147.94" r="147.94" transform="matrix(-.816861 .576834 .576834 .816861 -4.72559 135.184)"/><circle cx="147.94" cy="147.94" r="147.94" transform="matrix(-.816861 .576834 .576834 .816861 -3.16504 131.965)"/><circle cx="147.94" cy="147.94" r="147.94" transform="matrix(-.816861 .576834 .576834 .816861 -1.55859 128.781)"/><circle cx="147.94" cy="147.94" r="147.94" transform="matrix(-.816861 .576834 .576834 .816861 .088867 125.605)"/><circle cx="147.94" cy="147.94" r="147.94" transform="matrix(-.816861 .576834 .576834 .816861 1.78516 122.453)"/><circle cx="147.94" cy="147.94" r="147.94" transform="matrix(-.816861 .576834 .576834 .816861 3.53613 119.34)"/><circle cx="147.94" cy="147.94" r="147.94" transform="matrix(-.816861 .576834 .576834 .816861 5.33203 116.246)"/><circle cx="147.94" cy="147.94" r="147.94" transform="matrix(-.816861 .576834 .576834 .816861 7.17188 113.188)"/><circle cx="147.94" cy="147.94" r="147.94" transform="matrix(-.816861 .576834 .576834 .816861 9.07031 110.16)"/><circle cx="147.94" cy="147.94" r="147.94" transform="matrix(-.816861 .576834 .576834 .816861 11.0107 107.156)"/><circle cx="147.94" cy="147.94" r="147.94" transform="matrix(-.816861 .576834 .576834 .816861 12.999 104.188)"/><circle cx="147.94" cy="147.94" r="147.94" transform="matrix(-.816861 .576834 .576834 .816861 15.0361 101.258)"/><circle cx="147.94" cy="147.94" r="147.94" transform="matrix(-.816861 .576834 .576834 .816861 17.1201 98.3555)"/><circle cx="147.94" cy="147.94" r="147.94" transform="matrix(-.816861 .576834 .576834 .816861 19.2617 95.4922)"/><circle cx="147.94" cy="147.94" r="147.94" transform="matrix(-.816861 .576834 .576834 .816861 21.4473 92.6641)"/><circle cx="147.94" cy="147.94" r="147.94" transform="matrix(-.816861 .576834 .576834 .816861 23.6797 89.875)"/><circle cx="147.94" cy="147.94" r="147.94" transform="matrix(-.816861 .576834 .576834 .816861 25.9648 87.125)"/><circle cx="147.94" cy="147.94" r="147.94" transform="matrix(-.816861 .576834 .576834 .816861 28.2969 84.4141)"/><circle cx="147.94" cy="147.94" r="147.94" transform="matrix(-.816861 .576834 .576834 .816861 30.6748 81.75)"/><circle cx="147.94" cy="147.94" r="147.94" transform="matrix(-.816861 .576834 .576834 .816861 33.1064 79.1289)"/><circle cx="147.94" cy="147.94" r="147.94" transform="matrix(-.816861 .576834 .576834 .816861 35.5791 76.5547)"/><circle cx="147.94" cy="147.94" r="147.94" transform="matrix(-.816861 .576834 .576834 .816861 38.1006 74.0234)"/><circle cx="147.94" cy="147.94" r="147.94" transform="matrix(-.816861 .576834 .576834 .816861 40.6689 71.5352)"/><circle cx="147.94" cy="147.94" r="147.94" transform="matrix(-.816861 .576834 .576834 .816861 43.2852 69.1016)"/><circle cx="147.94" cy="147.94" r="147.94" transform="matrix(-.816861 .576834 .576834 .816861 45.9443 66.7109)"/><circle cx="147.94" cy="147.94" r="147.94" transform="matrix(-.816861 .576834 .576834 .816861 48.6455 64.3711)"/><circle cx="147.94" cy="147.94" r="147.94" transform="matrix(-.816861 .576834 .576834 .816861 51.3877 62.0781)"/><circle cx="147.94" cy="147.94" r="147.94" transform="matrix(-.816861 .576834 .576834 .816861 54.1699 59.8438)"/><circle cx="147.94" cy="147.94" r="147.94" transform="matrix(-.816861 .576834 .576834 .816861 57.002 57.6602)"/><circle cx="147.94" cy="147.94" r="147.94" transform="matrix(-.816861 .576834 .576834 .816861 59.8672 55.5195)"/><circle cx="147.94" cy="147.94" r="147.94" transform="matrix(-.816861 .576834 .576834 .816861 62.7695 53.4453)"/><circle cx="147.94" cy="147.94" r="147.94" transform="matrix(-.816861 .576834 .576834 .816861 65.7139 51.418)"/><circle cx="147.94" cy="147.94" r="147.94" transform="matrix(-.816861 .576834 .576834 .816861 68.6943 49.4375)"/><circle cx="147.94" cy="147.94" r="147.94" transform="matrix(-.816861 .576834 .576834 .816861 71.7129 47.5234)"/><circle cx="147.94" cy="147.94" r="147.94" transform="matrix(-.816861 .576834 .576834 .816861 74.7598 45.6641)"/><circle cx="147.94" cy="147.94" r="147.94" transform="matrix(-.816861 .576834 .576834 .816861 77.8477 43.8555)"/><circle cx="147.94" cy="147.94" r="147.94" transform="matrix(-.816861 .576834 .576834 .816861 80.959 42.1055)"/><circle cx="147.94" cy="147.94" r="147.94" transform="matrix(-.816861 .576834 .576834 .816861 84.1025 40.4141)"/><circle cx="147.94" cy="147.94" r="147.94" transform="matrix(-.816861 .576834 .576834 .816861 87.2803 38.7617)"/><circle cx="147.94" cy="147.94" r="147.94" transform="matrix(-.816861 .576834 .576834 .816861 90.4785 37.1836)"/><circle cx="147.94" cy="147.94" r="147.94" transform="matrix(-.816861 .576834 .576834 .816861 93.7119 35.6523)"/><circle cx="147.94" cy="147.94" r="147.94" transform="matrix(-.816861 .576834 .576834 .816861 96.9639 34.1758)"/><circle cx="147.94" cy="147.94" r="147.94" transform="matrix(-.816861 .576834 .576834 .816861 100.246 32.7539)"/><circle cx="147.94" cy="147.94" r="147.94" transform="matrix(-.816861 .576834 .576834 .816861 103.544 31.3828)"/><circle cx="147.94" cy="147.94" r="147.94" transform="matrix(-.816861 .576834 .576834 .816861 106.873 30.0742)"/><circle cx="147.94" cy="147.94" r="147.94" transform="matrix(-.816861 .576834 .576834 .816861 110.22 28.8164)"/><circle cx="147.94" cy="147.94" r="147.94" transform="matrix(-.816861 .576834 .576834 .816861 113.584 27.6133)"/><circle cx="147.94" cy="147.94" r="147.94" transform="matrix(-.816861 .576834 .576834 .816861 116.966 26.4648)"/><circle cx="147.94" cy="147.94" r="147.94" transform="matrix(-.816861 .576834 .576834 .816861 120.372 25.3633)"/><circle cx="147.94" cy="147.94" r="147.94" transform="matrix(-.816861 .576834 .576834 .816861 123.785 24.3164)"/><circle cx="147.94" cy="147.94" r="147.94" transform="matrix(-.816861 .576834 .576834 .816861 127.211 23.3242)"/><circle cx="147.94" cy="147.94" r="147.94" transform="matrix(-.816861 .576834 .576834 .816861 130.655 22.375)"/><circle cx="147.94" cy="147.94" r="147.94" transform="matrix(-.816861 .576834 .576834 .816861 134.122 21.4805)"/><circle cx="147.94" cy="147.94" r="147.94" transform="matrix(-.816861 .576834 .576834 .816861 137.594 20.6328)"/><circle cx="147.94" cy="147.94" r="147.94" transform="matrix(-.816861 .576834 .576834 .816861 141.074 19.8438)"/><circle cx="147.94" cy="147.94" r="147.94" transform="matrix(-.816861 .576834 .576834 .816861 144.577 19.0938)"/><circle cx="147.94" cy="147.94" r="147.94" transform="matrix(-.816861 .576834 .576834 .816861 148.075 18.3984)"/><circle cx="147.94" cy="147.94" r="147.94" transform="matrix(-.816861 .576834 .576834 .816861 151.593 17.7461)"/><circle cx="147.94" cy="147.94" r="147.94" transform="matrix(-.816861 .576834 .576834 .816861 155.114 17.1484)"/><circle cx="147.94" cy="147.94" r="147.94" transform="matrix(-.816861 .576834 .576834 .816861 158.646 16.5781)"/><circle cx="147.94" cy="147.94" r="147.94" transform="matrix(-.816861 .576834 .576834 .816861 162.179 16.0664)"/><circle cx="147.94" cy="147.94" r="147.94" transform="matrix(-.816861 .576834 .576834 .816861 165.725 15.5938)"/><circle cx="147.94" cy="147.94" r="147.94" transform="matrix(-.816861 .576834 .576834 .816861 169.271 15.168)"/><circle cx="147.94" cy="147.94" r="147.94" transform="matrix(-.816861 .576834 .576834 .816861 172.823 14.7812)"/><circle cx="147.94" cy="147.94" r="147.94" transform="matrix(-.816861 .576834 .576834 .816861 176.383 14.4414)"/><circle cx="147.94" cy="147.94" r="147.94" transform="matrix(-.816861 .576834 .576834 .816861 179.941 14.1406)"/><circle cx="147.94" cy="147.94" r="147.94" transform="matrix(-.816861 .576834 .576834 .816861 183.504 13.875)"/><circle cx="147.94" cy="147.94" r="147.94" transform="matrix(-.816861 .576834 .576834 .816861 187.078 13.6523)"/><circle cx="147.94" cy="147.94" r="147.94" transform="matrix(-.816861 .576834 .576834 .816861 190.646 13.4766)"/><circle cx="147.94" cy="147.94" r="147.94" transform="matrix(-.816861 .576834 .576834 .816861 194.212 13.332)"/><circle cx="147.94" cy="147.94" r="147.94" transform="matrix(-.816861 .576834 .576834 .816861 197.784 13.2266)"/><circle cx="147.94" cy="147.94" r="147.94" transform="matrix(-.816861 .576834 .576834 .816861 201.361 13.1641)"/><circle cx="147.94" cy="147.94" r="147.94" transform="matrix(-.816861 .576834 .576834 .816861 204.934 13.1328)"/><circle cx="147.94" cy="147.94" r="147.94" transform="matrix(-.816861 .576834 .576834 .816861 208.506 13.1406)"/><circle cx="147.94" cy="147.94" r="147.94" transform="matrix(-.816861 .576834 .576834 .816861 212.075 13.1836)"/><circle cx="147.94" cy="147.94" r="147.94" transform="matrix(-.816861 .576834 .576834 .816861 215.655 13.2578)"/><circle cx="147.94" cy="147.94" r="147.94" transform="matrix(-.816861 .576834 .576834 .816861 219.225 13.3711)"/><circle cx="147.94" cy="147.94" r="147.94" transform="matrix(-.816861 .576834 .576834 .816861 222.794 13.5195)"/><circle cx="147.94" cy="147.94" r="147.94" transform="matrix(-.816861 .576834 .576834 .816861 226.361 13.6914)"/><circle cx="147.94" cy="147.94" r="147.94" transform="matrix(-.816861 .576834 .576834 .816861 229.931 13.8984)"/><circle cx="147.94" cy="147.94" r="147.94" transform="matrix(-.816861 .576834 .576834 .816861 233.498 14.1484)"/><circle cx="147.94" cy="147.94" r="147.94" transform="matrix(-.816861 .576834 .576834 .816861 237.057 14.4219)"/><circle cx="147.94" cy="147.94" r="147.94" transform="matrix(-.816861 .576834 .576834 .816861 240.621 14.7266)"/><circle cx="147.94" cy="147.94" r="147.94" transform="matrix(-.816861 .576834 .576834 .816861 244.176 15.0586)"/><circle cx="147.94" cy="147.94" r="147.94" transform="matrix(-.816861 .576834 .576834 .816861 247.734 15.4258)"/><circle cx="147.94" cy="147.94" r="147.94" transform="matrix(-.816861 .576834 .576834 .816861 251.286 15.8281)"/><circle cx="147.94" cy="147.94" r="147.94" transform="matrix(-.816861 .576834 .576834 .816861 254.83 16.2539)"/><circle cx="147.94" cy="147.94" r="147.94" transform="matrix(-.816861 .576834 .576834 .816861 258.377 16.707)"/><circle cx="147.94" cy="147.94" r="147.94" transform="matrix(-.816861 .576834 .576834 .816861 261.921 17.1875)"/><circle cx="147.94" cy="147.94" r="147.94" transform="matrix(-.816861 .576834 .576834 .816861 265.457 17.6992)"/><circle cx="147.94" cy="147.94" r="147.94" transform="matrix(-.816861 .576834 .576834 .816861 268.993 18.2383)"/><circle cx="147.94" cy="147.94" r="147.94" transform="matrix(-.816861 .576834 .576834 .816861 272.517 18.8008)"/><circle cx="147.94" cy="147.94" r="147.94" transform="matrix(-.816861 .576834 .576834 .816861 276.048 19.3828)"/><circle cx="147.94" cy="147.94" r="147.94" transform="matrix(-.816861 .576834 .576834 .816861 279.568 20.0078)"/><circle cx="147.94" cy="147.94" r="147.94" transform="matrix(-.816861 .576834 .576834 .816861 283.079 20.6523)"/><circle cx="147.94" cy="147.94" r="147.94" transform="matrix(-.816861 .576834 .576834 .816861 286.589 21.3203)"/><circle cx="147.94" cy="147.94" r="147.94" transform="matrix(-.816861 .576834 .576834 .816861 290.095 22.0156)"/><circle cx="147.94" cy="147.94" r="147.94" transform="matrix(-.816861 .576834 .576834 .816861 293.595 22.7344)"/><circle cx="147.94" cy="147.94" r="147.94" transform="matrix(-.816861 .576834 .576834 .816861 297.088 23.4805)"/><circle cx="147.94" cy="147.94" r="147.94" transform="matrix(-.816861 .576834 .576834 .816861 300.578 24.2461)"/><circle cx="147.94" cy="147.94" r="147.94" transform="matrix(-.816861 .576834 .576834 .816861 304.061 25.0391)"/><circle cx="147.94" cy="147.94" r="147.94" transform="matrix(-.816861 .576834 .576834 .816861 307.543 25.8516)"/><circle cx="147.94" cy="147.94" r="147.94" transform="matrix(-.816861 .576834 .576834 .816861 311.021 26.6914)"/><circle cx="147.94" cy="147.94" r="147.94" transform="matrix(-.816861 .576834 .576834 .816861 314.479 27.5508)"/><circle cx="147.94" cy="147.94" r="147.94" transform="matrix(-.816861 .576834 .576834 .816861 317.951 28.4336)"/><circle cx="147.94" cy="147.94" r="147.94" transform="matrix(-.816861 .576834 .576834 .816861 321.403 29.3359)"/><circle cx="147.94" cy="147.94" r="147.94" transform="matrix(-.816861 .576834 .576834 .816861 324.854 30.2734)"/><circle cx="147.94" cy="147.94" r="147.94" transform="matrix(-.816861 .576834 .576834 .816861 328.304 31.2188)"/><circle cx="147.94" cy="147.94" r="147.94" transform="matrix(-.816861 .576834 .576834 .816861 331.743 32.1914)"/><circle cx="147.94" cy="147.94" r="147.94" transform="matrix(-.816861 .576834 .576834 .816861 335.172 33.1836)"/><circle cx="147.94" cy="147.94" r="147.94" transform="matrix(-.816861 .576834 .576834 .816861 338.6 34.2031)"/><circle cx="147.94" cy="147.94" r="147.94" transform="matrix(-.816861 .576834 .576834 .816861 342.021 35.2383)"/><circle cx="147.94" cy="147.94" r="147.94" transform="matrix(-.816861 .576834 .576834 .816861 345.439 36.2969)"/><circle cx="147.94" cy="147.94" r="147.94" transform="matrix(-.816861 .576834 .576834 .816861 348.84 37.3711)"/><circle cx="147.94" cy="147.94" r="147.94" transform="matrix(-.816861 .576834 .576834 .816861 352.245 38.4727)"/><circle cx="147.94" cy="147.94" r="147.94" transform="matrix(-.816861 .576834 .576834 .816861 355.636 39.5898)"/><circle cx="147.94" cy="147.94" r="147.94" transform="matrix(-.816861 .576834 .576834 .816861 359.023 40.7266)"/><circle cx="147.94" cy="147.94" r="147.94" transform="matrix(-.816861 .576834 .576834 .816861 362.408 41.8828)"/><circle cx="147.94" cy="147.94" r="147.94" transform="matrix(-.816861 .576834 .576834 .816861 365.777 43.0586)"/><circle cx="147.94" cy="147.94" r="147.94" transform="matrix(-.816861 .576834 .576834 .816861 369.149 44.2539)"/><circle cx="147.94" cy="147.94" r="147.94" transform="matrix(-.816861 .576834 .576834 .816861 372.509 45.4727)"/><circle cx="147.94" cy="147.94" r="147.94" transform="matrix(-.816861 .576834 .576834 .816861 375.863 46.7109)"/><circle cx="147.94" cy="147.94" r="147.94" transform="matrix(-.816861 .576834 .576834 .816861 379.205 47.9648)"/><circle cx="147.94" cy="147.94" r="147.94" transform="matrix(-.816861 .576834 .576834 .816861 382.544 49.2422)"/><circle cx="147.94" cy="147.94" r="147.94" transform="matrix(-.816861 .576834 .576834 .816861 385.878 50.5352)"/><circle cx="147.94" cy="147.94" r="147.94" transform="matrix(-.816861 .576834 .576834 .816861 389.204 51.8398)"/><circle cx="147.94" cy="147.94" r="147.94" transform="matrix(-.816861 .576834 .576834 .816861 392.52 53.1758)"/><circle cx="147.94" cy="147.94" r="147.94" transform="matrix(-.816861 .576834 .576834 .816861 395.833 54.5273)"/><circle cx="147.94" cy="147.94" r="147.94" transform="matrix(-.816861 .576834 .576834 .816861 399.134 55.8867)"/><circle cx="147.94" cy="147.94" r="147.94" transform="matrix(-.816861 .576834 .576834 .816861 402.426 57.2734)"/><circle cx="147.94" cy="147.94" r="147.94" transform="matrix(-.816861 .576834 .576834 .816861 405.714 58.6797)"/><circle cx="147.94" cy="147.94" r="147.94" transform="matrix(-.816861 .576834 .576834 .816861 408.988 60.1016)"/><circle cx="147.94" cy="147.94" r="147.94" transform="matrix(-.816861 .576834 .576834 .816861 412.261 61.5391)"/><circle cx="147.94" cy="147.94" r="147.94" transform="matrix(-.816861 .576834 .576834 .816861 415.523 63)"/><circle cx="147.94" cy="147.94" r="147.94" transform="matrix(-.816861 .576834 .576834 .816861 418.777 64.4805)"/><circle cx="147.94" cy="147.94" r="147.94" transform="matrix(-.816861 .576834 .576834 .816861 422.019 65.9727)"/><circle cx="147.94" cy="147.94" r="147.94" transform="matrix(-.816861 .576834 .576834 .816861 425.261 67.4883)"/><circle cx="147.94" cy="147.94" r="147.94" transform="matrix(-.816861 .576834 .576834 .816861 428.491 69.0156)"/><circle cx="147.94" cy="147.94" r="147.94" transform="matrix(-.816861 .576834 .576834 .816861 431.71 70.5625)"/><circle cx="147.94" cy="147.94" r="147.94" transform="matrix(-.816861 .576834 .576834 .816861 434.929 72.125)"/><circle cx="147.94" cy="147.94" r="147.94" transform="matrix(-.816861 .576834 .576834 .816861 438.132 73.7031)"/><circle cx="147.94" cy="147.94" r="147.94" transform="matrix(-.816861 .576834 .576834 .816861 441.322 75.3125)"/><circle cx="147.94" cy="147.94" r="147.94" transform="matrix(-.816861 .576834 .576834 .816861 444.51 76.9258)"/><circle cx="147.94" cy="147.94" r="147.94" transform="matrix(-.816861 .576834 .576834 .816861 447.685 78.5703)"/><circle cx="147.94" cy="147.94" r="147.94" transform="matrix(-.816861 .576834 .576834 .816861 450.854 80.2266)"/><circle cx="147.94" cy="147.94" r="147.94" transform="matrix(-.816861 .576834 .576834 .816861 454.012 81.8984)"/><circle cx="147.94" cy="147.94" r="147.94" transform="matrix(-.816861 .576834 .576834 .816861 457.158 83.5898)"/><circle cx="147.94" cy="147.94" r="147.94" transform="matrix(-.816861 .576834 .576834 .816861 460.302 85.3008)"/><circle cx="147.94" cy="147.94" r="147.94" transform="matrix(-.816861 .576834 .576834 .816861 463.426 87.0195)"/><circle cx="147.94" cy="147.94" r="147.94" transform="matrix(-.816861 .576834 .576834 .816861 466.55 88.7656)"/><circle cx="147.94" cy="147.94" r="147.94" transform="matrix(-.816861 .576834 .576834 .816861 469.655 90.5352)"/><circle cx="147.94" cy="147.94" r="147.94" transform="matrix(-.816861 .576834 .576834 .816861 472.751 92.3125)"/><circle cx="147.94" cy="147.94" r="147.94" transform="matrix(-.816861 .576834 .576834 .816861 475.844 94.1133)"/><circle cx="147.94" cy="147.94" r="147.94" transform="matrix(-.816861 .576834 .576834 .816861 478.916 95.9336)"/><circle cx="147.94" cy="147.94" r="147.94" transform="matrix(-.816861 .576834 .576834 .816861 481.983 97.7656)"/><circle cx="147.94" cy="147.94" r="147.94" transform="matrix(-.816861 .576834 .576834 .816861 485.03 99.6211)"/><circle cx="147.94" cy="147.94" r="147.94" transform="matrix(-.816861 .576834 .576834 .816861 488.08 101.496)"/><circle cx="147.94" cy="147.94" r="147.94" transform="matrix(-.816861 .576834 .576834 .816861 491.111 103.387)"/><circle cx="147.94" cy="147.94" r="147.94" transform="matrix(-.816861 .576834 .576834 .816861 494.132 105.297)"/><circle cx="147.94" cy="147.94" r="147.94" transform="matrix(-.816861 .576834 .576834 .816861 497.136 107.227)"/><circle cx="147.94" cy="147.94" r="147.94" transform="matrix(-.816861 .576834 .576834 .816861 500.134 109.184)"/><circle cx="147.94" cy="147.94" r="147.94" transform="matrix(-.816861 .576834 .576834 .816861 503.116 111.152)"/><circle cx="147.94" cy="147.94" r="147.94" transform="matrix(-.816861 .576834 .576834 .816861 506.086 113.141)"/><circle cx="147.94" cy="147.94" r="147.94" transform="matrix(-.816861 .576834 .576834 .816861 509.038 115.145)"/><circle cx="147.94" cy="147.94" r="147.94" transform="matrix(-.816861 .576834 .576834 .816861 511.979 117.18)"/><circle cx="147.94" cy="147.94" r="147.94" transform="matrix(-.816861 .576834 .576834 .816861 514.908 119.23)"/><circle cx="147.94" cy="147.94" r="147.94" transform="matrix(-.816861 .576834 .576834 .816861 517.827 121.301)"/><circle cx="147.94" cy="147.94" r="147.94" transform="matrix(-.816861 .576834 .576834 .816861 520.721 123.387)"/><circle cx="147.94" cy="147.94" r="147.94" transform="matrix(-.816861 .576834 .576834 .816861 523.601 125.5)"/><circle cx="147.94" cy="147.94" r="147.94" transform="matrix(-.816861 .576834 .576834 .816861 526.466 127.633)"/><circle cx="147.94" cy="147.94" r="147.94" transform="matrix(-.816861 .576834 .576834 .816861 529.312 129.793)"/><circle cx="147.94" cy="147.94" r="147.94" transform="matrix(-.816861 .576834 .576834 .816861 532.144 131.965)"/><circle cx="147.94" cy="147.94" r="147.94" transform="matrix(-.816861 .576834 .576834 .816861 534.971 134.168)"/><circle cx="147.94" cy="147.94" r="147.94" transform="matrix(-.816861 .576834 .576834 .816861 537.771 136.387)"/><circle cx="147.94" cy="147.94" r="147.94" transform="matrix(-.816861 .576834 .576834 .816861 540.544 138.641)"/><circle cx="147.94" cy="147.94" r="147.94" transform="matrix(-.816861 .576834 .576834 .816861 543.304 140.914)"/><circle cx="147.94" cy="147.94" r="147.94" transform="matrix(-.816861 .576834 .576834 .816861 546.04 143.207)"/><circle cx="147.94" cy="147.94" r="147.94" transform="matrix(-.816861 .576834 .576834 .816861 548.762 145.523)"/><circle cx="147.94" cy="147.94" r="147.94" transform="matrix(-.816861 .576834 .576834 .816861 551.457 147.871)"/><circle cx="147.94" cy="147.94" r="147.94" transform="matrix(-.816861 .576834 .576834 .816861 554.13 150.242)"/><circle cx="147.94" cy="147.94" r="147.94" transform="matrix(-.816861 .576834 .576834 .816861 556.774 152.641)"/><circle cx="147.94" cy="147.94" r="147.94" transform="matrix(-.816861 .576834 .576834 .816861 559.403 155.07)"/><circle cx="147.94" cy="147.94" r="147.94" transform="matrix(-.816861 .576834 .576834 .816861 561.997 157.523)"/><circle cx="147.94" cy="147.94" r="147.94" transform="matrix(-.816861 .576834 .576834 .816861 564.572 160.004)"/><circle cx="147.94" cy="147.94" r="147.94" transform="matrix(-.816861 .576834 .576834 .816861 567.111 162.508)"/><circle cx="147.94" cy="147.94" r="147.94" transform="matrix(-.816861 .576834 .576834 .816861 569.625 165.059)"/><circle cx="147.94" cy="147.94" r="147.94" transform="matrix(-.816861 .576834 .576834 .816861 572.105 167.629)"/><circle cx="147.94" cy="147.94" r="147.94" transform="matrix(-.816861 .576834 .576834 .816861 574.545 170.234)"/><circle cx="147.94" cy="147.94" r="147.94" transform="matrix(-.816861 .576834 .576834 .816861 576.956 172.879)"/><circle cx="147.94" cy="147.94" r="147.94" transform="matrix(-.816861 .576834 .576834 .816861 579.327 175.547)"/><circle cx="147.94" cy="147.94" r="147.94" transform="matrix(-.816861 .576834 .576834 .816861 581.653 178.262)"/><circle cx="147.94" cy="147.94" r="147.94" transform="matrix(-.816861 .576834 .576834 .816861 583.944 181.008)"/><circle cx="147.94" cy="147.94" r="147.94" transform="matrix(-.816861 .576834 .576834 .816861 586.179 183.789)"/><circle cx="147.94" cy="147.94" r="147.94" transform="matrix(-.816861 .576834 .576834 .816861 588.375 186.617)"/><circle cx="147.94" cy="147.94" r="147.94" transform="matrix(-.816861 .576834 .576834 .816861 590.512 189.484)"/><circle cx="147.94" cy="147.94" r="147.94" transform="matrix(-.816861 .576834 .576834 .816861 592.631 192.367)"/><circle cx="147.94" cy="147.94" r="147.94" transform="matrix(-.816861 .576834 .576834 .816861 594.769 195.23)"/><circle cx="147.94" cy="147.94" r="147.94" transform="matrix(-.816861 .576834 .576834 .816861 596.941 198.066)"/><circle cx="147.94" cy="147.94" r="147.94" transform="matrix(-.816861 .576834 .576834 .816861 599.135 200.895)"/><circle cx="147.94" cy="147.94" r="147.94" transform="matrix(-.816861 .576834 .576834 .816861 601.354 203.688)"/><circle cx="147.94" cy="147.94" r="147.94" transform="matrix(-.816861 .576834 .576834 .816861 603.604 206.469)"/><circle cx="147.94" cy="147.94" r="147.94" transform="matrix(-.816861 .576834 .576834 .816861 605.882 209.227)"/><circle cx="147.94" cy="147.94" r="147.94" transform="matrix(-.816861 .576834 .576834 .816861 608.186 211.961)"/><circle cx="147.94" cy="147.94" r="147.94" transform="matrix(-.816861 .576834 .576834 .816861 610.507 214.66)"/><circle cx="147.94" cy="147.94" r="147.94" transform="matrix(-.816861 .576834 .576834 .816861 612.869 217.352)"/><circle cx="147.94" cy="147.94" r="147.94" transform="matrix(-.816861 .576834 .576834 .816861 615.258 220.008)"/><circle cx="147.94" cy="147.94" r="147.94" transform="matrix(-.816861 .576834 .576834 .816861 617.674 222.648)"/><circle cx="147.94" cy="147.94" r="147.94" transform="matrix(-.816861 .576834 .576834 .816861 620.111 225.254)"/><circle cx="147.94" cy="147.94" r="147.94" transform="matrix(-.816861 .576834 .576834 .816861 622.589 227.84)"/><circle cx="147.94" cy="147.94" r="147.94" transform="matrix(-.816861 .576834 .576834 .816861 625.088 230.387)"/><circle cx="147.94" cy="147.94" r="147.94" transform="matrix(-.816861 .576834 .576834 .816861 627.616 232.91)"/><circle cx="147.94" cy="147.94" r="147.94" transform="matrix(-.816861 .576834 .576834 .816861 630.174 235.41)"/><circle cx="147.94" cy="147.94" r="147.94" transform="matrix(-.816861 .576834 .576834 .816861 632.757 237.879)"/><circle cx="147.94" cy="147.94" r="147.94" transform="matrix(-.816861 .576834 .576834 .816861 635.371 240.32)"/><circle cx="147.94" cy="147.94" r="147.94" transform="matrix(-.816861 .576834 .576834 .816861 638.013 242.723)"/><circle cx="147.94" cy="147.94" r="147.94" transform="matrix(-.816861 .576834 .576834 .816861 640.688 245.094)"/><circle cx="147.94" cy="147.94" r="147.94" transform="matrix(-.816861 .576834 .576834 .816861 643.389 247.434)"/><circle cx="147.94" cy="147.94" r="147.94" transform="matrix(-.816861 .576834 .576834 .816861 646.118 249.734)"/><circle cx="147.94" cy="147.94" r="147.94" transform="matrix(-.816861 .576834 .576834 .816861 648.875 252.016)"/><circle cx="147.94" cy="147.94" r="147.94" transform="matrix(-.816861 .576834 .576834 .816861 651.663 254.254)"/><circle cx="147.94" cy="147.94" r="147.94" transform="matrix(-.816861 .576834 .576834 .816861 654.479 256.457)"/><circle cx="147.94" cy="147.94" r="147.94" transform="matrix(-.816861 .576834 .576834 .816861 657.315 258.625)"/><circle cx="147.94" cy="147.94" r="147.94" transform="matrix(-.816861 .576834 .576834 .816861 660.186 260.746)"/><circle cx="147.94" cy="147.94" r="147.94" transform="matrix(-.816861 .576834 .576834 .816861 663.084 262.84)"/><circle cx="147.94" cy="147.94" r="147.94" transform="matrix(-.816861 .576834 .576834 .816861 666.01 264.895)"/><circle cx="147.94" cy="147.94" r="147.94" transform="matrix(-.816861 .576834 .576834 .816861 668.96 266.91)"/><circle cx="147.94" cy="147.94" r="147.94" transform="matrix(-.816861 .576834 .576834 .816861 671.939 268.883)"/><circle cx="147.94" cy="147.94" r="147.94" transform="matrix(-.816861 .576834 .576834 .816861 674.943 270.809)"/><circle cx="147.94" cy="147.94" r="147.94" transform="matrix(-.816861 .576834 .576834 .816861 677.979 272.707)"/><circle cx="147.94" cy="147.94" r="147.94" transform="matrix(-.816861 .576834 .576834 .816861 681.039 274.559)"/><circle cx="147.94" cy="147.94" r="147.94" transform="matrix(-.816861 .576834 .576834 .816861 684.122 276.355)"/><circle cx="147.94" cy="147.94" r="147.94" transform="matrix(-.816861 .576834 .576834 .816861 687.23 278.121)"/><circle cx="147.94" cy="147.94" r="147.94" transform="matrix(-.816861 .576834 .576834 .816861 690.359 279.844)"/><circle cx="147.94" cy="147.94" r="147.94" transform="matrix(-.816861 .576834 .576834 .816861 693.521 281.512)"/><circle cx="147.94" cy="147.94" r="147.94" transform="matrix(-.816861 .576834 .576834 .816861 696.704 283.141)"/><circle cx="147.94" cy="147.94" r="147.94" transform="matrix(-.816861 .576834 .576834 .816861 699.901 284.727)"/><circle cx="147.94" cy="147.94" r="147.94" transform="matrix(-.816861 .576834 .576834 .816861 703.13 286.262)"/><circle cx="147.94" cy="147.94" r="147.94" transform="matrix(-.816861 .576834 .576834 .816861 706.382 287.75)"/><circle cx="147.94" cy="147.94" r="147.94" transform="matrix(-.816861 .576834 .576834 .816861 709.649 289.199)"/><circle cx="147.94" cy="147.94" r="147.94" transform="matrix(-.816861 .576834 .576834 .816861 712.942 290.59)"/><circle cx="147.94" cy="147.94" r="147.94" transform="matrix(-.816861 .576834 .576834 .816861 716.247 291.945)"/><circle cx="147.94" cy="147.94" r="147.94" transform="matrix(-.816861 .576834 .576834 .816861 719.581 293.238)"/><circle cx="147.94" cy="147.94" r="147.94" transform="matrix(-.816861 .576834 .576834 .816861 722.923 294.492)"/><circle cx="147.94" cy="147.94" r="147.94" transform="matrix(-.816861 .576834 .576834 .816861 726.292 295.695)"/><circle cx="147.94" cy="147.94" r="147.94" transform="matrix(-.816861 .576834 .576834 .816861 729.67 296.848)"/><circle cx="147.94" cy="147.94" r="147.94" transform="matrix(-.816861 .576834 .576834 .816861 733.07 297.961)"/><circle cx="147.94" cy="147.94" r="147.94" transform="matrix(-.816861 .576834 .576834 .816861 736.486 299.016)"/><circle cx="147.94" cy="147.94" r="147.94" transform="matrix(-.816861 .576834 .576834 .816861 739.917 300.02)"/><circle cx="147.94" cy="147.94" r="147.94" transform="matrix(-.816861 .576834 .576834 .816861 743.356 300.98)"/><circle cx="147.94" cy="147.94" r="147.94" transform="matrix(-.816861 .576834 .576834 .816861 746.811 301.887)"/><circle cx="147.94" cy="147.94" r="147.94" transform="matrix(-.816861 .576834 .576834 .816861 750.282 302.746)"/><circle cx="147.94" cy="147.94" r="147.94" transform="matrix(-.816861 .576834 .576834 .816861 753.763 303.551)"/><circle cx="147.94" cy="147.94" r="147.94" transform="matrix(-.816861 .576834 .576834 .816861 757.258 304.309)"/><circle cx="147.94" cy="147.94" r="147.94" transform="matrix(-.816861 .576834 .576834 .816861 760.755 305.027)"/><circle cx="147.94" cy="147.94" r="147.94" transform="matrix(-.816861 .576834 .576834 .816861 764.271 305.688)"/><circle cx="147.94" cy="147.94" r="147.94" transform="matrix(-.816861 .576834 .576834 .816861 767.787 306.301)"/><circle cx="147.94" cy="147.94" r="147.94" transform="matrix(-.816861 .576834 .576834 .816861 771.32 306.863)"/><circle cx="147.94" cy="147.94" r="147.94" transform="matrix(-.816861 .576834 .576834 .816861 774.852 307.383)"/><circle cx="147.94" cy="147.94" r="147.94" transform="matrix(-.816861 .576834 .576834 .816861 778.4 307.855)"/><circle cx="147.94" cy="147.94" r="147.94" transform="matrix(-.816861 .576834 .576834 .816861 781.944 308.273)"/><circle cx="147.94" cy="147.94" r="147.94" transform="matrix(-.816861 .576834 .576834 .816861 785.501 308.648)"/><circle cx="147.94" cy="147.94" r="147.94" transform="matrix(-.816861 .576834 .576834 .816861 789.058 308.98)"/><circle cx="147.94" cy="147.94" r="147.94" transform="matrix(-.816861 .576834 .576834 .816861 792.627 309.262)"/><circle cx="147.94" cy="147.94" r="147.94" transform="matrix(-.816861 .576834 .576834 .816861 796.184 309.492)"/><circle cx="147.94" cy="147.94" r="147.94" transform="matrix(-.816861 .576834 .576834 .816861 799.761 309.688)"/><circle cx="147.94" cy="147.94" r="147.94" transform="matrix(-.816861 .576834 .576834 .816861 803.323 309.832)"/><circle cx="147.94" cy="147.94" r="147.94" transform="matrix(-.816861 .576834 .576834 .816861 806.903 309.938)"/><circle cx="147.94" cy="147.94" r="147.94" transform="matrix(-.816861 .576834 .576834 .816861 810.47 309.988)"/><circle cx="147.94" cy="147.94" r="147.94" transform="matrix(-.816861 .576834 .576834 .816861 814.047 310)"/><circle cx="147.94" cy="147.94" r="147.94" transform="matrix(-.816861 .576834 .576834 .816861 817.619 309.973)"/><circle cx="147.94" cy="147.94" r="147.94" transform="matrix(-.816861 .576834 .576834 .816861 821.196 309.902)"/><circle cx="147.94" cy="147.94" r="147.94" transform="matrix(-.816861 .576834 .576834 .816861 824.766 309.785)"/><circle cx="147.94" cy="147.94" r="147.94" transform="matrix(-.816861 .576834 .576834 .816861 828.335 309.629)"/><circle cx="147.94" cy="147.94" r="147.94" transform="matrix(-.816861 .576834 .576834 .816861 831.899 309.434)"/><circle cx="147.94" cy="147.94" r="147.94" transform="matrix(-.816861 .576834 .576834 .816861 835.47 309.195)"/><circle cx="147.94" cy="147.94" r="147.94" transform="matrix(-.816861 .576834 .576834 .816861 839.026 308.918)"/><circle cx="147.94" cy="147.94" r="147.94" transform="matrix(-.816861 .576834 .576834 .816861 842.593 308.605)"/><circle cx="147.94" cy="147.94" r="147.94" transform="matrix(-.816861 .576834 .576834 .816861 846.145 308.246)"/><circle cx="147.94" cy="147.94" r="147.94" transform="matrix(-.816861 .576834 .576834 .816861 849.699 307.863)"/><circle cx="147.94" cy="147.94" r="147.94" transform="matrix(-.816861 .576834 .576834 .816861 853.243 307.43)"/><circle cx="147.94" cy="147.94" r="147.94" transform="matrix(-.816861 .576834 .576834 .816861 856.792 306.957)"/><circle cx="147.94" cy="147.94" r="147.94" transform="matrix(-.816861 .576834 .576834 .816861 860.33 306.461)"/><circle cx="147.94" cy="147.94" r="147.94" transform="matrix(-.816861 .576834 .576834 .816861 863.859 305.918)"/><circle cx="147.94" cy="147.94" r="147.94" transform="matrix(-.816861 .576834 .576834 .816861 867.393 305.348)"/><circle cx="147.94" cy="147.94" r="147.94" transform="matrix(-.816861 .576834 .576834 .816861 870.911 304.738)"/><circle cx="147.94" cy="147.94" r="147.94" transform="matrix(-.816861 .576834 .576834 .816861 874.424 304.102)"/><circle cx="147.94" cy="147.94" r="147.94" transform="matrix(-.816861 .576834 .576834 .816861 877.935 303.418)"/><circle cx="147.94" cy="147.94" r="147.94" transform="matrix(-.816861 .576834 .576834 .816861 881.438 302.719)"/><circle cx="147.94" cy="147.94" r="147.94" transform="matrix(-.816861 .576834 .576834 .816861 884.938 301.973)"/><circle cx="147.94" cy="147.94" r="147.94" transform="matrix(-.816861 .576834 .576834 .816861 888.423 301.203)"/><circle cx="147.94" cy="147.94" r="147.94" transform="matrix(-.816861 .576834 .576834 .816861 891.902 300.398)"/><circle cx="147.94" cy="147.94" r="147.94" transform="matrix(-.816861 .576834 .576834 .816861 895.38 299.566)"/><circle cx="147.94" cy="147.94" r="147.94" transform="matrix(-.816861 .576834 .576834 .816861 898.847 298.703)"/><circle cx="147.94" cy="147.94" r="147.94" transform="matrix(-.816861 .576834 .576834 .816861 902.309 297.805)"/><circle cx="147.94" cy="147.94" r="147.94" transform="matrix(-.816861 .576834 .576834 .816861 905.753 296.887)"/><circle cx="147.94" cy="147.94" r="147.94" transform="matrix(-.816861 .576834 .576834 .816861 909.202 295.93)"/><circle cx="147.94" cy="147.94" r="147.94" transform="matrix(-.816861 .576834 .576834 .816861 912.641 294.957)"/><circle cx="147.94" cy="147.94" r="147.94" transform="matrix(-.816861 .576834 .576834 .816861 916.074 293.945)"/><circle cx="147.94" cy="147.94" r="147.94" transform="matrix(-.816861 .576834 .576834 .816861 919.49 292.91)"/><circle cx="147.94" cy="147.94" r="147.94" transform="matrix(-.816861 .576834 .576834 .816861 922.903 291.848)"/><circle cx="147.94" cy="147.94" r="147.94" transform="matrix(-.816861 .576834 .576834 .816861 926.31 290.762)"/><circle cx="147.94" cy="147.94" r="147.94" transform="matrix(-.816861 .576834 .576834 .816861 929.704 289.648)"/><circle cx="147.94" cy="147.94" r="147.94" transform="matrix(-.816861 .576834 .576834 .816861 933.092 288.512)"/><circle cx="147.94" cy="147.94" r="147.94" transform="matrix(-.816861 .576834 .576834 .816861 936.475 287.352)"/><circle cx="147.94" cy="147.94" r="147.94" transform="matrix(-.816861 .576834 .576834 .816861 939.844 286.164)"/><circle cx="147.94" cy="147.94" r="147.94" transform="matrix(-.816861 .576834 .576834 .816861 943.206 284.953)"/><circle cx="147.94" cy="147.94" r="147.94" transform="matrix(-.816861 .576834 .576834 .816861 946.553 283.719)"/><circle cx="147.94" cy="147.94" r="147.94" transform="matrix(-.816861 .576834 .576834 .816861 949.899 282.457)"/><circle cx="147.94" cy="147.94" r="147.94" transform="matrix(-.816861 .576834 .576834 .816861 953.24 281.176)"/><circle cx="147.94" cy="147.94" r="147.94" transform="matrix(-.816861 .576834 .576834 .816861 956.564 279.871)"/><circle cx="147.94" cy="147.94" r="147.94" transform="matrix(-.816861 .576834 .576834 .816861 959.885 278.547)"/><circle cx="147.94" cy="147.94" r="147.94" transform="matrix(-.816861 .576834 .576834 .816861 963.193 277.199)"/><circle cx="147.94" cy="147.94" r="147.94" transform="matrix(-.816861 .576834 .576834 .816861 966.502 275.832)"/><circle cx="147.94" cy="147.94" r="147.94" transform="matrix(-.816861 .576834 .576834 .816861 969.789 274.449)"/><circle cx="147.94" cy="147.94" r="147.94" transform="matrix(-.816861 .576834 .576834 .816861 973.072 273.035)"/><circle cx="147.94" cy="147.94" r="147.94" transform="matrix(-.816861 .576834 .576834 .816861 976.35 271.605)"/><circle cx="147.94" cy="147.94" r="147.94" transform="matrix(-.816861 .576834 .576834 .816861 979.621 270.156)"/><circle cx="147.94" cy="147.94" r="147.94" transform="matrix(-.816861 .576834 .576834 .816861 982.879 268.688)"/><circle cx="147.94" cy="147.94" r="147.94" transform="matrix(-.816861 .576834 .576834 .816861 986.122 267.195)"/><circle cx="147.94" cy="147.94" r="147.94" transform="matrix(-.816861 .576834 .576834 .816861 989.364 265.688)"/><circle cx="147.94" cy="147.94" r="147.94" transform="matrix(-.816861 .576834 .576834 .816861 992.596 264.168)"/><circle cx="147.94" cy="147.94" r="147.94" transform="matrix(-.816861 .576834 .576834 .816861 995.816 262.617)"/><circle cx="147.94" cy="147.94" r="147.94" transform="matrix(-.816861 .576834 .576834 .816861 999.035 261.062)"/><circle cx="147.94" cy="147.94" r="147.94" transform="matrix(-.816861 .576834 .576834 .816861 1002.24 259.484)"/><circle cx="147.94" cy="147.94" r="147.94" transform="matrix(-.816861 .576834 .576834 .816861 1005.43 257.879)"/><circle cx="147.94" cy="147.94" r="147.94" transform="matrix(-.816861 .576834 .576834 .816861 1008.63 256.27)"/><circle cx="147.94" cy="147.94" r="147.94" transform="matrix(-.816861 .576834 .576834 .816861 1011.8 254.641)"/><circle cx="147.94" cy="147.94" r="147.94" transform="matrix(-.816861 .576834 .576834 .816861 1014.97 252.992)"/><circle cx="147.94" cy="147.94" r="147.94" transform="matrix(-.816861 .576834 .576834 .816861 1018.14 251.324)"/><circle cx="147.94" cy="147.94" r="147.94" transform="matrix(-.816861 .576834 .576834 .816861 1021.29 249.648)"/><circle cx="147.94" cy="147.94" r="147.94" transform="matrix(-.816861 .576834 .576834 .816861 1024.43 247.945)"/><circle cx="147.94" cy="147.94" r="147.94" transform="matrix(-.816861 .576834 .576834 .816861 1027.58 246.242)"/><circle cx="147.94" cy="147.94" r="147.94" transform="matrix(-.816861 .576834 .576834 .816861 1030.7 244.52)"/><circle cx="147.94" cy="147.94" r="147.94" transform="matrix(-.816861 .576834 .576834 .816861 1033.82 242.773)"/><circle cx="147.94" cy="147.94" r="147.94" transform="matrix(-.816861 .576834 .576834 .816861 1036.93 241.012)"/><circle cx="147.94" cy="147.94" r="147.94" transform="matrix(-.816861 .576834 .576834 .816861 1040.04 239.246)"/><circle cx="147.94" cy="147.94" r="147.94" transform="matrix(-.816861 .576834 .576834 .816861 1043.13 237.457)"/><circle cx="147.94" cy="147.94" r="147.94" transform="matrix(-.816861 .576834 .576834 .816861 1046.22 235.648)"/><circle cx="147.94" cy="147.94" r="147.94" transform="matrix(-.816861 .576834 .576834 .816861 1049.31 233.84)"/><circle cx="147.94" cy="147.94" r="147.94" transform="matrix(-.816861 .576834 .576834 .816861 1052.38 232.023)"/><circle cx="147.94" cy="147.94" r="147.94" transform="matrix(-.816861 .576834 .576834 .816861 1055.43 230.172)"/><circle cx="147.94" cy="147.94" r="147.94" transform="matrix(-.816861 .576834 .576834 .816861 1058.49 228.32)"/><circle cx="147.94" cy="147.94" r="147.94" transform="matrix(-.816861 .576834 .576834 .816861 1061.53 226.453)"/><circle cx="147.94" cy="147.94" r="147.94" transform="matrix(-.816861 .576834 .576834 .816861 1064.58 224.57)"/><circle cx="147.94" cy="147.94" r="147.94" transform="matrix(-.816861 .576834 .576834 .816861 1067.6 222.684)"/><circle cx="147.94" cy="147.94" r="147.94" transform="matrix(-.816861 .576834 .576834 .816861 1070.63 220.77)"/><circle cx="147.94" cy="147.94" r="147.94" transform="matrix(-.816861 .576834 .576834 .816861 1073.65 218.852)"/><circle cx="147.94" cy="147.94" r="147.94" transform="matrix(-.816861 .576834 .576834 .816861 1076.65 216.922)"/><circle cx="147.94" cy="147.94" r="147.94" transform="matrix(-.816861 .576834 .576834 .816861 1079.65 214.977)"/><circle cx="147.94" cy="147.94" r="147.94" transform="matrix(-.816861 .576834 .576834 .816861 1082.64 213.031)"/><circle cx="147.94" cy="147.94" r="147.94" transform="matrix(-.816861 .576834 .576834 .816861 1085.63 211.059)"/><circle cx="147.94" cy="147.94" r="147.94" transform="matrix(-.816861 .576834 .576834 .816861 1088.61 209.086)"/><circle cx="147.94" cy="147.94" r="147.94" transform="matrix(-.816861 .576834 .576834 .816861 1091.57 207.09)"/><circle cx="147.94" cy="147.94" r="147.94" transform="matrix(-.816861 .576834 .576834 .816861 1094.53 205.094)"/><circle cx="147.94" cy="147.94" r="147.94" transform="matrix(-.816861 .576834 .576834 .816861 1097.49 203.074)"/><circle cx="147.94" cy="147.94" r="147.94" transform="matrix(-.816861 .576834 .576834 .816861 1100.43 201.059)"/><circle cx="147.94" cy="147.94" r="147.94" transform="matrix(-.816861 .576834 .576834 .816861 1103.37 199.023)"/><circle cx="147.94" cy="147.94" r="147.94" transform="matrix(-.816861 .576834 .576834 .816861 1106.3 196.98)"/><circle cx="147.94" cy="147.94" r="147.94" transform="matrix(-.816861 .576834 .576834 .816861 1109.22 194.926)"/><circle cx="147.94" cy="147.94" r="147.94" transform="matrix(-.816861 .576834 .576834 .816861 1112.14 192.855)"/><circle cx="147.94" cy="147.94" r="147.94" transform="matrix(-.816861 .576834 .576834 .816861 1115.05 190.777)"/><circle cx="147.94" cy="147.94" r="147.94" transform="matrix(-.816861 .576834 .576834 .816861 1117.95 188.699)"/><circle cx="147.94" cy="147.94" r="147.94" transform="matrix(-.816861 .576834 .576834 .816861 1120.84 186.598)"/><circle cx="147.94" cy="147.94" r="147.94" transform="matrix(-.816861 .576834 .576834 .816861 1123.74 184.492)"/><circle cx="147.94" cy="147.94" r="147.94" transform="matrix(-.816861 .576834 .576834 .816861 1126.62 182.379)"/><circle cx="147.94" cy="147.94" r="147.94" transform="matrix(-.816861 .576834 .576834 .816861 1129.49 180.254)"/><circle cx="147.94" cy="147.94" r="147.94" transform="matrix(-.816861 .576834 .576834 .816861 1132.35 178.117)"/><circle cx="147.94" cy="147.94" r="147.94" transform="matrix(-.816861 .576834 .576834 .816861 1135.21 175.973)"/><circle cx="147.94" cy="147.94" r="147.94" transform="matrix(-.816861 .576834 .576834 .816861 1138.07 173.824)"/><circle cx="147.94" cy="147.94" r="147.94" transform="matrix(-.816861 .576834 .576834 .816861 1140.91 171.66)"/><circle cx="147.94" cy="147.94" r="147.94" transform="matrix(-.816861 .576834 .576834 .816861 1143.75 169.488)"/><circle cx="147.94" cy="147.94" r="147.94" transform="matrix(-.816861 .576834 .576834 .816861 1146.58 167.301)"/><circle cx="147.94" cy="147.94" r="147.94" transform="matrix(-.816861 .576834 .576834 .816861 1149.4 165.113)"/><circle cx="147.94" cy="147.94" r="147.94" transform="matrix(-.816861 .576834 .576834 .816861 1152.22 162.918)"/><circle cx="147.94" cy="147.94" r="147.94" transform="matrix(-.816861 .576834 .576834 .816861 1155.04 160.715)"/><circle cx="147.94" cy="147.94" r="147.94" transform="matrix(-.816861 .576834 .576834 .816861 1157.84 158.496)"/><circle cx="147.94" cy="147.94" r="147.94" transform="matrix(-.816861 .576834 .576834 .816861 1160.64 156.27)"/><circle cx="147.94" cy="147.94" r="147.94" transform="matrix(-.816861 .576834 .576834 .816861 1163.43 154.043)"/><circle cx="147.94" cy="147.94" r="147.94" transform="matrix(-.816861 .576834 .576834 .816861 1166.21 151.801)"/><circle cx="147.94" cy="147.94" r="147.94" transform="matrix(-.816861 .576834 .576834 .816861 1168.99 149.555)"/><circle cx="147.94" cy="147.94" r="147.94" transform="matrix(-.816861 .576834 .576834 .816861 1171.76 147.297)"/><circle cx="147.94" cy="147.94" r="147.94" transform="matrix(-.816861 .576834 .576834 .816861 1174.53 145.031)"/><circle cx="147.94" cy="147.94" r="147.94" transform="matrix(-.816861 .576834 .576834 .816861 1177.29 142.758)"/><circle cx="147.94" cy="147.94" r="147.94" transform="matrix(-.816861 .576834 .576834 .816861 1180.04 140.473)"/><circle cx="147.94" cy="147.94" r="147.94" transform="matrix(-.816861 .576834 .576834 .816861 1182.78 138.191)"/><circle cx="147.94" cy="147.94" r="147.94" transform="matrix(-.816861 .576834 .576834 .816861 1185.52 135.898)"/><circle cx="147.94" cy="147.94" r="147.94" transform="matrix(-.816861 .576834 .576834 .816861 1188.26 133.59)"/><circle cx="147.94" cy="147.94" r="147.94" transform="matrix(-.816861 .576834 .576834 .816861 1190.98 131.285)"/><circle cx="147.94" cy="147.94" r="147.94" transform="matrix(-.816861 .576834 .576834 .816861 1193.7 128.961)"/><circle cx="147.94" cy="147.94" r="147.94" transform="matrix(-.816861 .576834 .576834 .816861 1196.42 126.641)"/><circle cx="147.94" cy="147.94" r="147.94" transform="matrix(-.816861 .576834 .576834 .816861 1199.13 124.309)"/><circle cx="147.94" cy="147.94" r="147.94" transform="matrix(-.816861 .576834 .576834 .816861 1201.82 121.965)"/><circle cx="147.94" cy="147.94" r="147.94" transform="matrix(-.816861 .576834 .576834 .816861 1204.52 119.629)"/><circle cx="147.94" cy="147.94" r="147.94" transform="matrix(-.816861 .576834 .576834 .816861 1207.21 117.266)"/><circle cx="147.94" cy="147.94" r="147.94" transform="matrix(-.816861 .576834 .576834 .816861 1209.89 114.91)"/><circle cx="147.94" cy="147.94" r="147.94" transform="matrix(-.816861 .576834 .576834 .816861 1212.57 112.543)"/><circle cx="147.94" cy="147.94" r="147.94" transform="matrix(-.816861 .576834 .576834 .816861 1215.24 110.164)"/><circle cx="147.94" cy="147.94" r="147.94" transform="matrix(-.816861 .576834 .576834 .816861 1217.91 107.789)"/><circle cx="147.94" cy="147.94" r="147.94" transform="matrix(-.816861 .576834 .576834 .816861 1220.57 105.398)"/><circle cx="147.94" cy="147.94" r="147.94" transform="matrix(-.816861 .576834 .576834 .816861 1223.22 103.008)"/><circle cx="147.94" cy="147.94" r="147.94" transform="matrix(-.816861 .576834 .576834 .816861 1225.87 100.602)"/><circle cx="147.94" cy="147.94" r="147.94" transform="matrix(-.816861 .576834 .576834 .816861 1228.5 98.1953)"/><circle cx="147.94" cy="147.94" r="147.94" transform="matrix(-.816861 .576834 .576834 .816861 1231.14 95.7812)"/><circle cx="147.94" cy="147.94" r="147.94" transform="matrix(-.816861 .576834 .576834 .816861 1233.77 93.3711)"/><circle cx="147.94" cy="147.94" r="147.94" transform="matrix(-.816861 .576834 .576834 .816861 1236.4 90.9453)"/><circle cx="147.94" cy="147.94" r="147.94" transform="matrix(-.816861 .576834 .576834 .816861 1239.02 88.5078)"/><circle cx="147.94" cy="147.94" r="147.94" transform="matrix(-.816861 .576834 .576834 .816861 1241.62 86.0703)"/><circle cx="147.94" cy="147.94" r="147.94" transform="matrix(-.816861 .576834 .576834 .816861 1244.24 83.6289)"/><circle cx="147.94" cy="147.94" r="147.94" transform="matrix(-.816861 .576834 .576834 .816861 1246.84 81.1719)"/><circle cx="147.94" cy="147.94" r="147.94" transform="matrix(-.816861 .576834 .576834 .816861 1249.44 78.7227)"/><circle cx="147.94" cy="147.94" r="147.94" transform="matrix(-.816861 .576834 .576834 .816861 1252.02 76.2578)"/><circle cx="147.94" cy="147.94" r="147.94" transform="matrix(-.816861 .576834 .576834 .816861 1254.61 73.7852)"/><circle cx="147.94" cy="147.94" r="147.94" transform="matrix(-.816861 .576834 .576834 .816861 1257.19 71.3164)"/><circle cx="147.94" cy="147.94" r="147.94" transform="matrix(-.816861 .576834 .576834 .816861 1259.76 68.8359)"/><circle cx="147.94" cy="147.94" r="147.94" transform="matrix(-.816861 .576834 .576834 .816861 1262.33 66.3477)"/><circle cx="147.94" cy="147.94" r="147.94" transform="matrix(-.816861 .576834 .576834 .816861 1264.89 63.8594)"/><circle cx="147.94" cy="147.94" r="147.94" transform="matrix(-.816861 .576834 .576834 .816861 1267.45 61.3633)"/><circle cx="147.94" cy="147.94" r="147.94" transform="matrix(-.816861 .576834 .576834 .816861 1270 58.8633)"/><circle cx="147.94" cy="147.94" r="147.94" transform="matrix(-.816861 .576834 .576834 .816861 1272.54 56.3516)"/><circle cx="147.94" cy="147.94" r="147.94" transform="matrix(-.816861 .576834 .576834 .816861 1275.09 53.8398)"/><circle cx="147.94" cy="147.94" r="147.94" transform="matrix(-.816861 .576834 .576834 .816861 1277.63 51.3281)"/><circle cx="147.94" cy="147.94" r="147.94" transform="matrix(-.816861 .576834 .576834 .816861 1280.16 48.7969)"/><circle cx="147.94" cy="147.94" r="147.94" transform="matrix(-.816861 .576834 .576834 .816861 1282.68 46.2734)"/><circle cx="147.94" cy="147.94" r="147.94" transform="matrix(-.816861 .576834 .576834 .816861 1285.2 43.7383)"/><circle cx="147.94" cy="147.94" r="147.94" transform="matrix(-.816861 .576834 .576834 .816861 1287.71 41.1875)"/><circle cx="147.94" cy="147.94" r="147.94" transform="matrix(-.816861 .576834 .576834 .816861 1290.22 38.6523)"/><circle cx="147.94" cy="147.94" r="147.94" transform="matrix(-.816861 .576834 .576834 .816861 1292.73 36.1016)"/><circle cx="147.94" cy="147.94" r="147.94" transform="matrix(-.816861 .576834 .576834 .816861 1295.23 33.5508)"/><circle cx="147.94" cy="147.94" r="147.94" transform="matrix(-.816861 .576834 .576834 .816861 1297.72 30.9922)"/><circle cx="147.94" cy="147.94" r="147.94" transform="matrix(-.816861 .576834 .576834 .816861 1300.21 28.4258)"/><circle cx="147.94" cy="147.94" r="147.94" transform="matrix(-.816861 .576834 .576834 .816861 1302.69 25.8516)"/><circle cx="147.94" cy="147.94" r="147.94" transform="matrix(-.816861 .576834 .576834 .816861 1305.17 23.2773)"/><circle cx="147.94" cy="147.94" r="147.94" transform="matrix(-.816861 .576834 .576834 .816861 1307.65 20.7031)"/><circle cx="147.94" cy="147.94" r="147.94" transform="matrix(-.816861 .576834 .576834 .816861 1310.11 18.1172)"/><circle cx="147.94" cy="147.94" r="147.94" transform="matrix(-.816861 .576834 .576834 .816861 1312.58 15.5234)"/><circle cx="147.94" cy="147.94" r="147.94" transform="matrix(-.816861 .576834 .576834 .816861 1315.03 12.9336)"/><circle cx="147.94" cy="147.94" r="147.94" transform="matrix(-.816861 .576834 .576834 .816861 1317.49 10.3359)"/><circle cx="147.94" cy="147.94" r="147.94" transform="matrix(-.816861 .576834 .576834 .816861 1319.94 7.73047)"/><circle cx="147.94" cy="147.94" r="147.94" transform="matrix(-.816861 .576834 .576834 .816861 1322.38 5.12109)"/><circle cx="147.94" cy="147.94" r="147.94" transform="matrix(-.816861 .576834 .576834 .816861 1324.82 2.51172)"/><circle cx="147.94" cy="147.94" r="147.94" transform="matrix(-.816861 .576834 .576834 .816861 1327.25 -.101562)"/><circle cx="147.94" cy="147.94" r="147.94" transform="matrix(-.816861 .576834 .576834 .816861 1329.68 -2.72656)"/><circle cx="147.94" cy="147.94" r="147.94" transform="matrix(-.816861 .576834 .576834 .816861 1332.11 -5.35938)"/><circle cx="147.94" cy="147.94" r="147.94" transform="matrix(-.816861 .576834 .576834 .816861 1334.52 -7.98828)"/><circle cx="147.94" cy="147.94" r="147.94" transform="matrix(-.816861 .576834 .576834 .816861 1336.94 -10.6172)"/><circle cx="147.94" cy="147.94" r="147.94" transform="matrix(-.816861 .576834 .576834 .816861 1339.34 -13.2656)"/><circle cx="147.94" cy="147.94" r="147.94" transform="matrix(-.816861 .576834 .576834 .816861 1341.75 -15.9062)"/><circle cx="147.94" cy="147.94" r="147.94" transform="matrix(-.816861 .576834 .576834 .816861 1344.15 -18.5586)"/><circle cx="147.94" cy="147.94" r="147.94" transform="matrix(-.816861 .576834 .576834 .816861 1346.54 -21.2031)"/><circle cx="147.94" cy="147.94" r="147.94" transform="matrix(-.816861 .576834 .576834 .816861 1348.94 -23.8594)"/><circle cx="147.94" cy="147.94" r="147.94" transform="matrix(-.816861 .576834 .576834 .816861 1351.32 -26.5273)"/><circle cx="147.94" cy="147.94" r="147.94" transform="matrix(-.816861 .576834 .576834 .816861 1353.7 -29.1953)"/><circle cx="147.94" cy="147.94" r="147.94" transform="matrix(-.816861 .576834 .576834 .816861 1356.08 -31.8633)"/><circle cx="147.94" cy="147.94" r="147.94" transform="matrix(-.816861 .576834 .576834 .816861 1358.45 -34.5352)"/><circle cx="147.94" cy="147.94" r="147.94" transform="matrix(-.816861 .576834 .576834 .816861 1360.82 -37.2148)"/><circle cx="147.94" cy="147.94" r="147.94" transform="matrix(-.816861 .576834 .576834 .816861 1363.18 -39.8906)"/><circle cx="147.94" cy="147.94" r="147.94" transform="matrix(-.816861 .576834 .576834 .816861 1365.53 -42.5703)"/><circle cx="147.94" cy="147.94" r="147.94" transform="matrix(-.816861 .576834 .576834 .816861 1367.89 -45.2695)"/><circle cx="147.94" cy="147.94" r="147.94" transform="matrix(-.816861 .576834 .576834 .816861 1370.23 -47.9609)"/><circle cx="147.94" cy="147.94" r="147.94" transform="matrix(-.816861 .576834 .576834 .816861 1372.58 -50.6602)"/><circle cx="147.94" cy="147.94" r="147.94" transform="matrix(-.816861 .576834 .576834 .816861 1374.92 -53.3633)"/><circle cx="147.94" cy="147.94" r="147.94" transform="matrix(-.816861 .576834 .576834 .816861 1377.25 -56.0664)"/><circle cx="147.94" cy="147.94" r="147.94" transform="matrix(-.816861 .576834 .576834 .816861 1379.58 -58.7852)"/><circle cx="147.94" cy="147.94" r="147.94" transform="matrix(-.816861 .576834 .576834 .816861 1381.91 -61.4961)"/><circle cx="147.94" cy="147.94" r="147.94" transform="matrix(-.816861 .576834 .576834 .816861 1384.22 -64.2109)"/><circle cx="147.94" cy="147.94" r="147.94" transform="matrix(-.816861 .576834 .576834 .816861 1386.54 -66.9258)"/><circle cx="147.94" cy="147.94" r="147.94" transform="matrix(-.816861 .576834 .576834 .816861 1388.86 -69.6562)"/><circle cx="147.94" cy="147.94" r="147.94" transform="matrix(-.816861 .576834 .576834 .816861 1391.16 -72.3906)"/><circle cx="147.94" cy="147.94" r="147.94" transform="matrix(-.816861 .576834 .576834 .816861 1393.46 -75.1172)"/><circle cx="147.94" cy="147.94" r="147.94" transform="matrix(-.816861 .576834 .576834 .816861 1395.76 -77.8594)"/><circle cx="147.94" cy="147.94" r="147.94" transform="matrix(-.816861 .576834 .576834 .816861 1398.05 -80.5977)"/><circle cx="147.94" cy="147.94" r="147.94" transform="matrix(-.816861 .576834 .576834 .816861 1400.35 -83.332)"/><circle cx="147.94" cy="147.94" r="147.94" transform="matrix(-.816861 .576834 .576834 .816861 1402.63 -86.0859)"/><circle cx="147.94" cy="147.94" r="147.94" transform="matrix(-.816861 .576834 .576834 .816861 1404.92 -88.8359)"/><circle cx="147.94" cy="147.94" r="147.94" transform="matrix(-.816861 .576834 .576834 .816861 1407.19 -91.5938)"/><circle cx="147.94" cy="147.94" r="147.94" transform="matrix(-.816861 .576834 .576834 .816861 1409.46 -94.3477)"/><circle cx="147.94" cy="147.94" r="147.94" transform="matrix(-.816861 .576834 .576834 .816861 1411.73 -97.1094)"/><circle cx="147.94" cy="147.94" r="147.94" transform="matrix(-.816861 .576834 .576834 .816861 1413.99 -99.8828)"/><circle cx="147.94" cy="147.94" r="147.94" transform="matrix(-.816861 .576834 .576834 .816861 1416.25 -102.641)"/><circle cx="147.94" cy="147.94" r="147.94" transform="matrix(-.816861 .576834 .576834 .816861 1418.51 -105.418)"/><circle cx="147.94" cy="147.94" r="147.94" transform="matrix(-.816861 .576834 .576834 .816861 1420.76 -108.199)"/><circle cx="147.94" cy="147.94" r="147.94" transform="matrix(-.816861 .576834 .576834 .816861 1423.01 -110.973)"/><circle cx="147.94" cy="147.94" r="147.94" transform="matrix(-.816861 .576834 .576834 .816861 1425.25 -113.762)"/><circle cx="147.94" cy="147.94" r="147.94" transform="matrix(-.816861 .576834 .576834 .816861 1427.49 -116.539)"/><circle cx="147.94" cy="147.94" r="147.94" transform="matrix(-.816861 .576834 .576834 .816861 1429.72 -119.332)"/><circle cx="147.94" cy="147.94" r="147.94" transform="matrix(-.816861 .576834 .576834 .816861 1431.95 -122.133)"/><circle cx="147.94" cy="147.94" r="147.94" transform="matrix(-.816861 .576834 .576834 .816861 1434.18 -124.926)"/><circle cx="147.94" cy="147.94" r="147.94" transform="matrix(-.816861 .576834 .576834 .816861 1436.39 -127.723)"/><circle cx="147.94" cy="147.94" r="147.94" transform="matrix(-.816861 .576834 .576834 .816861 1438.62 -130.516)"/><circle cx="147.94" cy="147.94" r="147.94" transform="matrix(-.816861 .576834 .576834 .816861 1440.83 -133.332)"/><circle cx="147.94" cy="147.94" r="147.94" transform="matrix(-.816861 .576834 .576834 .816861 1443.04 -136.141)"/><circle cx="147.94" cy="147.94" r="147.94" transform="matrix(-.816861 .576834 .576834 .816861 1445.24 -138.953)"/><circle cx="147.94" cy="147.94" r="147.94" transform="matrix(-.816861 .576834 .576834 .816861 1447.44 -141.762)"/><circle cx="147.94" cy="147.94" r="147.94" transform="matrix(-.816861 .576834 .576834 .816861 1449.63 -144.594)"/><circle cx="147.94" cy="147.94" r="147.94" transform="matrix(-.816861 .576834 .576834 .816861 1451.83 -147.41)"/><circle cx="147.94" cy="147.94" r="147.94" transform="matrix(-.816861 .576834 .576834 .816861 1454.02 -150.238)"/><circle cx="147.94" cy="147.94" r="147.94" transform="matrix(-.816861 .576834 .576834 .816861 1456.2 -153.059)"/><circle cx="147.94" cy="147.94" r="147.94" transform="matrix(-.816861 .576834 .576834 .816861 1458.38 -155.895)"/><circle cx="147.94" cy="147.94" r="147.94" transform="matrix(-.816861 .576834 .576834 .816861 1460.55 -158.727)"/><circle cx="147.94" cy="147.94" r="147.94" transform="matrix(-.816861 .576834 .576834 .816861 1462.72 -161.574)"/><circle cx="147.94" cy="147.94" r="147.94" transform="matrix(-.816861 .576834 .576834 .816861 1464.9 -164.414)"/><circle cx="147.94" cy="147.94" r="147.94" transform="matrix(-.816861 .576834 .576834 .816861 1467.06 -167.258)"/><circle cx="147.94" cy="147.94" r="147.94" transform="matrix(-.816861 .576834 .576834 .816861 1469.23 -170.109)"/><circle cx="147.94" cy="147.94" r="147.94" transform="matrix(-.816861 .576834 .576834 .816861 1471.37 -172.957)"/><circle cx="147.94" cy="147.94" r="147.94" transform="matrix(-.816861 .576834 .576834 .816861 1473.52 -175.805)"/><circle cx="147.94" cy="147.94" r="147.94" transform="matrix(-.816861 .576834 .576834 .816861 1475.67 -178.668)"/><circle cx="147.94" cy="147.94" r="147.94" transform="matrix(-.816861 .576834 .576834 .816861 1477.81 -181.52)"/><circle cx="147.94" cy="147.94" r="147.94" transform="matrix(-.816861 .576834 .576834 .816861 1479.96 -184.387)"/><circle cx="147.94" cy="147.94" r="147.94" transform="matrix(-.816861 .576834 .576834 .816861 1482.09 -187.254)"/><circle cx="147.94" cy="147.94" r="147.94" transform="matrix(-.816861 .576834 .576834 .816861 1484.22 -190.125)"/><circle cx="147.94" cy="147.94" r="147.94" transform="matrix(-.816861 .576834 .576834 .816861 1486.33 -192.957)"/><circle cx="147.94" cy="147.94" r="147.94" transform="matrix(-.816861 .576834 .576834 .816861 1488.46 -195.832)"/><circle cx="147.94" cy="147.94" r="147.94" transform="matrix(-.816861 .576834 .576834 .816861 1490.6 -198.688)"/><circle cx="147.94" cy="147.94" r="147.94" transform="matrix(-.816861 .576834 .576834 .816861 1492.75 -201.551)"/><circle cx="147.94" cy="147.94" r="147.94" transform="matrix(-.816861 .576834 .576834 .816861 1494.9 -204.395)"/><circle cx="147.94" cy="147.94" r="147.94" transform="matrix(-.816861 .576834 .576834 .816861 1497.06 -207.246)"/><circle cx="147.94" cy="147.94" r="147.94" transform="matrix(-.816861 .576834 .576834 .816861 1499.24 -210.082)"/><circle cx="147.94" cy="147.94" r="147.94" transform="matrix(-.816861 .576834 .576834 .816861 1501.41 -212.914)"/><circle cx="147.94" cy="147.94" r="147.94" transform="matrix(-.816861 .576834 .576834 .816861 1503.59 -215.738)"/><circle cx="147.94" cy="147.94" r="147.94" transform="matrix(-.816861 .576834 .576834 .816861 1505.79 -218.562)"/><circle cx="147.94" cy="147.94" r="147.94" transform="matrix(-.816861 .576834 .576834 .816861 1507.99 -221.383)"/><circle cx="147.94" cy="147.94" r="147.94" transform="matrix(-.816861 .576834 .576834 .816861 1510.2 -224.184)"/><circle cx="147.94" cy="147.94" r="147.94" transform="matrix(-.816861 .576834 .576834 .816861 1512.42 -226.992)"/><circle cx="147.94" cy="147.94" r="147.94" transform="matrix(-.816861 .576834 .576834 .816861 1514.65 -229.793)"/><circle cx="147.94" cy="147.94" r="147.94" transform="matrix(-.816861 .576834 .576834 .816861 1516.88 -232.578)"/><circle cx="147.94" cy="147.94" r="147.94" transform="matrix(-.816861 .576834 .576834 .816861 1519.12 -235.359)"/><circle cx="147.94" cy="147.94" r="147.94" transform="matrix(-.816861 .576834 .576834 .816861 1521.37 -238.137)"/><circle cx="147.94" cy="147.94" r="147.94" transform="matrix(-.816861 .576834 .576834 .816861 1523.63 -240.91)"/><circle cx="147.94" cy="147.94" r="147.94" transform="matrix(-.816861 .576834 .576834 .816861 1525.9 -243.664)"/><circle cx="147.94" cy="147.94" r="147.94" transform="matrix(-.816861 .576834 .576834 .816861 1528.18 -246.418)"/><circle cx="147.94" cy="147.94" r="147.94" transform="matrix(-.816861 .576834 .576834 .816861 1530.46 -249.168)"/><circle cx="147.94" cy="147.94" r="147.94" transform="matrix(-.816861 .576834 .576834 .816861 1532.75 -251.91)"/><circle cx="147.94" cy="147.94" r="147.94" transform="matrix(-.816861 .576834 .576834 .816861 1535.05 -254.645)"/><circle cx="147.94" cy="147.94" r="147.94" transform="matrix(-.816861 .576834 .576834 .816861 1537.37 -257.371)"/><circle cx="147.94" cy="147.94" r="147.94" transform="matrix(-.816861 .576834 .576834 .816861 1539.68 -260.09)"/><circle cx="147.94" cy="147.94" r="147.94" transform="matrix(-.816861 .576834 .576834 .816861 1542.01 -262.797)"/><circle cx="147.94" cy="147.94" r="147.94" transform="matrix(-.816861 .576834 .576834 .816861 1544.35 -265.504)"/><circle cx="147.94" cy="147.94" r="147.94" transform="matrix(-.816861 .576834 .576834 .816861 1546.69 -268.207)"/><circle cx="147.94" cy="147.94" r="147.94" transform="matrix(-.816861 .576834 .576834 .816861 1549.05 -270.891)"/><circle cx="147.94" cy="147.94" r="147.94" transform="matrix(-.816861 .576834 .576834 .816861 1551.42 -273.57)"/><circle cx="147.94" cy="147.94" r="147.94" transform="matrix(-.816861 .576834 .576834 .816861 1553.79 -276.242)"/><circle cx="147.94" cy="147.94" r="147.94" transform="matrix(-.816861 .576834 .576834 .816861 1556.17 -278.902)"/><circle cx="147.94" cy="147.94" r="147.94" transform="matrix(-.816861 .576834 .576834 .816861 1558.56 -281.559)"/><circle cx="147.94" cy="147.94" r="147.94" transform="matrix(-.816861 .576834 .576834 .816861 1560.96 -284.199)"/><circle cx="147.94" cy="147.94" r="147.94" transform="matrix(-.816861 .576834 .576834 .816861 1563.37 -286.84)"/><circle cx="147.94" cy="147.94" r="147.94" transform="matrix(-.816861 .576834 .576834 .816861 1565.8 -289.477)"/><circle cx="147.94" cy="147.94" r="147.94" transform="matrix(-.816861 .576834 .576834 .816861 1568.23 -292.094)"/><circle cx="147.94" cy="147.94" r="147.94" transform="matrix(-.816861 .576834 .576834 .816861 1570.66 -294.703)"/><circle cx="147.94" cy="147.94" r="147.94" transform="matrix(-.816861 .576834 .576834 .816861 1573.12 -297.309)"/><circle cx="147.94" cy="147.94" r="147.94" transform="matrix(-.816861 .576834 .576834 .816861 1575.57 -299.898)"/><circle cx="147.94" cy="147.94" r="147.94" transform="matrix(-.816861 .576834 .576834 .816861 1578.04 -302.477)"/><circle cx="147.94" cy="147.94" r="147.94" transform="matrix(-.816861 .576834 .576834 .816861 1580.52 -305.055)"/><circle cx="147.94" cy="147.94" r="147.94" transform="matrix(-.816861 .576834 .576834 .816861 1583.01 -307.617)"/><circle cx="147.94" cy="147.94" r="147.94" transform="matrix(-.816861 .576834 .576834 .816861 1585.52 -310.172)"/><circle cx="147.94" cy="147.94" r="147.94" transform="matrix(-.816861 .576834 .576834 .816861 1588.03 -312.715)"/><circle cx="147.94" cy="147.94" r="147.94" transform="matrix(-.816861 .576834 .576834 .816861 1590.55 -315.246)"/><circle cx="147.94" cy="147.94" r="147.94" transform="matrix(-.816861 .576834 .576834 .816861 1593.08 -317.77)"/><circle cx="147.94" cy="147.94" r="147.94" transform="matrix(-.816861 .576834 .576834 .816861 1595.62 -320.281)"/><circle cx="147.94" cy="147.94" r="147.94" transform="matrix(-.816861 .576834 .576834 .816861 1598.17 -322.785)"/><circle cx="147.94" cy="147.94" r="147.94" transform="matrix(-.816861 .576834 .576834 .816861 1600.74 -325.273)"/><circle cx="147.94" cy="147.94" r="147.94" transform="matrix(-.816861 .576834 .576834 .816861 1603.31 -327.758)"/><circle cx="147.94" cy="147.94" r="147.94" transform="matrix(-.816861 .576834 .576834 .816861 1605.89 -330.223)"/><circle cx="147.94" cy="147.94" r="147.94" transform="matrix(-.816861 .576834 .576834 .816861 1608.49 -332.672)"/><circle cx="147.94" cy="147.94" r="147.94" transform="matrix(-.816861 .576834 .576834 .816861 1611.09 -335.117)"/><circle cx="147.94" cy="147.94" r="147.94" transform="matrix(-.816861 .576834 .576834 .816861 1613.71 -337.559)"/><circle cx="147.94" cy="147.94" r="147.94" transform="matrix(-.816861 .576834 .576834 .816861 1616.34 -339.969)"/><circle cx="147.94" cy="147.94" r="147.94" transform="matrix(-.816861 .576834 .576834 .816861 1618.98 -342.383)"/><circle cx="147.94" cy="147.94" r="147.94" transform="matrix(-.816861 .576834 .576834 .816861 1621.63 -344.777)"/><circle cx="147.94" cy="147.94" r="147.94" transform="matrix(-.816861 .576834 .576834 .816861 1624.3 -347.16)"/><circle cx="147.94" cy="147.94" r="147.94" transform="matrix(-.816861 .576834 .576834 .816861 1626.97 -349.535)"/><circle cx="147.94" cy="147.94" r="147.94" transform="matrix(-.816861 .576834 .576834 .816861 1629.65 -351.891)"/><circle cx="147.94" cy="147.94" r="147.94" transform="matrix(-.816861 .576834 .576834 .816861 1632.35 -354.23)"/><circle cx="147.94" cy="147.94" r="147.94" transform="matrix(-.816861 .576834 .576834 .816861 1635.06 -356.562)"/><circle cx="147.94" cy="147.94" r="147.94" transform="matrix(-.816861 .576834 .576834 .816861 1637.79 -358.883)"/><circle cx="147.94" cy="147.94" r="147.94" transform="matrix(-.816861 .576834 .576834 .816861 1640.51 -361.18)"/><circle cx="147.94" cy="147.94" r="147.94" transform="matrix(-.816861 .576834 .576834 .816861 1643.26 -363.477)"/><circle cx="147.94" cy="147.94" r="147.94" transform="matrix(-.816861 .576834 .576834 .816861 1646.02 -365.746)"/><circle cx="147.94" cy="147.94" r="147.94" transform="matrix(-.816861 .576834 .576834 .816861 1648.79 -368.008)"/><circle cx="147.94" cy="147.94" r="147.94" transform="matrix(-.816861 .576834 .576834 .816861 1651.57 -370.246)"/><circle cx="147.94" cy="147.94" r="147.94" transform="matrix(-.816861 .576834 .576834 .816861 1654.36 -372.477)"/><circle cx="147.94" cy="147.94" r="147.94" transform="matrix(-.816861 .576834 .576834 .816861 1657.17 -374.691)"/><circle cx="147.94" cy="147.94" r="147.94" transform="matrix(-.816861 .576834 .576834 .816861 1659.99 -376.887)"/><circle cx="147.94" cy="147.94" r="147.94" transform="matrix(-.816861 .576834 .576834 .816861 1662.82 -379.066)"/><circle cx="147.94" cy="147.94" r="147.94" transform="matrix(-.816861 .576834 .576834 .816861 1665.67 -381.238)"/><circle cx="147.94" cy="147.94" r="147.94" transform="matrix(-.816861 .576834 .576834 .816861 1668.51 -383.383)"/><circle cx="147.94" cy="147.94" r="147.94" transform="matrix(-.816861 .576834 .576834 .816861 1671.39 -385.516)"/><circle cx="147.94" cy="147.94" r="147.94" transform="matrix(-.816861 .576834 .576834 .816861 1674.27 -387.625)"/><circle cx="147.94" cy="147.94" r="147.94" transform="matrix(-.816861 .576834 .576834 .816861 1677.16 -389.723)"/><circle cx="147.94" cy="147.94" r="147.94" transform="matrix(-.816861 .576834 .576834 .816861 1680.07 -391.809)"/><circle cx="147.94" cy="147.94" r="147.94" transform="matrix(-.816861 .576834 .576834 .816861 1682.99 -393.859)"/><circle cx="147.94" cy="147.94" r="147.94" transform="matrix(-.816861 .576834 .576834 .816861 1685.92 -395.902)"/><circle cx="147.94" cy="147.94" r="147.94" transform="matrix(-.816861 .576834 .576834 .816861 1688.87 -397.922)"/><circle cx="147.94" cy="147.94" r="147.94" transform="matrix(-.816861 .576834 .576834 .816861 1691.83 -399.926)"/><circle cx="147.94" cy="147.94" r="147.94" transform="matrix(-.816861 .576834 .576834 .816861 1694.8 -401.914)"/><circle cx="147.94" cy="147.94" r="147.94" transform="matrix(-.816861 .576834 .576834 .816861 1697.79 -403.875)"/><circle cx="147.94" cy="147.94" r="147.94" transform="matrix(-.816861 .576834 .576834 .816861 1700.79 -405.816)"/><circle cx="147.94" cy="147.94" r="147.94" transform="matrix(-.816861 .576834 .576834 .816861 1703.81 -407.734)"/><circle cx="147.94" cy="147.94" r="147.94" transform="matrix(-.816861 .576834 .576834 .816861 1706.82 -409.641)"/><circle cx="147.94" cy="147.94" r="147.94" transform="matrix(-.816861 .576834 .576834 .816861 1709.87 -411.52)"/></g></g></svg>