<svg fill="none" height="180" viewBox="0 0 225 180" width="225" xmlns="http://www.w3.org/2000/svg"><g fill="#cce9ff"><path d="m191.597 101.62c3.22-7.437 5.324-15.1926 6.312-23.0323l15.97-5.3356-2.28-18.1549-2.279-18.1549-16.758-1.2594c-2.901-7.349-6.861-14.3542-11.813-20.7567l7.489-15.048686-14.448-11.220714-14.415-11.2251-12.731 10.9639c-7.438-3.2193-15.195-5.3234-23.036-6.3105l-5.336-15.967-18.158 2.2799-18.1577 2.2799-1.2559 16.7886c-7.3503 2.90056-14.3568 6.86055-20.7605 11.811501l-15.0508-7.487221-11.2231 14.44629-11.2275 14.41333 10.965 12.7289c-3.2201 7.4369-5.3249 15.1925-6.3125 23.0322l-15.9698 5.3356 2.2795 18.1549 2.2794 18.1549 16.7912 1.255c2.9008 7.3491 6.8611 14.3541 11.8125 20.7571l-7.489 15.048 14.4481 11.221 14.4481 11.221 12.7313-10.964c7.438 3.219 15.1948 5.323 23.0357 6.31l5.336 15.967 18.158-2.28 18.158-2.28 1.255-16.788c7.351-2.901 14.357-6.861 20.761-11.812l15.051 7.488 11.223-14.447 11.223-14.446zm-106.5994 1.267c-19.541-15.1916-23.0702-43.364-7.8753-62.9025s43.3717-23.0684 62.9127-7.8768 23.071 43.3641 7.876 62.9026c-15.195 19.5387-43.372 23.0687-62.9134 7.8767z"/><path d="m109.754 92.6696c-5.359-.4623-11.2406-2.6124-15.1944-5.8375l4.5703-5.9851c4.1251 2.8428 8.2521 4.761 12.9951 4.761 5.706 0 8.516-2.4564 8.516-6.5992 0-10.1292-23.8849-8.6733-23.8849-23.1013 0-7.136 5.0949-12.2048 12.9999-13.4289v-7.8302h7.025v7.6743c5.62.6182 9.481 2.9932 12.731 5.9851l-5.18 5.1433c-3.25-2.6055-5.971-4.0683-10.186-4.0683-4.745 0-7.64 2.1501-7.64 6.1424 0 9.2047 23.887 7.3679 23.887 22.8709 0 7.2865-4.921 12.6602-13.612 14.0416v7.9043h-7.025z"/></g></svg>