<svg fill="none" height="385" viewBox="0 0 456 385" width="456" xmlns="http://www.w3.org/2000/svg"><path d="m41.5312 275.692c15.1762-29.202 31.8606-57.595 49.9857-85.064 7.3085-11.073 15.5241-22.562 27.7841-27.63 10.764-4.452 23.347-3.147 33.915 1.753 10.572 4.9 19.316 13.093 26.601 22.183 6.266 7.818 12.929 17.188 22.912 18.021 10.652.888 19.073-8.431 25.629-16.876 21.547-27.765 43.093-55.531 64.635-83.297 7.126-9.1833 15.94-19.2365 27.565-19.2038 10.418.0281 18.816 8.2858 25.311 16.4308 38.015 47.686 52.838 109.258 66.636 168.656z" fill="#f7f7f7"/><path d="m365.822 192.596c-8.94 4.849-15.01 14.313-15.01 25.198 0 15.824 12.827 28.65 28.65 28.65 12.204 0 22.627-7.636 26.756-18.386z" fill="#cef"/><path d="m410.117 228.221c25.048 0 45.352-20.305 45.352-45.352s-20.304-45.351-45.352-45.351c-25.047 0-45.351 20.304-45.351 45.351s20.304 45.352 45.351 45.352z" fill="#b0e1ff"/><g fill="#cef"><path d="m410.116 272.494c.575 0 1.038-.463 1.038-1.038v-88.586c0-.575-.463-1.038-1.038-1.038s-1.038.463-1.038 1.038v88.586c0 .575.463 1.038 1.038 1.038z"/><path d="m410.125 207.394c.266 0 .528-.102.734-.303l12.7-12.7c.406-.407.406-1.062 0-1.469-.407-.406-1.062-.402-1.469 0l-12.699 12.7c-.407.407-.407 1.062 0 1.464.205.206.467.308.734.308zm0 11.793c.266 0 .528-.103.734-.304l12.7-12.7c.406-.406.406-1.061 0-1.463-.407-.407-1.062-.402-1.469 0l-12.699 12.7c-.407.406-.407 1.061 0 1.463.205.201.467.304.734.304zm-30.478 53.287c.505-.089.851-.566.851-1.08v-46.413c0-.561-.421-1.066-.982-1.095-.598-.032-1.094.445-1.094 1.034v46.53c.005.641.57 1.141 1.225 1.024z"/><path d="m379.46 231.714c.267 0 .533-.102.734-.304.407-.402.407-1.061 0-1.463l-9.155-9.156c-.407-.406-1.061-.406-1.468 0-.407.403-.407 1.062 0 1.464l9.155 9.155c.201.206.468.304.734.304zm0 8.506c.267 0 .533-.103.734-.304.407-.402.407-1.061 0-1.464l-9.155-9.155c-.407-.407-1.061-.407-1.468 0-.407.402-.407 1.061 0 1.464l9.155 9.155c.201.201.468.304.734.304z"/></g><path d="m57.2784 234.6c19.8202 0 35.8877-16.068 35.8877-35.888s-16.0675-35.888-35.8877-35.888c-19.8203 0-35.8878 16.068-35.8878 35.888s16.0675 35.888 35.8878 35.888z" fill="#b0e1ff"/><path d="m57.2839 269.631c-.4536 0-.823-.369-.823-.818v-70.101c0-.454.3694-.823.823-.823s.823.369.823.823v70.101c-.0013.218-.0885.426-.2427.579s-.3628.239-.5803.239z" fill="#cef"/><path d="m57.2844 218.117c-.2104 0-.4208-.08-.5798-.239l-10.0486-10.048c-.3226-.323-.3226-.842 0-1.16.3227-.323.8417-.318 1.1597 0l10.0485 10.053c.3227.323.3227.842 0 1.16-.1636.154-.374.234-.5798.234zm0 9.333c-.2104 0-.4208-.08-.5798-.239l-10.0486-10.053c-.3226-.323-.3226-.842 0-1.16.3227-.322.8417-.318 1.1597 0l10.0485 10.049c.3227.323.3227.842 0 1.16-.1636.163-.374.243-.5798.243z" fill="#cef"/><path d="m223.663 95.7347c.056.7902-1.094 4.3903-2.848 8.0003l-.004.005c-1.469 3.025-3.367 6.051-5.336 7.435l-3.418-.519c.328-1.913-1.501-7.459-.855-8.702.65-1.244 2.927-6.0089 4.895-6.6308 1.632-.5143 5.691-.8884 7.084-.173h.005c.285.145.458.3367.477.5845z" fill="#ffe3ca"/><path d="m187.543 274.516s8.959-.963 11.194-1.407c2.24-.449 7.388 3.133 6.046 5.597s-9.628 6.046-14.556 4.255-6.719 1.417-9.403.482-3.806-10.558-1.118-12.13c2.689-1.571 7.837 3.203 7.837 3.203zm-39.367 7.893c7.346 4.134 13.392 12.42 11.152 15.328-2.239 2.908-10.572 2.913-13.013 0-2.44-2.913-2.44-6.719-4.007-7.612-1.566-.898-7.612-2.016-7.388-4.031.225-2.015 2.254-7.884 2.254-7.884z" fill="#0b4870"/><path d="m185.214 171.637s17.348 34.69 17.633 38.45c.285 3.759-12.321 64.429-12.321 64.429h-13.546s3.179-35.144 8.056-47.942c.568-1.492.762-3.1.566-4.685-.196-1.584-.778-3.097-1.693-4.405-5.597-8-15.014-22.832-13.826-27.055 1.543-5.494-1.927-17.058-1.927-17.058z" fill="#1a8ce2"/><path d="m182.165 172.704c-.945 1.262-5.677 11.348-5.677 11.348s2.521 34.677 0 43.192c-2.52 8.51-28.34 56.747-28.34 56.747h-14.851s10.315-37.454 21.925-51.739c2.179-2.68 2.941-6.238 2.006-9.563-4.839-17.165-9.927-40.699-8.949-49.985 14.967-5.359 33.886 0 33.886 0z" fill="#2a94f4"/><path d="m171.943 110.392c-6.616-3.605-12.171-3.021-12.947 2.436-.777 5.452 9.104 23.184 26.54 28.949 17.437 5.765 33.517-30.59 33.517-30.59l-8.379-3.067s-7.944 13.836-18.007 19.218-20.724-16.946-20.724-16.946z" fill="#ff640c"/><path d="m155.508 108.219s-16.37-.771-18.217 2.923 7.308 66.37 10.562 70.064c9.488.463 35.388-3.1 40.7-8.412-1.155-8.772-9.235-61.652-12.008-63.036s-21.037-1.539-21.037-1.539z" fill="#fd5c00"/><path d="m144.088 85.2598c-.411 1.9311-.219 9.9737.192 11.1567.412 1.183 2.207 5.5035 2.207 5.5035l2.988 2.067 1.239 1.103s1.884-1.931 1.744-2.066c-.14-.136-3.769-3.4933-3.951-3.9048-.187-.4115-4.419-13.8594-4.419-13.8594z" fill="#0b4870"/><path d="m150.672 102.9.224 8.001 12.293 4.998 2.918-7.247-1.968-8.113z" fill="#fcd2b1"/><path d="m168.585 89.2494c0 .9679 1.594 6.2143 1.492 7.1261.004.0046 0 .0046 0 .0093-.758 6.3922-4.143 11.1942-10.129 11.1942-6.845 0-14.495-6.28-14.495-14.0278 0-2.9084.351-5.2183.963-7.0419 2.352-6.9859 8.576-6.9859 14-6.9859 6.846 0 8.169 1.9779 8.169 9.726z" fill="#ffe3ca"/><path d="m170.079 96.3838c-.757 6.3922-4.143 11.1942-10.128 11.1942-6.845 0-14.654-6.28-14.654-14.0278 0-2.9084.51-5.2184 1.122-7.042l.86-.7902.131-.4582s.421 9.45.861 11.2128c.444 1.7582 8.982 2.4736 10.025 4.1054.846-2.1508 2.132-3.6518 5.733-3.7827 2.071-.0748 3.871 2.0106 4.133 2.726.505.1356 1.178-1.6038 1.917-3.1375z" fill="#0b4870"/><path d="m147.467 94.0218c.43 1.4168.715 3.1469-.389 3.4835-1.108.3367-3.189-.851-3.619-2.2678s.117-2.8383 1.225-3.175c1.109-.3319 2.352.5425 2.783 1.9593z" fill="#ffe3ca"/><path d="m167.511 81.2521c-3.189-4.8349-9.16-9.6885-14.757-7.5423-5.598 2.1463-12.71 5.9945-7.286 18.194 1.688-3.3573 2.815-5.8682 2.815-5.8682z" fill="#fd5c00"/><path d="m153.174 87.2378s11.222-7.9491 15.898-3.7408c-1.052-2.5904-9.277-12.0779-20.799 2.5391 1.258 1.4542 2.156 2.9178 4.901 1.2017z" fill="#fd5c00"/><path d="m147.334 91.5762.818 5.6906-1.052.6078-.467-6.2984z" fill="#0b4870"/><path d="m223.669 95.7322c.056.7902-1.095 4.3908-2.848 8.0008l-.005.004c-2.268 2.642-4.175 3.414-5.068 3.437-.894.028-2.881-4.685-2.881-4.685s2.778-5.9572 3.774-6.7475c.991-.7949 6.546-.5938 6.546-.5938h.005c.285.1449.458.3367.477.5845z" fill="#fcd2b1"/><path d="m326.002.5c1.989 12.6647 9.946 46.7551-.001 62.2904-2.786 5.4036-10.779 18.012-14.427 23.6407-3.979 4.7845-9.749 17.3929-.994 29.5509 10.942 15.198 19.918 21.419 19.918 29.018" stroke="#3f8ae0" stroke-width="1.5"/><path d="m27.0186 234.066c36.3179 23.347 298.5204 44.024 401.6994 0 5.634 48.985-27.513 75.662-27.513 75.662h-352.1768c0 .004-33.0121-38.423-22.0096-75.662z" fill="#3f8ae0"/><path d="m24.7729 293.843c39.6238.949 39.6378 12.157 79.2711 12.157 39.638 0 39.638-12.157 79.271-12.157 39.638 0 39.638 12.157 79.271 12.157 39.638 0 39.638-12.157 79.275-12.157 39.638 0 39.652 11.077 79.276 12.157 9.38.258 8.819 16.385 8.819 16.385-1.09 8.992-8.875 16.024-17.437 18.975-8.566 2.95-17.862 2.609-26.914 2.239l-75.886-3.128c-5.873-.243-13.588.889-14.622 6.677-.935 5.228 4.653 9.03 9.362 11.494 4.708 2.459 10.1 6.794 8.533 11.867-1.393 4.513-7.173 5.602-11.886 5.901-48.527 3.087-156.887 9.848-161.506 6.949-4.62-2.899-6.729-10.278-2.586-13.827 2.992-2.567 8.314-2.581 9.67-6.284 1.683-4.601-4.658-7.767-9.497-8.52-35.48-5.533-71.3884-7.84-107.2846-6.892-6.3219.168-12.8542.402-18.7318-1.936-5.87765-2.338-10.941673-8.019-10.399266-14.318.009352-.014-7.476804-38.492 24.001566-37.739z" fill="#cce9ff"/><path d="m336.751 160.233c-.374 2.193-.986 4.62-1.744 7.42-.26.954-.577 1.891-.949 2.806-3.497 8.613-11.353 14.416-16.487 18.03-.857.607-1.577 1.385-2.115 2.286s-.882 1.905-1.009 2.947c-.364 2.941-1.777 6.574-2.791 8.907-.627 1.431-1.104 2.376-1.104 2.376s-4.62-5.775-3.848-14.056c-2.89 1.155-6.163-.192-10.399-3.465.383-.846 1.561-1.501 3.287-2.015 2.609-.776 6.476-1.221 10.769-1.45 7.121-.388 8.856-5.391 8.168-11.937-.149-1.459-.266-2.825-.36-4.106-.28-3.881-.304-6.981-.075-9.515.192-2.114.566-3.83 1.113-5.28 1.847-4.872 5.71-6.695 11.601-10.179 3.026 3.077 4.798 5.751 5.663 8.496.332 1.038.528 2.09.617 3.18.14 1.725.005 3.539-.337 5.555z" fill="#cce9ff"/><path d="m323.308 156.193c-2.735.912-8.08 1.562-9.384 10.816 2.997 4.171 10.296-2.867 10.427-4.433.131-1.562-1.043-6.383-1.043-6.383zm-11.652 46.437c-.627 1.431-1.104 2.375-1.104 2.375s-4.62-5.774-3.848-14.056c-2.89 1.155-6.163-.191-10.399-3.464.383-.847 1.561-1.501 3.287-2.016 2.347 1.791 5.662 4.255 9.155 3.919.187 3.137 1.342 9.384 2.909 13.242z" fill="#2a94f4"/><path d="m337.084 154.678c-4.807 2.459-14.051 1.945-17.881-1.497 1.847-4.872 5.709-6.695 11.601-10.179 3.025 3.077 4.798 5.751 5.663 8.496.332 1.038.528 2.09.617 3.18z" fill="#9cd9ff"/><path d="m203 117.131c7.257-11.127 22.623-33.6655 30.806-44.0881 8.191-10.4094 16.825-20.4867 26.048-30.0061 4.613-4.7552 9.377-9.3733 14.332-13.7743 2.479-2.2006 5.003-4.3524 7.575-6.4422 2.582-2.081 5.212-4.1 7.904-6.0393 5.375-3.8831 11.011-7.42516 16.935-10.4271 5.92-2.99308 12.267-4.8539 18.767-6.3539l2.046.226063c-6.046 1.773937-12.512 4.033567-18.317 7.097497-5.804 3.07724-11.321 6.68134-16.581 10.62634-2.63 1.9703-5.207 4.0158-7.726 6.1278-2.515 2.1164-4.981 4.2992-7.399 6.5263-4.835 4.4587-9.479 9.1254-13.978 13.9294-8.988 9.6168-17.383 19.7826-25.335 30.2717-7.939 10.4979-23.079 33.1249-30.049 44.2569z" fill="#0b4870"/><circle cx="3" cy="3" fill="#fd5c00" r="3" transform="matrix(-1 0 0 1 264.867 44.5)"/><circle cx="3" cy="3" fill="#fd5c00" r="3" transform="matrix(-1 0 0 1 246.867 65.5)"/><circle cx="3" cy="3" fill="#fd5c00" r="3" transform="matrix(-1 0 0 1 228.867 89.5)"/><path d="m148.218 115.376c-4.414-6.112-9.674-7.977-12.732-3.395-3.054 4.583 1.529 24.273 14.766 37.001 13.238 12.728 55.331-25.119 55.331-25.119l-7.154-5.368s-20.458 17.759-31.858 18.269c-11.39.509-18.353-21.388-18.353-21.388z" fill="#ff640c"/><path d="m198.734 120.011.459-5.34s2.3-2.024 3.497-1.566c1.076-2.151.884-4.363 1.454-5.705.403-.949 3.269 1.38 3.269 2.446 0 1.566 2.581 4.648 2.604 5.966.066 3.648-7.051 8.431-7.051 8.431z" fill="#ffe3ca"/></svg>