<svg fill="none" height="435" viewBox="0 0 1820 435" width="1820" xmlns="http://www.w3.org/2000/svg"><g stroke="#3f8ae0" stroke-miterlimit="10" stroke-opacity=".15"><path d="m-49.3289 502.668c82.8821 2.839 158.1079 56.242 242.2489 35.285 75.174-18.72 134.49-75.646 208.133-98.411 76.939-23.702 168.697 3.107 243.871 23.636 76.082 20.756 147.934 50.323 220.5 81.002 66.998 28.295 103.125-19.511 159.356-47.766 35.13-17.636 64.62-14.208 99.09 3.187 44.21 22.323 89.2 42.959 135.33 60.689 76.76 29.527 173.42 65.067 256.5 53.912 107.7-14.449 195.45-96.188 303.65-110.463"/><path d="m-49.2996 492.656c83.2325 2.812 158.3156 56.631 242.8846 35.661 75.109-18.614 134.789-74.897 208.496-97.206 76.913-23.287 168.204 4.124 243.352 24.586 75.667 20.622 147.299 49.882 220.163 78.713 66.492 26.313 103.891-20.234 160.374-46.963 35.25-16.685 64.98-13.137 99.22 4.205 43.87 22.436 88.88 42.4 134.85 59.804 76.69 28.711 173.62 62.938 256.22 51.275 107.01-15.038 195.83-92.653 303.08-108.28"/><path d="m-49.2607 482.821c83.6087 2.812 158.6657 57.099 243.6497 36.155 75.045-18.466 135.127-73.999 208.925-95.853 76.887-22.765 167.789 5.075 242.794 25.443 75.265 20.408 146.701 49.266 219.734 76.222 65.999 24.372 104.748-20.796 161.568-45.904 35.42-15.655 65.37-11.905 99.42 5.356 43.6 22.288 88.45 41.878 134.31 58.666 76.73 27.813 173.65 60.18 255.81 48.208 106.32-15.493 196.15-88.863 302.47-105.709"/><path d="m-49.2341 473.208c84.037 2.826 159.0811 57.582 244.5451 36.799 74.993-18.239 135.503-72.968 209.327-94.3 76.848-22.202 167.27 5.973 242.21 26.166 74.707 20.087 146.117 48.489 219.228 73.531 65.532 22.457 105.708-21.172 162.924-44.579 35.61-14.57 65.79-10.539 99.7 6.695 43.3 22.075 87.95 41.224 133.66 57.328 76.86 26.782 173.48 56.992 255.29 44.739 105.58-15.801 196.39-84.846 301.75-102.723"/><path d="m-49.2048 463.782c84.5041 2.893 159.6128 58.171 245.5708 37.495 74.94-17.917 135.892-71.776 209.794-92.532 76.796-21.56 166.725 6.816 241.496 26.782 74.188 19.819 145.521 47.579 218.657 70.692 65.078 20.555 106.76-21.426 164.397-43.039 35.83-13.391 66.25-9.053 100.06 8.034 43.01 21.813 87.47 40.451 133.05 55.774 77.1 25.751 173.18 53.404 254.69 40.937 104.81-16.07 196.56-80.628 300.93-99.429"/><path d="m-49.1853 454.564c85.0103 2.973 160.1063 58.787 246.6993 38.393 74.889-17.65 136.321-70.598 210.301-90.712 76.731-20.849 166.101 7.62 240.769 27.332 73.669 19.457 144.937 46.52 218.008 67.678 64.637 18.748 107.915-21.519 166.008-41.271 36.08-12.253 66.73-7.446 100.46 9.374 42.71 21.482 86.96 39.55 132.36 54.046 77.4 24.573 172.7 49.373 253.98 36.758 104.03-16.069 196.65-76.195 300.03-95.773"/><path d="m-49.1514 445.577c85.5423 3.08 160.7164 59.43 247.8544 39.316 74.928-17.234 136.839-69.272 210.91-88.689 76.654-20.086 165.401 8.37 240.069 27.787 73.124 19.042 144.34 45.329 217.334 64.518 64.195 16.886 109.159-21.506 167.734-39.303 36.34-11.034 67.21-5.758 100.91 10.981 42.4 21.105 86.43 38.542 131.63 52.131 77.71 23.314 172.05 45.061 253.14 32.3 103.22-16.163 196.66-71.602 299.06-91.85"/><path d="m-49.1343 436.863c86.0744 3.173 161.3393 60.059 249.2433 40.28 74.811-16.846 137.241-67.866 211.39-86.547 76.563-19.296 164.7 9.093 239.199 28.122 72.592 18.586 143.756 44.003 216.594 61.237 63.794 15.105 110.536-21.426 169.568-37.174 36.59-9.788 67.71-4.017 101.42 12.601 42.09 20.683 85.88 37.44 130.86 50.07 78.21 21.961 171.38 40.307 252.35 27.572 102.41-16.069 196.59-66.848 298.02-87.671"/><path d="m-49.1028 428.295c86.6973 3.361 162.1048 60.795 250.6318 41.392 74.798-16.378 137.773-66.38 211.974-84.284 76.498-18.439 163.973 9.789 238.369 28.496 72.046 18.118 143.159 42.571 215.802 57.85 63.417 13.391 112.002-21.172 171.476-34.817 36.86-8.503 68.22-2.116 101.98 14.275 41.77 20.219 85.32 36.25 130.05 47.873 78.69 20.515 170.57 35.339 251.43 22.591 101.6-16.003 196.46-61.934 296.93-83.239"/><path d="m-49.0833 420.001c87.3202 3.535 162.8573 61.518 252.1243 42.543 74.733-15.895 138.214-64.839 212.545-81.926 76.394-17.569 163.195 10.458 237.473 28.75 71.528 17.61 142.549 41.031 214.959 54.355 63.093 11.61 113.559-20.864 173.482-32.474 37.13-7.191 68.7-.174 102.58 16.07 41.44 19.716 84.74 34.973 129.21 45.529 79.16 18.962 169.63 30.103 250.45 17.409 100.82-15.815 196.28-56.899 295.82-78.633"/><path d="m-49.054 411.968c87.9301 3.722 163.662 62.255 253.616 43.735 74.746-15.387 138.76-63.246 213.181-79.49 76.29-16.645 162.404 11.102 236.63 28.965 71.022 17.101 141.939 39.397 214.116 50.779 62.82 9.896 115.207-20.461 175.561-29.929 37.4-5.879 69.19 1.808 103.2 17.81 41.12 19.207 84.17 33.676 128.36 43.146 79.69 17.315 168.62 24.653 249.41 12.052 99.92-15.614 195.95-51.743 294.57-73.838"/><path d="m-49.0225 404.185c88.5659 3.923 164.4925 62.938 255.1865 44.98 74.746-14.85 139.292-61.625 213.804-76.985 76.186-15.667 161.598 11.731 235.734 29.139 70.542 16.565 141.329 37.669 213.194 47.123 62.6 8.236 116.894-19.966 177.634-27.291 37.64-4.539 69.68 3.843 103.82 19.645 40.8 18.66 83.58 32.301 127.47 40.642 80.19 15.574 167.55 19.042 248.35 6.535 99.19-15.347 195.59-46.481 293.36-68.897"/><path d="m-49.0005 396.689c89.2147 4.124 165.3615 63.741 256.7825 46.253 74.733-14.315 139.85-59.965 214.453-74.374 76.056-14.73 160.755 12.36 234.878 29.286 70.074 16.069 140.706 35.875 212.272 43.414 62.483 6.588 118.633-19.417 179.845-24.586 37.9-3.201 70.07 5.919 104.54 21.506 40.48 18.104 83.01 30.899 126.57 38.084 182.98 31.188 362.27-21.426 539.37-62.938"/><path d="m-48.9714 389.437c89.8765 4.352 166.2444 64.491 258.4174 47.552 74.733-13.74 140.408-58.252 215.102-71.817 75.926-13.793 159.912 12.963 233.879 29.394 69.671 15.52 140.096 34.04 211.338 39.624 62.47 4.941 120.385-18.748 182.045-21.828 38.13-1.874 70.57 8.035 105.23 23.395 40.02 17.85 82.52 29.232 125.67 35.526 178.31 26.019 364.29-22.283 536.96-63.514"/><path d="m-48.9519 382.464c90.5383 4.579 167.1399 65.241 260.0659 48.864 74.746-13.217 140.966-56.538 215.75-69.192 75.797-12.815 159.055 13.578 232.945 29.46 69.295 14.931 139.473 32.139 210.391 35.902 62.586 3.321 122.136-18.132 184.27-19.029 38.34-.549 70.99 10.137 105.93 25.309 39.76 17.261 81.97 27.666 124.76 32.835 81.5 9.842 164.15 1.46 244.98-10.579 96.99-14.449 194.12-30.304 289.55-53.564"/><path d="m-48.9204 375.787c90.4215 4.727 166.9194 65.496 259.7544 50.525 74.447-12.052 140.797-53.685 214.998-66.313 75.005-12.761 156.589 12.561 229.83 27.854 70.8 14.73 142.523 31.187 214.997 33.25 64.339 1.834 127.029-18.44 191.221-16.07 38.75 1.433 71.05 14.503 106.57 29.019 36.89 15.078 75.85 23.715 115.24 27.8 83.86 8.69 167.03-4.125 249.88-16.217 95.64-13.953 192.14-24.693 286.19-48.02"/><path d="m-48.9082 369.394c91.0444 4.955 167.8532 66.232 261.3762 51.837 74.46-11.463 141.342-51.998 215.66-63.701 74.849-11.731 155.785 13.23 228.921 28.027 70.464 14.275 141.913 29.461 214.012 29.461 64.715 0 128.793-17.583 193.519-13.097 38.8 2.678 71.37 16.498 107.16 30.706 36.65 14.542 75.35 22.269 114.41 25.322 84.12 6.575 165.85-10.338 248.69-22.095 95.02-13.485 191.5-19.23 284.89-42.851"/><path d="m-48.874 363.32c91.7322 5.182 168.697 66.955 263.011 53.122 74.487-10.927 141.887-50.324 216.309-61.117 74.694-10.86 154.993 13.927 228.091 28.242 70.074 13.753 141.251 27.572 212.973 25.617 65.182-1.781 130.52-16.725 195.79-10.15 38.85 3.923 71.69 18.479 107.71 32.379 36.33 14.021 74.85 20.837 113.54 22.859 84.35 4.432 164.73-16.498 247.55-27.934 94.42-13.043 190.76-13.766 283.6-37.682"/><path d="m-48.8547 357.551c92.368 5.356 169.6567 67.652 264.6337 54.394 74.499-10.404 142.419-48.73 216.957-58.559s154.189 14.623 227.092 28.443c69.905 13.257 140.745 25.778 212.078 21.854 65.753-3.615 132.204-15.882 198.024-7.244 38.93 5.102 71.99 20.448 108.36 34.026 36.36 13.579 74.38 19.417 112.71 20.435 84.35 2.263 163.66-22.591 246.39-33.705 93.87-12.615 190.13-8.329 282.36-32.594"/><path d="m-48.845 352.076c93.0039 5.624 170.566 68.295 266.217 55.653 74.538-9.896 142.951-47.056 217.593-56.055 74.33-8.958 153.488 15.333 226.261 28.684 69.698 12.775 140.148 23.984 211.131 18.132 66.401-5.477 133.843-15.079 200.243-4.419 38.81 6.24 72.27 22.389 108.89 35.66 35.94 13.016 73.96 18.024 111.88 18.065 84.35.107 162.65-28.55 245.26-39.37 93.43-12.24 189.46-2.96 281.12-27.613"/><path d="m-48.8376 346.949c93.6267 5.812 171.4216 69.004 267.7606 56.845 74.577-9.373 143.484-45.529 218.216-53.564 74.253-8.035 152.619 16.069 225.405 28.952 69.555 12.266 139.655 22.215 210.223 14.462 67.115-7.365 135.423-14.302 202.433-1.661 38.8 7.299 72.54 24.265 109.44 37.228 35.77 12.56 73.47 16.671 111.04 15.761 84.22-2.022 161.7-34.348 244.19-44.914 92.9-11.891 188.68 2.384 279.91-22.765"/><path d="m-48.8062 342.15c94.2108 6.013 172.2782 69.634 269.2532 58.01 74.616-8.958 144.041-43.949 218.813-51.22 74.097-7.205 151.827 16.859 224.574 29.259 69.426 11.798 139.175 20.502 209.34 10.887 67.868-9.293 137.026-13.605 204.496.978 38.77 8.369 72.79 26.139 110.01 38.834 35.55 12.052 73.06 15.373 110.3 13.538 84-4.111 160.82-39.945 243.17-50.283 92.46-11.61 187.95 7.619 278.74-18.025"/><path d="m-48.7915 337.676c94.7298 6.2 173.0825 70.276 270.6805 59.121 74.655-8.543 144.47-42.476 219.41-48.944 73.967-6.374 151.126 17.649 223.757 29.621 69.334 11.449 138.734 18.841 208.483 7.405 68.66-11.248 138.431-12.989 206.501 3.482 38.68 9.374 73.03 27.947 110.49 40.347 35.38 11.704 72.67 14.128 109.53 11.423 83.7-6.147 159.99-45.289 242.18-55.493 92.13-11.396 187.24 12.762 277.62-13.498"/><path d="m-48.7744 333.559c95.3267 6.347 173.8874 70.852 272.0304 60.139 74.72-8.142 144.962-41.071 219.981-46.748 73.85-5.584 150.412 18.439 222.978 30.036 69.27 11.074 138.331 17.234 207.692 4.017 69.36-13.217 139.823-12.44 208.423 5.852 38.59 10.298 73.27 29.46 110.95 41.807 35.03 11.503 72.38 12.949 108.78 9.374 83.36-8.035 159.22-50.337 241.25-60.407 91.73-11.262 186.57 17.783 276.56-9.187"/><path d="m-48.6965 329.734c95.8457 6.482 174.5755 71.415 273.3015 61.117 74.694-7.753 145.352-39.691 220.461-44.632 73.682-4.848 149.751 19.256 222.239 30.518 69.23 10.713 137.968 15.708 206.926.75 70.256-15.226 141.139-12.052 210.219 8.035 38.52 11.168 73.5 31.053 111.4 43.226 34.89 11.208 72.04 11.851 108.06 7.553 39.31-4.701 77.63-15.467 115.37-27.412 40.72-12.869 82.62-32.5 125.04-37.696 91.42-11.208 185.93 22.658 275.56-5.115"/><path d="m-48.6965 326.389c96.3129 6.588 175.1855 71.936 274.4825 61.987 74.759-7.499 145.793-38.553 220.993-42.758 73.565-4.164 149.089 20.087 221.512 31.068 69.231 10.471 137.696 14.288 206.252-2.357 71.021-17.248 142.367-11.771 211.957 10.056 38.35 12.052 73.63 32.541 111.72 44.539 34.75 10.941 71.74 10.86 107.41 5.825 39.23-5.517 77.33-17.221 114.84-29.929 40.42-13.686 82.39-34.335 124.8-39.57 91.13-11.236 185.34 27.384 274.62-1.34"/><path d="m-48.6965 323.346c96.7541 6.695 175.8345 72.432 275.5595 62.777 74.811-7.258 146.183-37.374 221.447-40.977 73.461-3.521 148.48 21.011 220.851 31.71 69.243 10.218 137.462 12.963 205.615-5.356 71.839-19.243 143.514-11.61 213.594 11.891 38.21 12.802 73.75 33.92 112.03 45.784 34.61 10.713 71.37 9.963 106.79 4.272 39.13-6.294 77.04-18.881 114.36-32.286 40.15-14.422 82.17-35.982 124.57-41.298 90.84-11.382 184.83 31.938 273.81 2.183"/><path d="m-48.6965 320.693c97.1564 6.696 176.3665 72.888 276.5205 63.461 74.901-7.057 146.636-36.344 221.979-39.357 73.383-2.946 147.934 21.948 220.227 32.433 69.269 10.03 137.293 11.758 205.032-8.128 72.578-21.305 144.428-11.664 215.008 13.391 38.08 13.539 73.85 35.205 112.29 46.963 34.49 10.538 71.12 9.199 106.2 2.905 39.09-7.016 76.78-20.408 113.94-34.455 39.93-15.118 81.97-37.414 124.43-42.851 90.65-11.624 184.41 36.29 273 5.356"/><path d="m-48.6965 318.4c97.5327 6.696 176.8205 73.303 277.3635 64.023 74.915-6.91 146.974-35.419 222.382-37.964 73.305-2.423 147.363 22.913 219.656 33.25 69.308 9.91 137.202 10.713 204.551-10.712 73.332-23.341 145.224-11.878 216.324 14.73 37.9 14.194 73.89 36.357 112.47 48.034 34.38 10.418 70.84 8.57 105.67 1.74 39.03-7.673 76.56-21.787 113.55-36.423 39.75-15.735 81.76-38.607 124.33-44.191 90.46-11.985 184.1 40.441 272.35 8.142"/><path d="m-48.699 316.508c97.0526 6.695 176.081 73.303 276.04 64.665 78.989-6.816 155.344-37.602 235.047-36.972 68.14.535 136.514 23.635 203.824 33.571 71.515 10.552 139.967 10.258 209.223-12.333 76.796-24.988 148.755-11.851 222.775 17.863 33.18 13.311 64.79 31.469 98.22 43.937 35.37 13.19 74.21 11.904 110.61 4.579 41.3-8.302 80.84-24.104 119.8-40.173 39.27-16.257 81.01-39.142 123.36-44.498 89.54-11.262 182.66 44.337 269.73 10.806"/><path d="m-48.699 315.006c97.3252 6.602 176.353 73.651 276.585 65 79.015-6.829 155.72-36.892 235.397-35.888 68.089.87 136.113 24.613 203.384 34.562 71.566 10.579 140.005 9.535 208.924-14.529 77.575-27.103 149.159-12.427 223.779 18.748 33.03 13.792 64.73 32.111 98.25 44.592 35.3 13.203 73.97 11.65 110.16 3.91 41.28-8.825 80.66-25.309 119.5-41.807 39.22-16.658 80.95-39.798 123.4-45.422 89.37-11.758 182.59 48.007 269.26 12.855"/><path d="m-48.6965 313.938c97.5198 6.494 176.4825 73.945 277.0005 65.16 79.028-6.909 155.902-36.33 235.682-35.004 68.063 1.125 135.762 25.631 203.008 35.661 71.605 10.712 140.148 9.012 208.626-16.498 78.327-29.166 149.34-13.257 224.6 19.229 32.95 14.208 64.73 32.715 98.27 45.343 35.27 13.27 73.61 11.596 109.77 3.495 83.56-18.748 158.42-77.441 242.78-89.279 89.22-12.52 182.69 51.275 268.91 14.356"/><path d="m-48.6965 313.252c97.6754 6.361 176.6125 74.213 277.2465 65.214 79.041-7.083 156.175-35.928 235.916-34.388 68.076 1.339 135.477 26.702 202.696 36.906 71.631 10.874 140.408 8.677 208.497-18.212 79.015-31.214 149.231-14.382 225.211 19.417 32.67 14.503 64.53 33.719 98.15 45.851 35.72 12.869 72.89 11.824 109.45 3.361 83.7-19.39 158.15-78.137 242.81-90.831 89.09-13.391 182.97 54.301 268.61 15.426"/><path d="m-48.6941 312.996c97.7793 6.173 176.5741 74.428 277.3121 65.094 79.041-7.325 156.278-35.687 236.175-34.027 68.089 1.42 135.23 27.854 202.436 38.299 71.632 11.128 140.772 8.57 208.458-19.672 79.625-33.25 148.853-15.814 225.563 19.27 70.07 32.032 127.8 68.495 207.16 49.721 83.92-19.859 158.01-78.11 242.97-91.822 89-14.369 183.36 56.979 268.62 16.069"/><g opacity=".5"><path d="m200.539 1016.45c296.033-98.574 590.806-200.45 885.511-302.773 127.51-44.282 256.59-86.754 385.73-126.114 161.64-49.277 320.67-106.673 482.28-155.901"/><path d="m193.888 997.239c83.88-27.998 167.997-55.364 251.76-83.672 74.86-25.297 147.636-56.295 222.218-82.346 138.933-48.525 279.233-92.856 418.034-141.727 123.2-43.382 246.57-90.541 373.09-123.647 73.76-19.244 145.9-40.878 218.78-62.985 90.95-27.592 178.72-64.402 269.96-91.037"/><path d="m187.321 978.565c82.692-27.637 166.062-53.965 248.235-83.084 77.219-27.369 151.186-63.034 227.97-91.51 138.36-51.317 281.467-84.646 420.424-133.672 122.29-43.104 238.08-99.951 366.02-126.472 74.78-15.502 146.71-32.113 219.83-54.383 92.17-28.111 179.18-70.288 271.74-97.159"/><path d="m180.729 960.451c81.223-27.199 163.774-52.386 243.927-82.615 80.153-30.228 155.514-71.054 234.933-102.684 72.195-28.751 145.082-51.93 221.216-67.464 68.236-13.914 133.855-29.436 199.675-52.45 57.69-20.182 109.08-47.136 163.6-74.477 62.39-31.3 131.27-49.505 200.1-59.298 75.76-10.765 147.27-20.743 220.67-43.729 92.59-28.979 177.64-77.249 270.73-104.925"/><path d="m174.23 942.715c79.499-26.675 161.189-50.769 238.978-82.176 83.122-33.548 160.399-79.969 242.735-115.283 70.669-30.398 145.168-50.813 221.351-60.657 67.954-8.968 133.346-18.553 198.436-40.962 60.28-20.753 109.91-54.392 164.49-86.445 61.96-36.381 129.61-53.165 200.8-58.145 76.31-5.304 147.69-7.382 221.32-31.504 92.39-30.259 174.41-84.941 267.42-113.864"/><path d="m167.74 925.313c77.633-26.189 158.423-49.204 233.662-81.769 86.393-37.322 165.633-89.479 250.99-128.841 71.634-33.023 142.738-48.626 221.026-52.512 67.03-3.318 132.142-5.964 196.492-27.564 63.62-21.394 112.63-63.469 167.48-100.593 62.48-42.285 127.73-58.039 202.55-57.499 76.14.542 148.08 7.22 221.77-18.239 91.81-31.799 169.85-93.136 262.37-123.628"/><path d="m161.344 908.207c75.694-25.632 155.463-47.886 228.096-81.325 89.696-41.285 170.763-99.135 259.326-142.762 72.043-35.486 140.987-46.739 220.358-43.505 65.487 2.671 130.548 7.556 194.116-13.024 67.19-21.744 117.11-73.822 171.99-116.052 63.38-48.77 126.13-64.089 205.06-57.288 75.16 6.477 148.55 22.58 222.11-4.5 90.97-33.489 164.33-101.499 256.11-133.738"/><path d="m155.056 891.353c73.776-25.077 152.45-46.701 222.642-80.876 92.903-45.231 175.857-108.662 267.412-156.483 72.945-38.109 139.214-45.058 219.462-34.17 63.466 8.608 128.547 21.326 191.558 1.879 70.82-21.881 122.51-85.254 177.54-132.063 28.86-24.449 59.78-48.667 96.88-58.03 36.33-9.152 74.76-5.458 111.15.7 73.33 12.335 149.17 37.794 222.28 9.199 90.03-35.219 158.16-109.718 249.12-143.778"/><path d="m148.952 874.699c72.002-24.561 149.488-45.694 217.351-80.366 95.879-48.94 180.445-117.637 274.76-169.416 74.115-40.701 137.766-43.631 218.482-25.012 61.198 14.12 126.292 34.655 189.075 16.305 74.29-21.719 128.42-96.891 183.56-147.721 28.88-26.631 60.97-55.267 99.91-64.524 36.49-8.678 75.57-1.856 111.29 6.838 71.23 17.352 149.5 52.4 222.37 22.262 89.12-36.878 151.77-117.532 241.97-153.298"/><path d="m142.887 858.244c70.298-24.064 146.694-44.858 212.514-79.765 98.521-52.27 184.475-125.812 281.157-181.149 36.816-21.062 72.641-38.165 115.583-37.651 34.991.423 68.924 10.479 101.948 21.075 59.072 18.934 124.021 46.879 186.981 29.457 77.42-21.413 134.25-107.986 189.5-162.248 28.96-28.459 62.26-61.333 102.85-70.516 36.8-8.352 76.34 1.393 111.4 12.37 69.15 21.626 149.56 65.692 222.46 34.095 88.34-38.313 145.54-124.668 235.15-161.874"/><path d="m137.024 841.992c68.838-23.61 144.236-44.113 208.308-79.051 100.66-54.892 187.409-132.63 286.105-190.854 36.782-21.697 72.292-39.458 115.648-37.042 35.198 2.036 68.729 14.642 101.094 27.629 57.271 22.938 121.974 57.304 185.501 40.496 40.61-10.735 73.72-45.259 102.25-74.654 31.65-32.61 60.94-67.471 92.56-100.102 29.07-29.978 63.41-66.303 105.5-75.427 37.19-8.067 76.93 4.001 111.48 16.877 67.47 25.21 149.14 77.015 222.45 44.098 87.86-39.418 139.91-130.838 229.24-169.037"/><path d="m131.357 825.904c67.62-23.216 142.257-43.462 204.965-78.217 102.226-56.644 189.207-137.843 289.25-198.121 36.492-22.018 72.167-40.277 115.499-36.621 35.476 2.995 68.822 17.745 100.76 32.547 56.201 26.033 120.463 65.274 184.919 48.662 41.8-10.805 75.52-47.51 104.26-78.149 32.43-34.604 62.28-71.588 94.7-106.216 29.23-31.231 64.23-69.76 107.49-79.014 37.64-8.043 77.3 5.665 111.53 20.088 66.55 28.022 148.12 85.64 222.5 51.794 87.73-39.919 135.26-135.831 224.72-174.344"/><path d="m125.895 809.961c66.687-22.867 140.91-42.884 202.68-77.227 103.057-57.299 189.539-141.084 290.217-202.324 35.959-21.848 72.3-40.466 115.136-36.512 35.865 3.307 69.271 19.452 101.078 35.398 56.146 28.204 119.761 70.143 185.504 52.939 42.69-11.168 76.45-48.168 105.41-79.847 32.92-35.961 63.06-74.444 95.97-110.425 29.43-32.185 64.5-71.184 108.61-80.77 38.05-8.266 77.32 6.081 111.55 21.63 66.86 30.36 146.37 90.881 222.58 56.479 88.06-39.748 132.02-139.418 222.13-177.3"/><path d="m120.53 794.123c66.374-23.013 140.558-42.372 201.974-76.865 102.192-57.444 186.897-142.271 286.541-203.807 35.767-22.076 72.182-40.394 114.931-36.628 36.344 3.229 70.349 19.507 102.609 35.634 57.133 28.567 121.465 71.089 188.315 54.387 43.14-10.786 76.75-47.428 105.77-79.479 32.88-36.339 62.79-75.304 95.65-111.65 29.48-32.624 64.43-71.223 108.98-80.572 38.39-8.054 77.5 6.409 111.87 22.219 67.29 30.969 145.44 90.814 222.42 56.639 88.51-39.263 131.09-140.803 221.85-177.993"/><path d="m115.293 778.614c66.546-23.462 140.961-41.374 202.336-76.811 99.969-57.721 182.135-142.629 279.531-204.393 36.032-22.861 71.572-40.458 114.897-36.761 36.953 3.134 71.793 18.844 104.879 34.463 58.413 27.618 124.858 70.083 192.344 55.35 43.3-9.449 77.04-46.212 105.76-78.156 32.42-36.07 61.75-74.875 94.16-110.966 29.37-32.719 64.39-71.143 109.2-79.494 38.55-7.187 78.23 7.487 112.88 22.905 67.24 29.906 146.45 87.786 222.55 54.137 88.77-39.261 131.42-141.351 222.44-178.525"/><path d="m110.185 763.398c66.88-23.743 141.701-39.742 203.232-76.09 97.583-57.648 176.955-142.363 271.935-203.976 36.191-23.51 71.016-40.343 114.703-37.002 37.423 2.865 73.131 17.568 107.099 32.683 59.723 26.545 128.29 68.063 196.296 55.136 43.28-8.217 76.86-44.406 105.28-76.161 31.84-35.612 60.42-73.991 92.24-109.582 29.25-32.724 64.09-70.335 108.99-77.738 38.85-6.394 79.12 8.203 114.29 23.159 67.61 28.686 147.99 84.058 223.52 50.707 89.19-39.366 132.06-142.11 223.49-179.402"/><path d="m105.219 748.485c67.358-23.865 142.872-37.606 204.639-74.821 95.054-57.246 171.453-141.548 263.852-202.796 36.209-23.999 70.527-40.054 114.38-37.293 37.918 2.381 74.44 16.036 109.283 30.373 61.398 25.137 131.429 65.223 200.171 53.921 43.106-7.095 76.266-42.073 104.396-73.576 31.12-34.876 58.84-72.715 89.93-107.607 29.11-32.693 63.51-68.873 108.4-75.408 39.27-5.695 80.17 8.579 116.05 22.923 68.33 27.3 149.97 79.711 225.11 46.537 89.73-39.622 132.95-143.083 224.94-180.606"/><path d="m100.396 733.882c67.967-23.865 144.293-35.016 206.453-73.067 92.421-56.57 165.695-140.33 255.44-200.839 36.067-24.35 70.081-39.668 113.903-37.668 38.381 1.755 75.653 14.246 111.374 27.484 63.269 23.454 134.419 61.629 203.911 51.807 83.873-11.84 138.393-117.043 190.483-175.601 28.99-32.608 62.75-66.878 107.53-72.544 39.8-5.025 81.31 8.768 118.04 22.422 69.34 25.771 152.32 74.859 227.25 41.715 90.37-39.965 134.07-144.23 226.7-182.066"/><path d="m95.6971 719.597c68.6659-23.755 145.9269-32.056 208.6089-70.872 89.736-55.666 159.809-138.605 246.784-198.263 35.843-24.574 69.71-39.166 113.356-38.085 38.822.984 76.807 12.115 113.408 24.254 65.069 21.557 137.188 57.317 207.507 48.923 83.149-9.956 134.969-111.72 186.059-169.272 28.26-31.792 62.24-65.703 106.41-69.277 41.01-3.327 81.92 8.491 120.3 21.62 70.56 24.103 154.95 69.578 229.85 36.363 91.11-40.391 135.36-145.504 228.72-183.768"/><path d="m91.173 705.592c69.434-23.584 147.769-28.807 211.017-68.453 87.018-54.55 153.809-136.599 238.001-195.133 146.216-101.701 286.543 42.739 439.074 27.695 82.225-8.087 131.055-105.78 181.255-162.197 28.14-31.593 61.22-62.89 105.06-65.707 41.75-2.681 83.27 8.358 122.75 20.617 71.95 22.38 157.78 63.974 232.8 30.603 91.92-40.861 136.78-146.858 230.98-185.559"/><path d="m86.7024 691.903c70.2726-23.288 149.7526-25.39 213.6596-65.79 84.298-53.287 147.83-134.352 229.196-191.654 142.859-100.586 292.559 31.429 443.566 19.531 81.306-6.385 126.836-99.343 176.126-154.685 28.02-31.462 60.16-59.795 103.59-61.92 42.52-2.05 84.73 8.122 125.33 19.458 73.41 20.499 160.73 58.179 236.02 24.541 92.76-41.43 138.33-148.304 233.38-187.5123"/><path d="m82.358 678.515c71.139-22.986 151.823-21.865 216.458-62.973 81.627-51.914 141.821-131.896 220.512-187.879 139.545-99.288 298.228 19.647 447.733 10.888 80.349-4.713 122.359-92.641 170.799-146.926 27.93-31.302 59.05-56.484 101.99-58.03 43.29-1.501 86.24 7.877 127.98 18.204 74.94 18.597 163.72 52.258 239.35 18.333 93.61-42.012 139.92-149.804 235.87-189.5423"/><path d="m78.1119 665.438c71.9961-22.669 153.9501-18.335 219.3941-60.107 79.044-50.475 136.023-129.374 212.042-183.942 136.336-97.874 303.545 7.756 451.529 2.029 79.403-3.07 117.783-85.823 165.423-139.094 27.82-31.119 58.05-53.12 100.47-54.024 44.09-.931 87.8 7.578 130.66 16.916 76.48 16.693 166.7 46.332 242.75 12.064 94.53-42.608 141.55-151.261 238.39-191.5944"/><path d="m73.9708 652.639c72.8252-22.354 156.0612-14.896 222.2232-57.232 76.579-49.008 130.416-126.806 203.905-179.938 133.449-96.472 308.662-4.159 455.177-6.9 78.454-1.457 113.194-79.033 160.074-131.37 27.71-30.937 57.13-49.782 98.93-50.091 44.88-.35 89.37 7.359 133.31 15.663 77.93 14.734 169.57 40.481 246.11 5.878 95.42-43.188 143.13-152.8039 240.88-193.6032"/><path d="m69.9332 640.134c73.7078-22.085 158.1108-11.604 225.0688-54.475 74.261-47.55 125.098-124.268 196.217-175.977 130.729-95.057 313.317-15.813 458.326-15.558 77.655.134 108.625-72.498 154.915-123.895 27.67-30.705 56.19-46.573 97.47-46.307 45.65.239 90.92 7.225 135.87 14.508 79.32 12.839 172.29 34.784 249.31-.195 96.26-43.74 144.66-154.2304 243.24-195.5407"/><path d="m66.0131 627.937c74.5269-21.877 160.0739-8.574 227.7849-51.893 72.141-46.142 120.149-121.873 189.08-172.177 66.865-48.806 154.755-49.138 233.566-44.369 76.005 4.607 151.468 18.871 227.646 20.587 77.19 1.745 103.9-66.485 150.03-116.887 61.25-66.905 154.93-40.194 234.44-29.244 80.56 11.051 174.77 29.375 252.24-5.944 97.07-44.233 146.1-155.558 245.51-197.3299"/><path d="m62.1549 615.986c75.3241-21.744 161.7351-5.813 230.3391-49.577 70.239-44.826 115.653-119.617 182.686-168.674 66.201-48.487 155.823-50.619 234.184-48.353 76.734 2.226 152.818 13.73 229.507 17.072 76.689 3.341 99.999-60.819 145.549-110.518 59.87-65.32 158.02-35.738 235.57-26.792 81.63 9.415 176.96 24.3 254.84-11.27 97.78-44.673 147.38-156.7943 247.48-198.9696"/><path d="m58.3889 604.346c76.1091-21.692 163.1951-3.468 232.6271-47.627 68.604-43.617 111.713-117.581 176.911-165.498 65.671-48.173 156.808-51.974 234.784-51.972 77.357.021 154.09 9.06 231.192 14.059 36.373 2.351 60.055-5.076 85.517-32.66 20.7-22.422 35.47-49.8 56.09-72.308 27.51-30.051 54.43-38.601 94.1-36.655 47.68 2.364 95.09 7.596 142.61 12.185 82.44 7.871 178.73 19.675 256.95-16.085 98.44-45.012 148.49-157.894 249.3-200.39531"/><path d="m54.6789 592.97c76.8031-21.924 164.3341-1.576 234.6231-46.087 67.283-42.613 108.259-116.06 172.181-162.877 65.346-47.862 157.678-53.197 235.348-55.084 77.671-1.887 155.105 5.098 232.519 11.815 35.774 3.103 59.299-2.718 84.52-30.118 20-21.728 33.88-48.497 53.78-70.302 27.33-29.958 54.3-36.907 93.51-34.296 48.19 3.208 96.22 8.187 144.35 11.989 83.02 6.548 180.21 15.57 258.53-20.25 98.98-45.256 149.39-158.8149 250.67-201.52813"/><path d="m51.0551 581.89c77.4769-22.261 165.0959-.217 236.2219-45.061 66.322-41.841 105.343-115.067 168.49-160.872 65.366-47.451 158.266-54.16 235.863-57.768 78.22-3.654 155.832 1.881 233.494 10.325 35.302 3.825 58.911-.857 83.896-28.174 19.43-21.216 32.53-47.579 51.85-68.893 27.15-29.961 54.44-35.849 93.3-32.516 48.55 4.139 97.08 9 145.74 12.198 83.19 5.481 181.16 12.066 259.44-23.666 99.39-45.373 150.01-159.5366 251.74-202.3678"/><path d="m47.4983 571.052c78.0637-22.829 165.4247.55 237.3887-44.63 65.688-41.239 103.409-114.281 165.796-159.537 65.169-47.257 159.035-54.829 236.401-59.773 78.59-5.016 156.253-.365 234.147 9.88 35.002 4.613 58.926.484 83.719-26.889 18.97-20.949 31.45-47.115 50.35-68.175 26.98-30.079 54.8-35.559 93.48-31.409 48.82 5.231 97.71 10.12 146.74 12.859 83.17 4.639 181.62 9.276 259.61-26.218 99.66-45.342 150.32-160.0332 252.33-202.8454"/><path d="m44.0135 560.478c78.3465-23.295 165.3745.773 237.7585-44.741 65.446-41.142 102.854-114.02 165.06-159.076 65.12-47.157 159.521-54.416 236.778-59.777 78.73-5.462 156.104-.946 234.131 9.418 34.892 4.65 58.972-.081 83.589-27.272 18.84-20.807 31.26-46.758 50.09-67.603 26.94-29.818 55.23-35.562 93.73-30.86 48.85 5.961 97.84 10.982 147 13.486 82.63 4.214 182.09 8.081 259.36-27.51 99.36-45.748 151.02-159.12502 252.46-202.7477"/><path d="m40.6061 550.062c78.4669-23.5 165.3899.957 237.8839-44.837 65.287-41.249 103.123-113.757 165.421-158.689 65.167-47.004 159.688-53.22 236.874-58.419 78.528-5.284 155.591-.719 233.57 7.915 73.811 8.167 90.625-48.576 134.085-95.143 27.17-29.109 55.56-35.109 93.78-30.242 48.72 6.208 97.62 11.204 146.71 13.513 82.04 3.852 182.69 7.49 259.15-28.621 98.6-46.584 152.38-156.76778 252.53-201.9683"/><path d="m37.2403 539.79c78.6647-23.673 165.5307 1.195 238.2137-44.835 65.253-41.342 103.492-113.344 165.889-158.084 65.221-46.823 159.772-52.061 236.865-57.16 78.249-5.176 155.013-.65 232.862 6.255 72.655 6.455 90.87-49.848 134.79-95.121 27.42-28.326 56.03-34.506 93.96-29.516 48.56 6.384 97.29 11.271 146.26 13.287 81.56 3.369 182.98 6.345 258.58-30.155 97.82-47.2191 153.75-154.12217 252.62-200.6666"/><path d="m33.967 529.686c78.905-23.834 165.787 1.46 238.731-44.745 65.172-41.279 103.936-112.769 166.451-157.292 65.337-46.442 159.801-50.978 236.76-56.019 77.882-5.121 154.428-.757 231.979 4.405 71.592 4.739 91.257-50.929 135.722-94.964 27.79-27.495 56.59-33.744 94.27-28.685 48.34 6.498 96.91 11.19 145.68 12.834 81.15 2.761 182.86 4.72 257.74-32.095 97.09-47.7191 155.18-151.1936 252.79-198.9089"/><path d="m30.7627 519.751c79.2223-23.964 166.0893 1.75 239.4283-44.591 65.139-41.148 104.435-112.139 167.144-156.251 65.434-46.036 159.633-49.867 236.543-54.961 77.447-5.112 153.688-.964 230.961 2.395 70.517 3.069 91.756-51.827 136.921-94.522 28.18-26.647 57.24-32.859 94.7-27.781 48.04 6.711 96.43 10.773 144.93 12.171 80.85 2.026 182.41 2.685 256.68-34.437 96.25-48.0259 156.59-148.0069 252.89-196.6551"/><path d="m27.6348 509.971c79.5712-24.077 166.5492 2.067 240.2822-44.366 65.116-40.977 105.013-111.379 167.94-155.084 65.561-45.531 159.515-48.842 236.258-53.977 76.999-5.18 152.93-1.343 229.794.23 69.465 1.433 92.387-52.602 138.351-93.895 28.65-25.739 57.97-31.834 95.22-26.771 47.75 6.655 95.86 10.422 144.09 11.283 80.6 1.185 181.58.129 255.35-37.124 95.45-48.2106 158.01-144.5621 253.06-194.0202"/><path d="m24.5787 500.41c79.9723-24.192 167.0723 2.376 241.2993-44.044 65.131-40.734 105.668-110.504 168.77-153.718 65.688-44.982 159.284-47.832 235.907-53.105 76.371-5.298 152.136-1.876 228.492-2.095 68.445-.187 93.17-53.234 140.013-93.066 29.15-24.792 58.78-30.7 95.88-25.618 47.4 6.549 95.19 9.972 143.06 10.248 80.41.19 180.46-2.761 253.8-40.1471 94.66-48.24 159.43-140.874 253.26-190.9579"/><path d="m21.5982 491.017c80.4248-24.269 167.7358 2.746 242.4518-43.712 65.172-40.404 106.382-109.479 169.724-152.168 65.825-44.353 159.009-46.861 235.399-52.289 75.795-5.379 151.288-2.527 227.083-4.534 67.44-1.796 94.074-53.779 141.854-92.076 29.71-23.764 59.65-29.46 96.6-24.485 47.05 6.396 94.51 9.404 142.01 9.003 80.33-.841 179.08-5.976 252.07-43.4481 93.85-48.2217 160.84-136.9753 253.46-187.5749"/><path d="m18.6867 481.816c80.9174-24.346 168.3693 3.15 243.7603-43.228 65.197-40.12 107.126-108.473 170.728-150.573 65.97-43.656 158.648-45.9 234.856-51.529 75.191-5.545 150.406-3.317 225.546-7.105 66.476-3.321 95.123-54.207 143.883-90.914 30.28-22.782 60.58-28.119 97.37-23.368 46.67 6.182 93.75 8.73 140.83 7.622 80.25-2.023 177.41-9.537 250.13-47.0521 93.1-47.9498 162.23-132.8505 253.68-183.8259"/><path d="m15.8725 472.846c81.4419-24.405 169.1195 3.542 245.0995-42.726 65.351-39.729 108-107.359 171.889-148.825 66.119-42.904 158.198-44.964 234.31-50.862 74.545-5.753 149.471-4.227 223.939-9.802 65.495-4.894 96.289-54.563 146.08-89.603 30.89-21.73 61.53-26.703 98.28-22.022 46.25 5.929 92.93 7.964 139.55 6.083 80.14-3.278 175.47-13.296 247.97-50.8688 92.3-47.7508 163.61-128.5541 253.91-179.8052"/><path d="m13.1343 464.13c81.9616-24.474 169.8777 3.917 246.6687-42.26 65.35-39.311 108.787-106.129 172.963-146.918 66.262-42.123 157.737-44.051 233.565-50.252 73.901-6 148.508-5.262 222.234-12.585 64.575-6.404 97.597-54.895 148.425-88.174 31.5-20.654 62.52-25.2471 99.24-20.685 45.82 5.638 92.07 7.119 138.19 4.426 80.2-4.684 173.4-17.4558 245.77-54.9417 91.56-47.38109 164.96-124.0832 254.16-175.5253"/><path d="m10.4704 455.566c82.5945-24.486 170.8006 4.344 248.2816-41.659 65.47-38.853 109.72-104.866 174.17-144.933 66.45-41.29 157.244-43.156 232.87-49.617 73.238-6.256 147.499-6.39 220.447-15.447 63.699-7.858 99.041-55.095 150.911-86.561 32.14-19.5463 63.56-23.645 100.26-19.3127 45.37 5.3087 91.16 6.1977 136.75 2.6557 80.21-6.1652 171.12-21.7576 243.39-59.2008 90.81-47.03573 166.28-119.4476 254.43-170.9962"/><path d="m7.88963 447.268c83.22287-24.51 171.70637 4.761 250.00237-41.054 65.545-38.364 110.582-103.523 175.391-142.854 66.605-40.431 156.693-42.269 232.076-49.072 72.588-6.556 146.446-7.611 218.579-18.386 62.851-9.388 100.586-55.272 153.482-84.992 32.78-18.4102 64.59-21.9988 101.35-17.8429 44.91 4.9447 90.23 5.2009 135.24.7644 80.18-7.7391 168.65-26.262 240.89-63.62 90.11-46.5821 167.59-114.6815 254.73-166.2985"/><path d="m5.40376 439.234c83.84284-24.517 172.66524 5.173 251.73524-40.413 65.701-37.876 111.557-102.163 176.696-140.724 66.777-39.522 156.123-41.401 231.319-48.579 71.952-6.861 145.366-8.917 216.687-21.395 62.073-10.87 102.245-55.391 156.189-83.26 33.42-17.2804 65.63-20.3226 102.44-16.4333 44.45 4.5741 89.29 4.1861 133.71-1.1569 80.17-9.4176 166.04-30.9319 238.26-68.1716 89.32-46.0835 168.82-109.7692 254.97-161.3922"/><path d="m3.00873 431.454c84.49127-24.52 173.63227 5.528 253.55627-39.747 65.855-37.361 112.53-100.778 178.011-138.531 66.964-38.567 155.537-40.545 230.502-48.109 71.331-7.196 144.257-10.306 214.698-24.448 61.359-12.319 103.967-55.437 158.914-81.4456 34.03-16.1144 66.69-18.5947 103.55-14.9347 43.98 4.1696 88.32 3.103 132.11-3.1777 80.12-11.1716 163.34-35.7263 235.58-72.85622 88.71-45.57748 170.05-104.75728 255.28-156.36978"/><path d="m.707715 423.945c85.150985-24.526 174.670285 5.978 255.408285-39.065 65.994-36.839 113.536-99.359 179.38-136.243 67.114-37.639 154.912-39.674 229.711-47.672 70.734-7.5 143.114-11.751 212.691-27.546 60.747-13.784 105.753-55.446 161.772-79.6082 34.69-14.9618 67.69-16.8071 104.79-13.4505 43.51 3.7553 87.35 1.9946 130.48-5.2407 181.46-29.4589 334.31-134.5939 488.42-228.8496"/><path d="m-1.51553 416.824c85.83503-24.517 175.71353 6.38 257.31653-38.38 66.161-36.295 114.565-97.92 180.742-134.043 67.268-36.722 154.288-38.838 228.786-47.239 70.186-7.873 141.979-13.236 210.659-30.714 60.236-15.284 107.593-55.364 164.662-77.745 35.3-13.8104 68.78-15.0178 105.99-11.9339 43 3.6669 86.39.6198 128.86-7.2969 175.51-32.7084 335.92-135.9643 485.94-228.5172"/><path d="m-3.65132 409.932c86.51732-24.506 176.76432 6.774 259.23532-37.684 66.324-35.801 115.592-96.472 182.121-131.769 67.432-35.766 153.652-37.984 227.906-46.86 69.648-8.291 140.809-14.776 208.63-33.81 59.853-16.798 109.414-55.325 167.579-75.843 35.89-12.6587 69.8-13.2207 107.21-10.3977 42.57 3.2062 85.39-.6451 127.18-9.4732 79.6-16.8225 154.81-50.7004 227.21-87.351 86.87-43.9797 173.45-89.2931 256.21-140.8491"/><path d="m-5.68141 403.401c86.44501-24.324 176.62041 7.071 259.42141-36.052 66.387-34.624 116.28-93.763 182.262-128.835 66.698-35.45 151.016-38.119 224.477-47.326 70.998-8.949 143.381-16.609 212.15-37.686 61.05-18.707 113.913-57.1324 174.991-75.304 36.87-10.9663 71.16-9.2355 108.92-7.2004 39.21 2.1142 78.44-2.3223 116.71-11.0669 81.46-18.6146 155.82-56.70012 230.1-94.025 85.74-43.0791 173.26-83.4877 254.7-134.6467"/><path d="m-7.63786 397.196c87.09356-24.305 177.70986 7.442 261.32486-35.356 66.572-34.076 117.29-92.356 183.655-126.608 66.857-34.444 150.452-37.238 223.662-46.864 70.539-9.256 142.28-17.992 210.072-40.829 60.849-20.499 115.822-56.8874 178.034-73.2852 37.28-9.8394 72.06-7.5099 109.97-5.8444 38.83 1.7006 77.53-3.4859 115.18-13.0644 81.07-20.6313 152.84-61.9968 227.21-98.9978 85.29-42.4374 174.28-78.2562 255-129.4562"/><path d="m-9.47563 391.327c87.80393-24.308 178.71163 7.832 263.23463-34.689 66.753-33.584 118.298-90.969 185.031-124.41 66.968-33.588 149.908-36.341 222.933-46.393 70.013-9.609 141.084-19.505 207.931-44.006 60.751-22.27 117.696-56.6325 181.036-71.2873 37.71-8.7138 72.95-5.7939 110.99-4.4852 38.37 1.3203 76.63-4.6405 113.62-15.0446 80.64-22.6556 149.93-67.2563 224.36-103.9439 84.86-41.8314 175.22-73 255.34-124.282"/><path d="m-11.2276 385.788c88.4501-24.344 179.8156 8.161 265.1306-34.032 66.919-33.102 119.271-89.656 186.399-122.243 67.128-32.588 149.354-35.441 222.044-45.882 69.703-10.007 140.064-20.983 205.951-47.155 60.734-24.123 119.53-56.3802 184.003-69.3181 38.13-7.6587 73.83-4.0914 112.09-3.1843s75.76-5.7904 112.1-16.9955c79.99-24.6341 147.09-72.4746 221.53-108.83 84.47-41.2561 176.26-67.8121 255.69-119.2011"/><path d="m-12.8946 380.561c89.125-24.295 180.8566 8.458 266.9876-33.377 67.106-32.642 120.268-88.274 187.741-120.128 67.192-31.719 148.903-34.564 221.328-45.391 69.361-10.38 138.959-22.431 203.935-50.249 60.783-26.026 121.304-56.1517 186.933-67.4232 38.36-6.5796 74.66-2.4021 113.07-1.8593 37.7.5237 74.95-6.9318 110.61-18.8971 79.33-26.6005 144.35-77.5875 218.76-113.6289 84.17-40.7645 177.23-62.6745 256-114.2275"/><path d="m-14.5061 375.676c89.7671-24.322 181.8751 8.835 268.7981-32.777 67.299-32.177 121.227-87.047 189.074-118.049 67.396-30.85 148.307-33.615 220.604-44.875 69.074-10.8 137.964-23.892 201.98-53.318 60.887-27.9779 123.025-55.9424 189.82-65.5948 38.67-5.6083 75.48-.7742 114.06-.5993 37.4.1608 74.08-8.0124 109.12-20.7363 78.57-28.5065 141.72-82.5902 216.1-118.3623 83.77-40.2783 178.1-57.5433 256.32-109.4143"/><path d="m-16.0642 371.096c90.381-24.33 182.8782 9.145 270.5632-32.191 67.464-31.819 122.233-85.805 190.35-116.13 67.502-30.05 147.808-32.65 219.926-44.342 68.815-11.19 137.006-25.313 200.088-56.322 61.019-29.9891 124.741-55.8281 192.557-63.8546 38.96-4.6174 76.28.8633 115.09.6911 37.04-.2342 73.3-9.0706 107.77-22.5404 77.74-30.35558 139.21-87.4554 213.53-122.9846 83.44-39.8935 179-52.5405 256.65-104.7405"/><path d="m-17.5337 366.844c90.93-24.329 183.8367 9.484 272.2527-31.633 67.629-31.461 123.085-84.619 191.605-114.272 67.634-29.258 147.394-31.714 219.278-43.763 68.628-11.483 136.099-26.699 198.247-59.253 61.18-32.0376 126.264-55.7291 195.201-62.2147 39.19-3.6747 77.06 2.4408 116.01 1.9214 36.77-.4948 72.57-10.0887 106.4-24.2357 76.86-32.13232 136.84-92.108 211.06-127.4761 83.21-39.6069 179.88-47.6239 256.98-100.2769"/><path d="m-18.8794 362.947c91.5404-24.39 184.7744 9.762 273.8414-31.135 67.814-31.123 123.978-83.515 192.813-112.478 67.764-28.507 146.967-30.774 218.681-43.149 68.458-11.808 135.246-28.049 196.497-62.12 61.251-34.0707 127.741-55.6827 197.727-60.6712 39.38-2.8009 77.75 3.7495 116.88 3.1158 36.4-.5714 71.95-11.0793 105.1-25.8833 75.98-33.76328 134.61-96.515 208.71-131.7183 82.88-39.368 180.77-42.827 257.29-96.022"/><path d="m-20.074 359.318c92.0737-24.439 185.6 10.065 275.345-30.649 67.91-30.77 124.765-82.403 193.91-110.729 67.831-27.788 146.599-29.824 218.143-42.484 68.316-12.13 134.453-29.34 194.807-64.888 61.493-36.204 129.096-55.7593 200.089-59.2617 39.57-1.9797 78.44 5.141 117.73 4.2783 36.17-.7955 71.3-11.9804 103.89-27.3318 35.55-16.7596 68.35-38.7608 100.25-61.6559 34.43-24.6869 67.94-55.9398 106.27-74.1399 82.6-39.233 181.64-38.175 257.58-92.008"/><path d="m-21.1814 356.176c92.5498-24.495 186.3384 10.355 276.7304-30.233 68.051-30.566 125.529-81.524 194.984-109.212 67.929-27.133 146.232-28.862 217.634-41.761 68.248-12.354 133.778-30.561 193.25-67.537 61.61-38.3097 130.347-55.9087 202.343-57.9773 39.68-1.1168 79.01 6.4639 118.43 5.3803 35.97-.9953 70.72-12.7921 102.75-28.7113 35.24-17.48781 67.55-40.2841 99.02-63.8151 33.9-25.3477 67.17-57.5625 105.48-75.8006 82.33-39.178 182.52-33.67 257.85-88.278"/><path d="m-22.1897 353.324c93.0014-24.543 187.1057 10.609 277.9937-29.856 68.176-30.369 126.255-80.591 195.956-107.755 68.028-26.518 145.943-27.828 217.215-40.972 68.187-12.594 133.166-31.709 191.761-70.101 61.784-40.4077 131.476-56.1388 204.444-56.8299 39.77-.3843 79.54 7.6935 119.1 6.4257 35.76-1.1585 70.11-13.5018 101.71-29.9443 34.91-18.1754 66.78-41.7261 97.86-65.8401 33.43-25.9433 66.47-59.0184 104.76-77.3344 82-39.23 183.4-29.342 258.15-84.816"/><path d="m-23.0691 350.848c93.384-24.677 187.7511 10.862 279.1141-29.54 68.324-30.222 126.998-79.811 196.952-106.466 68.131-25.973 145.718-26.803 216.857-40.121 68.157-12.777 132.651-32.767 190.388-72.474 61.863-42.5419 132.333-56.4934 206.238-55.9167 39.87.3322 80.02 8.8418 119.7 7.4265 35.6-1.2809 69.65-14.126 100.75-31.0179 34.65-18.82626 66.09-43.0535 96.81-67.7093 33.02-26.5183 65.86-60.2856 104.16-78.7336 81.77-39.402 184.33-25.228 258.37-81.672"/><path d="m-23.8306 348.715c93.7418-24.801 188.3096 11.104 280.0876-29.296 68.384-30.098 127.598-79.09 197.757-105.342 68.218-25.475 145.477-25.743 216.574-39.199 68.161-12.902 132.258-33.703 189.169-74.707 61.962-44.6565 133.019-56.9537 207.873-55.1168 39.92.9876 80.41 9.8881 120.2 8.354 35.47-1.3584 69.2-14.6152 99.91-31.9238 34.41-19.41568 65.47-44.2581 95.87-69.4104 32.66-27.0316 65.3-61.322 103.67-79.947 81.48-39.681 185.29-21.328 258.59-78.927"/><path d="m-24.4604 346.969c93.2939-24.654 187.6204 11.343 279.0454-28.291 72.248-31.311 134.822-83.764 209.976-108.475 64.251-21.129 135.496-21.643 201.788-33.889 70.432-13.015 134.726-35.003 193.084-77.6897 64.73-47.2766 136.352-58.0618 214.897-54.3016 35.2 1.6766 70.38 8.2961 105.57 9.1209 37.23.8703 73.37-12.6312 105.41-30.8961 36.36-20.71753 68.8-47.7508 100.62-74.8443 32.05-27.3643 64.45-61.5922 102.67-79.9382 80.83-38.735 185.11-17.302 256.94-75.672"/><path d="m-24.9578 345.576c93.5257-24.825 187.9848 11.589 279.6668-28.146 72.272-31.334 135.397-83.241 210.642-107.6 64.306-20.805 135.416-20.615 201.677-32.834 70.491-13.005 134.551-35.678 192.154-79.613 64.831-49.469 136.564-58.7206 216.118-53.8101 35.2 2.1704 70.52 8.9116 105.79 9.7221 37.17.9096 73.08-12.7845 104.79-31.3658 36.18-21.189985 68.28-48.8033 99.86-76.256 31.89-27.7195 64.19-62.1812 102.43-80.8072 80.53-39.138 186.16-13.909 257.13-73.644"/><path d="m-25.3108 344.6c93.679-24.989 188.1998 11.82 280.1128-28.134 72.261-31.415 135.74-82.794 211.181-106.895 64.36-20.566 135.395-19.572 201.658-31.711 70.57-12.896 134.532-36.207 191.287-81.3348 64.922-51.6066 136.49-59.548 217.032-53.6343 35.26 2.5765 70.71 9.4662 106.05 10.4039 37.16.9796 72.72-12.7199 104.3-31.6272 72.97-43.7103 125.77-121.3003 201.57-158.9286 80.16-39.794 187.23-10.941 257.25-72.163"/><path d="m-25.54 343.971c93.7867-25.163 188.405 12.027 280.365-28.164 72.222-31.582 136.119-82.52 211.59-106.413 64.436-20.376 135.449-18.501 201.741-30.473 70.643-12.758 134.678-36.599 190.654-82.8728 64.955-53.7088 136.056-60.5519 217.67-53.66 35.09 2.9335 70.82 10.4504 106.09 10.9091 37.46.4713 72.11-12.2854 103.96-31.6497 72.91-44.349 125.3-121.8636 201.13-160.3756 79.79-40.559 188.41-8.256 257.3-71.096"/><path d="m-25.6191 343.68c93.8269-25.366 188.4311 12.234 280.3861-28.294 72.149-31.801 136.287-82.325 211.94-106.156 64.472-20.305 135.561-17.365 201.913-29.111 70.718-12.524 134.985-36.811 190.176-84.1938 64.916-55.7654 135.27-61.7424 217.954-53.9028 75.53 7.1434 140.78 22.2684 209.78-20.1329 72.98-44.8457 125.19-121.7886 200.99-161.3255 79.4-41.42 189.58-5.924 257.49-70.502"/></g></g></svg>