<svg fill="none" height="410" viewBox="0 0 463 410" width="463" xmlns="http://www.w3.org/2000/svg"><path d="m213.043 397.738 15.2 15.374s.201 12.361-4.338 14.838c3.793 8.929 11.086 14.125 13.716 19.387 1.863 3.717-12.785 6.429-16.059 3.641-4.811-4.097-21.025-4.231-25.135-7.608-11.372-9.338-7.448-43.705-7.448-43.705z" fill="#ffe3ca"/><path d="m225.236 154.67c16.598-18.862 32.065-2.829 37.724 7.545l-52.814 248.033h-22.633c-5.659-35.837 16.975-232 37.723-255.578z" fill="#ff7425"/><path d="m387.563 30.571s16.871 25.2688 14.798 34.2874c-2.074 9.0182-9.763 9.554-9.763 9.554s11.91 15.1476-2.583 20.5851c-14.494 5.4375-21.873 2.0324-21.873 2.0324s-37.227-54.8016-19.101-66.6776c18.126-11.8759 22.534-23.05023 38.522.2187z" fill="#322b22"/><path d="m288.981 68.5607c0 3.9044-6.432 25.0674-6.017 28.7454-.019.0189 0 .0189 0 .0378 3.055 25.7841 16.711 45.1551 40.854 45.1551 27.614 0 58.472-25.331 58.472-56.5854 0-11.732-1.415-21.0498-3.885-28.4059-9.488-28.1796-34.593-28.1796-56.473-28.1796-27.614 0-32.951 7.9786-32.951 39.2326z" fill="#ffe3ca"/><path d="m339.857 145.083s66.035-3.113 73.485 11.788c7.451 14.901-29.481 267.725-42.609 282.626-38.27 1.867-142.746-12.505-164.173-33.932 4.659-35.385 37.252-248.694 48.437-254.277s84.86-6.205 84.86-6.205z" fill="#fd5c00"/><path d="m282.971 97.2993c3.055 25.7837 16.711 45.1557 40.854 45.1557 27.614 0 59.113-25.332 59.113-56.586 0-11.7321-2.441-27.5862-4.912-34.9423l-3.47-3.1876-.528-1.8485s-1.313 44.6561-3.086 51.767c-1.792 7.0924-36.233 9.9784-40.439 16.5604-3.414-8.676-8.601-14.7308-23.125-15.2589-8.356-.3018-15.618 8.1109-16.674 10.9969-2.037.547-4.753-6.47-7.733-12.6567z" fill="#322b22"/><path d="m355.37 30.3679s-73.046 49.2036-71.643 12.3277c1.403-36.87429 24.68-28.6677 24.68-28.6677s-16.784-3.3617-9.955-11.45372c6.83-8.09251 19.05 6.16541 53.125-1.28882 25.558-5.58953 38.255 22.58364 37.741 44.09584-.171 7.1709-3.495 22.7453-4.93 17.795-1.816-6.2646-3.011-10.5451-8.009-12.2492-.976-.333-2.916 9.4031-3.951 8.9668-9.277-3.9104-20.089-12.2367-17.058-29.5259z" fill="#322b22"/><path d="m303.798 165.528 3.789-21.285s-6.85-10.291-11.992-9.755c-1.945-9.504 1.111-17.921.289-23.746-.575-4.118-14.175 1.963-15.288 6.117-1.635 6.103-14.909 15.415-16.377 20.528-4.063 14.143 18.672 40.211 18.672 40.211z" fill="#ffe3ca"/><path d="m371.125 186.182c8.067-29.321 25.319-43.788 43.337-30.78 14.217 10.279-22.129 100.869-66.018 157.493-11.679 15.068-28.046 26.753-49.984 21.691-61.3-14.146-26.406-171.643-26.406-171.643h33.952s-9.865 68.76-10.039 103.006c-.03 5.937 6.254 20.05 14.147 20.748 8.963.794 19.728-12.413 20.748-15.089 7.544-19.805 40.263-85.426 40.263-85.426z" fill="#ff7425"/><path d="m82.1707 214.362-12.2887-45.862c15.6785-4.844 26.8117-10.611 33.399-17.303 6.735-6.945 8.603-16.012 5.605-27.203l-1.125-4.197c-2.034-7.593-5.893-12.771-11.5753-15.532-5.4818-2.815-11.8316-3.255-19.0495-1.321-7.8193 2.095-13.6929 6.239-17.6207 12.432-3.7273 6.139-5.5026 13.147-5.3259 21.025l-40.7869-5.456c.1981-6.479 1.2517-12.972 3.1609-19.481 1.8556-6.709 4.9011-12.9863 9.1365-18.8332 4.3823-6.1004 10.0081-11.5702 16.8773-16.4093 7.0697-4.8929 15.7172-8.7093 25.9424-11.4491 10.4258-2.7936 20.351-3.8467 29.7755-3.1592 9.4247.6874 17.9677 2.8962 25.6287 6.6263 7.661 3.7302 14.113 8.9623 19.355 15.6965 5.443 6.6804 9.397 14.6168 11.86 23.809 2.249 8.393 2.88 16.363 1.893 23.909-.986 7.547-3.189 14.563-6.609 21.048-3.473 6.285-7.989 11.886-13.548 16.802-5.559 4.917-11.687 8.915-18.383 11.994l5.783 21.582zm41.3313 67.637c-9.624 2.579-17.13 2.234-22.518-1.034-5.188-3.322-8.6387-8.18-10.3522-14.575l-1.9276-7.194c-1.7135-6.395-1.1543-12.328 1.6777-17.798 3.0324-5.525 9.3605-9.577 18.9841-12.155 9.624-2.579 17.03-2.207 22.218 1.115 5.388 3.268 8.939 8.099 10.653 14.494l1.927 7.194c1.714 6.395 1.054 12.354-1.978 17.879-2.832 5.471-9.06 9.495-18.684 12.074z" fill="#3f8ae0"/></svg>