<svg fill="none" height="46" viewBox="0 0 60 46" width="60" xmlns="http://www.w3.org/2000/svg" xmlns:xlink="http://www.w3.org/1999/xlink"><clipPath id="a"><path d="m0 0h60v46h-60z"/></clipPath><clipPath id="b"><path d="m0 0h60v37.3246h-60z"/></clipPath><g clip-path="url(#a)"><g clip-path="url(#b)"><path d="m38.1136 3.99219h-16.222v29.32771h16.222z" fill="#ff5f00"/><path d="m22.9211 18.658c0-5.6998 2.6264-11.14041 7.0553-14.66388-8.0338-6.37333-19.6724-4.974305-26.00673 3.16076-6.33431 8.08322-4.943854 19.79362 3.1414 26.16692 6.74633 5.337 16.17053 5.337 22.91683 0-4.4804-3.5235-7.1068-8.9641-7.1068-14.6638z" fill="#eb001b"/><g fill="#f79e1b"><path d="m60.0004 18.658c0 10.3113-8.2912 18.6536-18.5394 18.6536-4.1714 0-8.1883-1.399-11.4327-3.9898 8.0338-6.3733 9.4242-18.0837 3.0899-26.21874-.9269-1.13994-1.9569-2.22807-3.0899-3.10894 8.0338-6.37333 19.7239-4.974305 26.0068 3.16076 2.5749 3.26442 3.9653 7.30602 3.9653 11.50312z"/><path d="m58.2492 30.2098v-.6218h.2575v-.1036h-.618v.1036h.2575v.6218zm1.1845 0v-.7254h-.206l-.206.5181-.206-.5181h-.206v.7254h.1545v-.57l.206.4664h.1545l.206-.4664v.57z"/></g></g><path d="m8.42855 45.8186v-3.3503c0-1.265-.80163-2.1084-2.09187-2.1237-.67947-.0077-1.38185.1993-1.87046.9507-.36646-.5904-.94669-.9507-1.75595-.9507-.56496 0-1.12228.1687-1.55745.7897v-.6517h-1.15282v5.336h1.16809v-2.9593c0-.9277.51151-1.4184 1.29787-1.4184.76346 0 1.15282.506 1.15282 1.4107v2.967h1.16809v-2.9593c0-.9277.53442-1.4184 1.29787-1.4184.78636 0 1.16809.506 1.16809 1.4107v2.967zm17.28465-5.336h-1.8934v-1.6253h-1.1681v1.6253h-1.0764v1.058h1.0764v2.438c0 1.242.481 1.978 1.8476 1.978.5039 0 1.0765-.1533 1.4429-.414l-.3359-.9967c-.3435.1994-.7253.299-1.023.299-.5802 0-.7635-.3603-.7635-.897v-2.4073h1.8934zm9.8562-.138c-.6642 0-1.0994.3143-1.4047.782v-.644h-1.1452v5.336h1.1528v-2.99c0-.8817.3817-1.3723 1.1375-1.3723.2367 0 .481.0306.7253.1303l.3588-1.0963c-.2519-.0997-.5878-.1457-.8245-.1457zm-14.9103.5597c-.5573-.368-1.3208-.5597-2.1682-.5597-1.3437 0-2.214.644-2.214 1.7097 0 .874.6413 1.4106 1.8323 1.5716l.542.0767c.6337.092.9314.253.9314.5597 0 .414-.4199.644-1.2139.644-.8016 0-1.3818-.2607-1.7712-.5597l-.542.9047c.6336.4676 1.4353.69 2.3056.69 1.5346 0 2.4278-.7284 2.4278-1.7404 0-.9353-.7024-1.426-1.8552-1.5946l-.542-.0767c-.5039-.069-.9009-.1687-.9009-.5213 0-.391.3817-.6287 1.0154-.6287.6794 0 1.336.2607 1.6567.46zm30.9811-.5597c-.6643 0-1.0994.3143-1.4048.782v-.644h-1.1452v5.336h1.1528v-2.99c0-.8817.3818-1.3723 1.1376-1.3723.2367 0 .481.0306.7253.1303l.3588-1.0963c-.2596-.0997-.5879-.1457-.8245-.1457zm-14.9027 2.806c0 1.6177 1.1223 2.806 2.8324 2.806.8016 0 1.3361-.1763 1.9163-.6363l-.5573-.9354c-.4352.3144-.8933.483-1.3895.483-.9238-.0076-1.6033-.6823-1.6033-1.7096 0-1.0274.6795-1.6944 1.6033-1.7097.5039 0 .9543.1687 1.3895.483l.5573-.9353c-.5802-.46-1.1147-.6364-1.9163-.6364-1.7025-.0153-2.8324 1.173-2.8324 2.7907zm10.8334 0v-2.668h-1.1528v.644c-.3664-.483-.9238-.782-1.6796-.782-1.4887 0-2.6568 1.173-2.6568 2.806s1.1681 2.806 2.6568 2.806c.7558 0 1.3132-.299 1.6796-.782v.644h1.1528zm-4.3059 0c0-.9353.6108-1.7097 1.6109-1.7097.9544 0 1.6033.736 1.6033 1.7097s-.6413 1.7097-1.6033 1.7097c-1.0001 0-1.6109-.7744-1.6109-1.7097zm-13.9559-2.806c-1.5575 0-2.6492 1.1423-2.6492 2.806 0 1.6943 1.1375 2.806 2.7255 2.806.8016 0 1.5346-.1993 2.1759-.7513l-.565-.8587c-.4428.3603-1.0154.5597-1.5422.5597-.7482 0-1.42-.345-1.588-1.3034h3.9471c.0076-.1456.0229-.2913.0229-.4446-.0076-1.6714-1.0307-2.8137-2.527-2.8137zm-.0153 1.0427c.7482 0 1.2215.4676 1.3437 1.2956h-2.7561c.1222-.7743.5879-1.2956 1.4124-1.2956zm29.0113 1.7633v-4.8147h-1.1528v2.7907c-.3664-.483-.9238-.782-1.6796-.782-1.4887 0-2.6568 1.173-2.6568 2.806s1.1681 2.806 2.6568 2.806c.7558 0 1.3132-.299 1.6796-.782v.644h1.1528zm1.3513 2.1773c.0459 0 .0917.0077.1298.023.0382.0154.0764.0384.1069.069.0306.0307.0535.069.0764.1074.0152.0383.0305.0843.0305.1303s-.0076.092-.0305.1303c-.0153.0384-.0458.0767-.0764.1074-.0305.0306-.0687.0536-.1069.0766-.0381.0154-.0839.0307-.1298.0307-.0458 0-.0916-.0077-.1374-.0307-.0458-.0153-.0763-.046-.1069-.0766-.0305-.0307-.0534-.069-.0763-.1074-.0153-.0383-.0306-.0843-.0306-.1303s.0077-.092.0306-.1303c.0153-.0384.0458-.0767.0763-.1074.0306-.0306.0687-.0536.1069-.069.0382-.0153.084-.023.1374-.023zm0 .598c.0382 0 .0688-.0076.0993-.023.0305-.0153.0611-.0306.084-.0536s.0458-.0537.0534-.0844c.0153-.0306.0229-.069.0229-.0996 0-.0384-.0076-.069-.0229-.0997s-.0305-.0613-.0534-.0843-.0535-.046-.084-.0537c-.0305-.0153-.0687-.023-.0993-.023-.0381 0-.0687.0077-.1068.023-.0306.0153-.0611.0307-.084.0537s-.0458.0536-.0535.0843c-.0152.0307-.0229.069-.0229.0997 0 .0383.0077.069.0229.0996.0153.0307.0306.0614.0535.0844s.0534.046.084.0536c.0305.0154.0687.023.1068.023zm.0153-.4216c.0382 0 .0687.0076.0916.0306.0229.0154.0306.046.0306.0767 0 .023-.0077.046-.0229.0613-.0153.0154-.0458.0307-.0764.0307l.0993.115h-.084l-.0916-.115h-.0306v.115h-.0687v-.3143zm-.0763.0613v.0843h.0763c.0153 0 .0305 0 .0458-.0076.0077-.0077.0153-.0154.0153-.0307s-.0076-.023-.0153-.0307c-.0076-.0076-.0229-.0076-.0458-.0076h-.0763zm-5.5962-2.415c0-.9353.6108-1.7097 1.6109-1.7097.9543 0 1.6033.736 1.6033 1.7097s-.6413 1.7097-1.6033 1.7097c-1.0001 0-1.6109-.7744-1.6109-1.7097zm-39.0507 0v-2.668h-1.1529v.644c-.3664-.483-.9237-.782-1.6796-.782-1.4887 0-2.65678 1.173-2.65678 2.806s1.16808 2.806 2.65678 2.806c.7559 0 1.3132-.299 1.6796-.782v.644h1.1529zm-4.3059 0c0-.9353.6107-1.7097 1.6109-1.7097.9543 0 1.6032.736 1.6032 1.7097s-.6413 1.7097-1.6032 1.7097c-1.0002 0-1.6109-.7744-1.6109-1.7097z" fill="#141414"/></g></svg>