<svg fill="none" height="30" viewBox="0 0 90 30" width="90" xmlns="http://www.w3.org/2000/svg" xmlns:xlink="http://www.w3.org/1999/xlink"><clipPath id="a"><path d="m0 .5h90v29h-90z"/></clipPath><g clip-path="url(#a)"><path d="m58.639.5c-6.382 0-12.1121 3.30941-12.1121 9.38235 0 6.99415 10.122 7.47175 10.122 10.95175 0 1.4671-1.7156 2.7977-4.5978 2.7977-4.1174 0-7.2055-1.8424-7.2055-1.8424l-1.3039 6.1412s3.5342 1.5694 8.2692 1.5694c6.9996 0 12.4895-3.4459 12.4895-9.6553 0-7.3694-10.1563-7.8471-10.1563-11.08823 0-1.16 1.4068-2.42235 4.289-2.42235 3.2596 0 5.9359 1.33059 5.9359 1.33059l1.3039-5.93647c-.0343 0-2.9508-1.22824-7.0339-1.22824zm-58.467441.443529-.171559.887061s2.67632.47765 5.11247 1.46706c3.12238 1.12588 3.32825 1.77411 3.87724 3.78706l5.73009 21.93769h7.6858l11.769-28.078871h-7.6515l-7.583 19.105871-3.088-16.20587c-.2745-1.84235-1.7156-2.900001-3.4998-2.900001zm37.091141 0-6.0046 28.078871h7.3084l5.9703-28.078871zm40.6938 0c-1.7499 0-2.6763.921181-3.3625 2.558821l-10.7053 25.52005h7.6515l1.4754-4.2648h9.3329l.8921 4.2648h6.7594l-5.8673-28.078871zm.9951 7.608241 2.2646 10.54233h-6.0732z" fill="#1434cb"/></g></svg>