<svg fill="none" height="46" viewBox="0 0 60 46" width="60" xmlns="http://www.w3.org/2000/svg" xmlns:xlink="http://www.w3.org/1999/xlink"><linearGradient id="a"><stop offset="0" stop-color="#007940"/><stop offset=".2285" stop-color="#00873f"/><stop offset=".7433" stop-color="#40a737"/><stop offset="1" stop-color="#5cb531"/></linearGradient><linearGradient id="b" gradientUnits="userSpaceOnUse" x1="40.1579" x2="56.5287" xlink:href="#a" y1="25.5462" y2="25.5462"/><linearGradient id="c" gradientUnits="userSpaceOnUse" x1="40.1578" x2="56.5299" xlink:href="#a" y1="23.0085" y2="23.0085"/><linearGradient id="d" gradientUnits="userSpaceOnUse" x1="40.1575" x2="56.5289" xlink:href="#a" y1="20.252" y2="20.252"/><linearGradient id="e" gradientUnits="userSpaceOnUse" x1="3.50723" x2="20.1315" y1="23.0085" y2="23.0085"><stop offset="0" stop-color="#1f286f"/><stop offset=".4751" stop-color="#004e94"/><stop offset=".8261" stop-color="#0066b1"/><stop offset="1" stop-color="#006fbc"/></linearGradient><linearGradient id="f" gradientUnits="userSpaceOnUse" x1="21.7456" x2="37.8917" y1="23.0085" y2="23.0085"><stop offset="0" stop-color="#6c2c2f"/><stop offset=".1735" stop-color="#882730"/><stop offset=".5731" stop-color="#be1833"/><stop offset=".8585" stop-color="#dc0436"/><stop offset="1" stop-color="#e60039"/></linearGradient><clipPath id="g"><path d="m0 0h60v46h-60z"/></clipPath><g clip-path="url(#g)"><path d="m59.8002 36.6128c0 5.067-4.1531 9.1929-9.2533 9.1929h-50.346705v-36.40967c0-5.06696 4.153055-9.192905 9.253305-9.192905h50.3467z" fill="#fff"/><path d="m43.4062 27.2792h3.8252c.1093 0 .3643-.0362.4736-.0362.7286-.1448 1.3479-.7963 1.3479-1.7011 0-.8686-.6193-1.5201-1.3479-1.701-.1093-.0362-.3278-.0362-.4736-.0362h-3.8252z" fill="url(#b)"/><path d="m46.7947 3.28125c-3.6431 0-6.6303 2.9316-6.6303 6.58704v6.84041h9.3626c.2185 0 .4735 0 .6557.0362 2.113.1086 3.6795 1.1943 3.6795 3.0763 0 1.4839-1.0565 2.7507-3.0238 3.004v.0724c2.1494.1448 3.7888 1.3391 3.7888 3.185 0 1.9905-1.8215 3.2935-4.2259 3.2935h-10.2734v13.3912h9.7269c3.6431 0 6.6303-2.9316 6.6303-6.587v-32.89905z" fill="url(#c)"/><path d="m48.5794 20.2565c0-.8686-.6194-1.4477-1.348-1.5562-.0728 0-.255-.0362-.3643-.0362h-3.4609v3.1849h3.4609c.1093 0 .3279 0 .3643-.0362.7286-.1086 1.348-.6876 1.348-1.5563z" fill="url(#d)"/><path d="m10.1453 3.28125c-3.64307 0-6.63035 2.9316-6.63035 6.58704v16.25041c1.85794.9049 3.78875 1.4839 5.71956 1.4839 2.29509 0 3.53369-1.3753 3.53369-3.2573v-7.6728h5.6832v7.6366c0 2.9678-1.858 5.3927-8.1604 5.3927-3.8252 0-6.81248-.8324-6.81248-.8324v13.8617h9.72688c3.643 0 6.6303-2.9316 6.6303-6.587v-32.86285z" fill="url(#e)"/><path d="m28.4702 3.28125c-3.6431 0-6.6304 2.9316-6.6304 6.58704v8.61381c1.6758-1.4115 4.5903-2.3163 9.2898-2.0991 2.5137.1085 5.2095.7962 5.2095.7962v2.7868c-1.3479-.6876-2.9508-1.3029-5.0274-1.4477-3.5701-.2533-5.7195 1.4839-5.7195 4.5241 0 3.0763 2.1494 4.8136 5.7195 4.5241 2.0766-.1448 3.6795-.7963 5.0274-1.4478v2.7869s-2.6594.6876-5.2095.7962c-4.6995.2172-7.614-.6876-9.2898-2.0992v15.2009h9.7269c3.6431 0 6.6304-2.9316 6.6304-6.587v-32.93525z" fill="url(#f)"/></g></svg>