<svg fill="none" height="36" viewBox="0 0 120 36" width="120" xmlns="http://www.w3.org/2000/svg" xmlns:xlink="http://www.w3.org/1999/xlink"><linearGradient id="a" gradientUnits="userSpaceOnUse" x1="3164.22" x2="84.0986" y1="752.519" y2="752.519"><stop offset="0" stop-color="#1f5cd7"/><stop offset="1" stop-color="#02aeff"/></linearGradient><g clip-rule="evenodd" fill-rule="evenodd"><path d="m19.065 3.90335c.9434-.00564 3.7472-.25817 4.9348 3.75008.8 2.69997 2.0744 7.12277 3.8231 13.26817h.7121c1.8754-6.479 3.1636-10.9017 3.8648-13.26817 1.2-4.05 4.2-3.75 5.4-3.75l9.2583.00001v28.79996h-9.4363v-16.9723h-.6328l-5.2602 16.9723h-7.0997l-5.2602-16.9849h-.6328v16.9849h-9.4363v-28.79996zm41.5434.00009v16.98496h.7528l6.3986-13.96662c1.2421-2.77938 3.8894-3.01834 3.8894-3.01834h9.1315v28.79996h-9.6333v-16.9849h-.7528l-6.2732 13.9666c-1.2421 2.7668-4.0148 3.0183-4.0148 3.0183h-9.1315v-28.79996zm53.4696 13.68596c-1.344 3.8079-5.564 6.535-10.236 6.535h-10.1022v8.579h-9.1608v-15.114z" fill="#0f754e"/><path d="m104.284 3.90625h-20.1854c.4804 6.41185 6.0022 11.90085 11.7183 11.90085h18.8981c1.09-5.329-2.664-11.90085-10.431-11.90085z" fill="url(#a)"/></g></svg>